<svg xmlns="http://www.w3.org/2000/svg" xmlns:xlink="http://www.w3.org/1999/xlink" xmlns:lucid="lucid" width="1947.5" height="171.6"><g transform="translate(-3540 -527.8842105263161)" lucid:page-tab-id="0_0"><path d="M1806.4 0h3676.8v1323.2H1806.4z" fill="#fff"/><path d="M4510 554.9c27.6 0 50 22.4 50 50 0 27.63-22.4 50-50 50s-50-22.37-50-50c0-27.6 22.4-50 50-50z" stroke="#000" stroke-width="2" fill="#ffdba9"/><path d="M4502.68 587.37c3.32 0 6 2.68 6 6v31.5c0 1.82 1.48 3.3 3.3 3.3 1.8 0 2.2.97.84 2.2l-6.25 5.62c-2.47 2.2-6.46 2.2-8.92 0l-6.26-5.64c-1.36-1.22-.98-2.2.84-2.2 1.8 0 3.3-1.47 3.3-3.3v-31.5c0-3.3 2.67-6 6-6z" stroke="#000" stroke-width="2" fill="#ffc374"/><path d="M4517.32 622.46c-3.32 0-6-2.7-6-6v-31.5c0-1.82-1.48-3.3-3.3-3.3-1.8 0-2.2-.98-.84-2.2l6.25-5.62c2.47-2.22 6.46-2.22 8.92 0l6.26 5.63c1.36 1.2.98 2.2-.84 2.2-1.8 0-3.3 1.47-3.3 3.3v31.5c0 3.3-2.67 6-6 6z" stroke="#000" stroke-width="2" fill="#ffc374"/><path d="M4875.5 553.88c0-3.3 2.7-6 6-6h148c3.3 0 6 2.7 6 6v48c0 3.32-2.7 6-6 6h-148c-3.3 0-6-2.68-6-6z" stroke="#000" stroke-width="2" fill="#c92d39"/><use xlink:href="#a" transform="matrix(1,0,0,1,4880.5,552.8842105263161) translate(17.623456790123456 30.27777777777778)"/><use xlink:href="#b" transform="matrix(1,0,0,1,4880.5,552.8842105263161) translate(82.99382716049382 30.27777777777778)"/><path d="M4960 619.48c3.3 0 6 2.7 6 6v36.75c0 2.08 1.68 3.75 3.75 3.75 2.07 0 2.5 1.13.96 2.5l-7.74 7c-2.46 2.2-6.46 2.2-8.92 0l-7.75-7c-1.55-1.37-1.12-2.5.95-2.5 2.07 0 3.75-1.67 3.75-3.75v-36.75c0-3.3 2.7-6 6-6z" stroke="#000" stroke-width="2" fill="#ff8f80"/><path d="M5091.5 553.88c0-3.3 2.7-6 6-6h148c3.3 0 6 2.7 6 6v48c0 3.32-2.7 6-6 6h-148c-3.3 0-6-2.68-6-6z" stroke="#000" stroke-width="2" fill="#3aa6dd"/><use xlink:href="#c" transform="matrix(1,0,0,1,5096.5,552.8842105263161) translate(17.623456790123456 30.27777777777778)"/><use xlink:href="#d" transform="matrix(1,0,0,1,5096.5,552.8842105263161) translate(82.99382716049382 30.27777777777778)"/><path d="M5170 679.48c-3.3 0-6-2.68-6-6v-36.75c0-2.07-1.68-3.75-3.75-3.75-2.07 0-2.5-1.12-.96-2.5l7.74-6.98c2.46-2.22 6.46-2.22 8.92 0l7.75 6.98c1.55 1.38 1.12 2.5-.95 2.5-2.07 0-3.75 1.68-3.75 3.75v36.75c0 3.32-2.7 6-6 6zM4660 553.88c0-3.3 2.7-6 6-6h148c3.3 0 6 2.7 6 6v48c0 3.32-2.7 6-6 6h-148c-3.3 0-6-2.68-6-6z" stroke="#000" stroke-width="2" fill="#3aa6dd"/><use xlink:href="#c" transform="matrix(1,0,0,1,4665,552.8842105263161) translate(17.623456790123456 30.27777777777778)"/><use xlink:href="#d" transform="matrix(1,0,0,1,4665,552.8842105263161) translate(82.99382716049382 30.27777777777778)"/><path d="M4738.5 679.48c-3.3 0-6-2.68-6-6v-36.75c0-2.07-1.68-3.75-3.75-3.75-2.07 0-2.5-1.12-.96-2.5l7.74-6.98c2.46-2.22 6.46-2.22 8.92 0l7.75 6.98c1.55 1.38 1.12 2.5-.95 2.5-2.07 0-3.75 1.68-3.75 3.75v36.75c0 3.32-2.7 6-6 6z" stroke="#000" stroke-width="2" fill="#3aa6dd"/><path d="M5307.5 553.88c0-3.3 2.7-6 6-6h148c3.3 0 6 2.7 6 6v48c0 3.32-2.7 6-6 6h-148c-3.3 0-6-2.68-6-6z" stroke="#000" stroke-width="2" fill="#c92d39"/><use xlink:href="#a" transform="matrix(1,0,0,1,5312.5,552.8842105263161) translate(17.623456790123456 30.27777777777778)"/><use xlink:href="#b" transform="matrix(1,0,0,1,5312.5,552.8842105263161) translate(82.99382716049382 30.27777777777778)"/><path d="M5392 619.48c3.3 0 6 2.7 6 6v36.75c0 2.08 1.68 3.75 3.75 3.75 2.07 0 2.5 1.13.96 2.5l-7.74 7c-2.46 2.2-6.46 2.2-8.92 0l-7.75-7c-1.55-1.37-1.12-2.5.95-2.5 2.07 0 3.75-1.67 3.75-3.75v-36.75c0-3.3 2.7-6 6-6z" stroke="#000" stroke-width="2" fill="#ff8f80"/><path d="M3991 553.88c0-3.3 2.7-6 6-6h148c3.3 0 6 2.7 6 6v48c0 3.32-2.7 6-6 6h-148c-3.3 0-6-2.68-6-6z" stroke="#000" stroke-width="2" fill="#c92d39"/><use xlink:href="#a" transform="matrix(1,0,0,1,3996,552.8842105263161) translate(17.623456790123456 30.27777777777778)"/><use xlink:href="#b" transform="matrix(1,0,0,1,3996,552.8842105263161) translate(82.99382716049382 30.27777777777778)"/><path d="M3560 553.88c0-3.3 2.7-6 6-6h148c3.3 0 6 2.7 6 6v48c0 3.32-2.7 6-6 6h-148c-3.3 0-6-2.68-6-6z" stroke="#000" stroke-width="2" fill="#c92d39"/><use xlink:href="#a" transform="matrix(1,0,0,1,3565,552.8842105263161) translate(17.623456790123456 30.27777777777778)"/><use xlink:href="#b" transform="matrix(1,0,0,1,3565,552.8842105263161) translate(82.99382716049382 30.27777777777778)"/><path d="M3649.5 619.48c3.3 0 6 2.7 6 6v36.75c0 2.08 1.68 3.75 3.75 3.75 2.07 0 2.5 1.13.96 2.5l-7.74 7c-2.46 2.2-6.46 2.2-8.92 0l-7.75-7c-1.55-1.37-1.12-2.5.95-2.5 2.07 0 3.75-1.67 3.75-3.75v-36.75c0-3.3 2.7-6 6-6zM4075.5 619.48c3.3 0 6 2.7 6 6v36.75c0 2.08 1.68 3.75 3.75 3.75 2.07 0 2.5 1.13.96 2.5l-7.74 7c-2.46 2.2-6.46 2.2-8.92 0l-7.75-7c-1.55-1.37-1.12-2.5.95-2.5 2.07 0 3.75-1.67 3.75-3.75v-36.75c0-3.3 2.7-6 6-6z" stroke="#000" stroke-width="2" fill="#ff8f80"/><path d="M4207 553.88c0-3.3 2.7-6 6-6h148c3.3 0 6 2.7 6 6v48c0 3.32-2.7 6-6 6h-148c-3.3 0-6-2.68-6-6z" stroke="#000" stroke-width="2" fill="#3aa6dd"/><g><use xlink:href="#c" transform="matrix(1,0,0,1,4212,552.8842105263161) translate(17.623456790123456 30.27777777777778)"/><use xlink:href="#d" transform="matrix(1,0,0,1,4212,552.8842105263161) translate(82.99382716049382 30.27777777777778)"/></g><g><path d="M4285.5 679.48c-3.3 0-6-2.68-6-6v-36.75c0-2.07-1.68-3.75-3.75-3.75-2.07 0-2.5-1.12-.96-2.5l7.74-6.98c2.46-2.22 6.46-2.22 8.92 0l7.75 6.98c1.55 1.38 1.12 2.5-.95 2.5-2.07 0-3.75 1.68-3.75 3.75v36.75c0 3.32-2.7 6-6 6z" stroke="#000" stroke-width="2" fill="#3aa6dd"/></g><path d="M3775.5 553.88c0-3.3 2.7-6 6-6h148c3.3 0 6 2.7 6 6v48c0 3.32-2.7 6-6 6h-148c-3.3 0-6-2.68-6-6z" stroke="#000" stroke-width="2" fill="#3aa6dd"/><g><use xlink:href="#c" transform="matrix(1,0,0,1,3780.5,552.8842105263161) translate(17.623456790123456 30.27777777777778)"/><use xlink:href="#d" transform="matrix(1,0,0,1,3780.5,552.8842105263161) translate(82.99382716049382 30.27777777777778)"/></g><g><path d="M3854 679.48c-3.3 0-6-2.68-6-6v-36.75c0-2.07-1.68-3.75-3.75-3.75-2.07 0-2.5-1.12-.96-2.5l7.74-6.98c2.46-2.22 6.46-2.22 8.92 0l7.75 6.98c1.55 1.38 1.12 2.5-.95 2.5-2.07 0-3.75 1.68-3.75 3.75v36.75c0 3.32-2.7 6-6 6z" stroke="#000" stroke-width="2" fill="#3aa6dd"/></g><defs><path fill="#fff" d="M117-194c89-4 53 116 60 194h-32v-121c0-31-8-49-39-48C34-167 62-67 57 0H25l-1-190h30c1 10-1 24 2 32 11-22 29-35 61-36" id="e"/><path fill="#fff" d="M177-190C167-65 218 103 67 71c-23-6-38-20-44-43l32-5c15 47 100 32 89-28v-30C133-14 115 1 83 1 29 1 15-40 15-95c0-56 16-97 71-98 29-1 48 16 59 35 1-10 0-23 2-32h30zM94-22c36 0 50-32 50-73 0-42-14-75-50-75-39 0-46 34-46 75s6 73 46 73" id="f"/><path fill="#fff" d="M24-231v-30h32v30H24zM24 0v-190h32V0H24" id="g"/><path fill="#fff" d="M141 0L90-78 38 0H4l68-98-65-92h35l48 74 47-74h35l-64 92 68 98h-35" id="h"/><path fill="#fff" d="M33-154v-36h34v36H33zM33 0v-36h34V0H33" id="i"/><g id="a"><use transform="matrix(0.06172839506172839,0,0,0.06172839506172839,0,0)" xlink:href="#e"/><use transform="matrix(0.06172839506172839,0,0,0.06172839506172839,12.345679012345679,0)" xlink:href="#f"/><use transform="matrix(0.06172839506172839,0,0,0.06172839506172839,24.691358024691358,0)" xlink:href="#g"/><use transform="matrix(0.06172839506172839,0,0,0.06172839506172839,29.5679012345679,0)" xlink:href="#e"/><use transform="matrix(0.06172839506172839,0,0,0.06172839506172839,41.913580246913575,0)" xlink:href="#h"/><use transform="matrix(0.06172839506172839,0,0,0.06172839506172839,53.02469135802468,0)" xlink:href="#i"/></g><path fill="#fff" d="M27 0v-27h64v-190l-56 39v-29l58-41h29v221h61V0H27" id="j"/><path fill="#fff" d="M33 0v-38h34V0H33" id="k"/><path fill="#fff" d="M64 0c3-98 48-159 88-221H18v-27h164v26C143-157 98-101 97 0H64" id="l"/><path fill="#fff" d="M101-251c68 0 85 55 85 127S166 4 100 4C33 4 14-52 14-124c0-73 17-127 87-127zm-1 229c47 0 54-49 54-102s-4-102-53-102c-51 0-55 48-55 102 0 53 5 102 54 102" id="m"/><g id="b"><use transform="matrix(0.06172839506172839,0,0,0.06172839506172839,0,0)" xlink:href="#j"/><use transform="matrix(0.06172839506172839,0,0,0.06172839506172839,12.345679012345679,0)" xlink:href="#k"/><use transform="matrix(0.06172839506172839,0,0,0.06172839506172839,18.51851851851852,0)" xlink:href="#l"/><use transform="matrix(0.06172839506172839,0,0,0.06172839506172839,30.864197530864196,0)" xlink:href="#k"/><use transform="matrix(0.06172839506172839,0,0,0.06172839506172839,37.03703703703704,0)" xlink:href="#m"/></g><path d="M117-194c89-4 53 116 60 194h-32v-121c0-31-8-49-39-48C34-167 62-67 57 0H25l-1-190h30c1 10-1 24 2 32 11-22 29-35 61-36" id="n"/><path d="M177-190C167-65 218 103 67 71c-23-6-38-20-44-43l32-5c15 47 100 32 89-28v-30C133-14 115 1 83 1 29 1 15-40 15-95c0-56 16-97 71-98 29-1 48 16 59 35 1-10 0-23 2-32h30zM94-22c36 0 50-32 50-73 0-42-14-75-50-75-39 0-46 34-46 75s6 73 46 73" id="o"/><path d="M24-231v-30h32v30H24zM24 0v-190h32V0H24" id="p"/><path d="M141 0L90-78 38 0H4l68-98-65-92h35l48 74 47-74h35l-64 92 68 98h-35" id="q"/><path d="M33-154v-36h34v36H33zM33 0v-36h34V0H33" id="r"/><g id="c"><use transform="matrix(0.06172839506172839,0,0,0.06172839506172839,0,0)" xlink:href="#n"/><use transform="matrix(0.06172839506172839,0,0,0.06172839506172839,12.345679012345679,0)" xlink:href="#o"/><use transform="matrix(0.06172839506172839,0,0,0.06172839506172839,24.691358024691358,0)" xlink:href="#p"/><use transform="matrix(0.06172839506172839,0,0,0.06172839506172839,29.5679012345679,0)" xlink:href="#n"/><use transform="matrix(0.06172839506172839,0,0,0.06172839506172839,41.913580246913575,0)" xlink:href="#q"/><use transform="matrix(0.06172839506172839,0,0,0.06172839506172839,53.02469135802468,0)" xlink:href="#r"/></g><path d="M27 0v-27h64v-190l-56 39v-29l58-41h29v221h61V0H27" id="s"/><path d="M33 0v-38h34V0H33" id="t"/><path d="M64 0c3-98 48-159 88-221H18v-27h164v26C143-157 98-101 97 0H64" id="u"/><path d="M101-251c68 0 85 55 85 127S166 4 100 4C33 4 14-52 14-124c0-73 17-127 87-127zm-1 229c47 0 54-49 54-102s-4-102-53-102c-51 0-55 48-55 102 0 53 5 102 54 102" id="v"/><g id="d"><use transform="matrix(0.06172839506172839,0,0,0.06172839506172839,0,0)" xlink:href="#s"/><use transform="matrix(0.06172839506172839,0,0,0.06172839506172839,12.345679012345679,0)" xlink:href="#t"/><use transform="matrix(0.06172839506172839,0,0,0.06172839506172839,18.51851851851852,0)" xlink:href="#u"/><use transform="matrix(0.06172839506172839,0,0,0.06172839506172839,30.864197530864196,0)" xlink:href="#t"/><use transform="matrix(0.06172839506172839,0,0,0.06172839506172839,37.03703703703704,0)" xlink:href="#v"/></g></defs></g></svg>