<?xml version="1.0" standalone="no"?>
<!DOCTYPE svg PUBLIC "-//W3C//DTD SVG 20010904//EN"
 "http://www.w3.org/TR/2001/REC-SVG-20010904/DTD/svg10.dtd">
<svg version="1.0" xmlns="http://www.w3.org/2000/svg"
 width="1080.000000pt" height="1080.000000pt" viewBox="0 0 1080.000000 1080.000000"
 preserveAspectRatio="xMidYMid meet">

<g transform="translate(0.000000,1080.000000) scale(0.100000,-0.100000)"
fill="#000000" stroke="none">
<path d="M0 5400 l0 -5400 5400 0 5400 0 0 5400 0 5400 -5400 0 -5400 0 0
-5400z m8750 4843 c111 -64 129 -63 254 10 l96 56 0 -39 c0 -21 -4 -42 -10
-45 -5 -3 -10 -19 -10 -35 0 -25 -9 -33 -86 -76 -76 -43 -83 -50 -65 -58 28
-12 23 -23 -22 -49 l-38 -21 -44 24 c-45 25 -45 25 -23 41 21 16 20 17 -60 64
-73 42 -82 50 -82 76 0 17 -6 32 -15 35 -10 4 -15 20 -15 45 0 45 -12 48 120
-28z m710 -118 l0 -75 -105 0 -105 0 0 -30 c0 -23 -4 -30 -20 -30 -19 0 -20 7
-20 105 l0 105 125 0 125 0 0 -75z m270 60 c0 -12 -18 -15 -105 -15 l-105 0 0
-60 c0 -53 -2 -60 -20 -60 -18 0 -20 7 -20 75 l0 75 125 0 c104 0 125 -2 125
-15z m270 -30 l0 -45 -105 0 c-87 0 -105 -3 -105 -15 0 -12 18 -15 105 -15 87
0 105 -3 105 -15 0 -12 -20 -15 -120 -15 l-120 0 0 75 0 75 120 0 120 0 0 -45z
m60 -15 l0 -60 90 0 90 0 0 60 c0 53 2 60 20 60 19 0 20 -7 20 -105 l0 -105
-125 0 c-104 0 -125 2 -125 15 0 12 18 15 105 15 87 0 105 3 105 15 0 12 -18
15 -105 15 l-105 0 0 75 c0 60 3 75 15 75 12 0 15 -13 15 -60z m-5620 -445 c0
-13 -72 -15 -585 -15 -513 0 -585 2 -585 15 0 13 72 15 585 15 513 0 585 -2
585 -15z m675 -190 c0 -29 -2 -30 -45 -30 -35 0 -45 4 -48 18 -7 37 6 48 50
45 40 -3 43 -5 43 -33z m1935 0 c0 -35 0 -35 -45 -35 -45 0 -45 0 -45 35 0 35
0 35 45 35 45 0 45 0 45 -35z m-3588 -2 c10 -9 18 -30 18 -50 0 -33 -1 -33
-45 -33 -39 0 -45 3 -45 21 0 36 -34 19 -38 -19 l-3 -32 47 0 c68 0 84 -18 84
-93 0 -85 -13 -97 -105 -97 -83 0 -101 10 -110 63 l-7 37 45 0 c36 0 46 -4 50
-20 3 -11 12 -20 21 -20 12 0 16 10 16 35 0 35 -1 35 -43 35 -68 0 -82 16 -82
95 0 85 12 95 109 95 51 0 74 -4 88 -17z m2208 -13 c0 -29 -1 -30 -50 -30
l-50 0 0 -35 c0 -35 0 -35 45 -35 43 0 45 -1 45 -30 0 -29 -2 -30 -45 -30 -45
0 -45 0 -45 -35 l0 -35 55 0 c54 0 55 0 55 -30 l0 -30 -100 0 -100 0 0 160 0
160 95 0 95 0 0 -30z m-870 -15 c0 -18 5 -25 20 -25 15 0 20 -7 20 -29 0 -20
-6 -30 -20 -34 -17 -4 -20 -14 -20 -61 0 -41 4 -58 15 -62 9 -4 15 -19 15 -35
0 -27 -3 -29 -37 -29 -59 0 -73 21 -73 107 0 56 -4 75 -15 79 -9 4 -15 19 -15
35 0 19 5 29 15 29 9 0 15 9 15 25 0 23 4 25 40 25 36 0 40 -2 40 -25z m2108
-2 c2 -13 10 -23 18 -23 9 0 14 -11 14 -30 0 -20 -5 -30 -15 -30 -12 0 -15
-14 -15 -65 0 -51 3 -65 15 -65 10 0 15 -10 15 -30 0 -28 -2 -30 -38 -30 -21
0 -48 7 -60 16 -20 13 -22 24 -22 95 0 64 -3 79 -15 79 -10 0 -15 10 -15 30 0
20 5 30 15 30 9 0 15 10 15 26 0 23 3 25 43 22 35 -2 43 -7 45 -25z m-3306
-95 l14 -73 14 73 13 72 44 0 c38 0 44 -3 39 -17 -3 -10 -17 -65 -31 -122 -14
-57 -33 -117 -40 -132 -15 -27 -59 -49 -101 -49 -21 0 -24 5 -24 35 0 32 2 35
29 35 17 0 33 5 36 10 3 6 -2 10 -13 10 -17 0 -35 48 -80 213 -4 14 3 17 41
17 l45 0 14 -72z m228 60 c0 -9 3 -9 12 0 17 17 73 15 88 -3 12 -14 15 -14 30
0 22 20 69 19 92 -2 15 -14 18 -32 18 -125 l0 -108 -40 0 -39 0 -3 93 c-2 74
-6 92 -18 92 -12 0 -16 -18 -18 -92 l-3 -93 -39 0 -39 0 -3 93 c-2 74 -6 92
-18 92 -12 0 -16 -18 -18 -92 l-3 -93 -39 0 -40 0 0 125 0 125 40 0 c24 0 40
-5 40 -12z m360 0 c0 -9 3 -9 12 0 15 15 63 16 90 1 14 -8 23 -8 31 0 15 15
70 14 92 -3 17 -12 20 -30 23 -125 l4 -111 -46 0 -45 0 -3 92 c-2 62 -7 93
-15 96 -10 3 -13 -20 -13 -92 l0 -96 -45 0 -44 0 -3 92 c-2 62 -7 93 -15 96
-10 3 -13 -20 -13 -92 l0 -96 -45 0 -45 0 0 125 0 125 40 0 c24 0 40 -5 40
-12z m465 -2 c15 -11 19 -27 20 -72 l0 -59 -62 -3 c-55 -3 -63 -6 -63 -22 0
-24 35 -27 44 -4 4 11 17 14 43 12 35 -3 38 -5 36 -33 -3 -42 -27 -55 -102
-55 -93 0 -101 10 -101 123 0 117 8 127 100 127 41 0 73 -5 85 -14z m285 -3
c0 -15 1 -15 18 0 31 29 52 22 52 -17 0 -30 -3 -35 -27 -38 -28 -3 -28 -3 -31
-90 l-3 -88 -44 0 -45 0 0 125 0 125 40 0 c31 0 40 -4 40 -17z m170 -108 l0
-125 -40 0 -40 0 0 125 0 125 40 0 40 0 0 -125z m220 105 c11 -11 20 -33 20
-50 0 -28 -2 -30 -41 -30 -33 0 -42 4 -46 20 -11 41 -28 13 -28 -45 0 -58 17
-86 28 -45 4 16 13 20 46 20 39 0 41 -2 41 -30 0 -49 -30 -70 -102 -70 -89 0
-98 11 -98 123 0 116 8 127 97 127 50 0 67 -4 83 -20z m561 -1 c16 -16 19 -34
19 -124 l0 -105 -45 0 -45 0 0 96 c0 72 -3 95 -12 92 -9 -3 -14 -34 -16 -96
l-3 -92 -44 0 -45 0 0 125 0 124 86 0 c71 -1 90 -5 105 -20z m227 5 c15 -11
22 -25 22 -50 0 -33 -1 -34 -39 -34 -30 0 -40 4 -44 20 -3 11 -10 20 -16 20
-7 0 -11 -25 -11 -65 0 -40 4 -65 11 -65 6 0 13 9 16 20 4 16 14 20 44 20 38
0 39 -1 39 -34 0 -47 -29 -66 -100 -66 -34 0 -64 6 -78 16 -20 14 -22 23 -22
109 0 86 2 95 22 109 14 10 44 16 78 16 34 0 64 -6 78 -16z m132 -1 c0 -15 1
-15 18 0 13 12 37 17 79 17 l61 0 14 -72 14 -73 14 73 13 72 44 0 c38 0 44 -3
39 -17 -3 -10 -17 -65 -31 -122 -14 -57 -33 -117 -40 -132 -15 -27 -59 -49
-101 -49 -21 0 -24 5 -24 35 0 32 2 35 29 35 17 0 33 5 36 10 3 6 -2 10 -13
10 -15 0 -24 19 -48 103 -16 56 -30 92 -32 80 -2 -15 -11 -23 -30 -25 -27 -3
-27 -4 -30 -90 l-3 -88 -44 0 -45 0 0 125 0 125 40 0 c31 0 40 -4 40 -17z
m400 5 c0 -9 3 -9 12 0 16 16 70 15 94 -2 16 -13 19 -27 19 -111 0 -111 -11
-129 -77 -123 -36 3 -37 2 -40 -32 -3 -34 -5 -35 -45 -38 l-43 -3 0 160 0 161
40 0 c24 0 40 -5 40 -12z m400 -113 l0 -125 -45 0 -45 0 0 125 0 125 45 0 45
0 0 -125z m222 108 c15 -13 18 -32 18 -106 0 -117 -8 -127 -100 -127 -99 0
-105 7 -105 125 0 84 3 98 19 111 29 21 144 19 168 -3z m138 5 c0 -9 3 -9 12
0 17 17 68 15 90 -5 15 -14 18 -32 18 -125 l0 -108 -40 0 -39 0 -3 93 c-2 74
-6 92 -18 92 -12 0 -16 -18 -18 -92 l-3 -93 -39 0 -40 0 0 125 0 125 40 0 c24
0 40 -5 40 -12z m-1887 -643 c88 -18 175 -66 241 -130 62 -61 96 -117 126
-205 19 -56 21 -80 17 -170 -5 -123 -26 -187 -90 -272 -187 -250 -531 -277
-747 -59 -36 36 -77 89 -92 117 -99 186 -69 419 74 570 128 136 291 187 471
149z m-1048 -945 c14 -23 -17 -40 -74 -40 -31 0 -101 -7 -156 -15 -387 -58
-740 -280 -953 -598 -134 -200 -208 -399 -237 -636 l-6 -54 77 72 c75 70 77
71 97 54 19 -18 18 -20 -89 -121 -59 -56 -111 -101 -115 -100 -4 2 -48 54 -99
116 -87 106 -91 114 -74 127 11 8 22 13 26 12 4 -1 34 -34 66 -74 l59 -72 12
85 c45 321 183 596 416 829 222 223 480 356 795 410 93 16 246 19 255 5z
m2070 -5 c630 -102 1114 -590 1212 -1222 l16 -102 59 74 c33 41 62 75 66 75 3
0 13 -7 23 -16 17 -15 12 -23 -74 -129 -51 -63 -95 -114 -99 -114 -4 -1 -55
45 -113 102 -103 98 -106 103 -89 119 18 16 23 13 97 -54 l78 -70 -6 43 c-29
202 -61 314 -139 474 -222 455 -669 752 -1174 782 -103 6 -119 12 -108 38 7
20 130 20 251 0z m-1255 -496 c0 -308 -3 -390 -12 -387 -10 4 -14 93 -16 391
-2 340 0 387 13 387 13 0 15 -49 15 -391z m280 353 c0 -32 -7 -45 -50 -87
l-50 -49 50 -51 50 -51 -50 -49 -50 -49 52 -53 52 -53 -49 -50 -49 -50 42 -43
c37 -38 42 -48 42 -90 0 -46 -1 -47 -72 -101 -54 -41 -76 -52 -85 -44 -10 8
-13 101 -13 424 l0 414 48 1 c26 1 61 5 77 9 53 13 55 12 55 -28z m-210 -388
c0 -267 -3 -403 -10 -399 -6 4 -10 150 -10 406 0 259 4 399 10 399 7 0 10
-142 10 -406z m-430 -913 c19 -37 12 -51 -25 -51 -24 0 -35 5 -35 15 0 8 -4
15 -10 15 -5 0 -10 -9 -10 -20 0 -16 7 -20 35 -20 38 0 54 -19 56 -67 1 -16
10 8 23 57 l22 85 40 3 40 3 24 -98 25 -98 3 98 3 98 36 -3 c33 -3 38 -7 51
-48 l15 -44 14 47 c13 44 16 47 48 47 l35 0 0 -105 0 -105 -30 0 c-28 0 -30 2
-31 43 -1 23 -3 34 -6 24 -7 -28 -55 -18 -64 13 -5 18 -7 10 -8 -27 l-1 -53
-65 0 c-51 0 -65 3 -65 15 0 9 -9 15 -25 15 -16 0 -25 -6 -25 -15 0 -10 -10
-15 -30 -15 -21 0 -30 5 -30 16 0 14 -1 14 -16 0 -18 -18 -85 -21 -115 -6 -11
6 -19 21 -19 35 0 22 5 25 34 25 19 0 37 -6 39 -12 4 -8 6 -7 6 3 1 11 -10 19
-33 23 -37 7 -46 21 -46 70 0 44 16 56 77 56 41 0 54 -4 63 -19z m540 -1 c0
-16 -7 -20 -35 -20 -28 0 -35 -4 -35 -20 0 -16 7 -20 30 -20 25 0 30 -4 30
-25 0 -21 -5 -25 -30 -25 -20 0 -30 -5 -30 -15 0 -10 11 -15 35 -15 31 0 35
-3 35 -25 0 -24 -2 -25 -65 -25 l-65 0 0 105 0 105 65 0 c58 0 65 -2 65 -20z
m141 -17 l1 -38 12 35 c11 30 18 35 49 38 l36 3 -20 -52 c-19 -49 -19 -54 -3
-93 9 -23 18 -47 21 -53 4 -9 -6 -13 -30 -13 -33 0 -37 3 -50 43 l-15 42 -1
-42 c-1 -41 -2 -43 -31 -43 l-30 0 0 105 0 105 30 0 c28 0 30 -3 31 -37z m314
-3 l12 -35 7 38 c6 34 9 37 41 37 l35 0 -25 -66 c-14 -37 -25 -84 -25 -105 0
-38 -1 -39 -35 -39 -34 0 -35 1 -35 38 0 34 -49 175 -50 145 0 -8 -14 -13 -35
-13 -28 0 -35 -4 -35 -20 0 -16 7 -20 30 -20 25 0 30 -4 30 -25 0 -21 -5 -25
-30 -25 -20 0 -30 -5 -30 -15 0 -10 11 -15 35 -15 31 0 35 -3 35 -25 0 -24 -2
-25 -65 -25 l-65 0 0 105 0 106 97 -3 96 -3 12 -35z m-2779 -164 c127 -34 252
-131 312 -244 136 -255 37 -554 -226 -685 l-85 -42 -126 0 c-124 0 -127 0
-203 37 -185 87 -291 253 -291 453 0 225 133 405 353 476 67 22 195 24 266 5z
m4735 -2 c141 -42 253 -138 316 -269 32 -68 37 -88 41 -175 3 -61 0 -118 -8
-151 -34 -142 -136 -267 -275 -335 -74 -36 -87 -39 -185 -42 -115 -4 -189 13
-279 66 -141 82 -241 260 -241 427 0 221 166 435 376 484 64 15 196 12 255 -5z
m-4997 -1050 c14 -5 16 -50 16 -395 0 -387 0 -390 -20 -379 -19 10 -20 21 -20
395 0 212 2 385 4 385 2 0 11 -3 20 -6z m5026 -379 c0 -374 -1 -385 -20 -395
-20 -11 -20 -8 -20 379 0 391 1 397 33 400 4 1 7 -172 7 -384z m-4740 338 c0
-31 -8 -45 -47 -85 l-47 -48 49 -50 49 -50 -49 -50 -49 -50 52 -53 52 -53 -50
-49 -50 -49 46 -47 c42 -42 45 -49 42 -90 -3 -41 -7 -47 -72 -96 -38 -30 -74
-52 -80 -50 -8 3 -12 128 -14 420 l-2 416 57 6 c32 4 63 8 68 10 35 12 45 4
45 -32z m4553 21 l47 -6 0 -414 c0 -345 -2 -416 -14 -420 -8 -3 -46 19 -84 48
-69 52 -71 54 -71 98 -1 39 4 49 41 87 l42 43 -49 50 -49 50 54 55 54 55 -49
50 -49 50 49 50 49 50 -47 48 c-39 40 -47 54 -47 86 l0 38 38 -6 c20 -3 58 -8
85 -12z m-4755 -403 c2 -321 0 -402 -10 -399 -10 4 -14 94 -16 407 -2 321 0
402 10 399 10 -4 14 -94 16 -407z m4860 7 c-2 -310 -6 -402 -15 -406 -10 -3
-13 82 -13 402 0 356 2 406 15 406 13 0 15 -49 13 -402z m-6704 136 c9 -8 16
-26 16 -40 0 -20 -5 -24 -30 -24 -17 0 -33 7 -39 18 -9 15 -10 15 -11 -5 0
-19 6 -23 28 -23 37 0 52 -17 52 -59 0 -51 -11 -62 -63 -68 -37 -4 -49 -1 -66
16 -31 31 -24 55 17 59 24 2 32 -1 32 -12 0 -9 5 -16 11 -16 6 0 9 8 7 18 -2
11 -14 18 -33 20 -37 4 -55 26 -55 68 0 23 7 38 22 48 29 21 92 20 112 0z
m156 -9 c0 -21 -5 -25 -30 -25 -23 0 -30 -4 -30 -20 0 -16 7 -20 30 -20 23 0
30 -4 30 -20 0 -16 -7 -20 -30 -20 -23 0 -30 -4 -30 -20 0 -16 7 -20 35 -20
31 0 35 -3 35 -25 0 -26 -1 -26 -67 -23 l-68 3 -3 94 c-1 52 -1 100 2 108 4 9
25 13 66 13 57 0 60 -1 60 -25z m141 15 c13 -8 19 -21 19 -45 0 -32 -2 -35
-30 -35 -23 0 -30 4 -30 20 0 11 -4 20 -10 20 -6 0 -10 -27 -10 -60 0 -33 4
-60 10 -60 6 0 10 9 10 20 0 16 7 20 30 20 28 0 30 -3 30 -35 0 -40 -20 -55
-72 -55 -61 0 -73 18 -73 110 0 69 3 84 19 96 23 16 79 18 107 4z m167 -6 c26
-18 30 -79 8 -109 -12 -17 -12 -23 0 -47 20 -39 18 -48 -16 -48 -24 0 -33 6
-44 33 l-14 32 -1 -32 c-1 -30 -4 -33 -31 -33 l-30 0 0 110 0 110 53 0 c31 0
61 -6 75 -16z m310 -11 c3 -17 -2 -23 -17 -23 -18 0 -20 -7 -23 -82 l-3 -83
-32 -3 -33 -3 0 85 0 86 -50 0 c-43 0 -50 -3 -50 -20 0 -15 7 -20 25 -20 18 0
25 -5 25 -20 0 -15 -7 -20 -25 -20 -18 0 -25 -5 -25 -20 0 -16 7 -20 36 -20
31 0 35 -3 32 -22 -3 -21 -9 -23 -70 -26 l-68 -3 0 110 0 111 138 -3 c134 -2
137 -3 140 -24z m133 -10 l1 -38 15 38 c14 33 20 37 50 37 24 0 34 -4 30 -12
-3 -7 -12 -31 -21 -54 -16 -39 -16 -43 4 -93 11 -28 20 -54 20 -56 0 -3 -15
-5 -34 -5 -31 0 -36 4 -49 43 l-15 42 -1 -42 c-1 -41 -2 -43 -31 -43 l-30 0 0
110 0 110 30 0 c28 0 30 -3 31 -37z m311 -5 l12 -40 11 38 c9 34 15 39 43 42
17 2 32 1 32 -2 0 -3 -10 -29 -22 -58 -12 -29 -24 -75 -27 -103 -6 -48 -7 -50
-36 -50 -28 0 -30 3 -36 50 -7 47 -47 154 -48 128 -1 -8 -15 -13 -36 -13 -28
0 -35 -4 -35 -20 0 -16 7 -20 30 -20 23 0 30 -4 30 -20 0 -16 -7 -20 -30 -20
-23 0 -30 -4 -30 -20 0 -16 7 -20 35 -20 31 0 35 -3 35 -25 0 -24 -2 -25 -65
-25 l-65 0 0 110 0 110 95 -1 95 -1 12 -40z m6179 21 c29 -29 21 -53 -19 -57
-24 -2 -32 1 -32 12 0 9 -4 16 -10 16 -5 0 -10 -9 -10 -20 0 -16 7 -20 35 -20
39 0 55 -20 55 -69 0 -42 -36 -65 -92 -58 -44 6 -58 19 -58 55 0 18 6 22 30
22 17 0 33 -7 39 -17 9 -16 10 -16 11 5 0 18 -6 22 -28 22 -15 0 -33 5 -40 12
-17 17 -15 84 4 102 23 23 89 21 115 -5z m159 -4 c0 -21 -5 -25 -30 -25 -23 0
-30 -4 -30 -20 0 -15 7 -20 25 -20 18 0 25 -5 25 -20 0 -15 -7 -20 -25 -20
-18 0 -25 -5 -25 -20 0 -16 7 -20 36 -20 31 0 35 -3 32 -22 -3 -21 -9 -23 -70
-26 l-68 -3 0 111 0 110 65 0 c63 0 65 -1 65 -25z m141 15 c13 -8 19 -21 19
-45 0 -32 -2 -35 -30 -35 -23 0 -30 4 -30 20 0 11 -4 20 -10 20 -6 0 -10 -27
-10 -60 0 -33 4 -60 10 -60 6 0 10 9 10 20 0 16 7 20 30 20 28 0 30 -3 30 -35
0 -40 -20 -55 -72 -55 -61 0 -73 18 -73 110 0 69 3 84 19 96 23 16 79 18 107
4z m160 0 c15 -9 19 -22 19 -65 0 -29 -4 -57 -10 -60 -6 -4 -4 -17 5 -35 21
-41 19 -50 -15 -50 -22 0 -33 7 -44 28 l-15 27 -1 -28 c0 -26 -3 -28 -32 -25
l-33 3 -3 94 c-1 52 -1 100 2 108 6 16 98 18 127 3z m309 -15 c0 -18 -5 -25
-20 -25 -18 0 -20 -7 -20 -85 l0 -85 -30 0 -30 0 0 85 0 85 -55 0 c-48 0 -55
-2 -55 -20 0 -16 7 -20 30 -20 23 0 30 -4 30 -20 0 -16 -7 -20 -30 -20 -23 0
-30 -4 -30 -20 0 -16 7 -20 35 -20 31 0 35 -3 35 -25 0 -24 -2 -25 -65 -25
l-65 0 0 110 0 110 135 0 135 0 0 -25z m141 -12 l1 -38 12 35 c10 29 18 36 44
38 37 4 39 -4 16 -65 -16 -40 -16 -46 0 -86 22 -59 21 -67 -13 -67 -24 0 -32
6 -44 38 l-16 37 0 -38 c-1 -37 -2 -38 -33 -35 l-33 3 -3 94 c-1 52 -1 100 2
108 3 7 19 13 36 13 28 0 30 -3 31 -37z m229 12 c0 -21 -5 -25 -30 -25 -23 0
-30 -4 -30 -20 0 -16 7 -20 30 -20 23 0 30 -4 30 -20 0 -16 -7 -20 -30 -20
-23 0 -30 -4 -30 -20 0 -16 7 -20 35 -20 31 0 35 -3 35 -25 0 -26 -1 -26 -67
-23 l-68 3 -3 94 c-1 52 -1 100 2 108 4 9 25 13 66 13 57 0 60 -1 60 -25z m82
-16 l12 -41 11 38 c9 34 15 39 43 42 17 2 32 1 32 -2 0 -3 -10 -29 -22 -58
-12 -29 -24 -75 -27 -103 -6 -48 -7 -50 -36 -50 -28 0 -30 3 -36 50 -4 28 -16
72 -28 98 -27 63 -27 67 9 67 26 0 31 -5 42 -41z m-6704 -731 c9 -9 12 -73 12
-222 l1 -211 68 72 c68 71 69 72 87 52 20 -22 25 -15 -124 -170 l-64 -67 -68
72 c-131 139 -135 144 -116 165 16 17 20 15 86 -53 l70 -71 0 211 c0 200 4
234 30 234 3 0 11 -5 18 -12z m4730 0 c9 -9 12 -73 12 -222 l1 -211 68 72 c68
71 69 72 87 52 20 -22 25 -15 -124 -170 l-64 -67 -73 77 c-40 42 -85 91 -100
109 -26 31 -27 35 -11 50 15 15 21 11 86 -53 l70 -69 0 210 c0 200 4 234 30
234 3 0 11 -5 18 -12z m-5966 -885 l178 -178 0 -462 0 -463 -520 0 -520 0 0
640 0 640 342 0 343 0 177 -177z m8028 -463 l0 -640 -520 0 -520 0 0 467 0
468 172 172 173 173 347 0 348 0 0 -640z m-6588 598 c163 -61 282 -166 351
-309 l42 -88 551 0 551 -1 67 -101 67 -101 -72 -94 -72 -94 -56 0 c-55 0 -58
1 -111 55 l-54 55 -63 -62 -63 -62 -68 67 -68 67 -64 -65 -64 -65 -68 67 -68
67 -68 -67 -68 -67 -105 0 -106 0 -11 -38 c-14 -46 -76 -145 -127 -201 -58
-63 -175 -137 -268 -167 -69 -23 -100 -27 -197 -27 -98 -1 -126 3 -191 26
-198 68 -334 200 -407 395 -33 90 -42 266 -18 362 56 222 234 404 456 465 89
24 286 15 372 -17z m3700 21 c126 -27 279 -122 358 -223 41 -54 100 -161 100
-183 0 -10 118 -13 554 -13 l555 0 66 -101 66 -101 -71 -94 -72 -94 -57 0
c-56 0 -58 1 -111 55 l-54 55 -63 -62 -63 -62 -68 67 -68 67 -64 -65 -64 -65
-66 65 -66 65 -64 -65 -64 -65 -107 0 -107 0 -43 -87 c-80 -163 -242 -292
-419 -334 -79 -20 -242 -17 -314 5 -222 66 -396 244 -451 461 -20 77 -19 230
1 309 56 219 238 404 454 460 67 18 229 20 302 5z m-1080 -956 l178 -178 0
-462 0 -463 -520 0 -520 0 0 640 0 640 342 0 343 0 177 -177z m-4948 -769 c10
-9 16 -33 16 -59 0 -48 -24 -75 -67 -75 -19 0 -23 -5 -23 -30 0 -27 -3 -30
-30 -30 l-30 0 0 105 0 105 59 0 c41 0 65 -5 75 -16z m86 -69 l0 -85 34 0 c32
0 34 3 45 48 32 130 28 122 69 122 l38 0 26 -102 26 -103 1 103 1 102 35 0 35
0 0 -105 0 -105 -70 0 c-56 0 -70 3 -70 15 0 9 -9 15 -25 15 -16 0 -25 -6 -25
-15 0 -12 -17 -15 -90 -15 l-90 0 0 105 0 105 30 0 30 0 0 -85z m398 38 l21
-48 1 48 c0 46 1 47 30 47 l30 0 0 -105 0 -105 -30 0 c-25 0 -32 6 -49 43
l-19 42 -1 -42 c-1 -41 -3 -43 -31 -43 l-30 0 0 105 0 105 29 0 c24 0 31 -7
49 -47z m292 22 c0 -18 -5 -25 -20 -25 -18 0 -20 -7 -20 -80 l0 -80 -30 0 -30
0 0 80 c0 73 -2 80 -20 80 -15 0 -20 7 -20 25 0 24 2 25 70 25 68 0 70 -1 70
-25z m216 3 l7 -23 8 23 c6 16 16 22 39 22 36 0 37 -8 9 -62 l-21 -41 26 -47
c14 -26 26 -50 26 -54 0 -3 -15 -6 -34 -6 -27 0 -36 5 -42 23 l-7 22 -10 -22
c-9 -22 -16 -23 -109 -23 l-98 0 0 105 0 105 99 0 c94 0 100 -1 107 -22z m234
-3 c0 -18 -5 -25 -20 -25 -18 0 -20 -7 -20 -80 l0 -80 -30 0 -30 0 0 80 c0 73
-2 80 -20 80 -15 0 -20 7 -20 25 0 24 2 25 70 25 68 0 70 -1 70 -25z m6631 15
c15 -8 19 -21 19 -60 0 -57 -18 -80 -61 -80 -26 0 -29 -3 -29 -30 0 -27 -3
-30 -30 -30 l-30 0 0 105 0 105 56 0 c30 0 64 -5 75 -10z m99 -76 l0 -85 32 3
c32 3 33 5 52 86 l20 82 38 0 c35 0 38 -3 47 -37 25 -95 41 -161 41 -167 0
-13 -58 -5 -64 9 -3 8 -15 15 -26 15 -11 0 -20 -7 -20 -15 0 -12 -17 -15 -95
-15 l-95 0 0 105 0 105 35 0 35 0 0 -86z m300 -19 l0 -105 -30 0 -30 0 0 105
0 105 30 0 30 0 0 -105z m92 63 l17 -43 0 43 c1 40 2 42 31 42 l30 0 0 -105 0
-105 -29 0 c-23 0 -31 6 -44 38 l-15 37 -1 -37 c-1 -35 -3 -38 -31 -38 l-30 0
0 105 0 105 28 0 c24 0 30 -7 44 -42z m428 17 c0 -21 -5 -25 -30 -25 -20 0
-30 -5 -30 -15 0 -9 9 -15 25 -15 20 0 25 -5 25 -25 0 -20 -5 -25 -25 -25 -18
0 -25 -5 -25 -20 0 -16 7 -20 35 -20 21 0 35 -5 35 -12 1 -7 10 8 21 33 l21
47 -21 40 c-28 55 -27 62 14 62 24 0 35 -5 35 -15 0 -8 5 -15 10 -15 6 0 10 7
10 15 0 12 18 15 105 15 l105 0 0 -25 c0 -18 -5 -25 -20 -25 -18 0 -20 -7 -20
-80 l0 -80 -30 0 -30 0 0 80 c0 73 -2 80 -20 80 -12 0 -20 7 -21 18 0 9 -10
-2 -22 -26 l-21 -42 27 -55 27 -55 -35 0 c-25 0 -37 6 -46 22 l-12 22 -8 -22
c-8 -21 -14 -22 -109 -22 l-100 0 0 80 c0 73 -2 80 -20 80 -18 0 -20 -7 -20
-80 l0 -80 -35 0 -35 0 0 80 c0 73 -2 80 -20 80 -15 0 -20 7 -20 25 l0 25 140
0 140 0 0 -25z m-4912 -727 c7 -7 12 -25 12 -40 0 -25 -3 -28 -35 -28 -28 0
-35 4 -35 20 0 11 -4 20 -10 20 -6 0 -10 -27 -10 -60 0 -33 4 -60 10 -60 6 0
10 7 10 15 0 10 11 15 35 15 30 0 35 -3 35 -24 0 -36 -26 -56 -71 -56 -72 0
-79 9 -79 103 0 51 5 88 12 95 16 16 110 16 126 0z m82 -93 l0 -105 -30 0 -30
0 0 105 0 105 30 0 30 0 0 -105z m168 47 c4 -62 -8 -82 -49 -82 -26 0 -29 -3
-29 -35 0 -33 -2 -35 -35 -35 l-35 0 0 105 0 106 73 -3 72 -3 3 -53z m72 18
c0 -33 3 -40 20 -40 17 0 20 7 20 40 0 38 2 40 30 40 l30 0 0 -105 0 -105 -30
0 c-28 0 -30 2 -30 40 0 33 -3 40 -20 40 -17 0 -20 -7 -20 -40 0 -38 -2 -40
-30 -40 l-30 0 0 105 0 105 30 0 c28 0 30 -2 30 -40z m250 20 c0 -16 -7 -20
-35 -20 -28 0 -35 -4 -35 -20 0 -16 7 -20 30 -20 25 0 30 -4 30 -25 0 -21 -5
-25 -30 -25 -20 0 -30 -5 -30 -15 0 -10 11 -15 35 -15 31 0 35 -3 35 -25 0
-24 -2 -25 -65 -25 l-65 0 0 105 0 105 65 0 c58 0 65 -2 65 -20z m158 -38 c2
-30 -2 -60 -8 -67 -8 -10 -7 -21 4 -44 21 -40 21 -41 -18 -41 -28 0 -36 5 -44
28 l-10 27 -1 -27 c-1 -25 -5 -28 -36 -28 l-35 0 0 105 0 106 73 -3 72 -3 3
-53z m212 38 c0 -13 -7 -20 -20 -20 -18 0 -20 -7 -20 -85 l0 -85 -30 0 -30 0
0 85 c0 78 -2 85 -20 85 -13 0 -20 7 -20 20 0 18 7 20 70 20 63 0 70 -2 70
-20z m218 -2 l5 -22 8 22 c6 16 17 22 39 22 28 0 31 -3 24 -22 -3 -13 -13 -35
-20 -50 -13 -25 -12 -32 11 -78 14 -27 25 -52 25 -55 0 -3 -15 -5 -34 -5 -28
0 -36 5 -44 28 l-10 27 -7 -27 -7 -28 -99 0 -99 0 0 105 0 105 101 0 c95 0
101 -1 107 -22z m232 2 c0 -13 -7 -20 -20 -20 -18 0 -20 -7 -20 -85 l0 -85
-30 0 -30 0 0 85 c0 78 -2 85 -20 85 -13 0 -20 7 -20 20 0 18 7 20 70 20 63 0
70 -2 70 -20z"/>
<path d="M9250 10125 l0 -45 85 0 85 0 0 45 0 45 -85 0 -85 0 0 -45z"/>
<path d="M9790 10155 c0 -12 17 -15 90 -15 73 0 90 3 90 15 0 12 -17 15 -90
15 -73 0 -90 -3 -90 -15z"/>
<path d="M4550 9370 c0 -13 7 -20 20 -20 13 0 20 7 20 20 0 13 -7 20 -20 20
-13 0 -20 -7 -20 -20z"/>
<path d="M6660 9325 c0 -49 3 -66 13 -62 8 2 12 24 12 62 0 38 -4 60 -12 63
-10 3 -13 -14 -13 -63z"/>
<path d="M7170 9325 c0 -58 2 -66 18 -63 14 3 17 14 17 63 0 49 -3 60 -17 63
-16 3 -18 -5 -18 -63z"/>
<path d="M5323 8715 c-80 -40 -114 -99 -114 -191 0 -119 88 -204 211 -204 132
0 228 119 202 249 -21 98 -90 159 -190 168 -48 4 -65 0 -109 -22z"/>
<path d="M5020 6310 c0 -11 4 -20 9 -20 5 0 7 9 4 20 -3 11 -7 20 -9 20 -2 0
-4 -9 -4 -20z"/>
<path d="M2919 6137 c-29 -16 -54 -40 -74 -72 -25 -41 -30 -58 -30 -115 0 -56
4 -73 28 -108 72 -110 218 -133 313 -50 108 95 98 255 -20 336 -42 28 -57 32
-111 32 -45 0 -73 -6 -106 -23z"/>
<path d="M7655 6144 c-84 -46 -119 -109 -113 -204 4 -78 29 -123 91 -164 188
-122 413 103 291 291 -42 64 -86 87 -168 91 -51 2 -79 -2 -101 -14z"/>
<path d="M1520 4825 c0 -14 5 -25 10 -25 6 0 10 11 10 25 0 14 -4 25 -10 25
-5 0 -10 -11 -10 -25z"/>
<path d="M8920 4825 c0 -14 5 -25 10 -25 6 0 10 11 10 25 0 14 -4 25 -10 25
-5 0 -10 -11 -10 -25z"/>
<path d="M840 1615 c0 -14 5 -25 10 -25 6 0 10 11 10 25 0 14 -4 25 -10 25 -5
0 -10 -11 -10 -25z"/>
<path d="M1141 1578 c-1 -16 4 -28 9 -28 12 0 12 8 0 35 -8 18 -9 17 -9 -7z"/>
<path d="M1830 1658 c0 -14 -9 -18 -35 -18 -24 0 -35 -5 -35 -15 0 -10 10 -15
30 -15 25 0 30 -4 30 -25 0 -21 -5 -25 -30 -25 -23 0 -30 -4 -30 -20 0 -16 7
-20 34 -20 21 0 36 -5 38 -14 2 -8 12 7 24 33 l21 48 -23 44 c-13 24 -23 36
-24 27z"/>
<path d="M8700 1615 c0 -16 6 -25 15 -25 9 0 15 9 15 25 0 16 -6 25 -15 25 -9
0 -15 -9 -15 -25z"/>
<path d="M9005 1577 c-4 -10 -5 -21 -1 -24 10 -10 18 4 13 24 -4 17 -4 17 -12
0z"/>
<path d="M4950 885 c0 -14 5 -25 10 -25 6 0 10 11 10 25 0 14 -4 25 -10 25 -5
0 -10 -11 -10 -25z"/>
<path d="M5430 885 c0 -14 5 -25 10 -25 6 0 10 11 10 25 0 14 -4 25 -10 25 -5
0 -10 -11 -10 -25z"/>
<path d="M5860 928 c0 -14 -9 -18 -35 -18 -28 0 -35 -4 -35 -20 0 -16 7 -20
30 -20 25 0 30 -4 30 -25 0 -21 -5 -25 -30 -25 -20 0 -30 -5 -30 -15 0 -10 11
-15 35 -15 26 0 35 -4 35 -17 1 -10 12 3 26 30 l24 47 -24 48 c-14 26 -25 39
-26 30z"/>
</g>
</svg>
