<?xml version="1.0" standalone="no"?>
<!DOCTYPE svg PUBLIC "-//W3C//DTD SVG 20010904//EN"
 "http://www.w3.org/TR/2001/REC-SVG-20010904/DTD/svg10.dtd">
<svg version="1.0" xmlns="http://www.w3.org/2000/svg"
 width="602.000000pt" height="287.000000pt" viewBox="0 0 602.000000 287.000000"
 preserveAspectRatio="xMidYMid meet">

<g transform="translate(0.000000,287.000000) scale(0.100000,-0.100000)"
fill="#000000" stroke="none">
<path d="M709 2822 c-93 -46 -62 -177 43 -177 33 0 45 6 70 34 25 28 29 39 24
69 -11 69 -76 104 -137 74z"/>
<path d="M1180 2585 l0 -165 1485 0 1485 0 0 84 c0 47 -4 88 -10 91 -5 3 -10
40 -10 81 l0 74 -1475 0 -1475 0 0 -165z m87 105 c24 -15 26 -12 -39 -55 l-28
-17 0 57 c0 57 0 57 23 43 12 -8 32 -21 44 -28z m291 -25 c0 -14 -4 -25 -9
-25 -5 0 -9 14 -9 31 0 16 4 28 9 25 5 -3 9 -17 9 -31z m240 23 c8 -8 15 -8
26 1 10 9 16 9 21 1 5 -9 10 -9 18 -1 14 14 30 14 21 0 -3 -6 -1 -15 6 -19 16
-10 4 -30 -18 -29 -14 0 -14 2 2 8 18 7 18 8 2 14 -10 4 -19 1 -22 -8 -8 -20
-31 -19 -42 1 -8 14 -10 14 -25 -1 -16 -15 -17 -14 -17 14 0 33 8 39 28 19z
m136 -15 c-9 -38 -11 -39 -16 -3 -3 21 0 30 9 30 10 0 11 -8 7 -27z m92 -10
c-18 -33 -21 -26 -6 13 6 15 13 24 16 21 3 -3 -1 -18 -10 -34z m146 7 c3 -19
0 -30 -7 -30 -6 0 -11 10 -9 23 1 12 3 25 3 30 2 17 9 5 13 -23z m46 0 c-5
-17 -15 -33 -21 -37 -5 -3 -7 -2 -4 4 4 6 11 22 16 37 14 36 22 33 9 -4z m96
-2 c4 -20 2 -28 -7 -28 -10 0 -14 27 -8 59 2 9 8 -5 15 -31z m42 -9 c-9 -19
-15 -29 -16 -22 0 15 22 64 27 60 2 -2 -3 -19 -11 -38z m523 2 c-6 -18 -14
-30 -17 -27 -2 3 1 19 8 36 7 17 14 29 16 27 2 -2 -1 -18 -7 -36z m61 9 c0
-19 -5 -30 -14 -30 -25 0 -29 20 -10 40 25 24 24 25 24 -10z m85 13 c-2 -10
-4 -25 -5 -33 -1 -10 -4 -9 -9 5 -9 22 -4 45 9 45 5 0 7 -8 5 -17z m147 -13
c3 -17 0 -30 -6 -30 -6 0 -11 14 -11 30 0 17 3 30 6 30 4 0 9 -13 11 -30z m87
-9 c-6 -18 -14 -30 -17 -27 -2 3 1 19 8 36 7 17 14 29 16 27 2 -2 -1 -18 -7
-36z m157 -7 c-7 -19 -36 -18 -36 2 0 9 8 23 18 30 14 10 18 10 20 -2 2 -8 1
-22 -2 -30z m269 7 c1 -22 -3 -37 -7 -35 -10 7 -11 74 0 74 4 0 7 -18 7 -39z
m154 -8 c-1 -16 -2 -15 -7 2 l-5 20 -8 -20 c-6 -16 -8 -14 -8 13 -1 30 1 32
14 18 8 -8 14 -23 14 -33z m141 13 c0 -19 -4 -37 -8 -40 -4 -2 -8 13 -7 35 0
21 3 39 8 39 4 0 7 -15 7 -34z m-2274 -1 c1 -14 -4 -21 -16 -21 -12 0 -17 7
-16 22 1 29 31 28 32 -1z m1509 -3 c1 -12 -2 -22 -7 -22 -4 0 -8 4 -8 9 0 5
-3 17 -7 27 -4 11 -2 15 7 12 7 -2 14 -14 15 -26z m570 0 c1 -12 -2 -22 -7
-22 -4 0 -8 4 -8 9 0 5 -3 17 -7 27 -4 11 -2 15 7 12 7 -2 14 -14 15 -26z
m-2375 8 c-13 -9 -13 -11 0 -20 13 -8 12 -10 -2 -10 -11 0 -18 8 -18 20 0 12
7 20 18 20 14 0 15 -2 2 -10z m41 -7 c0 -15 2 -15 9 2 8 19 9 19 9 -3 1 -17
-4 -23 -16 -20 -19 4 -31 38 -14 38 6 0 11 -8 12 -17z m68 14 c-2 -1 -12 -9
-21 -16 -15 -12 -18 -11 -18 3 0 10 8 16 22 16 12 0 19 -1 17 -3z m571 -17 c0
-13 -7 -20 -20 -20 -11 0 -20 5 -20 11 0 5 5 7 12 3 8 -5 9 -2 5 9 -4 11 -1
17 8 17 8 0 15 -9 15 -20z m47 3 c2 -6 -5 -17 -16 -23 -19 -10 -21 -8 -21 15
0 19 5 26 17 23 9 -2 18 -8 20 -15z m129 8 c16 13 18 1 4 -21 -9 -13 -11 -13
-20 0 -5 8 -9 20 -9 25 0 6 3 4 6 -3 4 -10 8 -10 19 -1z m153 -13 c0 -21 -1
-22 -8 -3 -8 19 -8 19 -19 0 -11 -19 -11 -19 -12 3 0 15 6 22 20 22 14 0 20
-6 19 -22z m49 -1 c2 -12 -3 -17 -17 -17 -12 0 -21 5 -21 11 0 5 5 7 12 3 8
-5 9 -2 5 10 -5 12 -3 16 5 14 7 -3 14 -12 16 -21z m92 11 c0 -5 -4 -6 -10 -3
-5 3 -10 2 -10 -4 0 -5 6 -12 13 -15 6 -3 1 -4 -13 -3 -14 1 -28 7 -32 12 -5
6 -8 4 -8 -5 0 -13 -1 -13 -10 0 -16 25 -12 29 30 28 22 0 40 -5 40 -10z m35
2 c-3 -5 -1 -10 5 -10 6 0 8 -4 5 -10 -10 -16 -21 -11 -22 10 -1 11 3 20 8 20
6 0 7 -4 4 -10z m65 -5 c0 -8 -9 -19 -20 -25 -18 -9 -20 -8 -20 15 0 18 5 25
20 25 11 0 20 -7 20 -15z m40 -5 c0 -11 -7 -20 -15 -20 -8 0 -15 5 -15 11 0 5
5 7 10 4 6 -3 10 -2 10 4 0 5 -6 12 -12 14 -8 3 -6 6 5 6 11 1 17 -6 17 -19z
m40 10 c-13 -9 -13 -11 0 -20 13 -8 12 -10 -2 -10 -11 0 -18 8 -18 20 0 12 7
20 18 20 14 0 15 -2 2 -10z m60 -1 c0 -5 -5 -7 -12 -3 -8 5 -9 2 -5 -9 3 -10
2 -17 -3 -17 -13 0 -22 18 -15 30 8 13 35 13 35 -1z m35 1 c-3 -5 -10 -10 -16
-10 -5 0 -9 5 -9 10 0 6 7 10 16 10 8 0 12 -4 9 -10z m155 -1 c0 -5 -5 -7 -12
-3 -8 5 -9 2 -5 -9 3 -10 2 -17 -3 -17 -13 0 -22 18 -15 30 8 13 35 13 35 -1z
m90 -9 c0 -11 -7 -20 -15 -20 -8 0 -15 5 -15 11 0 5 5 7 12 3 8 -5 9 -2 5 9
-3 10 -2 17 3 17 6 0 10 -9 10 -20z m31 3 c0 -15 2 -15 9 2 8 19 9 19 9 -2 1
-14 -5 -23 -14 -23 -8 0 -15 2 -15 4 0 2 -3 11 -6 20 -3 9 -1 16 5 16 6 0 11
-8 12 -17z m209 -2 c0 -10 -7 -22 -16 -25 -23 -9 -24 -8 -24 19 0 18 5 25 20
25 13 0 20 -7 20 -19z m48 2 c-2 -10 -10 -18 -18 -18 -8 0 -16 8 -18 18 -2 12
3 17 18 17 15 0 20 -5 18 -17z m86 1 c9 -23 8 -24 -11 -24 -15 0 -16 2 -3 10
10 6 11 10 3 10 -7 0 -13 5 -13 10 0 16 17 12 24 -6z m294 -1 c-2 -10 -10 -18
-18 -18 -8 0 -16 8 -18 18 -2 12 3 17 18 17 15 0 20 -5 18 -17z m142 6 c0 -5
-5 -7 -12 -3 -8 5 -9 2 -5 -9 3 -10 2 -17 -3 -17 -13 0 -22 18 -15 30 8 13 35
13 35 -1z m38 4 c-9 -2 -19 -12 -21 -21 -3 -12 -5 -10 -6 6 -1 17 4 22 22 21
15 -1 17 -3 5 -6z m-2271 -9 c-3 -3 -12 -4 -19 -1 -8 3 -5 6 6 6 11 1 17 -2
13 -5z m1188 -14 c-3 -5 -11 -10 -16 -10 -6 0 -7 5 -4 10 3 6 11 10 16 10 6 0
7 -4 4 -10z m-1475 -140 c0 -20 -5 -30 -15 -30 -18 0 -20 26 -2 45 17 19 17
19 17 -15z m407 -2 c-3 -7 -5 -2 -5 12 0 14 2 19 5 13 2 -7 2 -19 0 -25z
m-504 13 c4 10 6 10 6 -2 1 -21 -26 -32 -32 -14 -7 17 4 29 14 14 5 -8 8 -7
12 2z m364 -5 c-3 -7 0 -19 6 -26 9 -10 9 -11 -3 -8 -18 5 -26 48 -10 48 7 0
10 -6 7 -14z m111 -8 c-4 -29 -38 -38 -38 -10 0 19 11 29 33 31 5 1 7 -9 5
-21z m-422 1 c10 -17 -13 -36 -27 -22 -12 12 -4 33 11 33 5 0 12 -5 16 -11z
m124 1 c-13 -9 -13 -11 0 -20 9 -6 10 -10 3 -10 -6 0 -15 5 -18 10 -8 13 3 30
18 30 7 0 6 -4 -3 -10z m54 2 c-6 -4 -14 -14 -17 -22 -4 -10 -6 -8 -6 8 -1 15
5 22 17 22 10 0 13 -3 6 -8z m56 -3 c0 -5 -5 -7 -12 -3 -8 5 -9 2 -5 -9 3 -10
2 -17 -3 -17 -13 0 -22 18 -15 30 8 13 35 13 35 -1z m48 -12 c2 -12 -3 -17
-17 -17 -12 0 -21 5 -21 11 0 5 5 7 12 3 8 -5 9 -2 5 10 -5 12 -3 16 5 14 7
-3 14 -12 16 -21z m92 12 c0 -5 -5 -7 -12 -3 -8 5 -9 2 -5 -9 3 -10 2 -17 -3
-17 -13 0 -22 18 -15 30 8 13 35 13 35 -1z"/>
<path d="M1825 2677 c-4 -10 -5 -21 -1 -24 10 -10 18 4 13 24 -4 17 -4 17 -12
0z"/>
<path d="M2915 2660 c3 -5 8 -10 11 -10 2 0 4 5 4 10 0 6 -5 10 -11 10 -5 0
-7 -4 -4 -10z"/>
<path d="M3390 2659 c0 -5 5 -7 10 -4 6 3 10 8 10 11 0 2 -4 4 -10 4 -5 0 -10
-5 -10 -11z"/>
<path d="M2110 2660 c0 -5 5 -10 10 -10 6 0 10 5 10 10 0 6 -4 10 -10 10 -5 0
-10 -4 -10 -10z"/>
<path d="M2630 2660 c0 -5 5 -10 10 -10 6 0 10 5 10 10 0 6 -4 10 -10 10 -5 0
-10 -4 -10 -10z"/>
<path d="M3340 2660 c0 -5 5 -10 10 -10 6 0 10 5 10 10 0 6 -4 10 -10 10 -5 0
-10 -4 -10 -10z"/>
<path d="M3720 2660 c0 -5 5 -10 10 -10 6 0 10 5 10 10 0 6 -4 10 -10 10 -5 0
-10 -4 -10 -10z"/>
<path d="M1720 2499 c0 -5 5 -7 10 -4 6 3 10 8 10 11 0 2 -4 4 -10 4 -5 0 -10
-5 -10 -11z"/>
<path d="M1300 2500 c0 -5 5 -10 10 -10 6 0 10 5 10 10 0 6 -4 10 -10 10 -5 0
-10 -4 -10 -10z"/>
<path d="M4775 2680 c-3 -5 -1 -10 6 -10 7 0 9 -10 7 -25 -3 -14 -1 -28 3 -31
5 -3 9 13 9 35 0 39 -11 53 -25 31z"/>
<path d="M4890 2654 c-7 -19 -9 -38 -6 -41 3 -4 6 -1 6 5 0 7 9 12 20 12 11 0
20 -5 20 -12 0 -6 3 -9 6 -5 7 7 -17 77 -27 77 -4 0 -13 -16 -19 -36z m30 -5
c0 -5 -4 -9 -10 -9 -5 0 -10 7 -10 16 0 8 5 12 10 9 6 -3 10 -10 10 -16z"/>
<path d="M5063 2650 c0 -25 2 -35 4 -22 2 12 2 32 0 45 -2 12 -4 2 -4 -23z"/>
<path d="M5551 2665 c-1 -39 12 -58 35 -53 14 2 19 12 20 38 l1 35 -4 -33 c-6
-46 -36 -40 -44 8 -6 34 -6 34 -8 5z"/>
<path d="M5020 2652 c0 -17 3 -33 8 -35 4 -3 7 8 7 23 0 16 -3 32 -7 36 -5 4
-8 -7 -8 -24z"/>
<path d="M5248 2675 c-6 -7 3 -65 11 -65 7 0 7 58 -1 65 -2 3 -7 3 -10 0z"/>
<path d="M5427 2673 c-7 -10 3 -63 12 -63 7 0 6 58 -1 66 -3 3 -8 2 -11 -3z"/>
<path d="M5086 2660 c7 -8 14 -24 17 -35 4 -19 5 -19 6 1 0 12 -7 28 -16 35
-16 12 -17 12 -7 -1z"/>
<path d="M5131 2660 c-17 -10 -10 -44 9 -46 9 0 10 1 3 3 -15 5 -16 13 -3 33
6 10 10 11 10 3 0 -7 5 -13 10 -13 6 0 10 4 10 9 0 13 -25 20 -39 11z"/>
<path d="M5193 2663 c-7 -2 -13 -17 -12 -31 1 -26 1 -26 7 -4 4 13 12 23 17
23 6 0 13 -10 17 -23 6 -20 7 -19 5 6 -2 30 -12 38 -34 29z"/>
<path d="M5322 2661 c-18 -11 -11 -45 8 -47 9 0 10 1 3 3 -19 6 -16 30 5 42 9
6 13 10 7 11 -5 0 -16 -4 -23 -9z"/>
<path d="M5378 2663 c15 -6 16 -43 1 -43 -5 0 -7 5 -3 12 4 7 3 8 -5 4 -6 -4
-9 -12 -6 -17 10 -14 45 -11 45 5 0 27 -12 46 -29 45 -10 0 -11 -2 -3 -6z"/>
<path d="M5464 2655 c-9 -23 3 -45 23 -44 17 1 17 2 1 6 -20 5 -24 28 -8 38 6
3 10 1 10 -4 0 -6 5 -11 11 -11 8 0 8 5 -1 15 -7 8 -17 15 -22 15 -5 0 -11 -7
-14 -15z"/>
<path d="M5635 2660 c-4 -6 -2 -17 5 -24 8 -11 8 -15 -2 -19 -8 -4 -7 -6 5 -6
19 -1 23 25 5 32 -10 4 -9 8 2 16 9 7 10 11 3 11 -6 0 -15 -5 -18 -10z"/>
<path d="M5687 2663 c-4 -3 -7 -17 -7 -30 0 -18 5 -23 23 -22 16 1 18 2 5 6
-19 5 -25 43 -8 43 6 0 10 -4 10 -10 0 -5 5 -10 11 -10 8 0 8 5 -1 15 -14 16
-23 19 -33 8z"/>
<path d="M4951 2653 c-2 -24 12 -43 30 -43 14 0 19 7 18 28 -2 23 -2 24 -6 5
-2 -13 -9 -23 -14 -23 -5 0 -14 10 -19 23 -5 12 -9 17 -9 10z"/>
<path d="M5280 2640 c0 -11 2 -20 4 -20 2 0 6 9 9 20 3 11 1 20 -4 20 -5 0 -9
-9 -9 -20z"/>
<path d="M5740 2635 c0 -14 2 -25 4 -25 2 0 6 11 8 25 3 14 1 25 -3 25 -5 0
-9 -11 -9 -25z"/>
<path d="M695 2604 c-43 -11 -81 -28 -112 -51 -31 -22 -33 -28 -33 -84 l0 -59
200 0 200 0 0 58 c0 66 -16 89 -83 117 -39 16 -138 27 -172 19z"/>
<path d="M4783 2359 c18 -10 18 -12 -4 -35 -12 -13 -20 -27 -16 -30 9 -10 47
38 44 56 -1 8 -11 16 -22 18 -19 3 -19 2 -2 -9z"/>
<path d="M4885 2334 c8 -20 15 -38 15 -40 0 -2 4 -4 8 -4 9 0 34 71 28 78 -2
1 -9 -12 -16 -30 l-13 -33 -10 33 c-5 17 -14 32 -19 32 -4 0 -1 -16 7 -36z"/>
<path d="M5003 2330 c0 -25 2 -35 4 -22 2 12 2 32 0 45 -2 12 -4 2 -4 -23z"/>
<path d="M5099 2363 c-7 -34 -6 -73 2 -73 5 0 9 18 9 40 0 35 -7 55 -11 33z"/>
<path d="M5311 2328 c1 -24 3 -35 6 -25 5 20 22 23 29 4 3 -8 19 -14 37 -15
23 -1 27 2 17 8 -13 8 -12 10 3 10 9 0 17 7 17 15 0 8 -5 15 -11 15 -5 0 -7
-4 -4 -10 3 -5 2 -10 -4 -10 -5 0 -11 6 -14 13 -3 7 -9 2 -15 -13 -11 -26 -14
-22 -16 20 -1 18 -7 26 -23 28 -21 3 -23 0 -22 -40z m37 21 c-2 -6 -8 -10 -13
-10 -5 0 -11 4 -13 10 -2 6 4 11 13 11 9 0 15 -5 13 -11z"/>
<path d="M5677 2352 c-7 -10 4 -62 12 -62 4 0 5 16 3 35 -4 36 -7 41 -15 27z"/>
<path d="M4954 2339 c-4 -8 -3 -9 4 -5 8 5 12 -2 12 -19 0 -14 4 -24 9 -21 10
7 3 43 -10 51 -4 3 -11 0 -15 -6z"/>
<path d="M5183 2325 c0 -14 3 -28 8 -31 5 -3 9 9 9 25 0 17 -4 31 -9 31 -5 0
-8 -11 -8 -25z"/>
<path d="M5233 2343 c-16 -6 -17 -53 -2 -53 5 0 7 5 4 10 -3 6 1 10 9 10 8 0
17 4 20 9 8 12 -16 29 -31 24z m17 -13 c0 -5 -5 -10 -11 -10 -5 0 -7 5 -4 10
3 6 8 10 11 10 2 0 4 -4 4 -10z"/>
<path d="M5440 2335 c-14 -17 -7 -45 12 -44 10 0 10 2 1 6 -7 2 -13 11 -13 18
0 7 6 15 13 18 6 2 9 7 6 11 -3 4 -12 0 -19 -9z"/>
<path d="M5630 2335 c-10 -12 -9 -16 6 -22 16 -6 16 -7 -2 -14 -17 -7 -17 -8
4 -8 23 -1 30 13 11 24 -6 4 -8 13 -5 21 7 18 2 18 -14 -1z"/>
<path d="M5032 2315 c0 -16 2 -22 5 -12 2 9 2 23 0 30 -3 6 -5 -1 -5 -18z"/>
<path d="M5054 2325 c-7 -17 3 -35 18 -35 7 0 7 4 -1 13 -8 10 -7 17 1 25 9 9
9 12 0 12 -7 0 -15 -7 -18 -15z"/>
<path d="M5150 2316 c0 -14 5 -26 10 -26 6 0 10 9 10 19 0 11 -4 23 -10 26 -6
4 -10 -5 -10 -19z"/>
<path d="M5470 2307 c0 -20 4 -37 9 -37 10 0 9 55 -2 66 -4 4 -7 -9 -7 -29z"/>
<path d="M5500 2321 c0 -11 4 -22 9 -25 4 -3 6 6 3 19 -5 30 -12 33 -12 6z"/>
<path d="M5538 2315 c-3 -14 -1 -25 3 -25 5 0 9 11 9 25 0 14 -2 25 -4 25 -2
0 -6 -11 -8 -25z"/>
<path d="M5565 2328 c-9 -23 2 -38 28 -37 21 0 21 1 2 9 -17 7 -17 9 -2 9 18
1 25 31 6 31 -5 0 -7 -4 -4 -10 3 -5 2 -10 -4 -10 -5 0 -11 6 -14 13 -3 8 -7
7 -12 -5z"/>
<path d="M4947 2313 c-10 -9 -9 -23 1 -23 5 0 9 7 9 15 0 17 -1 18 -10 8z"/>
<path d="M5127 2313 c-10 -9 -9 -23 1 -23 5 0 9 7 9 15 0 17 -1 18 -10 8z"/>
<path d="M4779 2041 c8 -5 10 -14 6 -21 -4 -7 -1 -16 6 -21 11 -8 10 -12 -5
-24 -11 -8 -15 -15 -9 -15 16 0 31 23 29 45 -2 27 -14 45 -29 45 -8 0 -7 -3 2
-9z"/>
<path d="M4881 2008 c1 -24 3 -35 6 -25 6 21 19 22 31 1 7 -12 9 -6 8 22 -1
32 -5 40 -23 42 -21 3 -23 0 -22 -40z m39 11 c0 -5 -7 -9 -15 -9 -15 0 -20 12
-9 23 8 8 24 -1 24 -14z"/>
<path d="M5350 2037 c0 -8 -9 -17 -20 -20 -25 -6 -26 -30 -2 -48 15 -13 16
-12 4 3 -8 9 -11 22 -7 28 10 17 25 11 25 -10 0 -11 4 -20 10 -20 11 0 10 69
-2 76 -4 3 -8 -1 -8 -9z"/>
<path d="M5009 2029 c-2 -26 3 -54 11 -63 5 -4 7 8 5 29 -4 38 -14 60 -16 34z"/>
<path d="M5440 2006 c0 -35 15 -40 16 -5 1 16 -3 29 -7 29 -5 0 -9 -11 -9 -24z"/>
<path d="M4943 2004 c-3 -8 2 -23 11 -32 16 -16 17 -16 10 1 -4 12 -1 17 10
17 9 0 16 7 16 15 0 20 -39 19 -47 -1z"/>
<path d="M5043 2004 c-3 -8 -1 -20 6 -25 6 -5 9 -6 6 -3 -2 4 0 15 6 25 7 13
6 19 -1 19 -6 0 -13 -7 -17 -16z"/>
<path d="M5080 1995 c0 -14 5 -25 10 -25 6 0 10 11 10 25 0 14 -4 25 -10 25
-5 0 -10 -11 -10 -25z"/>
<path d="M5117 2013 c-4 -3 -7 -14 -7 -24 0 -20 26 -33 36 -17 4 6 3 8 -4 4
-6 -3 -13 -2 -17 4 -3 5 3 10 14 10 22 0 28 14 11 25 -5 3 -10 1 -10 -4 0 -6
-5 -11 -11 -11 -5 0 -7 5 -4 10 7 11 2 13 -8 3z"/>
<path d="M5171 2010 c0 -8 4 -22 9 -30 9 -13 11 -13 20 0 5 8 9 22 9 30 -1 11
-3 10 -6 -2 -2 -10 -8 -18 -13 -18 -5 0 -11 8 -13 18 -3 12 -5 13 -6 2z"/>
<path d="M5223 2004 c-3 -9 2 -23 13 -32 17 -16 17 -16 5 1 -12 15 -11 17 8
17 12 0 21 6 21 15 0 20 -39 19 -47 -1z"/>
<path d="M5398 2014 c10 -5 9 -9 -5 -19 -15 -12 -16 -16 -4 -27 12 -11 13 -10
8 5 -4 9 -2 17 3 17 6 0 10 -4 10 -10 0 -5 5 -10 11 -10 20 0 5 45 -16 47 -11
2 -14 0 -7 -3z"/>
<path d="M5493 2013 c18 -5 18 -5 0 -18 -15 -11 -16 -16 -5 -27 11 -11 12 -10
7 5 -8 19 10 24 18 5 3 -7 6 -1 6 15 1 22 -3 27 -21 26 -19 -1 -19 -2 -5 -6z"/>
<path d="M430 1933 c-34 -12 -40 -36 -40 -154 0 -110 1 -119 22 -133 20 -14
90 -16 565 -16 530 0 543 0 563 20 13 13 20 34 21 63 1 79 -2 172 -7 188 -11
37 -41 39 -582 38 -290 0 -534 -3 -542 -6z m1099 -27 c8 -9 11 -54 9 -132 l-3
-119 -555 -3 c-513 -2 -556 -1 -567 15 -20 26 -17 217 3 237 14 14 78 16 558
16 452 0 545 -2 555 -14z"/>
<path d="M2834 1815 c-106 -63 -96 -197 19 -254 61 -30 105 -23 155 26 l37 36
-37 -31 c-52 -43 -96 -50 -152 -22 -135 65 -89 260 61 260 71 0 124 -53 134
-135 l6 -50 2 44 c1 48 -26 104 -60 122 -11 5 -17 14 -14 20 4 5 -18 9 -52 9
-44 0 -68 -6 -99 -25z"/>
<path d="M3323 1833 c15 -2 39 -2 55 0 15 2 2 4 -28 4 -30 0 -43 -2 -27 -4z"/>
<path d="M4041 1836 c2 -2 20 -6 39 -10 25 -4 31 -3 20 4 -14 9 -69 15 -59 6z"/>
<path d="M3166 1797 c3 -10 9 -15 12 -12 3 3 0 11 -7 18 -10 9 -11 8 -5 -6z"/>
<path d="M3101 1790 c0 -8 4 -24 9 -35 5 -13 9 -14 9 -5 0 8 -4 24 -9 35 -5
13 -9 14 -9 5z"/>
<path d="M3275 1790 c-3 -5 -1 -10 4 -10 6 0 11 5 11 10 0 6 -2 10 -4 10 -3 0
-8 -4 -11 -10z"/>
<path d="M3470 1791 c0 -6 4 -13 10 -16 6 -3 7 1 4 9 -7 18 -14 21 -14 7z"/>
<path d="M3611 1784 c0 -11 3 -14 6 -6 3 7 2 16 -1 19 -3 4 -6 -2 -5 -13z"/>
<path d="M4159 1785 c17 -33 31 -51 31 -40 0 6 -10 21 -21 35 -13 17 -17 18
-10 5z"/>
<path d="M3432 1760 c0 -19 2 -27 5 -17 2 9 2 25 0 35 -3 9 -5 1 -5 -18z"/>
<path d="M3282 1740 c0 -14 2 -19 5 -12 2 6 2 18 0 25 -3 6 -5 1 -5 -13z"/>
<path d="M3411 1744 c0 -11 3 -14 6 -6 3 7 2 16 -1 19 -3 4 -6 -2 -5 -13z"/>
<path d="M3475 1730 c10 -11 20 -20 23 -20 3 0 -3 9 -13 20 -10 11 -20 20 -23
20 -3 0 3 -9 13 -20z"/>
<path d="M3700 1741 c0 -6 -10 -16 -22 -21 -16 -6 -18 -9 -7 -9 19 -1 45 26
35 36 -3 3 -6 1 -6 -6z"/>
<path d="M2161 1714 c0 -11 3 -14 6 -6 3 7 2 16 -1 19 -3 4 -6 -2 -5 -13z"/>
<path d="M3250 1726 c0 -2 8 -10 18 -17 15 -13 16 -12 3 4 -13 16 -21 21 -21
13z"/>
<path d="M3517 1718 c2 -5 10 -8 18 -8 8 0 16 3 18 8 3 4 -5 7 -18 7 -13 0
-21 -3 -18 -7z"/>
<path d="M3610 1724 c0 -2 9 -8 20 -14 11 -6 20 -7 20 -2 0 6 -9 12 -20 15
-11 3 -20 3 -20 1z"/>
<path d="M5287 1723 c-4 -3 -7 -24 -7 -45 0 -33 3 -38 23 -38 20 1 20 2 5 11
-10 5 -18 14 -18 19 0 5 8 11 18 13 16 4 16 5 0 6 -10 0 -18 5 -18 11 0 5 8
14 18 19 14 9 15 10 1 11 -9 0 -19 -3 -22 -7z"/>
<path d="M5348 1690 c2 -22 8 -40 13 -40 5 0 7 11 3 25 -4 15 -1 32 6 40 10
12 9 15 -7 15 -16 0 -18 -6 -15 -40z"/>
<path d="M5408 1719 c-33 -19 -17 -79 21 -79 11 0 9 5 -7 16 -12 8 -22 21 -22
29 0 8 10 21 22 29 25 18 13 21 -14 5z"/>
<path d="M5464 1706 c-7 -29 3 -66 17 -66 25 0 49 23 49 45 0 23 -24 45 -49
45 -6 0 -13 -11 -17 -24z m47 -2 c15 -18 1 -49 -22 -49 -11 0 -16 30 -10 60 2
10 19 4 32 -11z"/>
<path d="M3137 1714 c7 -3 9 -13 6 -22 -4 -14 -3 -14 5 -2 12 16 7 30 -11 29
-9 0 -9 -2 0 -5z"/>
<path d="M3358 1713 c7 -3 16 -2 19 1 4 3 -2 6 -13 5 -11 0 -14 -3 -6 -6z"/>
<path d="M3578 1713 c7 -3 16 -2 19 1 4 3 -2 6 -13 5 -11 0 -14 -3 -6 -6z"/>
<path d="M4777 1700 c-22 -31 -21 -37 3 -43 26 -7 31 3 22 38 l-8 29 -17 -24z
m13 -15 c0 -8 -4 -15 -10 -15 -5 0 -7 7 -4 15 4 8 8 15 10 15 2 0 4 -7 4 -15z"/>
<path d="M4881 1694 c-1 -35 18 -57 43 -48 11 4 16 17 15 43 l-2 36 -6 -35
c-4 -22 -12 -35 -21 -35 -9 0 -17 13 -21 35 l-6 35 -2 -31z"/>
<path d="M5060 1710 c0 -5 -6 -10 -14 -10 -22 0 -29 -32 -9 -49 16 -15 16 -15
4 1 -13 17 -8 38 10 38 5 0 9 -9 9 -21 0 -11 4 -18 9 -14 12 7 11 65 -1 65 -4
0 -8 -4 -8 -10z"/>
<path d="M5150 1688 c0 -13 5 -30 10 -38 7 -11 10 -5 10 23 0 20 -4 37 -10 37
-5 0 -10 -10 -10 -22z"/>
<path d="M3112 1675 c0 -16 2 -22 5 -12 2 9 2 23 0 30 -3 6 -5 -1 -5 -18z"/>
<path d="M3290 1690 c0 -5 7 -7 15 -4 8 4 15 8 15 10 0 2 -7 4 -15 4 -8 0 -15
-4 -15 -10z"/>
<path d="M3530 1693 c8 -3 19 -11 23 -17 6 -7 7 -6 4 4 -2 8 -12 16 -23 17
-13 2 -15 1 -4 -4z"/>
<path d="M3810 1695 c0 -8 29 -12 39 -5 9 5 4 8 -13 8 -14 0 -26 -2 -26 -3z"/>
<path d="M4962 1660 c0 -25 2 -38 6 -30 4 8 14 15 22 15 9 0 15 9 15 24 0 13
-7 26 -15 28 -12 4 -13 3 -1 -5 8 -6 11 -17 7 -28 -8 -20 -21 -10 -29 21 -3
11 -5 0 -5 -25z"/>
<path d="M5106 1692 c7 -4 14 -16 17 -27 4 -15 5 -14 6 8 1 20 -4 27 -16 27
-12 0 -14 -3 -7 -8z"/>
<path d="M5194 1685 c-8 -20 2 -45 18 -44 10 0 10 2 1 6 -18 7 -16 23 2 23 8
0 15 7 15 15 0 8 -7 15 -15 15 -9 0 -18 -7 -21 -15z"/>
<path d="M3246 1673 c-6 -14 -5 -15 5 -6 7 7 10 15 7 18 -3 3 -9 -2 -12 -12z"/>
<path d="M3650 1669 c0 -5 5 -7 10 -4 6 3 10 8 10 11 0 2 -4 4 -10 4 -5 0 -10
-5 -10 -11z"/>
<path d="M5090 1661 c0 -6 4 -13 10 -16 6 -3 7 1 4 9 -7 18 -14 21 -14 7z"/>
<path d="M3632 1644 c10 -10 20 -16 22 -13 3 3 -5 11 -17 18 -21 13 -21 12 -5
-5z"/>
<path d="M2161 1614 c0 -11 3 -14 6 -6 3 7 2 16 -1 19 -3 4 -6 -2 -5 -13z"/>
<path d="M2161 1404 c0 -11 3 -14 6 -6 3 7 2 16 -1 19 -3 4 -6 -2 -5 -13z"/>
<path d="M4770 1394 c0 -9 8 -23 18 -30 16 -13 16 -15 -2 -29 -11 -8 -15 -15
-9 -15 6 0 16 7 23 15 10 13 9 19 -6 36 -16 17 -16 22 -4 29 13 8 12 10 -2 10
-10 0 -18 -7 -18 -16z"/>
<path d="M4883 1394 c-4 -11 2 -23 17 -34 23 -18 13 -38 -12 -24 -10 5 -10 4
0 -7 10 -11 15 -11 28 3 14 14 14 17 -6 36 -21 19 -21 21 -3 31 17 10 17 10 0
11 -10 0 -20 -7 -24 -16z"/>
<path d="M5160 1395 c0 -8 -9 -15 -19 -15 -26 0 -35 -30 -15 -49 15 -15 15
-14 5 6 -7 14 -8 24 -1 28 15 9 30 -4 23 -20 -3 -8 0 -15 6 -15 6 0 11 17 11
40 0 22 -2 40 -5 40 -3 0 -5 -7 -5 -15z"/>
<path d="M5253 1370 c0 -25 2 -35 4 -22 2 12 2 32 0 45 -2 12 -4 2 -4 -23z"/>
<path d="M4991 1365 c0 -34 2 -36 9 -17 5 12 14 22 19 22 5 0 12 -10 14 -22 4
-20 4 -19 6 5 1 20 -4 27 -18 27 -11 0 -22 6 -24 13 -3 6 -5 -6 -6 -28z"/>
<path d="M4947 1373 c-13 -13 -7 -41 11 -48 14 -5 15 -4 5 6 -18 18 -16 37 5
42 14 4 14 5 1 6 -9 0 -19 -2 -22 -6z"/>
<path d="M5057 1366 c-7 -17 18 -54 29 -43 4 4 2 7 -4 7 -7 0 -12 5 -12 10 0
6 7 10 15 10 8 0 15 7 15 15 0 19 -36 20 -43 1z"/>
<path d="M5181 1364 c0 -12 7 -28 17 -35 15 -12 16 -12 6 1 -7 8 -14 24 -17
35 -4 19 -5 19 -6 -1z"/>
<path d="M5222 1355 c0 -16 2 -22 5 -12 2 9 2 23 0 30 -3 6 -5 -1 -5 -18z"/>
<path d="M5276 1364 c-7 -18 10 -44 28 -43 7 0 6 2 -1 6 -18 7 -16 23 3 23 20
0 13 24 -8 28 -9 2 -18 -5 -22 -14z"/>
<path d="M5340 1371 c0 -5 -3 -16 -6 -25 -3 -9 -2 -16 4 -16 5 0 12 11 14 25
3 14 1 25 -3 25 -5 0 -9 -4 -9 -9z"/>
<path d="M1076 1344 l-26 -27 0 -212 0 -212 26 -27 27 -26 279 0 280 0 29 29
29 29 0 207 0 207 -29 29 -29 29 -129 -2 -128 -2 126 -5 c180 -8 169 8 169
-253 0 -208 0 -209 -25 -233 l-24 -25 -266 0 -267 0 -29 29 -29 29 0 196 c0
192 0 195 24 223 24 27 27 28 153 34 l128 5 -131 2 c-130 2 -132 2 -158 -24z"/>
<path d="M2161 1304 c0 -11 3 -14 6 -6 3 7 2 16 -1 19 -3 4 -6 -2 -5 -13z"/>
<path d="M130 1280 c-18 -18 -20 -33 -20 -152 0 -73 4 -138 8 -144 19 -30 55
-34 277 -34 222 0 258 4 277 34 4 6 8 71 8 144 0 186 22 172 -285 172 -232 0
-246 -1 -265 -20z m530 -19 c5 -11 10 -73 10 -137 0 -95 -3 -121 -17 -136 -15
-16 -36 -18 -259 -18 -207 0 -245 2 -258 16 -13 12 -16 40 -16 135 0 66 5 129
10 140 10 18 24 19 265 19 241 0 255 -1 265 -19z"/>
<path d="M2520 1263 c0 -13 5 -23 10 -23 13 0 13 11 0 30 -8 12 -10 11 -10 -7z"/>
<path d="M2600 1263 c0 -25 15 -38 25 -22 4 6 0 18 -9 27 -15 15 -16 15 -16
-5z"/>
<path d="M2730 1256 c0 -8 4 -17 9 -21 6 -3 9 4 8 15 -1 23 -17 28 -17 6z"/>
<path d="M2556 1248 c3 -4 12 -8 20 -8 8 0 14 4 14 8 0 4 -9 8 -19 8 -11 0
-17 -4 -15 -8z"/>
<path d="M2640 1251 c0 -6 5 -13 10 -16 6 -3 10 1 10 9 0 9 -4 16 -10 16 -5 0
-10 -4 -10 -9z"/>
<path d="M2690 1251 c0 -17 18 -21 24 -6 3 9 0 15 -9 15 -8 0 -15 -4 -15 -9z"/>
<path d="M3669 1251 c-14 -4 -38 -31 -39 -42 0 -4 16 -10 36 -14 50 -9 70 11
39 41 -12 11 -28 18 -36 15z"/>
<path d="M3940 1250 c-1 -3 -3 -20 -4 -38 -1 -21 2 -31 10 -28 6 2 17 -1 23
-7 8 -8 11 -8 11 0 0 7 -5 15 -10 18 -6 4 -7 11 -4 17 4 6 2 8 -4 4 -6 -3 -12
3 -15 16 -2 13 -5 21 -7 18z"/>
<path d="M3990 1212 c0 -17 4 -33 9 -36 10 -7 9 49 -2 60 -4 4 -7 -7 -7 -24z"/>
<path d="M3907 1223 c-4 -3 -6 -18 -6 -32 1 -21 2 -22 6 -6 3 11 10 26 15 33
11 12 -3 18 -15 5z"/>
<path d="M1280 1150 c0 -22 5 -30 18 -30 14 0 15 2 2 10 -13 9 -13 11 0 20 11
7 11 10 2 10 -7 0 -10 5 -7 10 3 6 1 10 -4 10 -6 0 -11 -13 -11 -30z"/>
<path d="M1328 1155 c2 -14 8 -25 12 -25 4 0 10 11 12 25 4 19 1 25 -12 25
-13 0 -16 -6 -12 -25z"/>
<path d="M1377 1173 c-13 -12 -7 -41 9 -47 26 -10 29 -7 8 9 -19 15 -19 15 0
30 15 12 16 15 5 15 -9 0 -19 -3 -22 -7z"/>
<path d="M1424 1165 c-8 -21 2 -45 19 -45 20 0 40 27 33 45 -7 19 -45 20 -52
0z m36 -9 c0 -8 -4 -18 -10 -21 -5 -3 -10 3 -10 14 0 12 5 21 10 21 6 0 10 -6
10 -14z"/>
<path d="M4776 1074 c-9 -8 -16 -24 -16 -33 0 -22 25 -45 40 -36 12 8 13 45 1
45 -5 0 -7 -10 -4 -21 4 -16 2 -20 -8 -17 -19 6 -19 39 -1 61 19 21 9 23 -12
1z"/>
<path d="M5011 1054 c-1 -47 24 -68 46 -39 15 22 6 45 -17 45 -10 0 -21 8 -23
18 -3 9 -5 -2 -6 -24z m39 -24 c0 -21 -15 -27 -25 -10 -7 12 2 30 16 30 5 0 9
-9 9 -20z"/>
<path d="M5143 1050 c0 -25 2 -35 4 -22 2 12 2 32 0 45 -2 12 -4 2 -4 -23z"/>
<path d="M1422 1055 c0 -16 2 -22 5 -12 2 9 2 23 0 30 -3 6 -5 -1 -5 -18z"/>
<path d="M4881 1040 c1 -25 3 -37 6 -27 2 9 7 17 10 17 3 0 12 -8 19 -17 7
-10 14 -13 14 -7 0 6 -7 17 -15 24 -14 11 -14 15 2 34 17 20 17 20 0 6 -16
-12 -20 -12 -28 1 -6 9 -8 0 -8 -31z"/>
<path d="M1272 1045 c0 -16 2 -22 5 -12 2 9 2 23 0 30 -3 6 -5 -1 -5 -18z"/>
<path d="M5228 1065 c-6 -7 3 -65 11 -65 7 0 7 58 -1 65 -2 3 -7 3 -10 0z"/>
<path d="M1210 1053 c0 -6 8 -17 18 -24 16 -13 16 -13 2 6 -8 11 -16 22 -17
24 -2 2 -3 0 -3 -6z"/>
<path d="M1501 1044 c0 -11 3 -14 6 -6 3 7 2 16 -1 19 -3 4 -6 -2 -5 -13z"/>
<path d="M4947 1053 c-5 -8 9 -53 16 -53 2 0 2 14 -1 30 -4 31 -8 36 -15 23z"/>
<path d="M4980 1030 c0 -18 4 -29 10 -25 6 3 10 15 10 25 0 10 -4 22 -10 25
-6 4 -10 -7 -10 -25z"/>
<path d="M5084 1045 c-8 -20 2 -45 18 -44 10 0 10 2 1 6 -18 7 -16 23 2 23 8
0 15 7 15 15 0 8 -7 15 -15 15 -9 0 -18 -7 -21 -15z"/>
<path d="M5164 1046 c-9 -23 3 -46 23 -46 15 0 15 2 -3 15 -18 14 -18 14 4 15
14 0 22 5 20 13 -7 18 -37 21 -44 3z"/>
<path d="M2860 859 c-55 -22 -100 -85 -100 -139 0 -82 58 -141 144 -146 l51
-3 -46 7 c-62 10 -97 35 -120 88 -17 37 -18 50 -9 83 20 75 96 124 165 107 13
-3 42 -20 62 -37 l38 -32 -37 37 -38 36 558 3 557 2 -600 2 c-380 1 -609 -2
-625 -8z"/>
<path d="M4105 848 c11 -6 31 -20 45 -32 14 -11 11 -6 -7 12 -18 17 -38 32
-45 32 -7 0 -4 -6 7 -12z"/>
<path d="M3162 826 c7 -8 15 -12 17 -11 5 6 -10 25 -20 25 -5 0 -4 -6 3 -14z"/>
<path d="M3465 820 c10 -11 20 -20 23 -20 3 0 -3 9 -13 20 -10 11 -20 20 -23
20 -3 0 3 -9 13 -20z"/>
<path d="M3206 803 c-5 -13 -4 -14 9 -3 8 7 20 10 27 8 7 -3 22 -2 33 2 14 5
8 8 -22 8 -29 1 -43 -4 -47 -15z"/>
<path d="M3330 810 c11 -7 79 -4 87 4 2 2 -19 4 -47 3 -28 0 -46 -3 -40 -7z"/>
<path d="M3432 790 c0 -19 2 -27 5 -17 2 9 2 25 0 35 -3 9 -5 1 -5 -18z"/>
<path d="M3510 813 c0 -5 11 -8 24 -8 13 0 22 3 19 8 -2 4 -13 7 -24 7 -10 0
-19 -3 -19 -7z"/>
<path d="M3610 811 c0 -7 69 -5 77 2 2 3 -14 5 -37 5 -22 0 -40 -3 -40 -7z"/>
<path d="M3111 774 c0 -11 3 -14 6 -6 3 7 2 16 -1 19 -3 4 -6 -2 -5 -13z"/>
<path d="M3282 770 c0 -14 2 -19 5 -12 2 6 2 18 0 25 -3 6 -5 1 -5 -13z"/>
<path d="M3700 771 c0 -18 -42 -30 -70 -19 -19 7 -22 7 -13 -3 17 -17 62 -14
81 5 9 8 13 19 9 22 -4 4 -7 2 -7 -5z"/>
<path d="M3144 756 c-9 -10 -6 -13 16 -13 23 0 26 3 15 14 -16 16 -17 16 -31
-1z"/>
<path d="M3052 721 c-1 -24 -11 -59 -23 -77 -11 -19 -18 -34 -16 -34 3 0 15
16 27 35 15 25 20 46 17 77 l-4 43 -1 -44z"/>
<path d="M3235 750 c-17 -8 -17 -9 7 -7 15 1 24 5 22 9 -3 4 -6 8 -7 7 -1 0
-11 -4 -22 -9z"/>
<path d="M3517 748 c2 -5 10 -8 18 -8 8 0 16 3 18 8 3 4 -5 7 -18 7 -13 0 -21
-3 -18 -7z"/>
<path d="M4191 744 c0 -11 3 -14 6 -6 3 7 2 16 -1 19 -3 4 -6 -2 -5 -13z"/>
<path d="M3358 743 c7 -3 16 -2 19 1 4 3 -2 6 -13 5 -11 0 -14 -3 -6 -6z"/>
<path d="M3578 743 c7 -3 16 -2 19 1 4 3 -2 6 -13 5 -11 0 -14 -3 -6 -6z"/>
<path d="M3625 719 c-4 -6 -5 -12 -2 -15 2 -3 7 2 10 11 7 17 1 20 -8 4z"/>
<path d="M3112 695 c0 -16 2 -22 5 -12 2 9 2 23 0 30 -3 6 -5 -1 -5 -18z"/>
<path d="M3198 713 c7 -3 16 -2 19 1 4 3 -2 6 -13 5 -11 0 -14 -3 -6 -6z"/>
<path d="M3290 709 c0 -5 5 -7 10 -4 6 3 10 8 10 11 0 2 -4 4 -10 4 -5 0 -10
-5 -10 -11z"/>
<path d="M3698 713 c6 -2 18 -2 25 0 6 3 1 5 -13 5 -14 0 -19 -2 -12 -5z"/>
<path d="M2870 690 c0 -5 12 -10 28 -9 24 0 25 1 7 9 -27 12 -35 12 -35 0z"/>
<path d="M3140 681 c0 -6 4 -13 10 -16 6 -3 7 1 4 9 -7 18 -14 21 -14 7z"/>
<path d="M2520 293 c0 -13 5 -23 10 -23 13 0 13 11 0 30 -8 12 -10 11 -10 -7z"/>
<path d="M2601 287 c-1 -30 19 -34 27 -6 3 12 2 12 -6 0 -8 -11 -11 -9 -15 10
-4 22 -4 22 -6 -4z"/>
<path d="M2730 286 c0 -8 4 -17 8 -20 4 -2 8 4 8 15 0 10 -4 19 -8 19 -4 0 -8
-6 -8 -14z"/>
<path d="M2556 276 c7 -18 26 -17 30 2 1 7 0 8 -3 2 -3 -8 -9 -7 -19 1 -12 10
-13 9 -8 -5z"/>
<path d="M2640 275 c0 -8 5 -15 11 -15 5 0 8 4 5 9 -4 5 0 12 6 14 8 3 6 6 -4
6 -10 1 -18 -6 -18 -14z"/>
<path d="M2697 284 c-8 -8 1 -24 12 -24 4 0 8 7 8 15 0 16 -9 20 -20 9z"/>
<path d="M3650 267 c-25 -13 -35 -42 -13 -42 6 0 15 -3 19 -7 13 -14 33 -8 60
17 15 14 22 25 16 25 -6 0 -14 -4 -17 -10 -10 -16 -21 -12 -31 10 -8 17 -12
18 -34 7z"/>
<path d="M3920 235 c0 -39 6 -43 26 -17 19 24 17 37 -2 21 -15 -12 -16 -11
-10 9 5 13 3 22 -3 22 -6 0 -11 -16 -11 -35z"/>
<path d="M3978 255 c-7 -7 2 -54 12 -60 4 -3 7 9 5 25 -2 32 -8 44 -17 35z"/>
<path d="M3890 225 c0 -14 2 -25 4 -25 2 0 6 11 8 25 3 14 1 25 -3 25 -5 0 -9
-11 -9 -25z"/>
<path d="M3950 210 c0 -5 5 -10 11 -10 5 0 7 5 4 10 -3 6 -8 10 -11 10 -2 0
-4 -4 -4 -10z"/>
<path d="M0 15 c0 -13 376 -15 3010 -15 2666 0 3010 2 3010 15 0 13 -344 15
-3010 15 -2634 -1 -3010 -3 -3010 -15z"/>
</g>
</svg>
