<?xml version="1.0" standalone="no"?>
<!DOCTYPE svg PUBLIC "-//W3C//DTD SVG 20010904//EN"
 "http://www.w3.org/TR/2001/REC-SVG-20010904/DTD/svg10.dtd">
<svg version="1.0" xmlns="http://www.w3.org/2000/svg"
 width="602.000000pt" height="379.000000pt" viewBox="0 0 602.000000 379.000000"
 preserveAspectRatio="xMidYMid meet">

<g transform="translate(0.000000,379.000000) scale(0.100000,-0.100000)"
fill="#000000" stroke="none">
<path d="M2823 3420 c0 -30 2 -46 4 -35 2 11 14 25 26 30 25 11 30 46 7 52
-12 4 -13 3 -1 -5 17 -12 7 -42 -13 -42 -8 0 -16 12 -19 28 -2 15 -4 2 -4 -28z"/>
<path d="M2910 3455 c-7 -9 -11 -17 -9 -20 3 -2 10 5 17 15 14 24 10 26 -8 5z"/>
<path d="M2971 3453 c7 -12 15 -20 18 -17 3 2 -3 12 -13 22 -17 16 -18 16 -5
-5z"/>
<path d="M3023 3420 c0 -30 2 -43 4 -27 2 15 2 39 0 55 -2 15 -4 2 -4 -28z"/>
<path d="M3073 3459 c10 -6 17 -22 17 -39 0 -17 -7 -33 -17 -39 -10 -6 -13
-11 -7 -11 18 0 34 23 34 50 0 27 -16 50 -34 50 -6 0 -3 -5 7 -11z"/>
<path d="M2900 3403 c0 -6 8 -17 18 -24 16 -13 16 -13 2 6 -8 11 -16 22 -17
24 -2 2 -3 0 -3 -6z"/>
<path d="M2971 3387 c-13 -21 -12 -21 5 -5 10 10 16 20 13 22 -3 3 -11 -5 -18
-17z"/>
<path d="M2682 3233 c2 -58 2 -58 5 -10 3 33 8 45 16 40 7 -4 6 0 -2 10 -7 9
-15 17 -17 17 -2 0 -3 -26 -2 -57z"/>
<path d="M2881 3233 c-1 -23 3 -44 7 -47 4 -2 6 12 4 32 -5 56 -10 62 -11 15z"/>
<path d="M2720 3230 c6 -11 13 -20 16 -20 2 0 0 9 -6 20 -6 11 -13 20 -16 20
-2 0 0 -9 6 -20z"/>
<path d="M2793 3234 c-8 -22 9 -48 33 -51 14 -2 12 0 -5 7 -18 8 -22 16 -19
35 6 28 1 33 -9 9z"/>
<path d="M2836 3237 c3 -10 9 -15 12 -12 3 3 0 11 -7 18 -10 9 -11 8 -5 -6z"/>
<path d="M2926 3230 c3 -14 11 -32 16 -40 6 -10 7 -7 2 10 -3 14 -11 32 -16
40 -6 10 -7 7 -2 -10z"/>
<path d="M2965 3240 c-3 -5 -1 -10 4 -10 6 0 11 5 11 10 0 6 -2 10 -4 10 -3 0
-8 -4 -11 -10z"/>
<path d="M3133 3215 c0 -22 2 -30 4 -17 2 12 2 30 0 40 -3 9 -5 -1 -4 -23z"/>
<path d="M3098 3212 c-6 -23 -42 -31 -51 -12 -3 6 -4 5 -3 -2 1 -7 12 -14 23
-16 22 -3 47 21 41 40 -3 7 -7 2 -10 -10z"/>
<path d="M3190 3223 c0 -5 13 -17 28 -27 l27 -19 -24 26 c-26 28 -31 32 -31
20z"/>
<path d="M2980 3215 c0 -5 4 -16 9 -23 6 -11 10 -10 15 4 3 9 4 19 1 22 -3 3
-5 -1 -5 -9 0 -11 -2 -11 -10 1 -5 8 -10 11 -10 5z"/>
<path d="M2745 3190 c3 -5 8 -10 11 -10 2 0 4 5 4 10 0 6 -5 10 -11 10 -5 0
-7 -4 -4 -10z"/>
<path d="M1711 2763 c-19 -10 -44 -31 -55 -46 -21 -28 -21 -40 -24 -578 -2
-440 0 -549 10 -549 10 0 12 105 10 524 -3 568 -2 581 51 620 28 20 39 21 351
21 293 0 324 -2 349 -18 16 -10 32 -29 37 -43 6 -15 10 -316 10 -755 l0 -731
-29 -29 c-16 -16 -34 -29 -40 -29 -7 0 -11 28 -11 75 l0 75 -136 0 -136 0 26
31 c36 43 35 91 -3 130 -40 39 -97 41 -135 3 -36 -37 -37 -104 -1 -139 l24
-25 -139 0 -140 0 0 -75 c0 -41 -4 -75 -8 -75 -5 0 -21 14 -37 30 -25 26 -29
38 -29 90 -1 44 -5 60 -15 60 -11 0 -13 -14 -9 -63 6 -71 27 -111 69 -133 17
-8 29 -23 29 -34 0 -20 8 -20 320 -20 308 0 320 1 320 19 0 11 14 27 34 39 70
41 66 -11 66 806 0 796 2 769 -53 810 -27 20 -42 21 -350 24 -292 2 -325 1
-356 -15z m394 -1318 c30 -30 32 -64 4 -99 -42 -53 -129 -23 -129 46 0 69 77
102 125 53z m-109 -249 c14 4 24 2 24 -5 0 -6 -6 -11 -12 -11 -9 0 -9 -3 1 -9
10 -6 0 -9 -30 -8 -37 2 -44 5 -45 22 -1 31 6 37 22 20 10 -9 24 -13 40 -9z
m-103 5 c4 0 7 -9 8 -18 0 -15 2 -15 9 2 8 19 9 19 9 -1 1 -19 -4 -22 -44 -21
-40 0 -45 3 -45 23 0 23 5 24 63 15z m207 -19 c0 -9 -9 -23 -20 -30 -18 -11
-20 -10 -20 18 0 23 4 30 20 30 12 0 20 -7 20 -18z m80 -3 c0 -23 -28 -25 -37
-3 -6 15 -8 15 -20 -2 -12 -17 -13 -17 -13 3 0 17 6 21 35 21 28 0 35 -4 35
-19z m70 9 c0 -9 4 -8 10 2 7 11 10 11 10 2 0 -21 -19 -52 -32 -52 -9 0 -9 3
-1 11 13 13 6 39 -9 39 -6 0 -8 -7 -4 -15 3 -10 -1 -15 -12 -15 -11 0 -18 8
-18 20 0 15 7 20 28 20 16 0 28 -6 28 -12z"/>
<path d="M1865 1191 c-3 -5 -1 -12 5 -16 5 -3 10 1 10 9 0 18 -6 21 -15 7z"/>
<path d="M3581 2763 c-19 -10 -44 -31 -55 -46 -21 -28 -21 -38 -24 -735 -2
-389 0 -726 3 -750 5 -30 16 -52 41 -76 19 -18 34 -43 34 -55 l0 -21 325 0
c317 0 325 0 325 20 0 13 9 22 25 26 14 3 38 22 55 40 27 31 30 42 30 99 0 37
-4 65 -10 65 -6 0 -10 -26 -10 -59 0 -49 -5 -65 -25 -89 -14 -16 -34 -32 -45
-35 -19 -5 -20 0 -20 74 l0 79 -132 0 c-107 1 -130 3 -117 13 70 54 35 177
-51 177 -64 0 -99 -34 -100 -98 0 -32 6 -49 25 -67 l24 -25 -149 0 -150 0 0
-72 0 -73 -27 28 -28 27 0 733 c0 693 1 734 18 761 35 52 60 56 374 56 167 0
304 -4 325 -10 20 -6 46 -22 58 -37 20 -25 20 -37 20 -574 0 -354 4 -550 10
-554 16 -10 13 1093 -3 1124 -6 13 -25 34 -40 45 -27 20 -41 21 -350 24 -292
2 -325 1 -356 -15z m394 -1318 c30 -30 32 -64 4 -99 -42 -53 -129 -23 -129 46
0 69 77 102 125 53z m-249 -254 c-1 -21 -4 -26 -13 -20 -7 7 -13 5 -16 -3 -3
-7 -6 0 -6 15 -1 16 3 26 8 22 5 -3 12 -1 16 5 10 16 12 12 11 -19z m113 7
c17 0 33 -4 36 -9 4 -5 1 -9 -5 -9 -6 0 -9 -4 -6 -9 3 -5 -12 -9 -34 -9 -38
-1 -40 1 -40 31 0 23 3 28 9 18 5 -8 23 -14 40 -13z m-80 -15 c1 24 21 22 21
-3 0 -13 -7 -20 -20 -20 -14 0 -20 6 -19 23 0 21 1 21 9 2 7 -17 9 -17 9 -2z
m223 -6 c-3 -10 -11 -16 -18 -13 -7 3 -20 -1 -28 -9 -21 -21 -26 -19 -26 14 0
28 2 30 39 28 32 -1 37 -4 33 -20z m56 6 c5 -17 -26 -29 -40 -15 -6 6 -7 15
-3 22 9 14 37 9 43 -7z m64 3 c6 -8 8 -7 8 2 0 6 4 12 9 12 13 0 1 -37 -17
-52 -10 -8 -13 -9 -9 -1 9 14 -2 43 -15 43 -6 0 -8 -6 -5 -13 3 -7 -3 -13 -12
-14 -10 -1 -17 6 -17 17 0 20 46 25 58 6z"/>
<path d="M3800 1180 c0 -5 5 -10 10 -10 6 0 10 5 10 10 0 6 -4 10 -10 10 -5 0
-10 -4 -10 -10z"/>
<path d="M1750 2560 l0 -100 305 0 305 0 0 100 0 100 -305 0 -305 0 0 -100z
m580 5 l0 -75 -280 0 -280 0 0 75 0 75 280 0 280 0 0 -75z"/>
<path d="M3620 2560 l0 -100 305 0 305 0 0 100 0 100 -305 0 -305 0 0 -100z
m581 76 c2 -2 3 -36 1 -75 l-4 -71 -279 0 -279 0 0 75 0 75 278 0 c153 0 281
-2 283 -4z"/>
<path d="M1750 2270 l0 -100 305 0 305 0 0 100 0 100 -305 0 -305 0 0 -100z
m580 0 l0 -80 -277 2 -278 3 -3 64 c-2 35 -1 70 2 77 4 11 58 14 281 14 l275
0 0 -80z"/>
<path d="M3620 2270 l0 -100 305 0 305 0 0 100 0 100 -305 0 -305 0 0 -100z
m582 4 c2 -46 -1 -78 -7 -80 -6 -3 -132 -3 -280 -2 l-270 3 -3 64 c-2 35 -1
70 2 77 4 11 58 14 280 14 l274 0 4 -76z"/>
<path d="M2002 2089 c-117 -24 -138 -194 -31 -251 95 -51 199 14 199 125 0 40
-5 53 -32 83 -36 39 -84 54 -136 43z"/>
<path d="M3866 2085 c-45 -16 -63 -31 -83 -68 -42 -82 29 -197 122 -197 41 0
95 30 117 64 30 48 21 128 -19 167 -38 38 -88 51 -137 34z m119 -35 c82 -77
37 -210 -71 -210 -23 0 -54 5 -67 11 -50 23 -76 114 -48 168 33 61 136 78 186
31z"/>
<path d="M1792 1738 c-7 -7 -11 -26 -11 -42 2 -31 2 -31 8 4 4 25 11 35 23 34
10 -1 15 2 12 7 -7 12 -18 11 -32 -3z"/>
<path d="M2273 1730 c-11 -16 -10 -18 2 -14 8 4 15 12 15 20 0 19 -3 18 -17
-6z"/>
<path d="M3666 1741 c-3 -5 2 -8 12 -7 12 1 19 -9 23 -34 6 -35 6 -35 8 -4 1
39 -28 70 -43 45z"/>
<path d="M3771 1747 c2 -1 13 -9 24 -17 19 -14 19 -14 6 3 -7 9 -18 17 -24 17
-6 0 -8 -1 -6 -3z"/>
<path d="M3850 1746 c0 -2 7 -7 16 -10 8 -3 12 -2 9 4 -6 10 -25 14 -25 6z"/>
<path d="M4138 1743 c7 -3 16 -2 19 1 4 3 -2 6 -13 5 -11 0 -14 -3 -6 -6z"/>
<path d="M2198 1703 c5 -59 10 -63 11 -10 1 26 -3 47 -7 47 -4 0 -6 -17 -4
-37z"/>
<path d="M3597 1733 c6 -4 13 -24 16 -43 4 -34 4 -33 3 4 -1 26 -6 41 -16 43
-10 3 -11 2 -3 -4z"/>
<path d="M4068 1703 c5 -59 10 -63 11 -10 1 26 -3 47 -7 47 -4 0 -6 -17 -4
-37z"/>
<path d="M4120 1721 c0 -10 19 -25 25 -20 1 2 -3 10 -11 17 -8 7 -14 8 -14 3z"/>
<path d="M1832 1700 c0 -14 2 -19 5 -12 2 6 2 18 0 25 -3 6 -5 1 -5 -13z"/>
<path d="M1991 1697 c-13 -21 -12 -21 5 -5 10 10 16 20 13 22 -3 3 -11 -5 -18
-17z"/>
<path d="M3651 1700 c-1 -26 15 -50 33 -50 5 0 3 6 -6 13 -9 6 -19 23 -21 37
l-4 25 -2 -25z"/>
<path d="M2061 1694 c0 -11 3 -14 6 -6 3 7 2 16 -1 19 -3 4 -6 -2 -5 -13z"/>
<path d="M2280 1678 c0 -23 3 -29 9 -19 8 12 4 51 -5 51 -2 0 -4 -15 -4 -32z"/>
<path d="M3792 1688 c7 -15 15 -23 17 -17 2 6 -4 18 -13 27 -15 15 -15 15 -4
-10z"/>
<path d="M3852 1687 c-29 -31 -28 -37 6 -36 24 2 25 2 4 6 l-24 5 23 24 c12
13 20 24 17 24 -2 0 -14 -10 -26 -23z"/>
<path d="M4162 1680 c0 -14 2 -19 5 -12 2 6 2 18 0 25 -3 6 -5 1 -5 -13z"/>
<path d="M3944 1668 c2 -7 11 -13 21 -13 10 0 19 6 21 13 1 7 0 8 -3 2 -2 -5
-11 -10 -18 -10 -7 0 -16 5 -18 10 -3 6 -4 5 -3 -2z"/>
<path d="M1810 1660 c-9 -6 -10 -10 -3 -10 6 0 15 5 18 10 8 12 4 12 -15 0z"/>
<path d="M1960 1659 c0 -5 11 -9 25 -9 14 0 25 2 25 4 0 2 -11 6 -25 8 -14 3
-25 1 -25 -3z"/>
<path d="M2077 1659 c7 -7 15 -10 18 -7 3 3 -2 9 -12 12 -14 6 -15 5 -6 -5z"/>
<path d="M1898 1653 c7 -3 16 -2 19 1 4 3 -2 6 -13 5 -11 0 -14 -3 -6 -6z"/>
<path d="M3768 1653 c7 -3 16 -2 19 1 4 3 -2 6 -13 5 -11 0 -14 -3 -6 -6z"/>
<path d="M4128 1653 c7 -3 16 -2 19 1 4 3 -2 6 -13 5 -11 0 -14 -3 -6 -6z"/>
<path d="M220 1470 l0 -100 385 0 385 0 0 100 0 100 -385 0 -385 0 0 -100z
m120 -5 c0 -25 -4 -45 -10 -45 -5 0 -10 11 -10 25 0 14 -4 25 -10 25 -14 0
-12 27 3 33 24 10 27 6 27 -38z m78 33 c26 -26 7 -78 -29 -78 -28 0 -40 55
-17 78 7 7 17 12 23 12 6 0 16 -5 23 -12z m107 -5 c6 -17 7 -17 16 0 6 9 19
17 29 17 25 0 27 -20 3 -21 -14 0 -13 -2 5 -9 12 -5 22 -16 22 -25 0 -8 5 -14
11 -12 6 1 13 -3 16 -9 5 -15 -67 -16 -85 -1 -9 7 -16 7 -24 -1 -15 -15 -48
-16 -48 -2 0 6 8 10 18 11 13 0 12 2 -5 9 -25 10 -30 29 -11 48 18 18 45 15
53 -5z m173 -6 c7 -37 -7 -68 -30 -65 -32 5 -44 31 -30 63 14 31 55 32 60 2z
m92 -22 c0 -33 -4 -45 -15 -45 -10 0 -15 10 -15 29 0 16 -6 32 -12 34 -10 4
-9 8 2 16 30 21 40 12 40 -34z m77 30 c3 -9 -3 -25 -12 -35 -16 -18 -17 -20
-2 -20 10 0 17 -4 17 -10 0 -5 -16 -10 -35 -10 -40 0 -44 9 -15 35 24 21 26
40 5 31 -9 -3 -15 0 -15 9 0 20 49 20 57 0z m-407 -66 c0 -5 -7 -9 -15 -9 -15
0 -20 12 -9 23 8 8 24 -1 24 -14z m270 0 c0 -5 -7 -9 -15 -9 -15 0 -20 12 -9
23 8 8 24 -1 24 -14z"/>
<path d="M392 1465 c0 -16 2 -22 5 -12 2 9 2 23 0 30 -3 6 -5 -1 -5 -18z"/>
<path d="M662 1465 c0 -16 2 -22 5 -12 2 9 2 23 0 30 -3 6 -5 -1 -5 -18z"/>
<path d="M1010 1470 l0 -100 385 0 385 0 0 100 0 100 -385 0 -385 0 0 -100z
m130 -5 c0 -33 -4 -45 -15 -45 -10 0 -15 10 -15 29 0 16 -6 32 -12 34 -10 4
-9 8 2 16 30 21 40 12 40 -34z m80 7 c3 -18 9 -32 15 -32 5 1 11 -3 13 -9 2
-6 -14 -9 -39 -8 -52 2 -69 23 -51 62 18 39 55 31 62 -13z m91 26 c1 -7 2 -17
4 -23 1 -5 3 -16 3 -24 2 -11 6 -10 22 4 24 21 26 40 5 31 -9 -3 -15 0 -15 9
0 20 49 20 57 0 3 -9 -3 -25 -13 -36 -19 -21 -19 -21 10 -18 16 2 31 -1 33 -7
3 -8 -22 -12 -77 -12 -44 -1 -80 3 -80 9 0 5 8 9 18 9 16 1 16 2 -1 14 -18 14
-18 15 0 25 17 10 17 10 1 11 -10 0 -18 5 -18 10 0 15 50 12 51 -2z m174 -33
c0 -33 -4 -41 -22 -43 -29 -4 -46 28 -33 63 7 20 16 26 33 23 19 -3 22 -9 22
-43z m95 0 c0 -57 -26 -63 -33 -7 -5 42 -2 52 19 52 10 0 14 -12 14 -45z m80
35 c0 -5 -8 -10 -17 -10 -15 0 -15 -1 1 -13 26 -19 17 -51 -17 -55 -15 -2 -27
1 -27 7 0 6 7 11 15 11 8 0 15 5 15 10 0 6 -7 10 -15 10 -15 0 -21 31 -8 43
10 11 53 8 53 -3z m-140 -65 c0 -8 -4 -15 -10 -15 -5 0 -10 7 -10 15 0 8 5 15
10 15 6 0 10 -7 10 -15z"/>
<path d="M1182 1465 c0 -16 2 -22 5 -12 2 9 2 23 0 30 -3 6 -5 -1 -5 -18z"/>
<path d="M1450 1465 c0 -14 5 -25 10 -25 6 0 10 11 10 25 0 14 -4 25 -10 25
-5 0 -10 -11 -10 -25z"/>
<path d="M4140 1470 l0 -100 385 0 385 0 0 100 0 100 -385 0 -385 0 0 -100z
m120 -10 c0 -27 -4 -50 -10 -50 -5 0 -10 13 -10 29 0 16 -6 31 -12 34 -10 3
-10 7 1 20 23 28 31 19 31 -33z m82 25 c8 -19 8 -31 0 -50 -19 -42 -62 -25
-62 25 0 50 43 67 62 25z m100 6 c11 -18 12 -18 28 2 17 21 58 18 45 -3 -4 -6
-11 -7 -17 -4 -6 4 -3 -5 8 -19 10 -15 25 -27 32 -27 6 0 12 -4 12 -9 0 -15
-18 -23 -25 -11 -4 6 -13 5 -26 -3 -17 -10 -22 -9 -34 7 -13 17 -15 17 -30 2
-21 -20 -45 -21 -45 0 0 9 5 12 13 8 6 -4 4 2 -5 13 -21 23 -22 35 -6 51 17
17 36 15 50 -7z m166 7 c7 -7 12 -22 12 -35 0 -14 6 -23 15 -23 16 0 20 -12 8
-23 -3 -4 -12 -2 -19 4 -8 7 -14 7 -19 -1 -11 -18 -35 -11 -47 15 -21 46 18
95 50 63z m100 -43 c-4 -47 -28 -61 -28 -17 0 17 -6 33 -12 36 -9 3 -7 9 6 20
26 21 38 7 34 -39z m70 43 c16 -16 15 -23 -4 -42 -14 -15 -14 -16 0 -16 9 0
16 -7 16 -15 0 -10 -10 -15 -29 -15 -39 0 -45 12 -21 43 24 30 25 38 5 31 -15
-6 -21 7 -8 19 10 11 28 8 41 -5z m-400 -69 c-2 -6 -8 -10 -13 -10 -5 0 -11 4
-13 10 -2 6 4 11 13 11 9 0 15 -5 13 -11z"/>
<path d="M4312 1460 c0 -19 2 -27 5 -17 2 9 2 25 0 35 -3 9 -5 1 -5 -18z"/>
<path d="M4411 1474 c0 -11 3 -14 6 -6 3 7 2 16 -1 19 -3 4 -6 -2 -5 -13z"/>
<path d="M4481 1444 c0 -11 3 -14 6 -6 3 7 2 16 -1 19 -3 4 -6 -2 -5 -13z"/>
<path d="M4582 1460 c0 -19 2 -27 5 -17 2 9 2 25 0 35 -3 9 -5 1 -5 -18z"/>
<path d="M4930 1470 l0 -100 385 0 385 0 0 100 0 100 -385 0 -385 0 0 -100z
m128 -15 c-4 -47 -28 -61 -28 -17 0 17 -6 33 -12 36 -9 3 -7 9 6 20 26 21 38
7 34 -39z m70 43 c7 -7 12 -22 12 -35 0 -14 6 -23 15 -23 8 0 15 -7 15 -15 0
-17 -16 -20 -26 -4 -4 8 -9 8 -17 0 -31 -31 -69 19 -49 64 13 27 31 32 50 13z
m99 0 c15 -21 14 -65 -2 -78 -16 -14 -45 -7 -45 11 0 6 7 9 15 5 18 -7 20 10
3 18 -10 5 -10 7 0 12 17 8 15 25 -3 18 -8 -4 -15 -2 -15 3 0 24 32 31 47 11z
m77 -11 c9 -14 7 -21 -7 -31 -16 -12 -16 -14 -2 -20 23 -8 9 -26 -20 -26 -33
0 -38 13 -15 43 24 30 25 38 5 31 -15 -6 -21 7 -8 20 11 11 35 2 47 -17z m94
11 c16 -16 15 -63 -2 -77 -29 -24 -63 12 -50 53 11 34 32 44 52 24z m102 -39
c0 -35 -4 -49 -12 -47 -19 7 -31 80 -16 90 24 15 28 8 28 -43z m73 44 c4 -3 2
-12 -4 -20 -9 -9 -8 -13 0 -13 16 0 14 -35 -4 -50 -16 -14 -45 -7 -45 11 0 6
7 9 15 5 9 -3 15 0 15 9 0 8 -7 15 -15 15 -15 0 -21 31 -8 43 8 9 38 9 46 0z
m-233 -78 c0 -8 -4 -15 -10 -15 -5 0 -10 7 -10 15 0 8 5 15 10 15 6 0 10 -7
10 -15z m100 0 c0 -8 -4 -15 -10 -15 -5 0 -10 7 -10 15 0 8 5 15 10 15 6 0 10
-7 10 -15z"/>
<path d="M5102 1460 c0 -19 2 -27 5 -17 2 9 2 25 0 35 -3 9 -5 1 -5 -18z"/>
<path d="M5370 1460 c0 -11 5 -20 10 -20 6 0 10 9 10 20 0 11 -4 20 -10 20 -5
0 -10 -9 -10 -20z"/>
<path d="M2980 553 c-40 -71 -75 -131 -77 -135 -2 -5 68 -8 155 -8 l160 0 -74
127 c-41 70 -78 131 -82 135 -5 5 -41 -49 -82 -119z m148 -15 c34 -61 61 -113
58 -115 -2 -2 -62 -2 -133 -1 l-131 3 66 113 c37 61 69 112 72 112 3 -1 33
-51 68 -112z"/>
<path d="M2807 263 c-9 -9 -9 -41 1 -46 4 -3 7 8 7 24 0 16 0 29 -1 29 0 0 -4
-3 -7 -7z"/>
<path d="M2836 257 c3 -10 9 -15 12 -12 3 3 0 11 -7 18 -10 9 -11 8 -5 -6z"/>
<path d="M3067 263 c-9 -9 -9 -41 1 -46 4 -3 7 8 7 24 0 16 0 29 -1 29 0 0 -4
-3 -7 -7z"/>
<path d="M3096 257 c3 -10 9 -15 12 -12 3 3 0 11 -7 18 -10 9 -11 8 -5 -6z"/>
<path d="M3305 240 c0 -15 3 -26 8 -23 4 2 7 13 7 23 0 10 -3 21 -7 23 -5 3
-8 -8 -8 -23z"/>
<path d="M2972 235 c0 -16 2 -22 5 -12 2 9 2 23 0 30 -3 6 -5 -1 -5 -18z"/>
<path d="M3000 236 c0 -8 4 -17 9 -20 5 -4 7 3 4 14 -6 23 -13 26 -13 6z"/>
<path d="M2948 113 c5 -21 7 -23 10 -9 2 10 0 22 -6 28 -6 6 -7 0 -4 -19z"/>
<path d="M3077 133 c-9 -9 -9 -61 1 -66 4 -3 7 12 7 34 0 21 0 39 -1 39 0 0
-4 -3 -7 -7z"/>
<path d="M3271 124 c0 -11 3 -14 6 -6 3 7 2 16 -1 19 -3 4 -6 -2 -5 -13z"/>
<path d="M2812 100 c0 -14 2 -19 5 -12 2 6 2 18 0 25 -3 6 -5 1 -5 -13z"/>
<path d="M3015 85 c0 -13 3 -21 8 -18 4 2 7 10 7 18 0 8 -3 16 -7 18 -5 3 -8
-5 -8 -18z"/>
<path d="M3192 80 c0 -14 2 -19 5 -12 2 6 2 18 0 25 -3 6 -5 1 -5 -13z"/>
</g>
</svg>
