<?xml version="1.0" standalone="no"?>
<!DOCTYPE svg PUBLIC "-//W3C//DTD SVG 20010904//EN"
 "http://www.w3.org/TR/2001/REC-SVG-20010904/DTD/svg10.dtd">
<svg version="1.0" xmlns="http://www.w3.org/2000/svg"
 width="602.000000pt" height="293.000000pt" viewBox="0 0 602.000000 293.000000"
 preserveAspectRatio="xMidYMid meet">

<g transform="translate(0.000000,293.000000) scale(0.100000,-0.100000)"
fill="#000000" stroke="none">
<path d="M1264 2827 c-2 -7 -3 -94 -2 -192 l3 -180 5 193 c3 105 4 192 2 192
-1 0 -5 -6 -8 -13z"/>
<path d="M2795 2830 c3 -5 8 -10 11 -10 2 0 4 5 4 10 0 6 -5 10 -11 10 -5 0
-7 -4 -4 -10z"/>
<path d="M1422 2754 c-41 -29 -19 -94 33 -94 52 0 74 65 33 94 -12 9 -27 16
-33 16 -6 0 -21 -7 -33 -16z"/>
<path d="M1770 2750 c-24 -24 -25 -38 -4 -68 17 -24 62 -30 82 -10 18 18 14
63 -6 81 -25 22 -48 21 -72 -3z"/>
<path d="M2142 2754 c-41 -29 -19 -94 33 -94 52 0 74 65 33 94 -12 9 -27 16
-33 16 -6 0 -21 -7 -33 -16z"/>
<path d="M2490 2750 c-24 -24 -25 -38 -4 -68 17 -24 62 -30 82 -10 18 18 14
63 -6 81 -25 22 -48 21 -72 -3z"/>
<path d="M1380 2613 c-29 -15 -36 -24 -38 -55 l-3 -38 115 0 116 0 0 35 c0 26
-6 39 -26 52 -38 25 -121 28 -164 6z"/>
<path d="M1733 2611 c-39 -18 -43 -24 -43 -56 l0 -35 115 0 115 0 0 35 c0 26
-6 39 -26 51 -39 26 -112 28 -161 5z"/>
<path d="M2100 2613 c-29 -15 -36 -24 -38 -55 l-3 -38 115 0 116 0 0 35 c0 26
-6 39 -26 52 -38 25 -121 28 -164 6z"/>
<path d="M2448 2610 c-33 -18 -38 -25 -38 -55 l0 -35 115 0 115 0 0 35 c0 44
-33 67 -103 72 -38 2 -62 -2 -89 -17z"/>
<path d="M1301 2336 c-7 -8 -11 -37 -9 -68 l3 -53 730 0 730 0 3 53 c2 31 -2
60 -9 68 -17 21 -1431 21 -1448 0z m1439 -18 c0 -5 0 -28 0 -53 l0 -45 -715 0
-715 0 0 55 0 55 358 2 c457 4 1072 -5 1072 -14z"/>
<path d="M1850 1756 c0 -30 4 -34 31 -40 48 -9 49 -9 49 35 0 34 -2 39 -14 30
-9 -8 -21 -8 -40 -1 -25 9 -26 8 -26 -24z"/>
<path d="M1950 1768 c0 -13 8 -16 35 -15 25 2 35 7 35 19 0 13 -8 16 -35 15
-25 -2 -35 -7 -35 -19z"/>
<path d="M2080 1775 c0 -9 10 -15 24 -15 13 0 31 -3 40 -6 12 -4 16 0 16 16 0
18 -3 20 -14 11 -9 -8 -21 -8 -40 -1 -21 8 -26 7 -26 -5z"/>
<path d="M2183 1747 c1 -33 4 -37 22 -33 11 3 26 6 33 6 7 0 12 13 12 33 0 32
-2 33 -34 33 -34 -1 -35 -2 -33 -39z"/>
<path d="M2112 1639 c-13 -5 -28 -7 -33 -3 -5 3 -9 -13 -9 -35 0 -23 2 -41 4
-41 1 0 17 5 35 11 27 9 31 16 31 45 0 19 -1 34 -2 33 -2 0 -14 -4 -26 -10z"/>
<path d="M1970 1609 c0 -31 3 -34 45 -43 30 -7 31 -6 27 31 -3 36 -6 38 -38
39 -31 0 -34 -2 -34 -27z"/>
<path d="M2665 1249 c-187 -215 -344 -398 -349 -407 -7 -12 2 -26 40 -59 26
-24 52 -43 56 -43 10 0 57 52 397 443 171 196 311 364 311 371 0 18 -81 86
-101 86 -8 -1 -167 -176 -354 -391z m408 342 c39 -37 41 -40 25 -58 -9 -10
-163 -187 -343 -393 -179 -206 -333 -377 -342 -378 -19 -5 -85 57 -81 76 4 17
679 792 690 792 5 0 28 -18 51 -39z"/>
<path d="M903 1512 c-20 -12 -73 -84 -73 -98 0 -17 820 -674 840 -674 15 0 90
99 84 113 -5 11 -797 642 -827 659 -7 4 -18 4 -24 0z m403 -313 c208 -165 392
-311 408 -324 33 -26 31 -45 -15 -93 l-30 -33 -42 33 c-40 32 -553 438 -707
561 -41 33 -76 63 -78 68 -5 12 59 89 73 89 6 0 182 -135 391 -301z"/>
<path d="M4637 1144 c-4 -4 -7 -249 -7 -545 0 -480 2 -537 16 -543 23 -9 107
-7 122 2 10 7 12 123 10 548 l-3 539 -65 3 c-36 2 -69 0 -73 -4z m133 -544 l0
-530 -65 0 -65 0 0 530 0 530 65 0 65 0 0 -530z"/>
<path d="M397 873 c-10 -9 -9 -663 1 -663 4 0 7 151 7 335 0 184 0 335 -1 335
0 0 -4 -3 -7 -7z"/>
<path d="M3097 873 c94 -2 252 -2 350 0 98 1 21 2 -172 2 -192 1 -273 -1 -178
-2z"/>
<path d="M5385 808 c-3 -8 -4 -141 -3 -298 l3 -285 273 -3 272 -2 -2 297 -3
298 -268 3 c-210 2 -269 0 -272 -10z m535 -288 l0 -290 -265 0 -265 0 0 290 0
290 265 0 265 0 0 -290z"/>
<path d="M5553 739 c-86 -20 -75 -52 23 -70 95 -18 244 4 244 36 0 32 -180 55
-267 34z"/>
<path d="M5490 615 c0 -36 4 -44 28 -55 40 -18 188 -24 247 -8 l50 13 3 46 3
47 -38 -14 c-49 -17 -207 -17 -255 0 l-38 14 0 -43z m300 -20 c0 -8 -7 -15
-15 -15 -8 0 -15 7 -15 15 0 8 7 15 15 15 8 0 15 -7 15 -15z"/>
<path d="M5492 493 c3 -46 4 -47 48 -61 53 -16 223 -12 258 7 18 9 22 20 22
58 0 41 -2 44 -17 32 -25 -22 -228 -25 -276 -5 l-38 15 3 -46z m298 -18 c0 -8
-7 -15 -15 -15 -16 0 -20 12 -8 23 11 12 23 8 23 -8z"/>
<path d="M5492 372 c3 -44 5 -48 38 -59 51 -17 213 -16 255 1 33 14 35 18 35
60 l0 44 -32 -16 c-46 -23 -219 -23 -266 0 l-33 17 3 -47z m298 -17 c0 -8 -7
-15 -15 -15 -16 0 -20 12 -8 23 11 12 23 8 23 -8z"/>
<path d="M642 611 c-2 -10 -11 -11 -38 -7 -35 7 -35 7 -32 -25 3 -28 8 -34 37
-41 18 -5 35 -7 38 -5 2 3 3 25 0 48 -2 24 -4 38 -5 30z"/>
<path d="M670 595 c0 -22 3 -26 18 -20 9 5 25 8 35 9 9 0 17 8 17 18 0 20 -8
22 -30 8 -9 -5 -19 -5 -27 2 -10 8 -13 4 -13 -17z"/>
<path d="M902 577 c0 -26 2 -47 3 -47 1 0 16 5 34 11 26 9 31 16 31 45 0 31
-2 33 -24 24 -15 -5 -27 -5 -34 2 -8 8 -11 -2 -10 -35z"/>
<path d="M3208 613 c-19 -3 -28 -10 -28 -23 0 -16 4 -18 23 -11 12 4 28 6 35
4 7 -3 12 4 12 16 0 12 -3 20 -7 20 -5 -1 -20 -4 -35 -6z"/>
<path d="M3410 576 c0 -25 2 -46 4 -46 1 0 17 5 35 11 27 9 31 16 31 45 0 36
-5 40 -30 24 -9 -5 -19 -5 -27 2 -10 8 -13 1 -13 -36z"/>
<path d="M800 600 c0 -4 18 -12 40 -18 35 -8 40 -8 40 7 0 12 -10 16 -40 18
-22 0 -40 -3 -40 -7z"/>
<path d="M3070 580 c0 -20 6 -30 20 -34 11 -3 29 -9 40 -12 18 -5 20 -1 20 33
0 37 -1 38 -40 40 -38 1 -40 -1 -40 -27z"/>
<path d="M3310 599 c0 -7 36 -19 56 -19 7 0 14 6 17 13 3 9 -7 12 -34 12 -22
0 -39 -2 -39 -6z"/>
<path d="M790 423 l0 -41 35 11 c30 9 35 15 35 42 0 29 -2 31 -35 31 -34 -1
-35 -2 -35 -43z"/>
<path d="M3257 462 c-6 -9 -19 -11 -38 -7 -27 6 -29 5 -29 -24 0 -26 5 -31 37
-40 20 -6 39 -9 41 -7 2 2 2 24 0 47 -2 29 -6 39 -11 31z"/>
<path d="M3290 423 c0 -24 2 -43 4 -43 1 0 17 5 35 11 26 9 31 16 31 43 0 31
-2 32 -35 32 -34 -1 -35 -2 -35 -43z"/>
<path d="M680 430 c0 -20 6 -30 20 -34 11 -3 29 -9 40 -12 18 -5 20 -1 20 33
0 37 -1 38 -40 40 -38 2 -40 1 -40 -27z"/>
</g>
</svg>
