<?xml version="1.0" standalone="no"?>
<!DOCTYPE svg PUBLIC "-//W3C//DTD SVG 20010904//EN"
 "http://www.w3.org/TR/2001/REC-SVG-20010904/DTD/svg10.dtd">
<svg version="1.0" xmlns="http://www.w3.org/2000/svg"
 width="602.000000pt" height="172.000000pt" viewBox="0 0 602.000000 172.000000"
 preserveAspectRatio="xMidYMid meet">

<g transform="translate(0.000000,172.000000) scale(0.100000,-0.100000)"
fill="#000000" stroke="none">
<path d="M10 860 l0 -860 3005 0 3005 0 0 860 0 860 -3005 0 -3005 0 0 -860z
m110 720 l-8 -35 -1 45 c-1 27 3 40 8 35 6 -6 6 -25 1 -45z m40 8 c-1 -40 -2
-42 -15 -24 -17 23 -20 40 -5 31 6 -3 10 3 10 14 0 12 2 21 5 21 3 0 5 -19 5
-42z m67 -1 l11 -32 1 38 c1 34 21 56 21 22 0 -8 5 -15 10 -15 6 0 10 7 10 15
0 8 5 15 10 15 6 0 10 -19 9 -42 -1 -28 -3 -36 -7 -23 -9 26 -42 29 -42 4 0
-21 -26 -26 -33 -6 -3 9 -9 9 -26 -1 -25 -15 -26 -12 -6 35 17 40 24 38 42
-10z m121 36 c-10 -2 -18 -11 -18 -19 0 -8 5 -12 10 -9 6 3 10 1 10 -4 0 -6
-4 -11 -10 -11 -17 0 -11 -18 8 -24 10 -3 6 -4 -8 -3 -43 3 -41 78 2 76 17 -1
18 -2 6 -6z m58 -5 c-18 -10 -18 -11 4 -28 26 -20 19 -41 -13 -39 -17 1 -18 2
-4 6 22 6 22 19 0 31 -20 12 -10 42 14 42 17 -1 16 -1 -1 -12z m92 -11 c3 -12
-4 -20 -17 -24 -12 -3 -21 -13 -22 -22 0 -9 -5 -2 -10 14 -5 17 -7 36 -4 43 7
19 49 10 53 -11z m58 -12 c18 -44 18 -51 -1 -35 -12 10 -19 10 -27 2 -16 -16
-28 -15 -23 1 28 80 30 81 51 32z m74 25 c0 -5 -9 -10 -20 -10 -28 0 -26 -38
3 -50 22 -10 22 -10 -3 -7 -45 4 -38 76 8 77 6 0 12 -4 12 -10z m47 -1 c-9 -6
-15 -15 -12 -20 4 -5 11 -7 16 -4 5 4 9 1 9 -4 0 -6 -7 -11 -15 -11 -21 0 -19
-18 3 -23 13 -4 11 -5 -5 -6 -20 -1 -23 4 -23 39 0 35 3 40 23 40 20 -1 20 -2
4 -11z m404 -33 c1 -6 5 3 9 19 7 28 8 27 9 -12 1 -47 -10 -55 -27 -20 l-11
22 0 -23 c-1 -13 -5 -20 -11 -17 -11 7 -14 58 -3 69 8 7 32 -20 34 -38z m76
14 c7 -40 23 -38 23 3 1 29 2 30 14 14 13 -17 14 -17 20 0 6 15 8 15 16 3 14
-21 13 -73 -1 -65 -6 4 -8 13 -5 20 3 9 -2 13 -15 12 -11 -1 -19 -9 -19 -19 0
-20 -20 -24 -38 -6 -8 8 -15 8 -27 -2 -18 -15 -19 -4 -4 39 14 39 28 40 36 1z
m127 22 c-20 -13 -23 -51 -6 -62 15 -8 14 -9 -5 -10 -20 0 -23 5 -23 40 0 35
3 40 23 40 12 0 17 -3 11 -8z m2012 -23 c1 -14 4 -31 8 -38 11 -18 -5 -13 -20
7 -13 16 -13 16 -14 -1 0 -30 -17 -10 -18 20 0 36 6 45 26 41 10 -2 17 -14 18
-29z m62 24 c-10 -2 -18 -11 -18 -19 0 -8 5 -12 10 -9 6 3 10 2 10 -4 0 -5 -6
-12 -12 -14 -10 -4 -9 -8 2 -16 12 -9 11 -11 -7 -11 -19 0 -23 5 -23 33 0 39
6 47 34 46 17 -1 18 -2 4 -6z m78 -43 c4 -26 3 -31 -5 -20 -9 12 -14 13 -31 2
-24 -15 -24 -12 -5 35 18 42 31 36 41 -17z m68 28 c14 -23 -3 -52 -33 -56 -19
-3 -21 1 -21 38 0 37 2 41 21 38 12 -2 27 -11 33 -20z m57 8 c24 22 24 18 -1
-31 -15 -29 -20 -34 -20 -18 0 12 -4 25 -10 28 -5 3 -10 14 -10 23 1 15 2 15
11 -1 10 -18 12 -18 30 -1z m397 7 c-22 -5 -23 -22 -3 -29 8 -4 15 -15 15 -25
0 -14 -7 -19 -27 -18 -24 2 -25 2 -5 6 27 5 28 10 0 32 -25 21 -17 42 15 40
17 -1 18 -2 5 -6z m75 0 c-7 -2 -14 -21 -14 -41 -2 -34 -2 -35 -6 -7 -3 17 -9
36 -15 43 -8 9 -4 12 18 11 16 0 23 -3 17 -6z m77 -62 c0 -11 -3 -11 -15 -1
-12 10 -18 10 -30 0 -19 -16 -19 -8 1 38 l16 37 14 -30 c7 -16 13 -36 14 -44z
m52 34 c-6 -47 -22 -55 -22 -11 0 19 -6 37 -12 39 -7 3 -2 6 12 6 24 1 26 -2
22 -34z m55 -32 c7 -3 13 10 16 34 l4 38 -1 -40 c-1 -33 -5 -40 -21 -40 -16 0
-20 7 -22 40 -1 40 -1 40 5 6 4 -19 12 -36 19 -38z m69 55 c-18 -10 -18 -11 4
-28 26 -20 19 -41 -13 -39 -17 1 -18 2 -4 6 21 6 22 12 0 28 -20 15 -11 45 14
45 17 -1 16 -1 -1 -12z m351 -33 c2 -32 0 -36 -8 -22 -10 18 -11 18 -25 0 -12
-16 -13 -15 -14 18 0 40 7 51 30 47 10 -2 16 -16 17 -43z m56 38 c-7 -2 -13
-11 -13 -19 0 -9 5 -12 10 -9 6 3 10 1 10 -4 0 -6 -8 -11 -17 -11 -16 -1 -16
-2 1 -15 19 -15 19 -15 -2 -15 -18 0 -22 6 -22 33 0 38 6 47 29 46 10 0 12 -2
4 -6z m65 0 c-24 -6 -23 -18 4 -35 25 -17 17 -39 -15 -37 -17 1 -18 2 -4 6 23
6 22 15 -4 31 -16 11 -18 16 -9 28 7 8 20 13 29 13 13 -1 13 -2 -1 -6z m74 -5
c-6 -7 -12 -26 -15 -43 -4 -28 -4 -27 -6 7 0 20 -7 39 -13 41 -7 3 0 6 16 6
22 1 26 -2 18 -11z m76 -35 c10 -30 0 -49 -11 -20 -3 9 -9 9 -26 -1 -25 -15
-26 -12 -6 35 17 40 26 37 43 -14z m58 35 c10 -16 13 -68 4 -68 -4 0 -11 8
-15 18 -7 16 -8 15 -15 -3 -7 -15 -9 -10 -9 23 -1 30 3 42 13 42 8 0 18 -5 22
-12z m66 0 c-6 -7 -12 -26 -15 -43 -4 -28 -4 -27 -6 7 0 20 -7 39 -13 41 -7 3
0 6 16 6 22 1 26 -2 18 -11z m58 2 c-13 -9 -13 -12 4 -25 24 -18 14 -45 -16
-44 -22 1 -22 1 2 8 l24 7 -23 16 c-27 19 -23 48 6 48 15 0 16 -2 3 -10z m279
-21 c15 -43 14 -54 -4 -39 -12 10 -18 10 -32 -1 -15 -12 -16 -12 -10 4 4 11
10 30 13 43 8 33 20 30 33 -7z m71 20 c0 -5 -4 -8 -9 -5 -13 8 -34 -21 -27
-39 8 -23 26 -18 26 7 0 16 3 19 11 11 16 -16 3 -43 -20 -43 -25 0 -39 43 -21
65 14 17 40 20 40 4z m58 4 c-10 -2 -18 -11 -18 -19 0 -8 5 -12 10 -9 6 3 10
1 10 -4 0 -6 -4 -11 -10 -11 -17 0 -11 -18 8 -24 10 -3 6 -4 -8 -3 -20 2 -25
7 -26 32 -1 39 3 45 29 44 17 -1 18 -2 5 -6z m-5368 -158 c0 -10 6 -12 18 -8
14 6 15 4 4 -9 -9 -11 -10 -18 -2 -23 5 -3 10 -11 10 -18 0 -8 -3 -8 -11 0 -6
6 -18 9 -25 6 -11 -4 -14 5 -14 37 0 25 4 39 10 35 6 -3 10 -13 10 -20z m151
-8 c24 -7 22 -35 -3 -51 -22 -13 -29 -5 -33 36 -2 35 7 64 13 37 2 -10 12 -19
23 -22z m1089 -6 c0 -31 -4 -40 -22 -44 -28 -8 -38 -1 -38 25 0 11 8 22 20 25
11 3 20 12 20 19 0 8 5 14 10 14 6 0 10 -17 10 -39z m390 29 c-12 -8 -13 -12
-2 -19 11 -7 11 -9 -2 -14 -9 -4 -17 -17 -17 -29 -1 -19 -3 -17 -8 7 -9 36 3
65 27 65 15 0 15 -2 2 -10z m140 -34 c0 -38 -2 -43 -22 -42 -32 1 -35 32 -6
61 12 12 24 23 26 24 1 1 2 -19 2 -43z m60 34 c-13 -9 -13 -11 0 -20 10 -6 11
-10 3 -10 -7 0 -13 -9 -13 -19 0 -32 -17 -33 -22 -1 -5 35 7 60 30 60 15 0 15
-2 2 -10z m391 -23 c12 -3 19 -13 18 -29 l0 -23 -9 23 c-13 30 -28 28 -33 -5
-2 -16 -4 -5 -4 22 -1 28 1 43 4 34 2 -10 13 -19 24 -22z m999 -22 c-11 -26
-23 -46 -26 -43 -2 3 5 27 16 53 11 26 23 46 26 43 2 -3 -5 -27 -16 -53z
m-2674 13 c-8 -5 -7 -13 2 -29 11 -17 11 -20 1 -17 -14 5 -31 56 -23 70 3 4
11 2 18 -5 10 -9 11 -14 2 -19z m954 22 c0 -17 -31 -73 -37 -67 -2 3 0 14 6
25 15 29 14 40 -6 45 -11 3 -7 5 10 6 15 0 27 -4 27 -9z m65 -30 c0 -28 -4
-35 -20 -35 -15 0 -20 7 -21 30 -2 38 4 47 24 43 12 -2 17 -14 17 -38z m319
25 c-17 -13 -17 -14 -2 -15 25 0 33 -20 15 -38 -13 -13 -19 -13 -31 -2 -29 23
-13 70 23 70 11 0 10 -4 -5 -15z m83 -22 c-2 -31 -6 -38 -22 -38 -15 0 -20 7
-21 30 -2 38 2 45 26 45 16 0 19 -7 17 -37z m71 9 c4 -27 -14 -52 -36 -52 -13
0 -12 3 4 15 17 13 17 14 2 15 -21 0 -30 14 -22 35 10 24 48 15 52 -13z m62 3
c0 -36 -3 -40 -24 -37 -29 4 -30 9 -12 37 21 32 36 32 36 0z m408 -1 c3 -22
-21 -54 -41 -54 -6 0 -2 7 9 15 17 13 17 14 2 15 -21 0 -32 16 -24 36 9 23 50
13 54 -12z m652 2 c0 -13 3 -31 6 -40 4 -12 0 -16 -15 -16 -12 0 -21 5 -21 10
0 6 5 10 10 10 6 0 10 9 10 20 0 11 -5 20 -11 20 -5 0 -7 5 -4 10 11 18 25 10
25 -14z m130 -4 c0 -15 5 -33 12 -40 9 -9 6 -12 -17 -12 -23 0 -26 3 -17 12
15 15 16 48 1 48 -5 0 -7 5 -4 10 12 19 25 10 25 -18z m547 -16 c2 -36 1 -37
-12 -20 -8 11 -14 14 -15 7 0 -7 -4 -13 -10 -13 -5 0 -10 16 -10 36 0 31 3 35
23 32 18 -2 22 -10 24 -42z m673 24 c14 -26 -4 -63 -28 -58 -18 3 -28 39 -18
64 8 20 34 17 46 -6z m720 -8 c0 -15 5 -33 12 -40 9 -9 6 -12 -17 -12 -23 0
-26 3 -17 12 15 15 16 48 1 48 -5 0 -7 5 -4 10 12 19 25 10 25 -18z m64 13
c-17 -13 -17 -14 -2 -15 25 0 33 -20 15 -38 -13 -13 -19 -13 -31 -2 -29 23
-13 70 23 70 11 0 10 -4 -5 -15z m-5227 -45 c4 -11 9 -6 19 15 l13 30 1 -26
c0 -16 -7 -29 -16 -33 -23 -9 -34 2 -33 32 0 15 3 20 6 12 2 -8 7 -22 10 -30z
m163 25 c0 -8 -5 -15 -11 -15 -5 0 -7 5 -4 10 3 6 1 10 -4 10 -15 0 -14 -37 2
-43 7 -3 5 -6 -6 -6 -20 -1 -32 22 -23 44 3 8 15 15 26 15 11 0 20 -7 20 -15z
m122 8 c-10 -4 -10 -8 -2 -19 7 -7 9 -18 5 -24 -8 -13 -35 -13 -35 0 0 5 8 7
18 4 16 -5 16 -5 0 9 -25 20 -22 37 5 36 12 0 16 -3 9 -6z m67 -6 c16 28 13
-4 -4 -37 -9 -17 -20 -30 -26 -30 -8 0 -8 5 0 14 9 11 9 20 2 35 -15 28 -13
39 3 18 14 -18 15 -18 25 0z m63 6 c-10 -4 -9 -8 4 -17 20 -15 11 -36 -14 -36
-15 0 -15 2 -2 10 13 9 13 12 -3 21 -20 12 -14 29 11 28 11 0 13 -2 4 -6z
m148 -8 c0 -8 -5 -15 -11 -15 -5 0 -7 5 -4 10 3 6 1 10 -4 10 -15 0 -14 -37 2
-43 7 -4 8 -6 1 -6 -18 -1 -37 27 -30 44 7 20 46 20 46 0z m78 -12 c2 -13 -1
-23 -7 -23 -6 0 -12 10 -12 23 -1 18 -3 16 -9 -8 l-8 -30 -2 30 c-2 30 -2 30
-10 5 l-8 -25 -1 28 c-1 25 2 28 27 25 19 -2 28 -9 30 -25z m236 12 c-19 -15
-19 -15 0 -30 18 -13 18 -15 3 -15 -10 0 -20 7 -23 15 -9 22 3 45 23 45 15 0
15 -2 -3 -15z m93 -1 c8 -21 -19 -46 -40 -38 -17 6 -23 35 -10 47 12 13 44 7
50 -9z m63 6 c0 -5 -7 -7 -15 -4 -10 4 -15 0 -15 -15 0 -12 -4 -21 -10 -21 -5
0 -10 11 -10 25 0 20 5 25 25 25 14 0 25 -4 25 -10z m35 -10 c-2 -11 4 -24 13
-30 15 -10 15 -10 -3 -8 -13 2 -21 12 -23 31 -2 15 1 27 7 27 5 0 8 -9 6 -20z
m35 -1 c0 -5 -4 -9 -10 -9 -5 0 -10 7 -10 16 0 8 5 12 10 9 6 -3 10 -10 10
-16z m129 -11 c-2 -32 -2 -32 -6 -5 -5 30 -25 32 -29 3 -5 -32 -14 -30 -14 2
0 27 4 32 25 32 22 0 25 -4 24 -32z m53 25 c-10 -4 -9 -8 4 -17 20 -15 11 -36
-14 -36 -15 0 -15 2 -2 10 13 9 13 12 -2 21 -25 14 -22 29 5 28 12 0 16 -3 9
-6z m335 0 c-20 -5 -19 -40 1 -35 7 1 12 -2 12 -8 0 -15 -26 -12 -39 4 -16 19
-3 46 23 45 17 -1 18 -2 3 -6z m593 -18 c8 0 18 7 22 15 4 10 7 6 7 -12 1 -29
-14 -46 -22 -26 -4 10 -7 10 -15 0 -7 -11 -10 -10 -16 3 -3 9 -6 24 -5 33 0
14 1 15 7 2 4 -8 14 -15 22 -15z m90 15 c0 -5 -6 -7 -14 -4 -9 4 -16 -3 -19
-18 -4 -21 -4 -20 -6 5 -1 21 4 27 19 27 11 0 20 -4 20 -10z m69 -32 c0 -24
-3 -37 -6 -30 -2 6 -10 12 -18 12 -19 0 -36 25 -29 44 3 9 17 16 30 16 22 0
24 -4 23 -42z m1446 1 c6 0 13 10 17 23 6 22 6 22 7 -3 1 -16 -5 -29 -15 -33
-23 -9 -34 2 -33 32 1 26 1 26 7 4 4 -13 12 -23 17 -23z m93 14 c2 -13 -1 -23
-7 -23 -6 0 -11 9 -11 20 0 30 -18 24 -23 -7 -4 -26 -4 -25 -6 5 -1 29 2 33
22 30 14 -2 23 -11 25 -25z m67 6 c4 -12 2 -26 -4 -32 -8 -8 -11 -4 -11 16 0
15 -4 27 -10 27 -5 0 -10 -9 -10 -20 0 -11 -4 -20 -10 -20 -5 0 -10 11 -10 25
0 20 5 25 24 25 16 0 27 -7 31 -21z m45 3 c0 -10 5 -23 12 -30 9 -9 8 -12 -7
-12 -15 0 -20 7 -20 30 0 17 3 30 8 30 4 0 7 -8 7 -18z m88 -9 c2 -13 -1 -23
-7 -23 -6 0 -11 9 -11 20 0 30 -18 24 -23 -7 -4 -26 -4 -25 -6 5 -1 29 2 33
22 30 14 -2 23 -11 25 -25z m58 2 c-15 -23 -15 -25 0 -25 8 0 14 -6 12 -12 -3
-7 -16 -13 -29 -13 -20 0 -24 5 -25 30 -2 39 2 45 33 45 25 0 25 -1 9 -25z
m1152 -2 c2 -13 -2 -23 -8 -23 -7 0 -10 7 -6 15 3 8 1 15 -4 15 -5 0 -11 -10
-13 -22 -3 -19 -5 -17 -7 7 -2 30 -2 30 -10 5 l-8 -25 -1 28 c-1 25 2 28 27
25 19 -2 28 -9 30 -25z m-5101 1 c-3 -3 -12 -4 -19 -1 -8 3 -5 6 6 6 11 1 17
-2 13 -5z m1870 0 c-3 -3 -12 -4 -19 -1 -8 3 -5 6 6 6 11 1 17 -2 13 -5z
m-528 -105 c-12 -8 -11 -11 1 -19 11 -7 11 -10 2 -10 -7 0 -16 -10 -21 -22 -8
-21 -8 -21 -13 5 -6 29 17 71 34 61 6 -4 5 -10 -3 -15z m200 0 c-12 -8 -11
-11 1 -19 10 -6 11 -10 3 -10 -7 0 -13 -9 -13 -20 0 -28 -17 -25 -22 5 -6 28
18 69 34 59 6 -4 5 -10 -3 -15z m-1829 -10 c0 -18 2 -20 15 -9 13 10 12 6 -2
-18 -24 -42 -33 -40 -33 8 0 22 5 40 10 40 6 0 10 -10 10 -21z m132 4 c2 -10
1 -29 -3 -43 -7 -26 -8 -24 -13 28 -4 34 9 45 16 15z m1108 -18 c0 -39 -28
-63 -48 -43 -17 17 -15 30 11 55 31 30 37 28 37 -12z m260 20 c0 -20 -22 -65
-32 -65 -5 0 -2 14 7 30 15 29 15 30 -5 30 -12 0 -18 5 -15 10 10 15 45 12 45
-5z m67 -28 c0 -34 -12 -48 -33 -40 -15 5 -16 65 -1 75 19 12 34 -3 34 -35z
m203 3 c0 -36 -2 -40 -25 -40 -20 0 -25 5 -25 26 0 17 6 28 20 31 11 3 20 9
20 14 0 5 2 9 5 9 3 0 5 -18 5 -40z m113 23 c-18 -6 -16 -23 1 -23 24 0 30
-22 11 -36 -37 -27 -62 27 -29 61 9 9 19 13 23 9 3 -4 0 -9 -6 -11z m84 -24
c2 -35 -11 -51 -33 -42 -15 6 -15 65 0 75 20 13 31 2 33 -33z m69 -12 c-6 -26
-31 -42 -41 -27 -4 6 1 10 9 10 9 0 16 7 16 15 0 8 0 18 1 22 0 4 -5 9 -12 12
-8 2 -10 -4 -6 -19 6 -22 5 -22 -11 -6 -16 16 -16 18 3 32 16 12 21 12 33 0 9
-9 12 -24 8 -39z m66 8 c3 -27 0 -30 -21 -27 -32 3 -35 7 -26 29 7 17 8 17 16
-2 8 -17 9 -16 4 6 -5 27 4 45 16 32 4 -5 9 -21 11 -38z m238 5 c0 -22 -4 -40
-10 -40 -5 0 -10 18 -10 40 0 22 5 40 10 40 6 0 10 -18 10 -40z m891 18 c-5
-13 -14 -36 -20 -52 -7 -16 -14 -26 -17 -23 -6 6 32 97 40 97 3 0 2 -10 -3
-22z m71 -49 c5 -3 0 -9 -11 -12 -12 -3 -24 -1 -27 4 -3 5 0 9 5 9 6 0 11 12
11 26 0 14 -4 23 -10 19 -5 -3 -10 -2 -10 4 0 5 6 11 13 14 7 2 13 -8 15 -27
2 -17 8 -34 14 -37z m534 28 c1 -33 0 -35 -12 -19 -13 16 -13 16 -14 0 0 -33
-20 -18 -20 15 0 38 7 49 30 45 10 -2 15 -15 16 -41z m668 27 c20 -20 20 -38
0 -59 -12 -12 -19 -13 -30 -4 -17 14 -18 51 -2 67 15 15 13 15 32 -4z m806 6
c0 -5 -7 -10 -15 -10 -8 0 -15 -4 -15 -10 0 -5 6 -10 14 -10 24 0 30 -22 11
-36 -36 -27 -62 27 -29 60 18 18 34 21 34 6z m-4758 -18 c-14 -4 -16 -42 -2
-42 6 0 10 -4 10 -10 0 -21 -28 3 -33 28 -6 34 -1 43 20 35 11 -4 13 -8 5 -11z
m2608 -6 c0 -13 2 -31 5 -38 4 -9 -2 -14 -15 -14 -24 0 -24 0 -7 27 10 17 10
23 0 26 -18 6 -16 23 2 23 9 0 15 -9 15 -24z m2070 -6 c0 -16 5 -30 11 -30 5
0 8 -4 5 -9 -3 -5 -16 -7 -28 -3 -12 3 -17 7 -10 10 14 4 16 42 2 42 -5 0 -10
5 -10 10 0 6 7 10 15 10 10 0 15 -10 15 -30z m-5159 -30 c5 0 14 10 19 23 8
21 9 21 9 -5 1 -23 -3 -28 -24 -28 -22 0 -25 4 -24 33 2 30 2 30 6 5 2 -16 9
-28 14 -28z m94 30 c6 -20 0 -40 -13 -40 -4 0 -7 14 -7 30 0 34 11 40 20 10z
m63 -3 c2 -9 -2 -17 -8 -17 -6 0 -9 4 -5 9 3 5 1 12 -5 16 -5 3 -10 -3 -10
-14 0 -13 7 -21 18 -21 14 0 15 -2 2 -10 -18 -11 -40 5 -40 30 0 32 42 37 48
7z m122 13 c-13 -8 -12 -11 4 -23 19 -14 19 -15 -2 -26 -14 -7 -23 -8 -27 -1
-3 5 2 10 11 10 17 0 16 1 -1 13 -20 16 -13 37 13 37 15 0 15 -2 2 -10z m50
-18 c1 -15 2 -15 15 2 8 11 15 14 15 7 0 -20 -30 -71 -41 -71 -8 0 -8 5 0 14
9 11 9 20 2 35 -6 11 -11 25 -11 31 0 18 20 0 20 -18z m80 18 c-13 -8 -12 -11
3 -23 17 -12 18 -14 2 -27 -13 -11 -18 -11 -28 0 -10 10 -9 12 6 7 22 -8 22 2
0 18 -19 14 -10 35 15 35 15 0 15 -2 2 -10z m146 -14 c2 -12 1 -13 -3 -1 -7
22 -23 18 -23 -5 0 -12 7 -20 17 -20 13 0 14 -3 5 -12 -8 -8 -15 -8 -27 2 -18
15 -19 32 -3 48 16 16 33 10 34 -12z m76 9 c11 -15 10 -45 -2 -45 -5 0 -11 10
-11 23 -2 20 -2 20 -7 -3 l-5 -25 -8 25 c-7 25 -7 25 -8 2 -1 -13 -5 -21 -10
-18 -4 3 -6 17 -4 30 4 19 11 25 27 23 11 -1 24 -6 28 -12z m258 4 c0 -5 -4
-8 -9 -4 -17 10 -24 -18 -8 -30 9 -7 14 -15 10 -18 -10 -10 -33 13 -33 33 0
17 12 27 33 29 4 1 7 -4 7 -10z m74 -13 c9 -13 7 -20 -8 -31 -32 -24 -62 15
-34 43 15 15 28 11 42 -12z m66 14 c0 -5 -6 -9 -12 -7 -7 1 -14 -8 -16 -20 -5
-31 -22 -29 -22 1 0 22 10 30 43 35 4 0 7 -3 7 -9z m66 -1 c3 -6 1 -16 -5 -22
-8 -8 -11 -6 -11 8 0 21 -13 13 -16 -10 -1 -8 4 -15 12 -15 9 0 13 -4 9 -10
-10 -16 -35 1 -35 24 0 13 3 26 7 29 10 11 31 8 39 -4z m131 -25 c1 -18 0 -21
-4 -9 -6 26 -23 43 -24 27 -3 -26 -4 -31 -11 -38 -5 -4 -8 4 -8 19 0 46 44 47
47 1z m53 26 c-13 -8 -12 -11 3 -23 17 -12 18 -14 2 -27 -12 -10 -19 -10 -27
-2 -9 9 -7 12 7 12 18 0 18 0 0 13 -20 16 -13 37 13 37 15 0 15 -2 2 -10z
m350 0 c0 -5 -5 -9 -12 -7 -6 1 -14 -6 -16 -15 -2 -12 3 -18 13 -18 9 0 13 -5
10 -10 -8 -13 -45 6 -45 23 0 17 20 37 37 37 7 0 13 -4 13 -10z m538 -8 c2 -7
-2 -10 -12 -6 -11 4 -19 -2 -25 -17 l-10 -24 0 27 c-1 35 36 51 47 20z m62 13
c0 -12 -24 -55 -32 -55 -12 0 -10 14 4 28 10 10 10 15 -2 22 -12 8 -10 10 8
10 12 0 22 -2 22 -5z m70 -32 c0 -32 -5 -28 -14 10 -4 19 -3 26 4 22 5 -3 10
-18 10 -32z m55 -9 c0 -29 -4 -40 -17 -42 -10 -2 -18 1 -18 7 0 6 6 10 12 9
18 -4 22 40 6 59 -11 14 -11 15 2 11 10 -3 15 -18 15 -44z m84 25 c4 -12 2
-12 -12 0 -14 11 -17 11 -21 0 -13 -40 -14 -42 -15 -17 -1 36 37 50 48 17z
m1374 -26 c6 2 14 14 18 28 6 21 7 21 8 -8 1 -29 -2 -33 -24 -33 -22 0 -25 4
-24 33 2 31 2 31 6 4 3 -16 10 -26 16 -24z m89 33 c11 -16 10 -46 -2 -46 -5 0
-10 12 -10 27 0 29 -15 22 -23 -12 -3 -14 -5 -10 -6 11 -1 23 3 31 17 31 9 0
20 -5 24 -11z m73 -33 c-8 -16 -9 -16 -12 5 -5 27 -23 29 -23 2 0 -11 -4 -20
-10 -20 -18 0 -11 48 8 53 25 5 47 -17 37 -40z m45 29 c0 -10 5 -23 11 -29 7
-7 5 -12 -9 -15 -15 -4 -18 0 -18 28 1 34 16 49 16 16z m88 -14 c2 -16 -1 -28
-7 -28 -6 0 -11 12 -11 27 0 29 -15 22 -23 -12 -3 -13 -5 -10 -6 11 -1 26 3
31 22 30 16 -1 23 -8 25 -28z m62 15 c0 -9 -7 -25 -17 -35 -9 -10 -13 -21 -9
-25 4 -4 11 -1 16 7 5 8 12 11 17 7 10 -10 -17 -28 -37 -24 -17 3 -22 55 -7
75 14 18 37 15 37 -5z m1148 -19 c3 -25 -11 -28 -14 -3 -3 22 -7 22 -14 -1
l-8 -25 -2 25 -2 25 -8 -25 -8 -25 -1 26 c-1 32 3 36 31 34 17 -1 24 -9 26
-31z m-5101 0 c-3 -3 -12 -4 -19 -1 -8 3 -5 6 6 6 11 1 17 -2 13 -5z m1870 0
c-3 -3 -12 -4 -19 -1 -8 3 -5 6 6 6 11 1 17 -2 13 -5z m-2132 -14 c3 -5 1 -10
-4 -10 -6 0 -11 5 -11 10 0 6 2 10 4 10 3 0 8 -4 11 -10z m-25 -95 c0 -10 6
-12 18 -8 15 6 15 5 3 -10 -11 -14 -11 -20 0 -34 12 -16 12 -17 -2 -6 -12 10
-18 10 -27 1 -9 -9 -12 -1 -12 36 0 29 4 45 10 41 6 -3 10 -13 10 -20z m145
-5 c19 0 27 -17 20 -40 -6 -19 -44 -29 -46 -12 -5 45 -5 69 0 77 3 6 7 2 9 -7
2 -10 10 -18 17 -18z m1025 -15 c0 -41 -2 -45 -25 -45 -33 0 -34 33 -2 66 12
13 23 24 25 24 1 0 2 -20 2 -45z m2050 -10 c-11 -26 -23 -46 -25 -43 -3 3 4
26 16 52 11 26 23 46 25 43 3 -2 -5 -26 -16 -52z m-2671 17 c-13 -5 -11 -40 4
-45 7 -4 6 -6 -4 -6 -11 -1 -19 10 -23 30 -7 38 0 53 19 36 7 -6 9 -13 4 -15z
m470 0 c-13 -5 -11 -40 4 -45 7 -4 6 -6 -5 -6 -20 -1 -41 52 -26 67 7 7 14 7
23 -1 7 -7 9 -13 4 -15z m2141 4 c0 -13 3 -31 6 -40 5 -12 0 -16 -17 -16 -18
0 -20 3 -11 12 15 15 16 48 1 48 -5 0 -7 5 -4 10 11 18 25 10 25 -14z m130 -4
c0 -15 5 -33 12 -40 9 -9 6 -12 -17 -12 -23 0 -26 3 -17 12 15 15 16 48 1 48
-5 0 -7 5 -4 10 12 19 25 10 25 -18z m547 -16 c2 -36 1 -37 -12 -20 -14 18
-14 18 -15 1 0 -30 -20 -8 -20 22 0 32 8 43 30 39 10 -2 16 -16 17 -42z m675
19 c9 -21 9 -29 -4 -42 -23 -22 -48 -9 -48 25 0 49 33 59 52 17z m718 -9 c0
-19 6 -37 13 -39 6 -3 -1 -6 -17 -6 -23 -1 -27 2 -18 11 15 15 16 48 1 48 -5
0 -7 5 -4 10 13 21 25 9 25 -24z m68 27 c-22 -6 -23 -12 -1 -28 20 -15 11 -45
-14 -44 -17 1 -17 2 0 6 21 5 22 22 2 29 -25 10 -19 44 8 43 16 -1 18 -2 5 -6z
m-3808 -13 c10 -6 11 -10 3 -10 -7 0 -13 -9 -13 -19 0 -11 6 -22 13 -25 6 -3
3 -5 -7 -3 -12 1 -22 13 -27 29 -10 37 1 47 31 28z m-1420 -50 c5 0 13 12 18
28 l10 27 1 -33 c1 -29 -2 -33 -21 -30 -17 2 -23 10 -24 28 -1 22 0 22 3 3 2
-13 8 -23 13 -23z m158 33 c2 -7 -1 -13 -8 -13 -6 0 -8 5 -5 10 3 6 1 10 -4
10 -18 0 -12 -38 7 -43 12 -4 11 -5 -6 -6 -25 -1 -38 20 -28 45 7 18 37 15 44
-3z m122 6 c-11 -8 -12 -12 -2 -16 21 -8 13 -33 -10 -32 -22 0 -22 1 -3 9 18
7 19 8 3 15 -26 10 -22 35 5 35 18 0 19 -2 7 -11z m70 -2 c9 15 10 13 5 -12
-7 -33 -22 -55 -37 -55 -7 0 -7 4 0 13 5 7 6 21 1 32 -12 31 -10 42 5 22 14
-18 15 -18 26 0z m61 4 c-11 -7 -10 -11 4 -19 22 -12 11 -32 -18 -31 -20 0
-20 1 -4 8 17 6 17 8 3 20 -18 15 -12 31 12 31 14 0 14 -2 3 -9z m148 -8 c0
-11 -3 -13 -6 -5 -7 19 -23 14 -23 -7 0 -11 8 -22 18 -24 12 -4 11 -5 -6 -6
-24 -1 -38 20 -28 44 8 21 46 19 45 -2z m79 -10 c2 -13 -1 -23 -7 -23 -6 0
-11 8 -12 18 -1 11 -4 9 -9 -8 l-8 -25 -2 25 c-1 23 -2 23 -10 5 -8 -18 -9
-17 -9 8 -1 25 2 28 27 25 19 -2 28 -9 30 -25z m257 16 c4 -6 4 -13 0 -17 -3
-3 -10 -1 -14 7 -7 10 -9 9 -14 -3 -4 -9 1 -20 11 -25 16 -10 16 -10 -1 -11
-20 0 -32 23 -23 45 6 17 32 20 41 4z m118 1 c-13 -5 -23 -14 -23 -20 0 -6 10
-15 23 -20 l22 -9 -23 0 c-12 -1 -25 6 -28 14 -10 24 4 45 28 44 l23 0 -22 -9z
m225 -24 c2 -19 0 -26 -8 -21 -6 4 -9 13 -6 21 3 8 1 14 -4 14 -6 0 -10 -10
-11 -22 -1 -22 -1 -22 -8 2 l-8 25 -5 -25 c-5 -21 -5 -20 -7 8 -1 31 1 33 27
30 21 -2 28 -9 30 -32z m60 1 c3 -23 0 -27 -22 -27 -16 0 -26 6 -26 15 0 8 5
15 11 15 5 0 7 -4 4 -10 -3 -5 -1 -10 4 -10 15 0 14 37 -1 44 -7 3 -4 5 7 3
14 -1 21 -11 23 -30z m52 22 c-11 -8 -12 -12 -2 -16 21 -8 13 -33 -10 -32 -22
0 -22 1 -3 9 18 7 19 8 3 15 -26 10 -22 35 5 35 18 0 19 -2 7 -11z m145 0 c4
-6 4 -13 0 -17 -3 -3 -10 0 -15 8 -8 12 -10 11 -10 -7 0 -12 6 -24 13 -26 7
-3 5 -6 -6 -6 -20 -1 -32 22 -23 44 6 17 32 20 41 4z m70 0 c4 -6 0 -9 -11 -7
-12 2 -20 -5 -25 -22 -6 -23 -7 -23 -8 8 -1 25 3 32 18 32 11 0 23 -5 26 -11z
m2250 -30 c6 0 13 10 17 23 5 19 6 18 7 -10 1 -29 -2 -33 -21 -30 -18 2 -23
10 -25 33 -2 25 -1 26 5 7 4 -13 12 -23 17 -23z m93 7 c2 -18 0 -26 -7 -21 -6
3 -11 16 -11 28 0 24 -16 13 -23 -18 -3 -13 -5 -8 -6 13 -1 29 2 33 22 30 16
-2 23 -11 25 -32z m67 13 c4 -12 2 -26 -4 -32 -8 -8 -11 -4 -11 16 0 15 -4 27
-10 27 -5 0 -10 -11 -10 -25 0 -14 -4 -25 -10 -25 -5 0 -10 14 -10 30 0 25 4
30 24 30 16 0 27 -7 31 -21z m45 3 c0 -10 5 -23 12 -30 9 -9 8 -12 -7 -12 -15
0 -20 7 -20 30 0 17 3 30 8 30 4 0 7 -8 7 -18z m88 -16 c2 -18 0 -26 -7 -21
-6 3 -11 16 -11 28 0 24 -16 13 -23 -18 -3 -13 -5 -8 -6 13 -1 29 2 33 22 30
16 -2 23 -11 25 -32z m50 -6 c-28 -48 -39 -51 -36 -7 2 43 5 47 34 47 l25 0
-23 -40z m1160 13 c2 -13 -2 -23 -8 -23 -7 0 -10 7 -6 15 3 8 1 15 -4 15 -6 0
-10 -10 -11 -22 -1 -22 -1 -22 -8 2 l-8 25 -5 -25 c-5 -21 -5 -20 -7 8 -1 31
1 33 27 30 19 -2 28 -9 30 -25z m-5101 1 c-3 -3 -12 -4 -19 -1 -8 3 -5 6 6 6
11 1 17 -2 13 -5z m3958 -45 c-10 -15 -25 -10 -19 6 4 8 10 12 15 9 5 -3 7
-10 4 -15z m-4245 -70 c0 -18 2 -19 15 -9 9 8 15 9 15 2 0 -6 -5 -14 -11 -18
-8 -4 -8 -9 0 -17 17 -17 13 -31 -4 -17 -10 9 -15 9 -15 1 0 -6 -4 -11 -10
-11 -5 0 -10 20 -10 45 0 25 5 45 10 45 6 0 10 -10 10 -21z m130 6 c0 -8 6
-12 14 -9 19 7 29 -12 22 -42 -5 -19 -12 -25 -29 -22 -18 2 -23 10 -25 46 -2
25 1 42 7 42 6 0 11 -7 11 -15z m810 -25 c5 0 10 6 13 13 2 6 8 9 12 4 5 -4 3
-13 -3 -19 -9 -9 -9 -15 0 -25 6 -7 8 -17 4 -20 -4 -4 -11 -1 -17 7 -8 13 -10
13 -19 0 -7 -11 -9 -1 -8 35 0 28 3 40 5 28 2 -13 8 -23 13 -23z m147 16 c24
-22 28 -23 38 -9 14 19 45 11 45 -12 0 -8 -8 -15 -17 -16 -15 0 -15 -2 2 -9
19 -8 19 -8 1 -16 -13 -5 -23 -2 -33 12 -13 18 -15 18 -24 2 -6 -10 -19 -18
-29 -18 -17 0 -20 7 -20 45 0 25 2 45 5 45 3 0 18 -11 32 -24z m333 -9 c0 -18
5 -38 12 -45 9 -9 6 -12 -13 -12 -23 0 -26 3 -23 38 3 52 3 52 14 52 6 0 10
-15 10 -33z m1814 11 c-10 -34 -35 -80 -40 -75 -7 6 29 97 39 97 5 0 5 -10 1
-22z m592 14 c11 -7 27 -82 17 -82 -3 0 -12 8 -19 18 -13 16 -13 16 -14 0 0
-37 -20 -16 -20 20 0 49 10 62 36 44z m278 -54 c6 -25 4 -28 -19 -28 -14 0
-25 5 -25 10 0 6 5 10 10 10 6 0 10 7 10 15 0 8 -5 15 -10 15 -6 0 -5 8 2 20
14 22 17 18 32 -42z m416 18 c0 -28 -24 -51 -45 -42 -18 6 -20 57 -3 74 17 17
48 -4 48 -32z m790 34 c0 -5 -8 -10 -17 -10 -15 0 -13 -4 7 -19 20 -16 22 -21
11 -35 -15 -18 -41 -22 -41 -6 0 6 8 10 18 10 14 0 12 4 -8 19 -20 16 -22 21
-11 35 15 18 41 22 41 6z m-4754 -15 c17 -13 17 -14 2 -15 -10 0 -18 -5 -18
-11 0 -7 8 -18 18 -26 16 -13 16 -14 -3 -11 -22 4 -46 44 -38 64 7 18 15 18
39 -1z m1604 4 c11 -8 12 -12 3 -16 -15 -6 -17 -33 -3 -33 6 0 10 -5 10 -11 0
-23 -34 -2 -41 25 -12 43 0 57 31 35z m1000 -19 c0 -16 5 -30 10 -30 6 0 10
-4 10 -10 0 -5 -11 -10 -25 -10 -22 0 -24 3 -18 30 3 20 1 30 -6 30 -7 0 -9 5
-6 10 14 22 35 10 35 -20z m134 14 c3 -9 4 -20 1 -24 -3 -5 -1 -11 5 -15 18
-11 10 -25 -15 -25 -14 0 -25 5 -25 10 0 6 5 10 10 10 6 0 10 9 10 20 0 11 -4
20 -10 20 -5 0 -10 5 -10 10 0 16 27 11 34 -6z m1936 -14 c0 -16 5 -30 10 -30
6 0 10 -4 10 -10 0 -5 -11 -10 -25 -10 -29 0 -30 2 -12 31 10 17 10 23 0 26
-18 6 -16 23 2 23 10 0 15 -10 15 -30z m-5159 -30 c5 0 9 9 9 19 0 11 5 23 10
26 6 4 10 -8 10 -30 0 -32 -3 -36 -21 -33 -29 4 -45 30 -34 54 8 17 9 16 13
-8 2 -16 8 -28 13 -28z m159 35 c10 -12 8 -16 -11 -24 -18 -7 -19 -10 -6 -10
9 -1 17 -6 17 -12 0 -18 -45 -5 -48 14 -8 42 23 63 48 32z m130 5 c0 -5 -5
-10 -12 -10 -6 0 -4 -6 7 -13 10 -8 15 -19 11 -25 -9 -15 -46 -16 -46 -2 0 6
6 10 13 10 8 0 8 3 -2 9 -17 11 -7 41 14 41 8 0 15 -4 15 -10z m39 -12 l9 -23
9 24 c6 14 12 20 15 15 8 -13 -24 -77 -42 -82 -12 -4 -13 -2 -4 9 7 8 8 22 3
34 -9 24 -11 45 -4 45 3 0 10 -10 14 -22z m91 12 c0 -5 -5 -10 -12 -10 -6 0
-4 -6 7 -13 10 -8 15 -19 11 -25 -9 -15 -46 -16 -46 -2 0 6 5 10 11 10 8 0 8
4 -1 15 -6 8 -9 19 -5 25 8 13 35 13 35 0z m135 0 c4 -7 11 -7 18 -2 7 5 23 9
37 7 20 -1 26 -8 28 -33 2 -18 -1 -32 -7 -32 -6 0 -11 10 -12 23 -1 21 -1 21
-9 -3 l-8 -25 -2 25 -2 25 -8 -25 c-7 -24 -7 -25 -16 -4 -7 16 -14 19 -29 13
-17 -6 -17 -8 -2 -8 9 -1 17 -6 17 -12 0 -6 -10 -9 -22 -7 -15 2 -24 11 -26
27 -5 31 28 55 43 31z m386 -40 c5 0 9 12 9 27 0 19 3 24 11 16 6 -6 9 -21 7
-34 -2 -18 -9 -24 -28 -24 -27 0 -37 24 -24 53 6 14 9 12 12 -10 2 -16 8 -28
13 -28z m287 12 c3 -30 1 -33 -20 -30 -17 2 -23 10 -24 28 -1 33 5 42 24 38
11 -2 18 -15 20 -36z m71 19 c12 -19 4 -37 -25 -56 l-24 -15 0 43 c0 38 3 44
20 43 12 0 25 -7 29 -15z m126 9 c3 -5 0 -10 -7 -10 -10 0 -10 -2 1 -9 8 -5
11 -16 8 -25 -7 -18 -37 -22 -37 -5 0 5 5 7 10 4 6 -3 10 -2 10 3 0 6 -7 13
-16 16 -13 5 -14 9 -4 21 14 17 26 19 35 5z m73 -13 c2 -11 -3 -17 -15 -18
-16 -1 -17 -2 0 -6 23 -6 22 -23 -3 -23 -25 0 -41 29 -28 53 11 22 41 19 46
-6z m70 5 c3 -9 -3 -12 -14 -10 -14 2 -20 -4 -22 -21 -3 -16 -6 -20 -11 -12
-14 23 -1 58 22 57 11 -1 22 -7 25 -14z m32 -10 c0 -13 5 -12 20 8 23 29 24
25 9 -19 -13 -38 -26 -40 -39 -5 -13 33 -13 47 0 39 6 -3 10 -14 10 -23z m98
5 c2 -11 -3 -17 -15 -18 -16 -1 -17 -2 0 -6 25 -7 21 -25 -5 -21 -23 3 -34 28
-24 54 8 20 40 14 44 -9z m69 7 c2 -7 -4 -11 -13 -10 -11 0 -20 -9 -25 -24 -6
-22 -7 -21 -8 11 -1 31 2 36 21 35 12 0 23 -6 25 -12z m142 -6 c4 -11 12 -13
26 -7 19 7 19 8 1 8 -15 1 -17 4 -9 12 19 19 43 2 43 -31 0 -25 -4 -30 -25
-30 -14 0 -25 5 -25 11 0 8 -5 8 -15 -1 -13 -10 -15 -9 -16 11 l-2 24 -5 -25
-5 -25 -8 25 c-7 25 -7 25 -8 2 -1 -13 -5 -20 -11 -17 -11 7 -14 48 -4 58 11
11 58 0 63 -15z m121 12 c0 -5 -6 -10 -12 -10 -9 0 -9 -3 1 -9 17 -11 7 -41
-14 -41 -8 0 -15 5 -15 10 0 6 6 10 13 10 8 0 8 3 -2 9 -17 11 -7 41 14 41 8
0 15 -4 15 -10z m138 -13 c2 -11 -3 -17 -15 -18 -16 0 -16 -1 2 -9 18 -7 19
-8 2 -15 -19 -8 -47 10 -47 29 0 34 52 46 58 13z m70 5 c2 -8 -3 -12 -14 -10
-12 2 -20 -5 -24 -22 -8 -32 -20 -13 -13 21 3 19 11 26 26 25 11 -1 22 -7 25
-14z m1577 -23 c6 0 13 10 17 23 5 18 6 15 7 -15 1 -34 -1 -38 -21 -35 -18 2
-23 10 -25 38 -1 27 0 30 5 12 4 -13 12 -23 17 -23z m93 4 c2 -19 -1 -33 -7
-33 -6 0 -11 12 -11 26 0 14 -4 23 -10 19 -5 -3 -10 -16 -10 -28 -1 -18 -2
-19 -10 -6 -15 26 -1 61 24 57 16 -2 22 -11 24 -35z m65 16 c6 -10 7 -24 2
-35 -8 -17 -9 -16 -13 9 -4 34 -22 36 -22 2 0 -14 -4 -25 -10 -25 -5 0 -10 15
-10 34 0 28 4 33 21 32 12 0 26 -8 32 -17z m135 -18 c2 -21 0 -31 -7 -26 -6 3
-11 15 -11 26 0 11 -4 17 -10 14 -5 -3 -10 -16 -10 -28 -1 -18 -2 -19 -10 -6
-15 25 -1 56 23 55 17 -1 23 -8 25 -35z m72 25 c0 -8 -5 -18 -10 -21 -8 -5 -7
-11 0 -20 16 -19 4 -35 -26 -35 -21 0 -24 5 -24 33 0 18 5 38 12 45 17 17 48
15 48 -2z m1135 -21 c0 -35 -34 -46 -36 -12 -1 20 -2 20 -8 -3 -7 -24 -8 -24
-13 8 -6 39 -2 43 31 39 21 -3 26 -9 26 -32z m-5095 5 c0 -5 -7 -10 -15 -10
-8 0 -15 5 -15 10 0 6 7 10 15 10 8 0 15 -4 15 -10z m935 0 c3 -5 -3 -10 -15
-10 -12 0 -18 5 -15 10 3 6 10 10 15 10 5 0 12 -4 15 -10z m670 0 c3 -5 -3
-10 -15 -10 -12 0 -18 5 -15 10 3 6 10 10 15 10 5 0 12 -4 15 -10z m-203 -140
c3 -31 0 -40 -12 -40 -12 0 -14 10 -12 45 5 54 18 51 24 -5z m-1692 19 c0 -19
2 -20 18 -8 15 13 16 12 3 -3 -11 -15 -11 -21 -1 -33 9 -10 9 -15 1 -15 -6 0
-11 5 -11 11 0 8 -5 8 -15 -1 -13 -11 -15 -7 -15 29 0 22 5 41 10 41 6 0 10
-10 10 -21z m131 4 c1 -10 1 -26 0 -35 -1 -10 3 -18 10 -18 7 0 9 10 6 25 -3
16 0 24 7 22 6 -2 11 -15 11 -28 0 -17 -6 -25 -22 -27 -13 -2 -23 0 -24 5 0 4
-2 23 -3 41 -2 17 0 32 5 32 5 0 10 -8 10 -17z m809 -23 c5 0 10 3 13 8 2 4 2
1 0 -7 -2 -7 2 -20 8 -27 8 -9 8 -14 1 -14 -6 0 -14 5 -18 11 -4 8 -9 7 -15
-2 -6 -9 -8 2 -7 31 0 25 3 35 5 23 2 -13 8 -23 13 -23z m143 17 c10 -4 17
-17 17 -32 0 -20 -5 -25 -25 -25 -23 0 -25 4 -25 43 0 23 4 37 8 31 4 -6 15
-13 25 -17z m667 -5 c0 -15 5 -33 12 -40 9 -9 8 -12 -7 -12 -17 0 -20 7 -20
40 0 22 3 40 8 40 4 0 7 -13 7 -28z m1412 -17 c3 -29 1 -35 -15 -35 -17 0 -18
2 -6 16 10 12 10 20 1 34 -6 10 -8 20 -5 24 11 11 21 -4 25 -39z m64 10 c-17
-40 -40 -78 -33 -55 14 48 32 90 39 90 5 0 2 -16 -6 -35z m76 -32 c8 -10 4
-13 -18 -12 -16 0 -23 3 -16 6 6 2 12 16 12 29 0 13 -6 24 -12 24 -9 0 -8 4 2
10 12 7 16 4 18 -18 2 -15 8 -33 14 -39z m535 23 c2 -36 1 -37 -12 -20 -13 17
-14 18 -15 2 0 -33 -20 -18 -20 15 0 38 7 49 30 45 10 -2 16 -16 17 -42z m673
24 c16 -30 3 -62 -23 -58 -25 3 -35 41 -17 64 17 19 27 18 40 -6z m733 -52 c7
-4 -1 -7 -18 -7 -16 0 -24 3 -17 6 6 2 12 16 12 29 0 13 -6 24 -12 24 -9 0 -8
4 2 10 12 8 16 3 18 -23 2 -17 9 -35 15 -39z m47 57 c-10 -12 -9 -16 4 -21 25
-10 20 -44 -6 -43 -17 1 -19 2 -5 6 21 5 23 23 2 23 -9 0 -15 9 -15 25 0 16 6
25 16 25 13 0 14 -3 4 -15z m-4738 -13 c-16 -5 -15 -39 1 -45 7 -4 6 -6 -4 -6
-11 -1 -19 9 -22 26 -6 35 -1 44 20 36 11 -4 13 -8 5 -11z m938 8 c10 -6 11
-10 3 -10 -7 0 -13 -9 -13 -19 0 -11 6 -22 13 -25 6 -3 3 -5 -7 -3 -12 1 -22
13 -27 29 -10 37 1 47 31 28z m1270 0 c10 -6 11 -10 3 -10 -7 0 -13 -9 -13
-19 0 -11 6 -22 13 -25 6 -3 3 -5 -8 -3 -15 2 -21 11 -23 35 -3 33 3 38 28 22z
m-2687 -47 c6 2 14 14 18 28 6 21 7 21 8 -8 1 -29 -2 -33 -24 -33 -22 0 -25 4
-24 33 2 31 2 31 6 4 3 -16 10 -26 16 -24z m155 27 c5 -13 3 -13 -11 -1 -15
12 -17 11 -17 -7 0 -11 8 -23 18 -25 12 -4 11 -5 -6 -6 -25 -1 -38 20 -28 45
7 19 37 15 44 -6z m122 9 c-11 -8 -12 -12 -2 -16 21 -8 14 -33 -10 -32 -19 1
-19 2 -5 6 17 4 17 5 1 17 -19 15 -11 36 14 36 15 0 15 -2 2 -11z m49 -11 l9
-23 10 25 c7 17 11 19 11 8 1 -25 -20 -66 -37 -73 -12 -4 -13 -3 -3 9 9 11 10
20 2 35 -12 21 -14 41 -6 41 3 0 10 -10 14 -22z m81 12 c-13 -9 -13 -12 3 -21
22 -13 13 -29 -16 -28 -21 0 -21 1 -2 8 18 7 18 8 1 18 -21 12 -13 33 12 33
15 0 15 -2 2 -10z m146 -8 c1 -7 0 -8 -3 -2 -8 17 -23 11 -23 -9 0 -11 8 -22
18 -25 10 -3 7 -4 -8 -3 -28 2 -40 34 -18 48 16 11 31 7 34 -9z m76 3 c11 -15
10 -45 -2 -45 -5 0 -11 10 -11 23 -2 20 -2 20 -7 -3 l-5 -25 -8 25 c-7 25 -7
25 -8 2 -1 -13 -5 -21 -10 -18 -4 3 -6 17 -4 30 4 19 11 25 27 23 11 -1 24 -6
28 -12z m463 4 c4 -6 4 -13 0 -17 -3 -3 -10 -1 -14 7 -6 10 -10 9 -15 -4 -8
-23 -8 -23 12 -28 13 -4 11 -5 -5 -6 -18 -1 -23 4 -23 22 0 13 3 27 7 30 10
10 31 8 38 -4z m123 0 c-10 -5 -18 -16 -18 -24 0 -7 8 -16 18 -18 12 -4 11 -5
-6 -6 -12 0 -25 6 -28 14 -8 19 13 45 35 45 14 -1 14 -2 -1 -11z m77 -19 c0
-16 -6 -26 -19 -28 -24 -5 -37 17 -25 41 14 26 44 17 44 -13z m69 14 c9 -24 7
-44 -4 -44 -5 0 -10 12 -10 26 0 14 -4 23 -10 19 -5 -3 -10 -15 -10 -26 0 -10
-4 -19 -10 -19 -11 0 -14 43 -3 53 12 13 41 7 47 -9z m136 6 c0 -5 -6 -9 -12
-7 -7 1 -14 -8 -16 -20 -2 -13 -8 -23 -13 -23 -14 0 -11 48 4 53 21 9 37 7 37
-3z m65 -20 c0 -18 -6 -26 -23 -28 -27 -4 -40 22 -22 44 19 22 45 13 45 -16z
m200 19 c4 -6 4 -13 0 -17 -4 -4 -10 -1 -12 6 -6 15 -23 6 -23 -13 0 -7 8 -16
18 -18 13 -4 12 -5 -4 -6 -12 0 -25 6 -28 15 -12 30 33 60 49 33z m71 0 c3 -6
-2 -9 -12 -7 -12 2 -20 -5 -25 -22 -7 -24 -7 -24 -8 5 -1 24 3 31 19 32 11 1
22 -3 26 -8z m131 -25 c2 -28 2 -28 -7 -4 l-8 25 -2 -25 -2 -25 -8 25 -7 25
-11 -25 -11 -25 0 26 c-1 32 6 39 33 35 15 -2 22 -11 23 -32z m61 3 c3 -25 0
-28 -20 -25 -24 3 -29 19 -7 27 7 2 9 -1 5 -8 -4 -6 -2 -11 3 -11 17 0 13 28
-6 40 -16 10 -16 10 2 8 14 -2 21 -12 23 -31z m69 -2 c1 -18 -1 -22 -4 -10 -8
31 -23 42 -23 18 0 -12 -4 -25 -10 -28 -11 -7 -14 38 -3 49 16 16 38 0 40 -29z
m71 2 c3 -23 0 -27 -22 -27 -16 0 -26 6 -26 15 0 8 5 15 11 15 5 0 7 -4 4 -10
-3 -5 -1 -10 4 -10 15 0 14 37 -1 44 -7 3 -4 5 7 3 14 -1 21 -11 23 -30z m66
25 c5 -9 -34 -72 -45 -72 -9 0 -4 53 5 68 8 14 32 16 40 4z m64 -12 c5 -13 3
-13 -11 -1 -15 12 -17 11 -17 -7 0 -11 8 -23 18 -25 12 -4 11 -5 -6 -6 -25 -1
-38 20 -28 45 7 19 37 15 44 -6z m68 8 c5 -7 2 -9 -9 -5 -11 4 -19 -2 -26 -21
l-9 -27 -1 26 c-1 14 2 29 6 32 10 11 31 8 39 -5z m141 -24 c2 -28 2 -28 -6
-4 l-8 25 -11 -25 -11 -25 -1 25 -2 25 -8 -25 c-8 -24 -8 -23 -9 8 -1 30 1 32
27 29 22 -3 27 -9 29 -33z m61 3 c3 -23 0 -27 -22 -27 -16 0 -26 6 -26 15 0
18 16 20 23 3 3 -7 6 -3 6 9 1 12 -5 24 -11 27 -7 3 -4 5 7 3 14 -1 21 -11 23
-30z m52 23 c-13 -9 -13 -12 3 -21 22 -13 13 -29 -16 -28 -18 1 -19 2 -4 6 17
4 17 5 1 17 -19 15 -11 36 14 36 15 0 15 -2 2 -10z m145 -1 c4 -6 4 -13 0 -17
-3 -3 -10 0 -15 8 -8 12 -10 11 -10 -7 0 -12 6 -24 13 -26 7 -3 5 -6 -6 -6
-20 -1 -32 22 -23 44 6 17 32 20 41 4z m71 0 c3 -6 -2 -9 -12 -7 -12 2 -20 -5
-25 -22 -7 -24 -7 -24 -8 5 -1 24 3 31 19 32 11 1 22 -3 26 -8z m977 -36 c6 2
14 14 18 28 6 21 7 21 8 -8 1 -29 -2 -33 -24 -33 -22 0 -25 4 -24 33 2 31 2
31 6 4 3 -16 10 -26 16 -24z m95 15 c2 -16 -1 -28 -7 -28 -6 0 -11 12 -11 27
0 29 -15 22 -23 -12 -3 -13 -5 -8 -6 13 -1 29 2 33 22 30 16 -2 23 -11 25 -30z
m62 17 c7 -9 9 -22 5 -32 -7 -17 -8 -16 -13 2 -7 34 -22 42 -22 12 0 -15 -4
-27 -10 -27 -11 0 -14 43 -3 53 11 11 30 8 43 -8z m50 -3 c0 -10 5 -23 12 -30
9 -9 8 -12 -7 -12 -15 0 -20 7 -20 30 0 17 3 30 8 30 4 0 7 -8 7 -18z m88 -16
c2 -18 0 -26 -7 -21 -6 3 -11 16 -11 28 0 24 -16 13 -23 -18 -3 -13 -5 -8 -6
13 -1 29 2 33 22 30 16 -2 23 -11 25 -32z m61 12 c-2 -13 0 -29 5 -36 11 -19
-3 -30 -15 -12 -8 11 -12 12 -16 3 -9 -24 -24 -13 -22 15 4 33 17 52 36 52 9
0 13 -8 12 -22z m1149 -14 c3 -25 -11 -28 -14 -3 -3 22 -7 22 -14 -1 l-8 -25
-2 25 -2 25 -8 -25 c-8 -24 -8 -23 -9 8 -1 30 1 32 27 29 21 -3 28 -10 30 -33z
m-4388 6 c0 -11 5 -20 10 -20 6 0 10 9 10 20 0 11 5 20 10 20 12 0 13 -20 1
-38 -13 -21 -46 -10 -49 16 -2 12 1 22 7 22 6 0 11 -9 11 -20z m-710 0 c0 -5
-7 -10 -15 -10 -8 0 -15 5 -15 10 0 6 7 10 15 10 8 0 15 -4 15 -10z m930 0 c0
-5 -4 -10 -10 -10 -5 0 -10 5 -10 10 0 6 5 10 10 10 6 0 10 -4 10 -10z m740 0
c0 -5 -7 -10 -15 -10 -8 0 -15 5 -15 10 0 6 7 10 15 10 8 0 15 -4 15 -10z
m530 0 c0 -5 -4 -10 -10 -10 -5 0 -10 5 -10 10 0 6 5 10 10 10 6 0 10 -4 10
-10z m-180 -41 c0 -5 -4 -9 -10 -9 -5 0 -10 7 -10 16 0 8 5 12 10 9 6 -3 10
-10 10 -16z m-2310 -74 c0 -10 6 -12 18 -8 14 6 15 4 4 -9 -9 -11 -10 -18 -2
-23 5 -3 10 -11 10 -17 0 -7 -4 -7 -13 1 -10 8 -17 7 -25 -1 -9 -9 -12 -1 -12
36 0 29 4 45 10 41 6 -3 10 -13 10 -20z m151 -8 c24 -7 22 -35 -3 -51 -22 -13
-29 -5 -33 36 -2 35 7 64 13 37 2 -10 12 -19 23 -22z m796 -3 c11 5 13 2 9
-10 -4 -9 -1 -24 6 -33 12 -14 11 -15 -5 -2 -16 13 -20 13 -28 0 -6 -9 -8 3
-7 36 0 28 3 40 5 27 3 -16 9 -22 20 -18z m134 6 c16 0 20 -6 17 -27 -2 -20
-9 -28 -23 -28 -17 0 -20 7 -22 45 -1 25 1 37 4 28 2 -10 13 -18 24 -18z m610
-18 c4 -34 2 -42 -10 -42 -12 0 -16 11 -16 45 0 56 18 54 26 -3z m269 38 c-13
-9 -13 -11 0 -20 10 -6 11 -10 3 -10 -7 0 -13 -12 -13 -27 0 -17 -4 -23 -9
-17 -23 24 -11 84 18 84 14 0 14 -2 1 -10z m1260 -45 c-11 -26 -23 -46 -26
-43 -2 3 5 27 16 53 11 26 23 46 26 43 2 -3 -5 -27 -16 -53z m-2674 13 c-8 -5
-7 -13 2 -29 11 -17 11 -20 1 -17 -14 5 -31 56 -23 70 3 4 11 2 18 -5 10 -9
11 -14 2 -19z m1270 0 c-8 -5 -7 -13 2 -29 11 -17 11 -20 1 -17 -14 5 -31 56
-23 70 3 4 11 2 18 -5 10 -9 11 -14 2 -19z m68 17 c-17 -13 -17 -14 -2 -15 25
0 33 -20 15 -37 -20 -21 -47 -9 -47 20 0 26 17 47 39 47 11 0 10 -4 -5 -15z
m1276 -9 c0 -13 3 -31 6 -40 5 -12 0 -16 -17 -16 -18 0 -20 3 -11 12 15 15 16
48 1 48 -5 0 -7 5 -4 10 11 18 25 10 25 -14z m130 -4 c0 -15 5 -33 12 -40 9
-9 6 -12 -17 -12 -23 0 -26 3 -17 12 15 15 16 48 1 48 -5 0 -7 5 -4 10 12 19
25 10 25 -18z m547 -16 c2 -36 1 -37 -12 -20 -8 11 -14 14 -15 7 0 -27 -20
-12 -20 15 0 33 8 44 30 40 10 -2 16 -16 17 -42z m673 24 c14 -26 -4 -63 -28
-58 -18 3 -28 39 -18 64 8 20 34 17 46 -6z m720 -8 c0 -15 5 -33 12 -40 9 -9
6 -12 -17 -12 -23 0 -26 3 -17 12 15 15 16 48 1 48 -5 0 -7 5 -4 10 12 19 25
10 25 -18z m68 17 c-20 -11 -25 -59 -7 -59 6 0 9 9 6 20 -6 22 8 28 16 8 7
-21 -4 -38 -24 -38 -12 0 -21 9 -25 25 -7 28 10 55 35 55 14 -1 14 -2 -1 -11z
m-5231 -49 c4 -11 9 -6 19 15 l13 30 1 -33 c0 -29 -3 -33 -22 -30 -18 2 -24
10 -25 33 -1 17 0 23 3 15 3 -8 8 -22 11 -30z m163 25 c0 -8 -5 -15 -11 -15
-5 0 -7 5 -4 10 3 6 1 10 -4 10 -15 0 -14 -37 2 -43 7 -3 5 -6 -6 -6 -20 -1
-32 22 -23 44 3 8 15 15 26 15 11 0 20 -7 20 -15z m121 6 c-9 -6 -10 -11 -2
-15 20 -13 12 -36 -11 -35 -22 0 -22 1 -3 9 18 7 19 8 3 15 -26 10 -22 35 5
35 16 0 18 -3 8 -9z m69 -4 c9 15 10 13 5 -12 -7 -33 -22 -55 -37 -55 -6 0 -5
6 1 14 9 11 9 20 2 35 -15 28 -13 39 3 18 14 -18 15 -18 26 0z m61 4 c-11 -7
-10 -11 4 -19 21 -11 12 -32 -13 -32 -13 0 -14 2 -4 9 10 6 10 10 -2 21 -18
14 -12 30 12 30 14 0 14 -2 3 -9z m148 -8 c0 -11 -3 -13 -6 -5 -7 19 -23 14
-23 -7 0 -11 8 -22 18 -24 12 -4 11 -5 -6 -6 -24 -1 -38 20 -28 44 8 21 46 19
45 -2z m79 -10 c2 -13 -1 -23 -7 -23 -6 0 -11 8 -12 18 -1 11 -4 9 -9 -8 l-8
-25 -2 25 c-1 23 -2 23 -10 5 -8 -18 -9 -17 -9 8 -1 25 2 28 27 25 19 -2 28
-9 30 -25z m292 1 c0 -14 4 -23 10 -19 6 3 10 16 10 28 0 15 3 18 11 10 16
-16 1 -53 -21 -53 -18 0 -30 19 -30 46 0 8 5 14 10 14 6 0 10 -12 10 -26z
m165 15 c4 -6 4 -13 0 -17 -3 -3 -10 -1 -14 7 -7 10 -9 9 -14 -3 -4 -9 1 -20
11 -25 16 -10 16 -10 -1 -11 -20 0 -32 23 -23 45 6 17 32 20 41 4z m138 -3 c6
-15 -6 -33 -35 -55 -16 -12 -18 -10 -18 28 0 37 3 41 24 41 13 0 26 -6 29 -14z
m67 4 c0 -5 -7 -7 -15 -4 -10 4 -15 0 -15 -14 0 -12 -4 -24 -10 -27 -6 -4 -10
7 -10 24 0 26 4 31 25 31 14 0 25 -4 25 -10z m65 -20 c0 -33 -40 -41 -50 -11
-9 28 2 43 28 39 16 -2 22 -10 22 -28z m62 -2 c0 -20 -4 -25 -12 -18 -7 6 -16
5 -25 -3 -12 -10 -12 -9 -1 6 10 13 11 20 2 31 -10 11 -7 14 12 12 19 -1 24
-7 24 -28z m59 17 c8 11 14 13 14 6 0 -20 -30 -71 -41 -71 -8 0 -8 4 -1 13 7
8 7 18 2 27 -6 8 -10 22 -10 30 1 11 4 10 12 -4 11 -19 11 -19 24 -1z m200 -9
c-14 -23 -14 -25 2 -29 10 -3 6 -5 -10 -6 -31 -1 -36 10 -13 29 13 11 13 15 3
21 -9 6 -6 9 11 9 22 0 23 -1 7 -24z m2129 -17 c6 0 13 10 17 23 5 19 6 18 7
-10 1 -29 -2 -33 -21 -30 -18 2 -23 10 -25 33 -2 25 -1 26 5 7 4 -13 12 -23
17 -23z m93 14 c2 -13 -1 -23 -7 -23 -6 0 -11 10 -11 22 0 25 -15 14 -23 -17
-3 -13 -5 -8 -6 13 -1 29 2 33 22 30 14 -2 23 -11 25 -25z m67 6 c4 -12 2 -26
-4 -32 -8 -8 -11 -4 -11 16 0 15 -4 27 -10 27 -5 0 -10 -9 -10 -19 0 -11 -4
-23 -10 -26 -6 -4 -10 7 -10 24 0 26 4 31 24 31 16 0 27 -7 31 -21z m45 3 c0
-10 5 -23 12 -30 9 -9 8 -12 -7 -12 -15 0 -20 7 -20 30 0 17 3 30 8 30 4 0 7
-8 7 -18z m88 -9 c2 -13 -1 -23 -7 -23 -6 0 -11 10 -11 22 0 25 -15 14 -23
-17 -3 -13 -5 -8 -6 13 -1 29 2 33 22 30 14 -2 23 -11 25 -25z m58 5 c-9 -13
-19 -31 -23 -40 -9 -30 -23 -20 -21 15 2 43 5 47 35 47 25 0 25 -1 9 -22z
m1152 -5 c2 -13 -2 -23 -8 -23 -7 0 -10 7 -6 15 3 8 1 15 -4 15 -5 0 -11 -10
-13 -22 -4 -19 -5 -18 -7 7 l-2 30 -8 -30 -8 -30 -1 33 c-1 31 1 33 27 30 19
-2 28 -9 30 -25z m-5101 1 c-3 -3 -12 -4 -19 -1 -8 3 -5 6 6 6 11 1 17 -2 13
-5z m3958 -45 c-10 -15 -25 -10 -19 6 4 8 10 12 15 9 5 -3 7 -10 4 -15z
m-4245 -70 c0 -13 4 -18 12 -13 7 4 8 3 4 -5 -4 -6 -3 -18 3 -25 9 -11 6 -13
-14 -13 -22 0 -25 4 -25 38 0 22 5 39 10 39 6 0 10 -9 10 -21z m151 -12 c22
-6 23 -37 2 -44 -7 -3 -9 3 -6 16 3 12 1 21 -6 21 -6 0 -11 -9 -11 -21 0 -11
-3 -18 -8 -16 -4 3 -6 20 -5 39 2 41 4 47 10 27 2 -10 13 -19 24 -22z m795 -3
c9 3 12 1 9 -5 -4 -5 -1 -16 5 -24 8 -10 9 -15 2 -15 -6 0 -14 5 -18 11 -4 8
-9 7 -15 -2 -6 -9 -8 2 -7 31 0 25 3 35 5 22 3 -16 10 -22 19 -18z m136 11 c7
0 14 -12 16 -27 2 -16 -1 -28 -6 -28 -6 0 -8 10 -5 21 4 16 2 20 -8 17 -8 -3
-13 -13 -13 -22 1 -9 -2 -16 -7 -16 -5 0 -9 19 -9 43 0 30 3 38 10 27 5 -8 15
-15 22 -15z m888 -15 c0 -36 -2 -40 -25 -40 -20 0 -25 5 -25 25 0 14 4 25 9
25 5 0 7 -10 4 -21 -4 -16 -2 -20 8 -17 8 3 14 13 15 24 3 58 14 62 14 4z
m1249 -14 c-11 -26 -23 -45 -26 -43 -2 3 5 27 16 53 12 26 23 45 26 42 3 -3
-4 -26 -16 -52z m873 8 c4 -28 2 -41 -7 -41 -10 0 -12 27 -6 81 2 19 8 0 13
-40z m-3532 15 c0 -5 -4 -9 -10 -9 -5 0 -10 -7 -10 -15 0 -8 5 -15 10 -15 6 0
10 -5 10 -11 0 -6 -5 -9 -12 -7 -13 5 -30 57 -22 69 6 10 34 0 34 -12z m1256
14 c-18 -5 -18 -6 5 -24 23 -19 24 -20 5 -34 -23 -17 -36 -19 -36 -5 0 6 7 10
15 10 8 0 15 5 15 10 0 6 -7 10 -15 10 -8 0 -15 9 -15 20 0 14 6 20 23 19 19
-1 19 -2 3 -6z m1344 -17 c0 -13 2 -31 5 -38 4 -9 -2 -14 -15 -14 -24 0 -24 0
-7 27 10 17 10 23 0 26 -18 6 -16 23 2 23 9 0 15 -9 15 -24z m130 -6 c0 -16 5
-30 11 -30 5 0 8 -4 5 -9 -7 -10 -31 -9 -42 2 -4 4 -2 7 4 7 7 0 12 9 12 20 0
11 -5 20 -11 20 -5 0 -7 5 -4 10 12 20 25 9 25 -20z m548 -6 c-1 -33 -3 -35
-15 -18 -12 16 -13 16 -13 1 0 -9 -4 -17 -10 -17 -5 0 -10 16 -10 35 0 31 3
35 25 35 22 0 24 -4 23 -36z m676 20 c9 -24 8 -31 -10 -49 -12 -12 -19 -13
-30 -4 -15 12 -19 51 -7 62 12 13 41 7 47 -9z m716 -8 c0 -13 3 -31 6 -39 4
-10 0 -15 -10 -13 -19 3 -34 16 -18 16 7 0 12 9 12 20 0 11 -5 20 -11 20 -5 0
-7 5 -4 10 11 18 25 10 25 -14z m68 17 c-20 -5 -25 -48 -6 -59 8 -5 9 0 6 14
-6 23 6 30 18 11 3 -6 -1 -18 -9 -27 -13 -13 -19 -13 -31 -2 -29 23 -12 72 24
69 11 -1 11 -2 -2 -6z m-4952 -18 c-3 -8 -1 -15 4 -15 16 0 12 -27 -5 -33 -8
-4 -17 -1 -21 5 -4 7 -3 8 4 4 16 -10 15 7 0 22 -10 10 -10 15 2 22 21 13 23
12 16 -5z m144 4 c0 -5 -4 -7 -10 -4 -17 11 -11 -7 8 -21 15 -12 15 -15 2 -24
-19 -13 -30 -13 -30 1 0 5 5 7 10 4 17 -11 11 7 -7 21 -16 12 -16 15 -3 24 19
13 30 13 30 -1z m813 -35 c-8 -22 -22 -16 -16 7 4 16 2 20 -8 17 -8 -3 -13
-15 -11 -30 2 -15 -2 -29 -7 -33 -7 -4 -11 8 -11 34 0 29 4 41 18 44 21 4 43
-19 35 -39z m67 26 c0 -5 -7 -7 -15 -4 -10 4 -15 0 -15 -15 0 -12 -4 -21 -10
-21 -18 0 -11 48 8 53 20 4 32 -1 32 -13z m64 -3 c16 -25 -16 -56 -38 -37 -19
15 -20 32 -4 48 15 15 28 11 42 -11z m254 -5 c-10 -12 -10 -16 0 -19 13 -5 17
-23 5 -23 -5 0 -14 4 -22 9 -12 8 -12 12 -2 25 9 11 10 16 2 16 -6 0 -11 4
-11 9 0 5 9 7 20 4 17 -5 18 -8 8 -21z m2362 -13 c0 -11 -4 -19 -10 -19 -5 0
-10 9 -10 20 0 11 -4 20 -10 20 -5 0 -10 -9 -10 -20 0 -11 -4 -20 -10 -20 -18
0 -11 48 8 52 23 6 42 -10 42 -33z m-3979 -9 c5 0 14 10 19 23 9 21 9 21 9 -4
1 -18 -5 -28 -18 -32 -25 -6 -31 0 -30 32 2 24 2 24 6 4 2 -13 9 -23 14 -23z
m142 -2 c6 -4 8 -10 4 -14 -13 -14 -40 23 -32 43 8 17 8 17 13 -2 2 -11 9 -23
15 -27z m17 27 c0 -8 -2 -15 -4 -15 -2 0 -6 7 -10 15 -3 8 -1 15 4 15 6 0 10
-7 10 -15z m189 2 c16 28 13 -4 -4 -37 -9 -17 -20 -30 -26 -30 -8 0 -8 5 0 14
9 11 9 20 2 35 -15 28 -13 39 3 18 14 -18 15 -18 25 0z m194 -29 c6 -4 8 -10
4 -14 -13 -14 -40 23 -32 43 8 17 8 17 13 -2 2 -11 9 -23 15 -27z m17 27 c0
-8 -2 -15 -4 -15 -2 0 -6 7 -10 15 -3 8 -1 15 4 15 6 0 10 -7 10 -15z m78 -12
c2 -13 -1 -23 -7 -23 -6 0 -11 10 -12 23 -1 21 -1 21 -9 -3 l-8 -25 -2 25 -2
25 -8 -25 -8 -25 -1 28 c-1 25 2 28 27 25 19 -2 28 -9 30 -25z m292 7 c0 -11
5 -20 10 -20 6 0 10 9 10 20 0 11 5 20 10 20 15 0 12 -27 -6 -45 -12 -12 -19
-13 -30 -4 -16 13 -19 49 -4 49 6 0 10 -9 10 -20z m137 0 c-3 -13 0 -20 10
-20 8 0 12 -4 8 -10 -3 -5 -12 -7 -20 -3 -17 6 -20 53 -4 53 6 0 9 -9 6 -20z
m33 5 c0 -8 -4 -15 -10 -15 -5 0 -10 7 -10 15 0 8 5 15 10 15 6 0 10 -7 10
-15z m325 -10 c0 -14 -7 -21 -23 -22 -17 -1 -20 2 -13 11 7 9 7 16 0 23 -8 8
-4 11 12 10 17 -1 24 -8 24 -22z m59 11 c4 9 9 14 12 11 8 -8 -26 -77 -38 -77
-7 0 -7 4 0 13 5 7 6 21 1 32 -12 31 -10 42 5 22 13 -16 14 -16 20 -1z m220
-2 c3 -9 3 -21 -1 -27 -4 -7 -10 -2 -14 13 l-7 25 -2 -25 -2 -25 -8 25 -8 25
-1 -24 c-1 -19 -4 -22 -12 -14 -7 7 -9 19 -6 27 8 21 53 21 61 0z m94 0 c-2
-10 3 -19 11 -22 10 -3 12 1 8 17 -3 11 -2 21 3 21 12 0 19 -63 9 -74 -6 -6
-9 -3 -9 7 0 9 -6 17 -14 17 -19 0 -29 17 -22 35 7 20 18 19 14 -1z m2013 -24
c5 0 14 10 19 23 9 21 9 21 9 -4 1 -18 -5 -28 -18 -32 -25 -6 -31 0 -30 32 2
24 2 24 6 4 2 -13 9 -23 14 -23z m61 15 c-2 -14 -6 -25 -8 -25 -2 0 -4 11 -4
25 0 14 4 25 9 25 4 0 6 -11 3 -25z m38 -6 c0 -10 -4 -19 -10 -19 -5 0 -10 12
-10 26 0 14 4 23 10 19 6 -3 10 -15 10 -26z m162 6 c-2 -14 -6 -25 -8 -25 -2
0 -4 11 -4 25 0 14 4 25 9 25 4 0 6 -11 3 -25z m38 0 c0 -14 -4 -25 -10 -25
-5 0 -10 11 -10 25 0 14 5 25 10 25 6 0 10 -11 10 -25z m60 13 c0 -6 -7 -20
-17 -30 -9 -10 -13 -21 -9 -25 4 -4 11 -1 16 7 5 8 12 11 17 7 10 -10 -17 -28
-37 -24 -16 2 -25 39 -16 63 6 17 46 19 46 2z m1148 -17 c2 -15 0 -21 -7 -16
-6 3 -9 11 -6 16 4 5 2 9 -4 9 -5 0 -12 -8 -14 -17 -3 -13 -5 -11 -7 7 l-2 25
-8 -25 -8 -25 -1 28 c-1 25 2 28 27 25 20 -2 28 -9 30 -27z m-5101 3 c-3 -3
-12 -4 -19 -1 -8 3 -5 6 6 6 11 1 17 -2 13 -5z m1404 -132 c4 -34 2 -42 -10
-42 -12 0 -16 11 -16 45 0 56 18 54 26 -3z m-1691 17 c0 -19 2 -20 18 -8 15
13 16 12 3 -3 -11 -15 -11 -21 0 -35 12 -16 12 -17 -2 -6 -12 10 -18 10 -27 1
-9 -9 -12 -2 -12 30 0 23 5 42 10 42 6 0 10 -10 10 -21z m130 12 c0 -5 9 -11
21 -14 29 -8 22 -51 -8 -55 -13 -2 -23 0 -24 5 0 4 -2 23 -3 41 -2 17 0 32 5
32 5 0 9 -4 9 -9z m818 -19 c14 11 15 10 9 -6 -4 -10 -2 -25 4 -32 8 -9 8 -14
1 -14 -6 0 -14 5 -18 11 -4 8 -9 7 -15 -2 -6 -9 -8 2 -7 31 0 25 3 35 5 22 4
-20 7 -21 21 -10z m135 5 c26 -10 18 -51 -10 -55 -21 -3 -23 1 -23 40 0 24 4
38 8 32 4 -6 15 -13 25 -17z m317 13 c0 -5 6 -10 14 -10 14 0 26 -21 26 -46 0
-8 -4 -14 -10 -14 -5 0 -10 12 -10 26 0 14 -4 23 -10 19 -5 -3 -10 -15 -10
-26 0 -11 -4 -17 -10 -14 -5 3 -10 22 -10 41 0 19 5 34 10 34 6 0 10 -4 10
-10z m170 -30 c0 -36 -2 -40 -25 -40 -20 0 -25 5 -25 24 0 18 28 51 48 55 1 1
2 -17 2 -39z m1592 -5 c3 -29 1 -35 -15 -35 -17 0 -18 2 -6 16 10 12 10 20 1
34 -6 10 -8 20 -5 24 11 11 21 -4 25 -39z m63 8 c-24 -57 -38 -65 -18 -10 9
26 21 47 25 47 5 0 1 -17 -7 -37z m77 -30 c8 -10 4 -13 -18 -12 -16 0 -23 3
-16 6 6 2 12 16 12 29 0 13 -6 24 -12 24 -9 0 -8 4 2 10 12 7 16 4 18 -18 2
-15 8 -33 14 -39z m535 23 c2 -36 1 -37 -12 -20 -13 17 -14 18 -15 2 0 -33
-20 -18 -20 15 0 38 7 49 30 45 10 -2 16 -16 17 -42z m675 19 c9 -21 9 -29 -4
-42 -23 -23 -48 -9 -48 26 0 26 9 38 33 40 4 1 13 -10 19 -24z m731 -47 c7 -4
-1 -7 -18 -7 -16 0 -24 3 -17 6 6 2 12 16 12 29 0 13 -6 24 -12 24 -9 0 -8 4
2 10 12 8 16 3 18 -23 2 -17 9 -35 15 -39z m55 65 c-22 -6 -23 -12 -1 -28 20
-15 11 -45 -14 -44 -17 1 -17 2 0 6 21 5 22 22 2 29 -25 10 -19 44 8 43 16 -1
18 -2 5 -6z m-4748 -13 c10 -6 11 -10 3 -10 -7 0 -13 -9 -13 -19 0 -11 6 -22
13 -24 7 -3 5 -6 -5 -6 -10 -1 -18 5 -18 12 0 6 -3 22 -6 35 -7 24 2 28 26 12z
m1610 0 c10 -6 11 -10 3 -10 -7 0 -13 -9 -13 -19 0 -11 6 -22 13 -25 6 -3 3
-5 -7 -3 -12 1 -22 13 -27 29 -10 37 1 47 31 28z m-2087 -47 c6 2 14 14 18 28
6 21 7 21 8 -8 1 -29 -2 -33 -24 -33 -22 0 -25 4 -24 33 2 31 2 31 6 4 3 -16
10 -26 16 -24z m152 36 c4 -6 4 -13 0 -17 -3 -3 -10 0 -15 8 -8 12 -10 11 -10
-7 0 -12 8 -23 18 -26 12 -4 11 -5 -6 -6 -24 -1 -38 20 -28 44 6 17 32 20 41
4z m125 0 c-11 -8 -12 -12 -2 -16 21 -8 13 -33 -10 -32 -21 0 -22 1 -3 8 18 7
18 8 1 18 -21 12 -13 33 12 33 15 0 15 -2 2 -11z m49 -11 l9 -23 11 25 c11 24
11 24 6 -5 -6 -30 -45 -80 -45 -57 0 7 5 12 11 12 9 0 7 16 -8 58 -3 6 -2 12
1 12 4 0 11 -10 15 -22z m83 13 c-10 -6 -10 -10 2 -21 18 -14 12 -30 -12 -30
-14 0 -14 2 -3 9 11 7 10 11 -4 19 -21 11 -12 32 13 32 13 0 14 -2 4 -9z m144
-9 c1 -7 0 -8 -3 -2 -8 17 -23 11 -23 -9 0 -11 8 -22 18 -24 12 -4 11 -5 -6
-6 -25 -1 -38 20 -28 45 7 18 38 15 42 -4z m78 2 c9 -22 7 -34 -3 -34 -5 0
-12 8 -14 18 -3 12 -5 10 -7 -8 l-2 -25 -8 25 c-8 25 -8 25 -9 2 -1 -13 -5
-21 -10 -18 -4 3 -6 17 -3 31 5 29 46 36 56 9z m307 -34 c5 0 9 12 9 27 0 20
3 24 11 16 16 -16 1 -53 -22 -53 -23 0 -34 23 -23 48 6 14 8 12 12 -10 2 -16
8 -28 13 -28z m154 39 c4 -6 4 -13 0 -17 -3 -3 -10 -1 -14 7 -7 10 -9 9 -14
-3 -4 -9 1 -20 11 -25 16 -10 16 -10 -1 -11 -20 0 -32 23 -23 45 6 17 32 20
41 4z m115 1 c-12 -8 -12 -10 3 -16 25 -9 21 -34 -5 -34 -17 0 -19 3 -9 9 9 6
10 11 2 15 -17 11 -13 36 7 36 14 0 15 -2 2 -10z m64 -5 c-19 -15 -19 -15 0
-30 18 -13 18 -15 3 -15 -20 0 -32 23 -23 45 3 8 13 15 23 15 15 0 15 -2 -3
-15z m151 4 c4 -6 4 -13 0 -17 -3 -3 -10 0 -15 8 -8 12 -10 11 -10 -7 0 -12 8
-23 18 -26 12 -4 11 -5 -6 -6 -24 -1 -38 20 -28 44 6 17 32 20 41 4z m116 -39
c5 0 9 9 9 19 0 11 5 23 11 26 7 5 9 -3 7 -21 -2 -21 -9 -30 -25 -32 -20 -3
-23 1 -22 30 2 30 2 31 6 6 2 -16 9 -28 14 -28z m154 39 c4 -6 4 -13 0 -17 -3
-3 -10 0 -15 8 -8 12 -10 11 -10 -7 0 -12 6 -24 13 -26 7 -3 5 -6 -6 -6 -20
-1 -32 22 -23 44 6 17 32 20 41 4z m70 0 c4 -6 0 -9 -11 -7 -12 2 -20 -5 -25
-22 -6 -23 -7 -23 -8 8 -1 25 3 32 18 32 11 0 23 -5 26 -11z m138 -1 c2 -7 1
-22 -4 -33 -7 -18 -8 -18 -9 5 l-2 25 -8 -25 -8 -25 -2 25 -2 25 -8 -25 c-8
-24 -8 -23 -9 8 -1 27 2 32 23 32 13 0 26 -6 29 -12z m65 -21 c3 -23 0 -27
-22 -27 -18 0 -26 5 -25 18 0 10 3 12 6 5 2 -7 9 -13 14 -13 14 0 11 38 -3 44
-7 3 -4 5 7 3 14 -1 21 -11 23 -30z m52 22 c-11 -8 -12 -12 -2 -16 21 -8 13
-33 -10 -32 -21 0 -21 1 -4 8 18 7 18 8 3 14 -25 10 -21 37 6 37 18 0 19 -2 7
-11z m145 0 c4 -6 4 -13 0 -17 -4 -4 -10 -1 -12 6 -6 15 -23 6 -23 -13 0 -7 8
-16 18 -18 14 -4 14 -5 1 -6 -26 -2 -44 26 -29 44 15 18 36 20 45 4z m70 0 c4
-6 0 -9 -11 -7 -12 2 -20 -5 -25 -22 -6 -23 -7 -23 -8 8 -1 25 3 32 18 32 11
0 23 -5 26 -11z m1578 -36 c6 2 14 14 18 28 6 21 7 20 8 -9 1 -29 -2 -33 -21
-30 -17 2 -23 10 -24 28 -1 23 -1 23 3 2 3 -13 10 -21 16 -19z m95 15 c2 -16
-1 -28 -7 -28 -6 0 -11 12 -11 27 0 29 -15 22 -23 -12 -3 -13 -5 -8 -6 13 -1
29 2 33 22 30 16 -2 23 -11 25 -30z m67 11 c4 -12 2 -26 -4 -32 -8 -8 -11 -4
-11 16 0 15 -4 27 -10 27 -5 0 -10 -11 -10 -25 0 -14 -4 -25 -10 -25 -5 0 -10
14 -10 30 0 25 4 30 24 30 16 0 27 -7 31 -21z m45 3 c0 -10 5 -23 12 -30 9 -9
8 -12 -7 -12 -15 0 -20 7 -20 30 0 17 3 30 8 30 4 0 7 -8 7 -18z m88 -16 c2
-18 0 -26 -7 -21 -6 3 -11 16 -11 28 0 24 -16 13 -23 -18 -3 -13 -5 -8 -6 13
-1 29 2 33 22 30 16 -2 23 -11 25 -32z m62 17 c-1 -10 -9 -28 -19 -40 -32 -39
-34 -32 -21 55 0 1 9 2 20 2 13 0 20 -7 20 -17z m1146 3 c3 -8 4 -23 1 -33 -4
-15 -6 -14 -13 7 l-8 25 -7 -25 -7 -25 -2 25 -2 25 -8 -25 c-8 -24 -8 -23 -9
8 -1 28 2 32 24 32 14 0 28 -6 31 -14z m-5099 -12 c-3 -3 -12 -4 -19 -1 -8 3
-5 6 6 6 11 1 17 -2 13 -5z m3963 -45 c0 -5 -4 -9 -10 -9 -5 0 -10 7 -10 16 0
8 5 12 10 9 6 -3 10 -10 10 -16z m-4250 -74 c0 -10 6 -12 18 -8 14 6 15 4 4
-9 -9 -11 -10 -18 -2 -23 5 -3 10 -11 10 -18 0 -8 -3 -8 -11 0 -6 6 -18 9 -25
6 -11 -4 -14 5 -14 37 0 25 4 39 10 35 6 -3 10 -13 10 -20z m151 -8 c24 -7 22
-35 -3 -51 -22 -13 -29 -5 -33 36 -2 35 7 64 13 37 2 -10 12 -19 23 -22z
m3069 -22 c-11 -26 -23 -46 -26 -43 -2 3 5 27 16 53 11 26 23 46 26 43 2 -3
-5 -27 -16 -53z m-2674 13 c-8 -5 -7 -13 2 -29 11 -17 11 -20 1 -17 -14 5 -31
56 -23 70 3 4 11 2 18 -5 10 -9 11 -14 2 -19z m943 4 c-13 -5 -11 -40 4 -45 7
-4 6 -6 -5 -6 -20 -1 -41 52 -26 67 7 7 14 7 23 -1 7 -7 9 -13 4 -15z m141 10
c0 -10 -6 -24 -12 -30 -10 -10 -10 -15 2 -22 12 -8 10 -10 -7 -10 -26 0 -30
12 -8 30 8 7 15 19 15 27 0 9 -6 13 -15 9 -8 -3 -15 -1 -15 4 0 6 9 10 20 10
13 0 20 -7 20 -18z m74 2 c3 -9 6 -19 6 -24 0 -12 -30 -40 -43 -40 -6 0 -2 7
9 15 17 13 17 14 2 15 -21 0 -32 16 -24 35 7 20 42 19 50 -1z m128 -14 c5 -36
-7 -63 -17 -38 -4 10 -4 22 0 28 3 5 1 10 -4 10 -6 0 -11 -7 -11 -15 0 -8 -4
-15 -10 -15 -14 0 -13 7 6 35 21 33 31 31 36 -5z m64 15 c4 -8 0 -22 -7 -31
-10 -13 -10 -17 2 -25 11 -7 9 -9 -8 -9 -27 0 -28 7 -8 34 19 26 19 34 -2 39
-17 4 -17 5 0 6 10 0 20 -6 23 -14z m1274 -3 c0 -10 -6 -24 -12 -30 -10 -10
-10 -15 2 -22 12 -8 10 -10 -7 -10 -27 0 -28 7 -8 34 19 25 19 40 0 32 -8 -3
-15 -1 -15 4 0 6 9 10 20 10 13 0 20 -7 20 -18z m135 8 c3 -5 1 -19 -6 -31 -9
-17 -8 -23 2 -30 10 -6 6 -9 -13 -9 -31 0 -36 11 -13 30 8 7 15 19 15 27 0 9
-6 13 -15 9 -8 -3 -15 -1 -15 4 0 13 37 13 45 0z m532 -28 c1 -27 -1 -31 -13
-21 -10 8 -14 8 -14 0 0 -6 -4 -11 -10 -11 -11 0 -14 53 -3 64 17 16 38 -1 40
-32z m664 -5 c5 -30 3 -37 -10 -37 -12 0 -16 10 -16 40 -1 50 18 48 26 -3z
m729 19 c0 -13 3 -31 6 -40 5 -12 0 -16 -17 -16 -18 0 -20 3 -11 12 15 15 16
48 1 48 -5 0 -7 5 -4 10 11 18 25 10 25 -14z m68 13 c-20 -11 -25 -59 -7 -59
6 0 9 9 6 20 -5 21 7 27 19 9 3 -6 -1 -18 -9 -27 -13 -13 -19 -13 -31 -2 -29
23 -13 70 24 70 12 -1 12 -2 -2 -11z m-5231 -49 c4 -11 9 -6 19 15 l13 30 1
-26 c0 -16 -7 -29 -16 -33 -23 -9 -34 2 -33 32 0 15 3 20 6 12 2 -8 7 -22 10
-30z m163 25 c0 -18 -16 -20 -23 -2 -3 6 -6 2 -6 -10 -1 -12 5 -24 12 -26 7
-3 5 -6 -6 -6 -20 -1 -32 22 -23 44 3 8 15 15 26 15 11 0 20 -7 20 -15z m122
8 c-10 -4 -10 -8 -2 -19 14 -16 5 -34 -18 -34 -15 0 -15 2 -2 11 11 8 12 12 3
16 -22 8 -14 33 10 32 12 0 16 -3 9 -6z m67 -6 c16 28 13 -4 -4 -37 -9 -17
-20 -30 -26 -30 -8 0 -8 5 0 14 9 11 9 20 2 35 -15 28 -13 39 3 18 14 -18 15
-18 25 0z m62 4 c-11 -7 -10 -11 4 -19 21 -11 12 -32 -13 -32 -15 0 -15 2 -2
10 13 9 13 12 -3 21 -20 12 -14 29 11 29 14 0 14 -2 3 -9z m148 -8 c0 -11 -3
-13 -6 -5 -8 19 -23 14 -23 -8 0 -11 5 -20 12 -20 6 0 9 -2 6 -5 -10 -11 -38
7 -38 24 0 23 9 31 32 31 11 0 18 -7 17 -17z m79 -10 c2 -13 -1 -23 -7 -23 -6
0 -11 10 -12 23 -1 21 -1 21 -9 -3 l-8 -25 -2 25 -2 25 -8 -25 -8 -25 -1 28
c-1 25 2 28 27 25 19 -2 28 -9 30 -25z m235 14 c4 3 7 0 8 -8 0 -8 4 -6 9 6 8
18 9 17 9 -7 1 -15 -3 -30 -9 -33 -5 -3 -10 -1 -10 6 0 8 -4 8 -15 -1 -8 -7
-15 -9 -15 -4 0 5 -3 20 -7 34 -6 21 -4 23 9 13 8 -7 18 -10 21 -6z m90 -2
c-1 -5 -7 -11 -14 -14 -7 -2 -9 1 -5 8 4 6 2 11 -3 11 -15 0 -14 -37 2 -43 7
-4 8 -6 1 -6 -18 -1 -37 27 -30 45 6 17 52 16 49 -1z m67 -13 c0 -20 -5 -28
-20 -29 -23 -2 -34 12 -24 29 5 8 9 6 14 -7 4 -12 9 -15 13 -8 4 6 0 19 -9 27
-14 15 -14 16 5 16 16 0 21 -6 21 -28z m56 15 c16 22 18 14 3 -24 -10 -27 -11
-27 -25 -9 -8 11 -14 27 -14 35 1 13 3 12 11 -2 10 -18 11 -18 25 0z m79 2 c4
-6 4 -13 0 -17 -4 -4 -10 -1 -12 6 -7 19 -23 14 -23 -7 0 -11 8 -22 18 -24 14
-4 14 -5 1 -6 -22 -1 -43 25 -35 44 6 17 42 20 51 4z m134 -21 c-1 -28 -2 -30
-7 -10 -9 30 -25 30 -34 0 -5 -20 -6 -18 -7 10 -1 28 2 32 24 32 22 0 25 -4
24 -32z m66 21 c4 -6 4 -13 0 -17 -4 -4 -10 -1 -12 6 -6 17 -23 15 -23 -3 0
-7 8 -19 18 -24 15 -9 15 -10 1 -11 -23 0 -41 24 -33 44 7 18 39 22 49 5z
m323 -9 c-11 -17 -10 -22 2 -30 12 -8 11 -10 -7 -10 -28 0 -37 14 -17 30 12
11 12 15 2 21 -9 6 -6 9 10 9 20 0 21 -2 10 -20z m2127 -21 c6 0 13 10 17 23
5 20 6 19 7 -8 1 -26 -3 -31 -21 -30 -18 1 -23 8 -25 31 -2 25 -1 26 5 7 4
-13 12 -23 17 -23z m93 14 c2 -13 -1 -23 -7 -23 -6 0 -11 9 -11 20 0 30 -18
24 -23 -7 -4 -26 -4 -25 -6 5 -1 29 2 33 22 30 14 -2 23 -11 25 -25z m67 6 c4
-12 2 -26 -4 -32 -8 -8 -11 -4 -11 16 0 15 -4 27 -10 27 -5 0 -10 -9 -10 -20
0 -11 -4 -20 -10 -20 -5 0 -10 11 -10 25 0 20 5 25 24 25 16 0 27 -7 31 -21z
m45 3 c0 -10 5 -23 12 -30 9 -9 8 -12 -7 -12 -15 0 -20 7 -20 30 0 17 3 30 8
30 4 0 7 -8 7 -18z m88 -9 c2 -13 -1 -23 -7 -23 -6 0 -11 10 -11 22 0 25 -15
14 -23 -17 -3 -13 -5 -8 -6 13 -1 29 2 33 22 30 14 -2 23 -11 25 -25z m62 15
c0 -6 -7 -20 -17 -30 -9 -10 -13 -21 -9 -25 4 -4 11 -1 16 7 5 8 12 11 16 7
12 -11 -12 -29 -32 -25 -19 3 -30 38 -20 64 6 17 46 19 46 2z m1148 -15 c2
-13 -2 -23 -8 -23 -7 0 -10 7 -6 15 3 8 1 15 -4 15 -5 0 -11 -10 -13 -22 -3
-19 -5 -17 -7 7 -2 30 -2 30 -10 5 l-8 -25 -1 28 c-1 25 2 28 27 25 19 -2 28
-9 30 -25z m-5101 1 c-3 -3 -12 -4 -19 -1 -8 3 -5 6 6 6 11 1 17 -2 13 -5z
m1000 0 c-3 -3 -12 -4 -19 -1 -8 3 -5 6 6 6 11 1 17 -2 13 -5z m270 0 c-3 -3
-12 -4 -19 -1 -8 3 -5 6 6 6 11 1 17 -2 13 -5z m-1557 -115 c0 -18 2 -20 15
-9 13 10 12 6 -2 -18 -24 -42 -33 -40 -33 8 0 22 5 40 10 40 6 0 10 -10 10
-21z m140 -4 c12 8 33 -23 26 -40 -9 -25 -24 -17 -18 11 3 19 1 25 -7 20 -6
-4 -11 -16 -11 -27 0 -11 -3 -18 -8 -16 -4 3 -6 20 -5 39 2 42 4 47 10 25 2
-9 8 -15 13 -12z m1700 -15 c0 -36 -3 -40 -24 -40 -33 0 -39 25 -13 54 30 35
37 32 37 -14z m52 0 c3 -31 0 -40 -12 -40 -11 0 -15 11 -15 40 0 23 5 40 11
40 7 0 14 -18 16 -40z m1278 10 c0 -11 -5 -22 -11 -26 -8 -4 -7 -9 2 -15 10
-6 8 -9 -8 -9 -26 0 -30 12 -8 30 19 16 19 30 -1 30 -8 0 -13 4 -9 10 9 15 35
0 35 -20z m49 -24 c-11 -26 -23 -45 -26 -43 -2 3 5 27 16 53 12 26 23 45 26
42 3 -3 -4 -26 -16 -52z m77 5 c-17 -18 -17 -19 1 -24 11 -3 7 -5 -11 -6 -28
-1 -28 0 -13 17 22 24 22 42 0 42 -15 0 -16 2 -3 10 10 6 20 5 29 -5 13 -12
12 -17 -3 -34z m541 2 c-1 -31 -2 -33 -14 -17 -12 16 -13 16 -13 1 0 -9 -4
-17 -10 -17 -15 0 -12 68 3 73 24 8 35 -5 34 -40z m266 -25 c8 -5 5 -8 -8 -8
-16 0 -20 6 -18 32 2 51 6 56 10 18 3 -19 10 -38 16 -42z m1195 54 c-20 -4
-26 -52 -7 -52 6 0 8 7 5 16 -4 10 -1 14 6 12 23 -8 14 -33 -12 -33 -18 0 -26
6 -28 21 -4 25 25 57 41 47 8 -5 6 -9 -5 -11z m-4746 -10 c-16 -5 -15 -39 1
-45 7 -4 6 -6 -4 -6 -11 -1 -19 9 -22 26 -6 35 -1 44 20 36 11 -4 13 -8 5 -11z
m938 8 c10 -6 11 -10 3 -10 -7 0 -13 -9 -13 -19 0 -11 6 -22 13 -25 6 -3 3 -5
-7 -3 -12 1 -22 13 -27 29 -10 37 1 47 31 28z m3012 -25 c3 -27 0 -35 -12 -35
-11 0 -15 10 -15 35 0 20 5 35 11 35 7 0 14 -16 16 -35z m730 0 c3 -30 1 -35
-17 -34 -11 0 -14 3 -7 6 14 6 16 43 2 43 -5 0 -10 5 -10 10 0 6 6 10 14 10 8
0 15 -14 18 -35z m-5161 -25 c5 0 14 10 19 23 8 21 9 21 9 -5 1 -23 -3 -28
-24 -28 -22 0 -25 4 -24 33 2 30 2 30 6 5 2 -16 9 -28 14 -28z m154 39 c4 -6
4 -13 0 -17 -3 -3 -10 0 -15 8 -8 12 -10 11 -10 -7 0 -12 8 -23 18 -26 12 -4
11 -5 -6 -6 -27 -1 -39 23 -22 44 15 18 26 19 35 4z m125 0 c-11 -8 -12 -12
-2 -16 21 -8 14 -33 -10 -32 -19 1 -19 2 -5 6 17 4 17 5 1 17 -19 15 -11 36
14 36 15 0 15 -2 2 -11z m68 -13 c6 10 12 14 12 7 0 -21 -22 -62 -38 -68 -12
-4 -13 -3 -3 9 9 11 10 20 2 35 -6 11 -11 26 -11 33 1 7 7 2 14 -11 13 -23 14
-23 24 -5z m72 13 c0 -5 -4 -7 -10 -4 -5 3 -10 2 -10 -3 0 -6 7 -13 16 -16 19
-7 9 -26 -14 -25 -11 0 -13 2 -4 6 10 4 9 8 -5 19 -16 12 -16 15 -3 24 19 13
30 13 30 -1z m139 -10 c4 -12 2 -12 -12 0 -15 12 -17 11 -17 -7 0 -11 8 -23
18 -25 12 -4 11 -5 -6 -6 -27 -1 -39 23 -22 44 15 18 32 15 39 -6z m73 6 c11
-15 10 -45 -2 -45 -5 0 -10 10 -11 23 -1 21 -1 21 -9 -3 l-8 -25 -2 25 -2 25
-8 -25 -8 -25 -1 26 c-1 14 1 28 4 31 9 9 39 4 47 -7z m327 2 c6 -8 8 -17 4
-20 -3 -4 -12 1 -19 11 -12 16 -13 15 -14 -5 0 -12 7 -23 18 -26 12 -4 11 -5
-6 -6 -27 -1 -39 23 -22 44 15 19 24 19 39 2z m69 -20 c3 -23 0 -27 -22 -27
-26 0 -35 13 -17 24 5 4 12 0 14 -6 3 -7 6 -3 6 10 1 13 -3 20 -9 17 -5 -3
-10 -1 -10 5 0 25 35 4 38 -23z m72 20 c0 -7 -7 -22 -15 -33 -13 -16 -16 -17
-25 -4 -5 8 -10 22 -10 30 1 12 4 11 14 -3 14 -18 14 -17 21 2 7 24 15 28 15
8z m59 -1 c8 -10 9 -16 1 -21 -5 -3 -10 1 -10 9 0 9 -4 16 -10 16 -17 0 -11
-38 8 -43 12 -4 11 -5 -6 -6 -27 -1 -39 23 -22 44 16 19 24 19 39 1z m138 -22
c2 -25 1 -26 -5 -6 -4 13 -11 23 -17 23 -5 0 -13 -10 -17 -23 -6 -22 -6 -22
-7 4 -2 47 43 49 46 2z m62 22 c8 -10 9 -16 1 -21 -5 -3 -10 1 -10 10 0 9 -4
13 -10 10 -16 -10 -12 -33 8 -38 12 -4 11 -5 -6 -6 -27 -1 -39 23 -22 44 16
19 24 19 39 1z m191 3 c-11 -8 -12 -12 -2 -16 21 -8 14 -33 -10 -32 -19 1 -19
2 -5 6 17 4 17 5 1 17 -19 15 -11 36 14 36 15 0 15 -2 2 -11z m79 -27 c-2 -24
-2 -24 -6 -4 -5 27 -23 29 -23 2 0 -11 -4 -20 -10 -20 -18 0 -11 48 8 53 25 5
32 -1 31 -31z m70 3 c-1 -29 -1 -29 -9 -5 l-8 25 -2 -25 -2 -25 -8 25 -8 25
-2 -25 c-2 -19 -4 -20 -7 -7 -7 27 2 43 26 43 17 0 21 -6 20 -31z m2203 21
c11 -16 10 -46 -2 -46 -5 0 -10 12 -10 27 0 29 -15 22 -23 -12 -3 -14 -5 -10
-6 11 -1 23 3 31 17 31 9 0 20 -5 24 -11z m73 -33 c-8 -16 -9 -16 -12 5 -5 27
-23 29 -23 2 0 -11 -4 -20 -10 -20 -18 0 -11 48 8 53 25 5 47 -17 37 -40z
m133 15 c2 -16 -1 -28 -7 -28 -6 0 -11 12 -11 27 0 29 -15 22 -23 -12 -3 -13
-5 -10 -6 11 -1 26 3 31 22 30 16 -1 23 -8 25 -28z m61 10 c-2 -13 0 -29 5
-37 10 -15 -11 -32 -34 -28 -17 3 -22 55 -7 75 16 21 39 14 36 -10z m1149 -14
c3 -25 -11 -28 -14 -3 -3 22 -7 22 -14 -1 l-8 -25 -2 25 -2 25 -8 -25 -8 -25
-1 26 c-1 32 3 36 31 34 17 -1 24 -9 26 -31z m-4443 11 c6 0 13 4 17 10 4 5 8
-2 8 -17 0 -23 -4 -27 -22 -25 -25 2 -38 14 -38 35 0 8 5 10 13 5 6 -4 17 -8
22 -8z m2936 -25 c5 0 14 10 19 23 8 21 9 21 9 -5 1 -23 -3 -28 -24 -28 -21 0
-25 4 -24 28 2 23 2 24 6 5 2 -13 9 -23 14 -23z m-3594 14 c-3 -3 -12 -4 -19
-1 -8 3 -5 6 6 6 11 1 17 -2 13 -5z m1270 0 c-3 -3 -12 -4 -19 -1 -8 3 -5 6 6
6 11 1 17 -2 13 -5z m-1532 -14 c3 -5 1 -10 -4 -10 -6 0 -11 5 -11 10 0 6 2
10 4 10 3 0 8 -4 11 -10z"/>
<path d="M460 1605 c0 -9 5 -15 11 -13 6 2 11 8 11 13 0 5 -5 11 -11 13 -6 2
-11 -4 -11 -13z"/>
<path d="M1130 1590 c0 -5 5 -10 10 -10 6 0 10 5 10 10 0 6 -4 10 -10 10 -5 0
-10 -4 -10 -10z"/>
<path d="M3270 1604 c0 -8 5 -12 10 -9 6 4 8 11 5 16 -9 14 -15 11 -15 -7z"/>
<path d="M3464 1607 c-7 -20 1 -47 15 -47 17 0 22 33 7 49 -14 13 -16 13 -22
-2z"/>
<path d="M4075 1590 c3 -5 8 -10 11 -10 2 0 4 5 4 10 0 6 -5 10 -11 10 -5 0
-7 -4 -4 -10z"/>
<path d="M4610 1604 c0 -8 5 -12 10 -9 6 4 8 11 5 16 -9 14 -15 11 -15 -7z"/>
<path d="M4940 1606 c0 -9 5 -16 10 -16 6 0 10 4 10 9 0 6 -4 13 -10 16 -5 3
-10 -1 -10 -9z"/>
<path d="M5340 1590 c0 -5 5 -10 10 -10 6 0 10 5 10 10 0 6 -4 10 -10 10 -5 0
-10 -4 -10 -10z"/>
<path d="M260 1430 c0 -11 5 -20 10 -20 6 0 10 9 10 20 0 11 -4 20 -10 20 -5
0 -10 -9 -10 -20z"/>
<path d="M1327 1444 c-9 -9 4 -35 14 -28 5 3 9 12 9 20 0 14 -12 19 -23 8z"/>
<path d="M1865 1440 c-3 -5 -3 -15 1 -21 6 -11 23 6 24 24 0 10 -18 9 -25 -3z"/>
<path d="M1666 1431 c-4 -5 -2 -12 3 -15 5 -4 12 -2 15 3 4 5 2 12 -3 15 -5 4
-12 2 -15 -3z"/>
<path d="M2000 1425 c0 -8 5 -15 10 -15 6 0 10 7 10 15 0 8 -4 15 -10 15 -5 0
-10 -7 -10 -15z"/>
<path d="M2070 1459 c0 -5 5 -7 10 -4 6 3 10 8 10 11 0 2 -4 4 -10 4 -5 0 -10
-5 -10 -11z"/>
<path d="M2066 1431 c-4 -5 -2 -12 3 -15 5 -4 12 -2 15 3 4 5 2 12 -3 15 -5 4
-12 2 -15 -3z"/>
<path d="M2130 1455 c0 -9 5 -15 11 -13 6 2 11 8 11 13 0 5 -5 11 -11 13 -6 2
-11 -4 -11 -13z"/>
<path d="M2600 1455 c0 -8 5 -15 10 -15 6 0 10 7 10 15 0 8 -4 15 -10 15 -5 0
-10 -7 -10 -15z"/>
<path d="M3940 1454 c0 -8 5 -12 10 -9 6 4 8 11 5 16 -9 14 -15 11 -15 -7z"/>
<path d="M4605 1459 c-11 -17 1 -21 15 -4 8 9 8 15 2 15 -6 0 -14 -5 -17 -11z"/>
<path d="M4617 1433 c-4 -3 -7 -11 -7 -17 0 -6 5 -5 12 2 6 6 9 14 7 17 -3 3
-9 2 -12 -2z"/>
<path d="M5410 1425 c0 -8 5 -15 10 -15 6 0 10 7 10 15 0 8 -4 15 -10 15 -5 0
-10 -7 -10 -15z"/>
<path d="M1127 1444 c-3 -3 -3 -12 0 -20 4 -11 9 -12 19 -3 8 6 11 15 8 20 -6
10 -18 12 -27 3z"/>
<path d="M2530 1435 c0 -9 5 -15 11 -13 6 2 11 8 11 13 0 5 -5 11 -11 13 -6 2
-11 -4 -11 -13z"/>
<path d="M4340 1440 c0 -5 5 -10 10 -10 6 0 10 5 10 10 0 6 -4 10 -10 10 -5 0
-10 -4 -10 -10z"/>
<path d="M1332 1297 c-9 -11 -10 -17 -2 -22 15 -9 23 -1 18 21 -3 15 -4 16
-16 1z"/>
<path d="M1665 1320 c-3 -5 1 -10 10 -10 9 0 13 5 10 10 -3 6 -8 10 -10 10 -2
0 -7 -4 -10 -10z"/>
<path d="M1660 1280 c0 -5 7 -10 16 -10 8 0 12 5 9 10 -3 6 -10 10 -16 10 -5
0 -9 -4 -9 -10z"/>
<path d="M1864 1296 c-8 -22 3 -33 18 -18 9 9 9 15 0 24 -9 9 -13 7 -18 -6z"/>
<path d="M2000 1280 c0 -5 5 -10 10 -10 6 0 10 5 10 10 0 6 -4 10 -10 10 -5 0
-10 -4 -10 -10z"/>
<path d="M2070 1320 c0 -5 5 -10 11 -10 5 0 7 5 4 10 -3 6 -8 10 -11 10 -2 0
-4 -4 -4 -10z"/>
<path d="M2070 1280 c0 -5 5 -10 10 -10 6 0 10 5 10 10 0 6 -4 10 -10 10 -5 0
-10 -4 -10 -10z"/>
<path d="M3940 1316 c0 -9 5 -16 10 -16 6 0 10 4 10 9 0 6 -4 13 -10 16 -5 3
-10 -1 -10 -9z"/>
<path d="M4605 1310 c-3 -5 -2 -10 4 -10 5 0 13 5 16 10 3 6 2 10 -4 10 -5 0
-13 -4 -16 -10z"/>
<path d="M4610 1280 c0 -5 5 -10 10 -10 6 0 10 5 10 10 0 6 -4 10 -10 10 -5 0
-10 -4 -10 -10z"/>
<path d="M5410 1280 c0 -5 5 -10 10 -10 6 0 10 5 10 10 0 6 -4 10 -10 10 -5 0
-10 -4 -10 -10z"/>
<path d="M1127 1296 c-7 -19 11 -32 24 -19 6 6 5 14 -4 22 -12 9 -16 8 -20 -3z"/>
<path d="M4340 1294 c0 -8 5 -12 10 -9 6 4 8 11 5 16 -9 14 -15 11 -15 -7z"/>
<path d="M260 1140 c0 -11 5 -20 10 -20 6 0 10 9 10 20 0 11 -4 20 -10 20 -5
0 -10 -9 -10 -20z"/>
<path d="M1260 1140 c0 -11 5 -20 10 -20 6 0 10 9 10 20 0 11 -4 20 -10 20 -5
0 -10 -9 -10 -20z"/>
<path d="M3940 1164 c0 -8 5 -12 10 -9 6 4 8 11 5 16 -9 14 -15 11 -15 -7z"/>
<path d="M4604 1169 c-4 -7 -3 -14 4 -17 6 -2 8 -10 5 -19 -4 -11 -2 -14 5 -9
12 7 11 40 0 51 -3 4 -9 1 -14 -6z"/>
<path d="M4340 1150 c0 -5 5 -10 10 -10 6 0 10 5 10 10 0 6 -4 10 -10 10 -5 0
-10 -4 -10 -10z"/>
<path d="M260 995 c0 -8 5 -15 10 -15 6 0 10 7 10 15 0 8 -4 15 -10 15 -5 0
-10 -7 -10 -15z"/>
<path d="M1200 995 c0 -8 5 -15 10 -15 6 0 10 7 10 15 0 8 -4 15 -10 15 -5 0
-10 -7 -10 -15z"/>
<path d="M4605 1020 c-3 -5 -1 -10 4 -10 6 0 11 5 11 10 0 6 -2 10 -4 10 -3 0
-8 -4 -11 -10z"/>
<path d="M4615 990 c-3 -5 -1 -10 4 -10 6 0 11 5 11 10 0 6 -2 10 -4 10 -3 0
-8 -4 -11 -10z"/>
<path d="M1465 999 c-10 -15 3 -25 16 -12 7 7 7 13 1 17 -6 3 -14 1 -17 -5z"/>
<path d="M4340 999 c0 -5 5 -7 10 -4 6 3 10 8 10 11 0 2 -4 4 -10 4 -5 0 -10
-5 -10 -11z"/>
<path d="M1196 854 c-9 -22 -8 -24 9 -24 8 0 15 6 15 14 0 22 -17 28 -24 10z"/>
<path d="M3940 874 c0 -8 5 -12 10 -9 6 4 8 11 5 16 -9 14 -15 11 -15 -7z"/>
<path d="M4604 879 c-4 -7 -3 -14 4 -17 6 -2 8 -10 5 -18 -3 -8 0 -14 6 -14 7
0 10 11 8 25 -4 31 -13 40 -23 24z"/>
<path d="M1464 856 c-8 -22 3 -33 18 -18 9 9 9 15 0 24 -9 9 -13 7 -18 -6z"/>
<path d="M1730 850 c0 -13 5 -20 13 -17 6 2 12 10 12 17 0 7 -6 15 -12 18 -8
2 -13 -5 -13 -18z"/>
<path d="M2400 860 c0 -5 5 -10 10 -10 6 0 10 5 10 10 0 6 -4 10 -10 10 -5 0
-10 -4 -10 -10z"/>
<path d="M4340 854 c0 -8 5 -12 10 -9 6 3 10 10 10 16 0 5 -4 9 -10 9 -5 0
-10 -7 -10 -16z"/>
<path d="M260 700 c0 -11 5 -20 10 -20 6 0 10 9 10 20 0 11 -4 20 -10 20 -5 0
-10 -9 -10 -20z"/>
<path d="M1195 710 c-8 -13 4 -32 16 -25 12 8 12 35 0 35 -6 0 -13 -4 -16 -10z"/>
<path d="M2000 695 c0 -8 5 -15 10 -15 6 0 10 7 10 15 0 8 -4 15 -10 15 -5 0
-10 -7 -10 -15z"/>
<path d="M3940 724 c0 -8 5 -12 10 -9 6 4 8 11 5 16 -9 14 -15 11 -15 -7z"/>
<path d="M4605 729 c-9 -14 -2 -20 14 -10 8 6 9 11 3 15 -6 3 -14 1 -17 -5z"/>
<path d="M4617 703 c-4 -3 -7 -11 -7 -17 0 -6 5 -5 12 2 6 6 9 14 7 17 -3 3
-9 2 -12 -2z"/>
<path d="M1397 706 c-6 -16 2 -28 14 -20 12 7 11 34 0 34 -5 0 -11 -6 -14 -14z"/>
<path d="M1526 712 c-2 -4 -1 -14 4 -22 7 -11 12 -12 21 -3 6 6 8 16 5 22 -8
13 -23 14 -30 3z"/>
<path d="M4340 710 c0 -5 5 -10 10 -10 6 0 10 5 10 10 0 6 -4 10 -10 10 -5 0
-10 -4 -10 -10z"/>
<path d="M3940 580 c0 -5 5 -10 10 -10 6 0 10 5 10 10 0 6 -4 10 -10 10 -5 0
-10 -4 -10 -10z"/>
<path d="M4606 581 c-8 -12 3 -41 15 -41 5 0 9 5 9 10 0 6 -5 10 -11 10 -8 0
-8 5 1 15 8 9 9 15 2 15 -6 0 -13 -4 -16 -9z"/>
<path d="M1525 561 c-7 -12 12 -24 25 -16 11 7 4 25 -10 25 -5 0 -11 -4 -15
-9z"/>
<path d="M4340 559 c0 -5 5 -7 10 -4 6 3 10 8 10 11 0 2 -4 4 -10 4 -5 0 -10
-5 -10 -11z"/>
<path d="M265 417 c-4 -10 -5 -21 -1 -24 10 -10 18 4 13 24 -4 17 -4 17 -12 0z"/>
<path d="M1197 416 c-6 -15 1 -26 15 -26 4 0 8 9 8 20 0 23 -15 27 -23 6z"/>
<path d="M1664 416 c-8 -22 3 -33 18 -18 9 9 9 15 0 24 -9 9 -13 7 -18 -6z"/>
<path d="M3940 434 c0 -8 5 -12 10 -9 6 4 8 11 5 16 -9 14 -15 11 -15 -7z"/>
<path d="M4604 439 c-4 -7 -3 -14 4 -17 6 -2 8 -10 5 -18 -3 -8 0 -14 6 -14 7
0 10 11 8 25 -4 31 -13 40 -23 24z"/>
<path d="M4340 420 c0 -5 5 -10 10 -10 6 0 10 5 10 10 0 6 -4 10 -10 10 -5 0
-10 -4 -10 -10z"/>
<path d="M260 260 c0 -11 5 -20 10 -20 6 0 10 9 10 20 0 11 -4 20 -10 20 -5 0
-10 -9 -10 -20z"/>
<path d="M1797 294 c-8 -8 1 -24 14 -24 5 0 9 7 9 15 0 15 -12 20 -23 9z"/>
<path d="M3940 284 c0 -8 5 -12 10 -9 6 4 8 11 5 16 -9 14 -15 11 -15 -7z"/>
<path d="M4340 270 c0 -5 5 -10 10 -10 6 0 10 5 10 10 0 6 -4 10 -10 10 -5 0
-10 -4 -10 -10z"/>
<path d="M1935 127 c-4 -10 -5 -21 -1 -24 10 -10 18 4 13 24 -4 17 -4 17 -12
0z"/>
<path d="M3940 144 c0 -8 5 -12 10 -9 6 4 8 11 5 16 -9 14 -15 11 -15 -7z"/>
<path d="M4340 124 c0 -8 5 -12 10 -9 6 4 8 11 5 16 -9 14 -15 11 -15 -7z"/>
<path d="M4340 80 c0 -5 5 -10 10 -10 6 0 10 5 10 10 0 6 -4 10 -10 10 -5 0
-10 -4 -10 -10z"/>
</g>
</svg>
