<?xml version="1.0" standalone="no"?>
<!DOCTYPE svg PUBLIC "-//W3C//DTD SVG 20010904//EN"
 "http://www.w3.org/TR/2001/REC-SVG-20010904/DTD/svg10.dtd">
<svg version="1.0" xmlns="http://www.w3.org/2000/svg"
 width="602.000000pt" height="193.000000pt" viewBox="0 0 602.000000 193.000000"
 preserveAspectRatio="xMidYMid meet">

<g transform="translate(0.000000,193.000000) scale(0.100000,-0.100000)"
fill="#000000" stroke="none">
<path d="M5841 1784 c0 -11 3 -14 6 -6 3 7 2 16 -1 19 -3 4 -6 -2 -5 -13z"/>
<path d="M2645 1780 c-3 -6 1 -7 9 -4 18 7 21 14 7 14 -6 0 -13 -4 -16 -10z"/>
<path d="M3198 1783 c7 -3 16 -2 19 1 4 3 -2 6 -13 5 -11 0 -14 -3 -6 -6z"/>
<path d="M2616 1698 c-20 -28 -20 -38 0 -38 9 0 18 9 21 21 5 18 11 20 46 15
35 -6 39 -5 27 9 -19 23 -76 19 -94 -7z"/>
<path d="M3745 1658 c3 -47 8 -64 19 -66 13 -3 16 8 16 62 0 58 -2 66 -19 66
-17 0 -19 -7 -16 -62z"/>
<path d="M3812 1658 c2 -50 6 -63 21 -66 15 -3 17 5 17 62 0 60 -2 66 -20 66
-19 0 -21 -5 -18 -62z"/>
<path d="M4310 1645 l0 -64 50 31 c28 17 50 34 50 37 0 7 -83 61 -94 61 -3 0
-6 -29 -6 -65z"/>
<path d="M3149 1684 c-11 -14 -10 -18 6 -27 10 -5 32 -11 49 -12 17 -1 40 -5
51 -10 20 -8 20 -8 0 14 -15 18 -74 51 -90 51 -1 0 -9 -7 -16 -16z"/>
<path d="M1487 1653 c-6 -31 7 -53 22 -37 11 10 3 64 -9 64 -4 0 -10 -12 -13
-27z"/>
<path d="M2049 1664 c-11 -13 -11 -18 -1 -21 6 -3 12 -16 12 -29 0 -35 17 -29
23 9 6 42 -13 66 -34 41z"/>
<path d="M5841 1664 c0 -11 3 -14 6 -6 3 7 2 16 -1 19 -3 4 -6 -2 -5 -13z"/>
<path d="M2697 1639 c-5 -19 -11 -21 -49 -15 -40 5 -41 5 -24 -9 29 -22 69
-18 94 8 22 23 20 37 -4 37 -6 0 -14 -10 -17 -21z"/>
<path d="M5841 1544 c0 -11 3 -14 6 -6 3 7 2 16 -1 19 -3 4 -6 -2 -5 -13z"/>
<path d="M5701 1414 c0 -11 3 -14 6 -6 3 7 2 16 -1 19 -3 4 -6 -2 -5 -13z"/>
<path d="M5841 1414 c0 -11 3 -14 6 -6 3 7 2 16 -1 19 -3 4 -6 -2 -5 -13z"/>
<path d="M251 1384 c0 -11 3 -14 6 -6 3 7 2 16 -1 19 -3 4 -6 -2 -5 -13z"/>
<path d="M390 1185 l0 -215 218 2 217 3 0 210 0 210 -217 3 -218 2 0 -215z
m17 -103 c-1 -53 -3 -7 -3 103 0 110 2 154 3 97 2 -57 2 -147 0 -200z m266
231 c-35 -2 -91 -2 -125 0 -35 2 -7 3 62 3 69 0 97 -1 63 -3z m64 -180 c-2
-32 -3 -6 -3 57 0 63 1 89 3 58 2 -32 2 -84 0 -115z m-185 -17 c7 4 8 3 4 -4
-18 -30 -26 -6 -24 76 l2 87 3 -83 c3 -57 7 -81 15 -76z m135 128 c2 -16 1
-16 -3 -1 -3 9 -9 15 -13 13 -4 -3 -13 0 -21 5 -11 7 -8 8 10 6 16 -3 26 -11
27 -23z m-87 12 c0 -11 -19 -15 -25 -6 -3 5 1 10 9 10 9 0 16 -2 16 -4z m76
-70 c-3 -14 -13 -26 -21 -26 -9 0 -15 -10 -16 -27 0 -16 -3 -23 -5 -16 -4 8
-13 9 -29 3 -22 -8 -25 -6 -31 25 -7 42 0 55 31 55 15 0 29 9 36 21 10 19 13
20 26 6 10 -10 13 -24 9 -41z m11 -63 c-3 -10 -5 -4 -5 12 0 17 2 24 5 18 2
-7 2 -21 0 -30z m-17 -58 c10 -12 4 -44 -9 -46 -46 -6 -69 -3 -83 9 -12 10
-18 11 -18 4 0 -7 -7 -12 -15 -12 -14 0 -22 40 -10 52 11 11 125 5 135 -7z
m-153 -1 c-3 -3 -12 -4 -19 -1 -8 3 -5 6 6 6 11 1 17 -2 13 -5z m206 -1 c-7
-2 -19 -2 -25 0 -7 3 -2 5 12 5 14 0 19 -2 13 -5z m-225 -70 c-10 -2 -26 -2
-35 0 -10 3 -2 5 17 5 19 0 27 -2 18 -5z m155 0 c-13 -2 -35 -2 -50 0 -16 2
-5 4 22 4 28 0 40 -2 28 -4z"/>
<path d="M960 1190 l0 -210 220 0 220 0 0 210 0 210 -220 0 -220 0 0 -210z
m103 183 l-73 -4 0 -179 0 -179 93 -4 92 -3 -97 -2 -98 -2 0 190 0 190 78 -2
77 -2 -72 -3z m240 0 c-23 -2 -64 -2 -90 0 -26 2 -7 3 42 3 50 0 71 -1 48 -3z
m76 -20 c-1 -22 -2 -23 -6 -8 -3 11 -10 23 -17 27 -7 5 -5 8 7 8 12 0 17 -7
16 -27z m-131 -40 c-32 -2 -86 -2 -120 0 -35 2 -9 3 57 3 66 0 94 -1 63 -3z
m-191 -180 c-2 -32 -3 -6 -3 57 0 63 1 89 3 58 2 -32 2 -84 0 -115z m260 0
c-2 -32 -3 -6 -3 57 0 63 1 89 3 58 2 -32 2 -84 0 -115z m-137 117 c0 -5 -4
-10 -9 -10 -6 0 -13 5 -16 10 -3 6 1 10 9 10 9 0 16 -4 16 -10z m87 -12 c-3
-8 -6 -5 -6 6 -1 11 2 17 5 13 3 -3 4 -12 1 -19z m-1 -53 c-3 -9 -15 -19 -26
-22 -17 -5 -25 -20 -22 -44 1 -9 -49 -2 -60 9 -5 5 -8 22 -6 38 2 24 8 29 34
32 23 2 34 9 38 25 l5 22 22 -22 c14 -13 19 -28 15 -38z m-149 -2 c-3 -10 -5
-4 -5 12 0 17 2 24 5 18 2 -7 2 -21 0 -30z m150 -60 c-3 -10 -5 -4 -5 12 0 17
2 24 5 18 2 -7 2 -21 0 -30z m-22 -73 c0 -22 -5 -25 -38 -28 -21 -2 -45 2 -53
9 -10 8 -14 8 -14 0 0 -6 -7 -11 -15 -11 -10 0 -15 10 -15 29 l0 30 68 -2 c64
-2 67 -3 67 -27z m-148 14 c-3 -3 -12 -4 -19 -1 -8 3 -5 6 6 6 11 1 17 -2 13
-5z m206 -1 c-7 -2 -21 -2 -30 0 -10 3 -4 5 12 5 17 0 24 -2 18 -5z m77 -53
c0 -5 -5 -10 -11 -10 -5 0 -7 5 -4 10 3 6 8 10 11 10 2 0 4 -4 4 -10z m-173
-6 c-3 -3 -12 -4 -19 -1 -8 3 -5 6 6 6 11 1 17 -2 13 -5z m116 -1 c-18 -2 -48
-2 -65 0 -18 2 -4 4 32 4 36 0 50 -2 33 -4z"/>
<path d="M2717 1393 c-4 -3 -7 -100 -7 -215 l0 -208 220 0 220 0 0 215 0 215
-213 0 c-118 0 -217 -3 -220 -7z m25 -271 c2 -72 0 -132 -4 -132 -5 0 -7 89
-6 198 2 199 6 176 10 -66z m280 251 c-51 -2 -132 -2 -180 0 -48 1 -6 3 93 3
99 0 138 -2 87 -3z m105 -270 c-1 -54 -3 -12 -3 92 0 105 2 149 3 98 2 -51 2
-136 0 -190z m-134 210 c-35 -2 -91 -2 -125 0 -35 2 -7 3 62 3 69 0 97 -1 63
-3z m-186 -170 c-2 -32 -3 -8 -3 52 0 61 1 87 3 58 2 -29 2 -78 0 -110z m260
-10 c-2 -32 -3 -6 -3 57 0 63 1 89 3 58 2 -32 2 -84 0 -115z m-137 123 c0 -11
-19 -15 -25 -6 -3 5 1 10 9 10 9 0 16 -2 16 -4z m80 -63 c0 -16 -7 -27 -20
-30 -11 -3 -20 -11 -20 -19 0 -20 -31 -34 -52 -23 -12 6 -18 21 -18 44 0 32 2
35 30 35 19 0 33 7 40 21 9 16 14 18 26 8 8 -6 14 -23 14 -36z m-143 -5 c-3
-7 -5 -2 -5 12 0 14 2 19 5 13 2 -7 2 -19 0 -25z m133 -143 l7 -31 -49 1 c-31
1 -53 6 -59 16 -6 9 -9 10 -9 2 0 -7 -7 -13 -15 -13 -10 0 -15 10 -15 29 l0
30 67 -2 c66 -2 67 -2 73 -32z m-153 19 c-3 -3 -12 -4 -19 -1 -8 3 -5 6 6 6
11 1 17 -2 13 -5z m196 -1 c-7 -2 -19 -2 -25 0 -7 3 -2 5 12 5 14 0 19 -2 13
-5z m-85 -70 c-21 -2 -57 -2 -80 0 -24 2 -7 4 37 4 44 0 63 -2 43 -4z m105 0
c-7 -2 -21 -2 -30 0 -10 3 -4 5 12 5 17 0 24 -2 18 -5z"/>
<path d="M3297 1394 c-4 -4 -7 -101 -7 -216 l0 -208 223 2 222 3 0 210 0 210
-216 3 c-118 1 -218 -1 -222 -4z m423 -209 c0 -107 -3 -195 -7 -195 -5 0 -8
88 -8 195 0 107 3 195 8 195 4 0 7 -88 7 -195z m-142 128 c-32 -2 -86 -2 -120
0 -35 2 -9 3 57 3 66 0 94 -1 63 -3z m-191 -155 c-2 -29 -3 -8 -3 47 0 55 1
79 3 53 2 -26 2 -71 0 -100z m260 -25 c-2 -32 -3 -6 -3 57 0 63 1 89 3 58 2
-32 2 -84 0 -115z m-204 122 c-3 -9 -8 -14 -10 -11 -3 3 -2 9 2 15 9 16 15 13
8 -4z m67 1 c0 -11 -19 -15 -25 -6 -3 5 1 10 9 10 9 0 16 -2 16 -4z m68 -28
c21 -21 13 -42 -28 -81 -22 -20 -40 -33 -40 -27 0 5 -7 10 -15 10 -10 0 -15
11 -15 35 0 32 2 35 31 35 22 0 32 5 36 20 6 23 14 25 31 8z m0 -161 c16 -10
15 -22 -1 -39 -12 -11 -59 -15 -124 -9 -13 1 -18 42 -7 53 8 9 117 4 132 -5z
m-155 -4 c-7 -2 -19 -2 -25 0 -7 3 -2 5 12 5 14 0 19 -2 13 -5z m204 1 c-3 -3
-12 -4 -19 -1 -8 3 -5 6 6 6 11 1 17 -2 13 -5z m-74 -71 c-7 -2 -21 -2 -30 0
-10 3 -4 5 12 5 17 0 24 -2 18 -5z m100 0 c-7 -2 -19 -2 -25 0 -7 3 -2 5 12 5
14 0 19 -2 13 -5z"/>
<path d="M3857 1393 c-4 -3 -7 -100 -7 -215 l0 -208 220 0 220 0 0 215 0 215
-213 0 c-118 0 -217 -3 -220 -7z m37 -21 c-7 -4 -14 -16 -17 -27 -4 -15 -5
-14 -6 8 -1 20 4 27 17 27 11 0 13 -3 6 -8z m378 -109 c-4 -218 -8 -239 -10
-60 -1 97 1 177 6 177 4 0 6 -53 4 -117z m-72 51 c0 -2 -55 -3 -122 -2 l-123
2 105 5 c98 6 140 4 140 -5z m-243 -181 c-2 -32 -3 -6 -3 57 0 63 1 89 3 58 2
-32 2 -84 0 -115z m260 10 c-2 -32 -3 -8 -3 52 0 61 1 87 3 58 2 -29 2 -78 0
-110z m-340 -40 c-2 -32 -3 -6 -3 57 0 63 1 89 3 58 2 -32 2 -84 0 -115z m136
152 c-3 -9 -8 -14 -10 -11 -3 3 -2 9 2 15 9 16 15 13 8 -4z m127 5 c0 -5 -2
-10 -4 -10 -3 0 -8 5 -11 10 -3 6 -1 10 4 10 6 0 11 -4 11 -10z m-70 -10 c0
-5 -4 -10 -10 -10 -5 0 -10 5 -10 10 0 6 5 10 10 10 6 0 10 -4 10 -10z m74
-16 c28 -11 18 -48 -24 -87 -22 -20 -40 -33 -40 -27 0 5 -6 10 -14 10 -18 0
-29 31 -20 54 4 10 18 16 36 16 21 0 31 6 35 20 6 22 6 22 27 14z m-116 -117
c12 -3 10 -5 -5 -6 -18 -1 -23 4 -22 22 1 15 3 17 6 5 2 -9 12 -19 21 -21z
m-38 -47 c0 -5 -8 -10 -17 -10 -15 0 -16 2 -3 10 19 12 20 12 20 0z m153 -10
c3 -11 -1 -27 -9 -34 -17 -17 -84 -13 -95 6 -7 10 -9 8 -9 -5 0 -31 -25 -12
-28 21 l-3 32 69 0 c61 0 70 -2 75 -20z m50 3 c-7 -2 -21 -2 -30 0 -10 3 -4 5
12 5 17 0 24 -2 18 -5z m82 -63 c3 -5 1 -10 -4 -10 -6 0 -11 5 -11 10 0 6 2
10 4 10 3 0 8 -4 11 -10z m-262 -7 c-13 -2 -33 -2 -45 0 -13 2 -3 4 22 4 25 0
35 -2 23 -4z m115 0 c-15 -2 -42 -2 -60 0 -18 2 -6 4 27 4 33 0 48 -2 33 -4z"/>
<path d="M4440 1395 c0 -3 -1 -98 -1 -212 l0 -208 218 0 218 0 0 210 0 210
-217 3 c-120 1 -218 0 -218 -3z m420 -210 l0 -195 -66 0 c-57 0 -65 2 -62 18
3 14 14 17 58 17 l55 0 3 169 c2 129 -1 171 -10 178 -10 6 -8 8 5 8 16 0 17
-16 17 -195z m-137 128 c-35 -2 -91 -2 -125 0 -35 2 -7 3 62 3 69 0 97 -1 63
-3z m-186 -155 c-2 -29 -3 -8 -3 47 0 55 1 79 3 53 2 -26 2 -71 0 -100z m260
-25 c-2 -32 -3 -6 -3 57 0 63 1 89 3 58 2 -32 2 -84 0 -115z m-210 105 c-3 -8
-6 -5 -6 6 -1 11 2 17 5 13 3 -3 4 -12 1 -19z m63 12 c0 -5 -2 -10 -4 -10 -3
0 -8 5 -11 10 -3 6 -1 10 4 10 6 0 11 -4 11 -10z m74 -16 c17 -6 23 -64 7 -64
-4 0 -20 -11 -34 -24 -37 -34 -67 -25 -67 20 0 31 2 34 31 34 22 0 32 5 36 20
6 22 6 22 27 14z m-137 -96 c-2 -18 -4 -6 -4 27 0 33 2 48 4 33 2 -15 2 -42 0
-60z m191 -73 c3 -3 -7 -5 -21 -5 -17 0 -27 -5 -27 -14 0 -8 -5 -18 -11 -21
-21 -14 -74 -12 -91 3 -12 10 -18 11 -18 4 0 -7 -7 -12 -15 -12 -15 0 -22 40
-9 53 7 7 184 0 192 -8z m-211 -1 c-3 -3 -12 -4 -19 -1 -8 3 -5 6 6 6 11 1 17
-2 13 -5z"/>
<path d="M1550 1180 l0 -210 220 0 220 0 0 210 0 210 -220 0 -220 0 0 -210z
m27 153 c-3 -10 -5 -4 -5 12 0 17 2 24 5 18 2 -7 2 -21 0 -30z m251 -20 c-32
-2 -86 -2 -120 0 -35 2 -9 3 57 3 66 0 94 -1 63 -3z m-251 -215 c-1 -40 -3 -8
-3 72 0 80 2 112 3 73 2 -40 2 -106 0 -145z m320 30 c-2 -35 -3 -9 -3 57 0 66
1 94 3 63 2 -32 2 -86 0 -120z m-260 5 c-2 -32 -3 -8 -3 52 0 61 1 87 3 58 2
-29 2 -78 0 -110z m123 123 c0 -11 -19 -15 -25 -6 -3 5 1 10 9 10 9 0 16 -2
16 -4z m90 -13 c0 -11 -3 -14 -8 -7 -4 6 -14 14 -22 17 -10 4 -8 6 8 6 15 1
22 -5 22 -16z m-6 -35 c8 -13 6 -22 -8 -37 -10 -11 -23 -18 -27 -15 -5 3 -9
-1 -9 -8 0 -8 -8 -20 -18 -29 -16 -13 -19 -13 -36 2 -24 23 -18 73 9 75 11 1
26 2 33 3 6 1 12 8 12 17 0 20 29 15 44 -8z m6 -78 c0 -27 -3 -30 -32 -29 -31
2 -31 2 -5 6 21 3 27 10 27 29 0 13 2 24 5 24 3 0 5 -13 5 -30z m-112 -27
c-10 -2 -26 -2 -35 0 -10 3 -2 5 17 5 19 0 27 -2 18 -5z m-55 -40 c-7 -2 -19
-2 -25 0 -7 3 -2 5 12 5 14 0 19 -2 13 -5z m171 -1 c-7 -4 -13 -16 -15 -27 -3
-15 -13 -21 -42 -23 -21 -2 -45 2 -53 9 -10 8 -14 8 -14 0 0 -6 -7 -11 -15
-11 -10 0 -15 10 -15 30 l0 30 83 0 c45 0 77 -4 71 -8z m-127 -68 c-3 -3 -12
-4 -19 -1 -8 3 -5 6 6 6 11 1 17 -2 13 -5z"/>
<path d="M2140 1180 l0 -210 220 0 220 0 0 210 0 210 -220 0 -220 0 0 -210z
m278 133 c-32 -2 -86 -2 -120 0 -35 2 -9 3 57 3 66 0 94 -1 63 -3z m69 -180
c-2 -32 -3 -6 -3 57 0 63 1 89 3 58 2 -32 2 -84 0 -115z m-137 123 c0 -11 -19
-15 -25 -6 -3 5 1 10 9 10 9 0 16 -2 16 -4z m83 -47 c5 -19 -16 -49 -34 -49
-5 0 -9 -6 -9 -14 0 -18 -32 -26 -54 -14 -9 5 -16 22 -16 38 0 27 3 30 30 30
19 0 33 7 40 20 12 23 36 17 43 -11z m-146 -21 c-3 -7 -5 -2 -5 12 0 14 2 19
5 13 2 -7 2 -19 0 -25z m-60 -90 c-2 -13 -4 -5 -4 17 -1 22 1 32 4 23 2 -10 2
-28 0 -40z m40 -34 c-3 -3 -12 -4 -19 -1 -8 3 -5 6 6 6 11 1 17 -2 13 -5z
m157 -9 c11 -30 -5 -45 -48 -45 -23 0 -47 5 -54 12 -9 9 -12 9 -12 0 0 -7 -7
-12 -15 -12 -10 0 -15 10 -15 30 l0 30 69 0 c52 0 70 -4 75 -15z m49 8 c-7 -2
-21 -2 -30 0 -10 3 -4 5 12 5 17 0 24 -2 18 -5z m-200 -70 c-7 -2 -19 -2 -25
0 -7 3 -2 5 12 5 14 0 19 -2 13 -5z m180 0 c-7 -2 -21 -2 -30 0 -10 3 -4 5 12
5 17 0 24 -2 18 -5z m104 1 c-3 -3 -12 -4 -19 -1 -8 3 -5 6 6 6 11 1 17 -2 13
-5z"/>
<path d="M2345 1040 c3 -5 8 -10 11 -10 2 0 4 5 4 10 0 6 -5 10 -11 10 -5 0
-7 -4 -4 -10z"/>
<path d="M5020 1180 l0 -210 220 0 220 0 0 210 0 210 -220 0 -220 0 0 -210z
m420 5 l0 -195 -59 0 -58 0 4 35 c4 38 -14 50 -19 13 -3 -20 -10 -23 -48 -25
-25 -1 -48 3 -53 10 -7 9 -10 9 -14 0 -10 -25 -24 -12 -21 19 l3 32 93 2 c88
2 92 1 87 -17 -7 -20 -3 -22 48 -33 l27 -6 0 180 c0 99 2 180 5 180 3 0 5 -88
5 -195z m-132 128 c-32 -2 -86 -2 -120 0 -35 2 -9 3 57 3 66 0 94 -1 63 -3z
m-197 -210 c-7 -13 -8 -8 -6 18 2 18 5 68 6 109 l3 75 3 -93 c2 -51 0 -100 -6
-109z m61 93 c-3 -65 -1 -75 15 -79 14 -4 14 -5 -4 -6 -22 -1 -23 3 -23 72 0
60 4 87 14 87 1 0 0 -33 -2 -74z m147 57 c0 -11 -3 -13 -6 -5 -2 6 -9 10 -13
7 -5 -3 -11 -1 -15 5 -3 5 3 10 14 10 14 0 21 -6 20 -17z m-89 -3 c0 -5 -4
-10 -10 -10 -5 0 -10 5 -10 10 0 6 5 10 10 10 6 0 10 -4 10 -10z m149 -80 c-1
-49 -6 -87 -10 -84 -13 8 -11 174 2 174 6 0 9 -33 8 -90z m-75 64 c10 -4 16
-18 16 -35 0 -22 -6 -30 -25 -35 -19 -5 -25 -13 -25 -33 0 -14 -4 -21 -8 -16
-4 6 -13 10 -19 11 -27 2 -31 5 -36 25 -9 33 3 49 35 49 21 0 31 6 35 20 6 22
6 22 27 14z m-149 -164 c3 -6 -4 -10 -17 -10 -18 0 -20 2 -8 10 19 12 18 12
25 0z m0 -74 c11 -2 -10 -4 -47 -5 -38 0 -68 2 -68 7 0 7 67 6 115 -2z"/>
<path d="M5841 1294 c0 -11 3 -14 6 -6 3 7 2 16 -1 19 -3 4 -6 -2 -5 -13z"/>
<path d="M5701 1284 c0 -11 3 -14 6 -6 3 7 2 16 -1 19 -3 4 -6 -2 -5 -13z"/>
<path d="M251 1264 c0 -11 3 -14 6 -6 3 7 2 16 -1 19 -3 4 -6 -2 -5 -13z"/>
<path d="M5841 1174 c0 -11 3 -14 6 -6 3 7 2 16 -1 19 -3 4 -6 -2 -5 -13z"/>
<path d="M5701 1164 c0 -11 3 -14 6 -6 3 7 2 16 -1 19 -3 4 -6 -2 -5 -13z"/>
<path d="M101 1144 c0 -11 3 -14 6 -6 3 7 2 16 -1 19 -3 4 -6 -2 -5 -13z"/>
<path d="M251 1144 c0 -11 3 -14 6 -6 3 7 2 16 -1 19 -3 4 -6 -2 -5 -13z"/>
<path d="M5841 1054 c0 -11 3 -14 6 -6 3 7 2 16 -1 19 -3 4 -6 -2 -5 -13z"/>
<path d="M5701 1044 c0 -11 3 -14 6 -6 3 7 2 16 -1 19 -3 4 -6 -2 -5 -13z"/>
<path d="M251 1014 c0 -11 3 -14 6 -6 3 7 2 16 -1 19 -3 4 -6 -2 -5 -13z"/>
<path d="M5701 924 c0 -11 3 -14 6 -6 3 7 2 16 -1 19 -3 4 -6 -2 -5 -13z"/>
<path d="M251 894 c0 -11 3 -14 6 -6 3 7 2 16 -1 19 -3 4 -6 -2 -5 -13z"/>
<path d="M5841 804 c0 -11 3 -14 6 -6 3 7 2 16 -1 19 -3 4 -6 -2 -5 -13z"/>
<path d="M251 774 c0 -11 3 -14 6 -6 3 7 2 16 -1 19 -3 4 -6 -2 -5 -13z"/>
<path d="M4578 693 c7 -3 16 -2 19 1 4 3 -2 6 -13 5 -11 0 -14 -3 -6 -6z"/>
<path d="M4698 693 c7 -3 16 -2 19 1 4 3 -2 6 -13 5 -11 0 -14 -3 -6 -6z"/>
<path d="M5068 693 c7 -3 16 -2 19 1 4 3 -2 6 -13 5 -11 0 -14 -3 -6 -6z"/>
<path d="M5841 684 c0 -11 3 -14 6 -6 3 7 2 16 -1 19 -3 4 -6 -2 -5 -13z"/>
<path d="M101 654 c0 -11 3 -14 6 -6 3 7 2 16 -1 19 -3 4 -6 -2 -5 -13z"/>
<path d="M5841 564 c0 -11 3 -14 6 -6 3 7 2 16 -1 19 -3 4 -6 -2 -5 -13z"/>
<path d="M5841 314 c0 -11 3 -14 6 -6 3 7 2 16 -1 19 -3 4 -6 -2 -5 -13z"/>
</g>
</svg>
