<?xml version="1.0" standalone="no"?>
<!DOCTYPE svg PUBLIC "-//W3C//DTD SVG 20010904//EN"
 "http://www.w3.org/TR/2001/REC-SVG-20010904/DTD/svg10.dtd">
<svg version="1.0" xmlns="http://www.w3.org/2000/svg"
 width="602.000000pt" height="300.000000pt" viewBox="0 0 602.000000 300.000000"
 preserveAspectRatio="xMidYMid meet">

<g transform="translate(0.000000,300.000000) scale(0.100000,-0.100000)"
fill="#000000" stroke="none">
<path d="M77 2793 c-4 -71 -7 -377 -7 -680 l0 -553 2145 0 2145 0 -2 678 -3
677 -2136 3 -2136 2 -6 -127z m69 77 c24 -17 44 -32 44 -34 0 -2 -22 -17 -50
-34 l-50 -31 0 64 c0 36 3 65 6 65 3 0 25 -14 50 -30z m2506 -35 c2 -21 0 -35
-7 -35 -7 0 -9 14 -7 35 2 19 5 35 7 35 2 0 5 -16 7 -35z m678 20 c-10 -12
-10 -15 1 -16 10 0 11 -2 2 -6 -7 -2 -13 -12 -14 -21 0 -13 -2 -13 -8 3 -9 22
3 55 21 55 7 0 6 -5 -2 -15z m616 -26 c1 -16 -3 -29 -10 -29 -8 0 -11 13 -8
36 5 40 16 37 18 -7z m-1436 1 c0 -20 -5 -30 -15 -30 -24 0 -30 29 -9 45 25
19 24 19 24 -15z m449 -9 c-6 -18 -13 -30 -15 -28 -2 2 1 18 7 36 6 18 13 30
15 28 2 -2 -1 -18 -7 -36z m419 9 c1 -16 -2 -30 -6 -30 -5 0 -9 14 -10 30 0
17 3 30 7 30 4 0 8 -13 9 -30z m206 1 c-2 -2 1 -10 7 -17 8 -10 6 -13 -10 -11
-16 1 -21 8 -21 30 0 23 2 26 14 15 8 -7 12 -15 10 -17z m-1224 -2 c0 -5 -8
-9 -17 -9 -15 0 -16 -2 -3 -10 13 -8 13 -10 -1 -10 -21 0 -31 24 -17 38 11 11
38 5 38 -9z m35 -4 c0 -14 -3 -25 -7 -25 -5 0 -8 4 -8 9 0 5 -3 16 -6 25 -4
10 -1 16 7 16 8 0 14 -11 14 -25z m44 9 c-10 -13 -10 -17 2 -25 10 -6 11 -9 1
-9 -19 0 -27 31 -11 41 21 13 23 11 8 -7z m107 -1 c-4 -9 -1 -20 6 -25 10 -6
9 -8 -3 -8 -21 0 -31 24 -16 39 16 16 20 14 13 -6z m56 5 c-9 -9 -9 -15 1 -26
10 -12 9 -14 -3 -10 -23 7 -26 48 -4 48 14 0 15 -3 6 -12z m168 -3 c0 -9 -6
-12 -17 -8 -16 5 -15 4 1 -9 20 -16 15 -38 -10 -38 -14 0 -20 50 -7 63 12 12
33 7 33 -8z m41 -12 c-11 -5 -11 -7 0 -14 11 -7 10 -9 -4 -9 -10 0 -20 7 -24
16 -7 20 18 38 32 22 7 -7 6 -12 -4 -15z m45 10 c-4 -9 -1 -20 6 -25 10 -8 10
-9 -1 -6 -8 2 -18 14 -22 26 -6 17 -5 22 7 22 11 0 14 -5 10 -17z m323 3 c9
-11 8 -18 -4 -30 -9 -9 -21 -16 -26 -16 -14 0 -11 48 4 53 6 3 13 6 13 6 1 1
7 -5 13 -13z m75 3 c8 12 36 3 36 -11 0 -6 -7 -8 -15 -4 -8 3 -15 1 -15 -3 0
-5 6 -12 13 -14 7 -4 6 -6 -4 -6 -9 -1 -19 6 -23 14 -8 21 -34 19 -39 -2 -4
-14 -5 -13 -6 4 -1 24 18 35 36 21 7 -5 14 -5 17 1z m396 -10 c0 -5 -8 -9 -17
-9 -15 0 -16 -2 -3 -10 13 -8 12 -10 -2 -10 -17 0 -25 29 -12 43 8 8 34 -3 34
-14z m85 12 c-3 -5 -1 -12 5 -16 15 -9 12 -25 -6 -25 -8 0 -13 4 -9 9 3 5 0
13 -6 17 -8 4 -7 9 2 15 18 11 22 11 14 0z m121 -30 c-9 -14 -33 -14 -41 -1
-4 6 -1 18 6 26 11 13 14 13 27 0 8 -8 11 -19 8 -25z m54 13 c0 -17 -20 -19
-21 -1 0 6 -4 3 -9 -8 -8 -20 -9 -20 -9 1 -1 11 2 23 5 27 10 9 34 -4 34 -19z
m-474 -2 c0 -10 -7 -18 -16 -18 -9 0 -16 8 -16 18 0 10 7 18 16 18 9 0 16 -8
16 -18z m264 7 c0 -4 -8 -16 -17 -28 l-18 -22 -1 28 c-1 22 4 29 18 29 10 0
18 -3 18 -7z m310 0 c0 -4 -8 -16 -17 -28 l-18 -22 -1 28 c-1 22 4 29 18 29
10 0 18 -3 18 -7z m-473 -5 c-3 -3 -12 -4 -19 -1 -8 3 -5 6 6 6 11 1 17 -2 13
-5z m-2911 -175 c-9 -19 -15 -29 -16 -22 0 15 22 64 27 60 2 -2 -3 -19 -11
-38z m1163 2 c-6 -18 -13 -30 -15 -28 -2 2 1 18 7 36 6 18 13 30 15 28 2 -2
-1 -18 -7 -36z m609 9 c-5 -17 -15 -33 -21 -37 -5 -3 -7 -2 -4 4 4 6 11 22 16
37 14 36 22 33 9 -4z m-2228 -15 c-6 -15 -13 -25 -16 -23 -2 3 1 17 7 32 16
34 23 27 9 -9z m306 0 c1 -14 1 -25 -2 -25 -8 0 -22 45 -17 53 8 13 16 0 19
-28z m608 2 c2 -30 -8 -24 -19 12 -5 17 -4 22 6 19 7 -2 13 -16 13 -31z m151
-2 c0 -14 -1 -25 -2 -25 -7 0 -20 45 -16 53 8 13 16 -1 18 -28z m252 18 c5 3
9 -3 9 -13 0 -12 -7 -18 -18 -17 -12 1 -18 9 -18 27 0 18 3 21 9 11 5 -7 13
-11 18 -8z m61 -10 c-2 -17 -9 -28 -18 -28 -9 0 -15 11 -17 28 -1 21 3 27 18
27 16 0 20 -6 17 -27z m954 -3 c3 -19 0 -30 -7 -30 -6 0 -12 14 -12 30 0 17 4
30 8 30 3 0 9 -13 11 -30z m-2262 9 c0 -5 -4 -8 -9 -4 -6 3 -14 -3 -20 -12 -9
-16 -10 -16 -11 5 0 15 6 22 20 22 11 0 20 -5 20 -11z m45 1 c3 -6 -1 -7 -9
-4 -19 7 -21 -7 -4 -24 9 -9 9 -12 1 -12 -16 0 -26 18 -19 35 6 17 22 20 31 5z
m55 2 c0 -4 -5 -13 -12 -20 -9 -9 -9 -12 0 -12 7 0 12 -4 12 -9 0 -6 -9 -9
-20 -8 -20 1 -29 35 -13 50 9 10 33 9 33 -1z m40 -23 c0 -10 -4 -19 -9 -19 -5
0 -8 11 -8 25 0 13 3 22 8 19 5 -3 9 -14 9 -25z m45 22 c-3 -5 -1 -12 5 -16
11 -7 4 -25 -10 -25 -5 0 -7 7 -4 15 4 8 1 15 -6 15 -6 0 -8 5 -5 10 3 6 11
10 16 10 6 0 8 -4 4 -9z m102 -2 c-9 -6 -15 -14 -12 -20 4 -5 1 -9 -4 -9 -12
0 -15 23 -4 33 3 4 13 7 22 7 13 -1 13 -2 -2 -11z m56 3 c4 9 6 8 6 -3 1 -8
-5 -23 -12 -33 -10 -13 -14 -15 -14 -5 0 8 -4 23 -9 34 -7 17 -6 18 8 7 13
-10 17 -10 21 0z m107 -11 c0 -11 -4 -23 -10 -26 -14 -9 -32 4 -24 17 4 6 10
5 15 -3 7 -11 9 -10 9 3 0 9 -6 19 -12 21 -8 3 -6 6 5 6 10 1 17 -6 17 -18z
m55 8 c7 -11 -22 -49 -37 -49 -10 0 -11 44 -1 53 10 10 31 8 38 -4z m37 -14
c3 -15 1 -25 -6 -25 -6 0 -11 11 -11 25 0 14 3 25 6 25 4 0 9 -11 11 -25z m52
17 c-6 -4 -14 -14 -17 -22 -4 -10 -6 -8 -6 8 -1 15 5 22 17 22 10 0 13 -3 6
-8z m62 -4 c5 -8 2 -9 -9 -5 -11 4 -17 1 -17 -8 0 -8 5 -15 12 -15 6 0 8 -3 5
-6 -11 -11 -36 16 -30 32 6 17 29 18 39 2z m44 -5 c0 -16 -2 -16 -11 -3 -9 13
-10 13 -6 -1 3 -9 1 -22 -4 -30 -6 -10 -9 -4 -9 19 0 22 5 32 15 32 8 0 15 -8
15 -17z m40 8 c0 -5 3 -16 6 -25 4 -10 1 -16 -7 -16 -8 0 -14 11 -14 25 0 14
3 25 8 25 4 0 7 -4 7 -9z m57 2 c-4 -3 -2 -12 3 -18 8 -9 6 -14 -5 -19 -9 -3
-13 -2 -10 3 3 5 1 12 -5 16 -16 10 -12 25 7 25 9 0 13 -3 10 -7z m113 -3 c0
-5 -6 -7 -14 -4 -8 3 -16 -2 -19 -13 -4 -14 -5 -14 -6 5 -1 16 5 22 19 22 11
0 20 -4 20 -10z m47 -6 c7 -20 -18 -38 -32 -22 -7 7 -6 12 3 15 6 3 10 9 6 14
-3 5 0 9 6 9 6 0 13 -7 17 -16z m93 -15 c0 -10 -4 -19 -9 -19 -5 0 -8 11 -8
25 0 13 3 22 8 19 5 -3 9 -14 9 -25z m57 15 c8 -21 -13 -42 -28 -27 -13 13 -5
43 11 43 6 0 13 -7 17 -16z m50 -9 c1 -16 1 -16 -3 -2 -3 9 -9 17 -14 17 -5 0
-11 -8 -13 -17 -3 -13 -5 -12 -6 5 -1 30 33 27 36 -3z m188 16 c-3 -5 -1 -12
5 -16 13 -8 3 -25 -13 -25 -8 0 -8 3 2 9 9 6 10 11 2 15 -14 9 -14 26 0 26 5
0 8 -4 4 -9z m107 -16 c3 -16 1 -25 -7 -25 -7 0 -12 11 -11 25 1 32 12 32 18
0z m61 11 c8 -19 -15 -37 -32 -26 -17 10 -7 40 13 40 7 0 16 -6 19 -14z m97
-5 c0 -11 -4 -23 -10 -26 -14 -9 -32 4 -24 17 4 6 10 5 15 -3 7 -11 9 -10 9 3
0 9 -6 19 -12 21 -8 3 -6 6 5 6 10 1 17 -6 17 -18z m56 8 c3 -6 -3 -21 -15
-32 l-21 -21 0 32 c0 32 21 45 36 21z m34 2 c0 -5 3 -16 6 -25 4 -10 1 -16 -7
-16 -8 0 -14 11 -14 25 0 14 3 25 8 25 4 0 7 -4 7 -9z m51 2 c-10 -4 -11 -7
-1 -13 14 -9 5 -30 -13 -30 -8 0 -8 3 2 9 9 6 10 11 2 15 -17 11 -13 26 7 25
12 0 13 -2 3 -6z m65 -5 c5 -8 2 -9 -9 -5 -11 4 -17 1 -17 -7 0 -8 6 -17 13
-19 9 -4 9 -6 0 -6 -16 -1 -26 17 -19 34 7 18 22 19 32 3z m38 4 c-6 -4 -14
-14 -17 -22 -4 -10 -6 -8 -6 8 -1 15 5 22 17 22 10 0 13 -3 6 -8z m60 -16 c-7
-18 -25 -17 -32 2 -2 7 2 10 12 6 10 -4 16 -1 16 7 0 7 2 10 5 7 3 -3 3 -13
-1 -22z m43 -6 c2 -11 -2 -20 -7 -20 -6 0 -10 12 -10 27 0 29 12 24 17 -7z
m44 21 c-12 -8 -12 -12 -2 -25 8 -10 9 -16 3 -16 -6 0 -14 5 -17 10 -9 15 2
40 17 40 10 0 9 -3 -1 -9z m65 -3 c5 -8 2 -9 -9 -5 -20 7 -22 -4 -5 -21 9 -9
9 -12 1 -12 -16 0 -26 18 -19 35 7 18 22 19 32 3z m39 3 c-3 -5 -1 -12 5 -16
12 -7 4 -25 -11 -25 -6 0 -8 4 -4 9 3 5 1 12 -5 16 -12 7 -4 25 11 25 6 0 8
-4 4 -9z m105 -1 c5 8 10 11 10 5 0 -5 -5 -17 -10 -25 -9 -13 -11 -13 -20 0
-5 8 -10 20 -10 25 0 6 5 3 10 -5 9 -13 11 -13 20 0z m-1500 -40 c0 -5 -4 -10
-10 -10 -5 0 -10 5 -10 10 0 6 5 10 10 10 6 0 10 -4 10 -10z m-324 -81 c-9
-19 -15 -29 -16 -22 0 15 22 64 27 60 2 -2 -3 -19 -11 -38z m1163 2 c-6 -18
-13 -30 -15 -28 -2 2 1 18 7 36 6 18 13 30 15 28 2 -2 -1 -18 -7 -36z m609 9
c-5 -17 -15 -33 -21 -37 -5 -3 -7 -2 -4 4 4 6 11 22 16 37 14 36 22 33 9 -4z
m-2228 -15 c-6 -15 -13 -25 -16 -23 -2 3 1 17 7 32 16 34 23 27 9 -9z m306 0
c1 -14 1 -25 -2 -25 -8 0 -22 45 -17 53 8 13 16 0 19 -28z m609 0 c0 -14 -1
-25 -2 -25 -7 0 -20 45 -16 53 8 13 16 -1 18 -28z m150 0 c0 -14 -1 -25 -2
-25 -7 0 -20 45 -16 53 8 13 16 -1 18 -28z m252 18 c5 3 9 -3 9 -13 0 -11 -7
-18 -17 -17 -10 1 -16 10 -16 25 0 15 2 20 7 12 4 -7 12 -10 17 -7z m60 -10
c-2 -17 -8 -28 -17 -28 -9 0 -15 11 -17 28 -1 20 3 27 17 27 14 0 18 -7 17
-27z m955 -3 c3 -19 0 -30 -7 -30 -6 0 -12 14 -12 30 0 17 4 30 8 30 3 0 9
-13 11 -30z m-2262 9 c0 -5 -4 -8 -9 -4 -6 3 -14 -3 -20 -12 -9 -16 -10 -16
-11 5 0 15 6 22 20 22 11 0 20 -5 20 -11z m45 1 c3 -6 -1 -7 -9 -4 -19 7 -21
-7 -4 -24 9 -9 9 -12 1 -12 -16 0 -26 18 -19 35 6 17 22 20 31 5z m55 4 c0 -3
-9 -17 -20 -31 l-20 -26 0 25 c0 14 3 28 7 31 8 9 33 9 33 1z m40 -25 c0 -10
-4 -19 -9 -19 -5 0 -8 11 -8 25 0 13 3 22 8 19 5 -3 9 -14 9 -25z m45 22 c-3
-5 -1 -12 5 -16 11 -7 4 -25 -10 -25 -5 0 -7 7 -4 15 4 8 1 15 -6 15 -6 0 -8
5 -5 10 3 6 11 10 16 10 6 0 8 -4 4 -9z m102 -2 c-9 -6 -15 -14 -12 -20 4 -5
1 -9 -4 -9 -12 0 -15 23 -4 33 3 4 13 7 22 7 13 -1 13 -2 -2 -11z m56 3 c4 9
6 8 6 -3 1 -8 -5 -23 -12 -33 -10 -13 -14 -15 -14 -5 0 8 -4 23 -9 34 -7 17
-6 18 8 7 13 -10 17 -10 21 0z m107 -11 c0 -11 -4 -23 -10 -26 -14 -9 -32 4
-24 17 4 6 10 5 15 -3 7 -11 9 -10 9 3 0 9 -6 19 -12 21 -8 3 -6 6 5 6 10 1
17 -6 17 -18z m55 8 c7 -11 -22 -49 -37 -49 -10 0 -11 44 -1 53 10 10 31 8 38
-4z m37 -14 c3 -15 1 -25 -6 -25 -6 0 -11 11 -11 25 0 14 3 25 6 25 4 0 9 -11
11 -25z m52 17 c-6 -4 -14 -14 -17 -22 -4 -10 -6 -8 -6 8 -1 15 5 22 17 22 10
0 13 -3 6 -8z m62 -4 c5 -8 2 -9 -11 -5 -14 6 -16 3 -12 -13 4 -18 3 -19 -9
-9 -11 9 -12 15 -3 25 14 17 26 18 35 2z m44 -5 c0 -16 -2 -16 -11 -3 -9 13
-10 13 -6 -1 3 -9 1 -22 -4 -30 -6 -10 -9 -4 -9 19 0 22 5 32 15 32 8 0 15 -8
15 -17z m40 8 c0 -5 3 -16 6 -25 4 -10 1 -16 -7 -16 -8 0 -14 11 -14 25 0 14
3 25 8 25 4 0 7 -4 7 -9z m57 -11 c1 -11 -3 -23 -9 -26 -6 -4 -8 -2 -4 4 3 6
2 13 -4 17 -6 4 -8 11 -5 16 10 15 21 10 22 -11z m113 10 c0 -5 -6 -7 -14 -4
-8 3 -16 -2 -19 -13 -4 -14 -5 -14 -6 5 -1 16 5 22 19 22 11 0 20 -4 20 -10z
m47 -6 c3 -9 0 -20 -8 -24 -15 -10 -29 -4 -29 13 0 7 4 6 11 -3 9 -12 10 -11
6 8 -6 25 10 30 20 6z m93 -15 c0 -10 -4 -19 -9 -19 -5 0 -8 11 -8 25 0 13 3
22 8 19 5 -3 9 -14 9 -25z m57 15 c8 -21 -13 -42 -28 -27 -13 13 -5 43 11 43
6 0 13 -7 17 -16z m50 -9 c1 -16 1 -16 -3 -2 -3 9 -9 17 -14 17 -5 0 -11 -8
-13 -17 -3 -13 -5 -12 -6 5 -1 30 33 27 36 -3z m188 16 c-3 -5 -1 -12 5 -16 6
-4 8 -11 5 -16 -11 -16 -20 -10 -21 16 -1 14 2 25 8 25 5 0 7 -4 3 -9z m107
-16 c3 -16 1 -25 -7 -25 -7 0 -12 11 -11 25 1 32 12 32 18 0z m61 11 c8 -19
-15 -37 -32 -26 -17 10 -7 40 13 40 7 0 16 -6 19 -14z m97 -5 c0 -11 -4 -23
-10 -26 -14 -9 -32 4 -24 17 4 6 10 5 15 -3 7 -11 9 -10 9 3 0 9 -6 19 -12 21
-8 3 -6 6 5 6 10 1 17 -6 17 -18z m56 8 c3 -6 -3 -21 -15 -32 l-21 -21 0 32
c0 32 21 45 36 21z m34 2 c0 -5 3 -16 6 -25 4 -10 1 -16 -7 -16 -8 0 -14 11
-14 25 0 14 3 25 8 25 4 0 7 -4 7 -9z m51 2 c-10 -4 -11 -7 -1 -13 14 -9 5
-30 -13 -30 -8 0 -8 3 2 9 9 6 10 11 2 15 -17 11 -13 26 7 25 12 0 13 -2 3 -6z
m65 -5 c5 -8 2 -9 -9 -5 -11 4 -17 1 -17 -7 0 -8 6 -17 13 -19 9 -4 9 -6 0 -6
-16 -1 -26 17 -19 34 7 18 22 19 32 3z m38 4 c-6 -4 -14 -14 -17 -22 -4 -10
-6 -8 -6 8 -1 15 5 22 17 22 10 0 13 -3 6 -8z m60 -16 c-7 -18 -25 -17 -32 2
-2 7 2 10 12 6 10 -4 16 -1 16 7 0 7 2 10 5 7 3 -3 3 -13 -1 -22z m43 -6 c2
-11 -2 -20 -7 -20 -6 0 -10 12 -10 27 0 29 12 24 17 -7z m44 21 c-12 -8 -12
-12 -2 -25 8 -10 9 -16 3 -16 -6 0 -14 5 -17 10 -9 15 2 40 17 40 10 0 9 -3
-1 -9z m65 -3 c5 -8 2 -9 -9 -5 -20 7 -22 -4 -5 -21 9 -9 9 -12 1 -12 -16 0
-26 18 -19 35 7 18 22 19 32 3z m41 5 c-4 -3 -2 -12 3 -18 8 -9 6 -14 -5 -19
-9 -3 -13 -2 -10 3 3 5 1 12 -5 16 -12 8 -4 25 12 25 6 0 8 -3 5 -7z m103 -3
c5 8 10 11 10 5 0 -5 -5 -17 -10 -25 -9 -13 -11 -13 -20 0 -5 8 -10 20 -10 25
0 6 5 3 10 -5 9 -13 11 -13 20 0z m157 -6 c7 -19 -11 -39 -27 -29 -8 5 -8 11
-1 19 6 7 8 16 4 19 -3 4 -1 7 6 7 6 0 14 -7 18 -16z m53 6 c0 -6 8 -5 20 2
17 11 22 10 30 -2 7 -11 4 -20 -13 -34 -19 -16 -22 -16 -25 -2 -3 14 -5 14
-28 0 -23 -16 -24 -15 -24 8 0 14 3 28 7 31 10 11 33 8 33 -3z m86 1 c-4 -5
-1 -11 6 -13 6 -2 8 -10 4 -16 -12 -19 -21 -14 -22 13 -1 14 2 25 8 25 5 0 7
-4 4 -9z m-1796 -41 c0 -5 -4 -10 -10 -10 -5 0 -10 5 -10 10 0 6 5 10 10 10 6
0 10 -4 10 -10z m-324 -81 c-9 -19 -15 -29 -16 -22 0 15 22 64 27 60 2 -2 -3
-19 -11 -38z m1163 2 c-6 -18 -13 -30 -15 -28 -2 2 1 18 7 36 6 18 13 30 15
28 2 -2 -1 -18 -7 -36z m970 -6 c0 -20 -1 -20 -8 0 -8 19 -8 19 -19 0 -10 -18
-11 -17 -12 13 0 30 2 31 20 20 11 -7 20 -22 19 -33z m590 15 c4 0 8 -6 8 -13
0 -8 -6 -14 -14 -14 -8 0 -13 12 -12 31 1 17 3 23 6 14 2 -10 8 -18 12 -18z
m-3179 -15 c-6 -15 -13 -25 -16 -23 -2 3 1 17 7 32 16 34 23 27 9 -9z m305 0
c0 -14 -1 -25 -2 -25 -7 0 -20 45 -16 53 8 13 16 -1 18 -28z m610 1 c1 -25 -1
-26 -12 -10 -16 22 -17 47 -1 42 6 -2 12 -17 13 -32z m150 -1 c0 -14 -1 -25
-2 -25 -7 0 -20 45 -16 53 8 13 16 -1 18 -28z m252 18 c5 3 9 -3 9 -14 0 -30
-31 -23 -33 8 -1 16 2 21 7 13 4 -7 12 -10 17 -7z m61 -10 c-3 -32 -33 -39
-34 -8 -1 27 4 35 22 35 11 0 14 -8 12 -27z m852 14 c0 -7 -7 -22 -15 -33 -13
-17 -13 -16 -3 14 13 34 18 40 18 19z m102 -17 c3 -19 0 -30 -7 -30 -6 0 -12
14 -12 30 0 17 4 30 8 30 3 0 9 -13 11 -30z m192 9 c-3 -5 0 -17 8 -26 11 -14
11 -16 -2 -11 -8 2 -16 17 -18 32 -2 19 0 26 7 21 6 -3 9 -11 5 -16z m205 0
c-10 -6 -10 -11 2 -25 12 -15 12 -17 -1 -12 -8 2 -16 17 -18 31 -3 22 0 26 13
21 13 -5 14 -9 4 -15z m206 -14 c0 -14 -1 -25 -2 -25 -7 0 -20 45 -16 53 8 13
16 -1 18 -28z m312 8 c-2 -17 -8 -28 -17 -28 -9 0 -15 11 -17 28 -1 20 3 27
17 27 14 0 18 -7 17 -27z m-3177 6 c0 -5 -4 -8 -9 -4 -6 3 -14 -3 -20 -12 -9
-16 -10 -16 -11 5 0 15 6 22 20 22 11 0 20 -5 20 -11z m46 -1 c4 -6 3 -8 -4
-4 -6 3 -14 1 -18 -5 -3 -6 0 -15 7 -20 9 -6 10 -9 2 -9 -16 0 -26 18 -19 35
6 18 22 19 32 3z m54 6 c0 -3 -9 -17 -20 -31 l-20 -26 0 25 c0 14 3 28 7 31 8
9 33 9 33 1z m40 -25 c0 -10 -4 -19 -9 -19 -5 0 -8 11 -8 25 0 13 3 22 8 19 5
-3 9 -14 9 -25z m45 22 c-3 -5 -1 -12 5 -16 11 -7 4 -25 -10 -25 -5 0 -7 7 -4
15 4 8 1 15 -6 15 -6 0 -8 5 -5 10 3 6 11 10 16 10 6 0 8 -4 4 -9z m115 -1 c0
-5 -6 -9 -12 -7 -7 1 -12 -4 -10 -10 1 -7 -2 -13 -8 -13 -11 0 -14 23 -3 33
10 11 33 8 33 -3z m43 2 c4 9 6 8 6 -3 1 -8 -5 -23 -12 -33 -10 -13 -14 -15
-14 -5 0 8 -4 23 -9 34 -7 17 -6 18 8 7 13 -10 17 -10 21 0z m107 -11 c0 -11
-4 -23 -10 -26 -14 -9 -32 4 -24 17 4 6 10 5 15 -3 7 -11 9 -10 9 3 0 9 -6 19
-12 21 -8 3 -6 6 5 6 10 1 17 -6 17 -18z m53 4 c4 -8 2 -17 -4 -20 -5 -4 -8
-2 -7 3 2 6 -1 10 -7 11 -5 0 -9 -9 -7 -19 2 -11 -2 -20 -7 -20 -12 0 -15 43
-4 53 11 12 31 8 36 -8z m39 -10 c3 -15 1 -25 -6 -25 -6 0 -11 11 -11 25 0 14
3 25 6 25 4 0 9 -11 11 -25z m52 17 c-6 -4 -14 -14 -17 -22 -4 -10 -6 -8 -6 8
-1 15 5 22 17 22 10 0 13 -3 6 -8z m62 -4 c5 -8 2 -9 -11 -5 -14 6 -16 3 -12
-13 4 -18 3 -19 -9 -9 -11 9 -12 15 -3 25 14 17 26 18 35 2z m44 -5 c0 -16 -2
-16 -11 -3 -9 13 -10 13 -6 -1 3 -9 1 -22 -4 -30 -6 -10 -9 -4 -9 19 0 22 5
32 15 32 8 0 15 -8 15 -17z m40 8 c0 -5 3 -16 6 -25 3 -9 2 -16 -4 -16 -5 0
-12 11 -14 25 -3 14 -1 25 3 25 5 0 9 -4 9 -9z m57 -11 c1 -11 -3 -23 -9 -26
-6 -4 -8 -2 -4 4 3 6 2 13 -4 17 -6 4 -8 11 -5 16 10 15 21 10 22 -11z m108
10 c3 -5 0 -7 -9 -4 -8 3 -16 -2 -19 -13 -4 -14 -5 -14 -6 5 -1 22 22 31 34
12z m52 -6 c3 -9 0 -20 -8 -24 -15 -10 -29 -4 -29 13 0 7 4 6 11 -3 9 -12 10
-11 6 8 -6 25 10 30 20 6z m93 -15 c0 -10 -4 -19 -9 -19 -5 0 -8 11 -8 25 0
13 3 22 8 19 5 -3 9 -14 9 -25z m57 15 c8 -21 -13 -42 -28 -27 -13 13 -5 43
11 43 6 0 13 -7 17 -16z m50 -9 c1 -16 1 -16 -3 -2 -3 9 -9 17 -14 17 -5 0
-11 -8 -13 -17 -3 -13 -5 -12 -6 5 -1 30 33 27 36 -3z m188 16 c-3 -5 -1 -12
5 -16 6 -4 8 -11 5 -16 -11 -16 -20 -10 -21 16 -1 14 2 25 8 25 5 0 7 -4 3 -9z
m107 -16 c3 -16 1 -25 -7 -25 -7 0 -12 11 -11 25 1 32 12 32 18 0z m61 11 c8
-19 -15 -37 -32 -26 -17 10 -7 40 13 40 7 0 16 -6 19 -14z m97 -4 c0 -10 -3
-21 -6 -25 -10 -9 -35 4 -28 15 4 6 10 5 15 -3 7 -11 9 -10 9 3 0 9 -6 19 -12
21 -8 3 -6 6 5 6 10 1 17 -6 17 -17z m56 7 c3 -6 -3 -21 -15 -32 l-21 -21 0
32 c0 32 21 45 36 21z m34 2 c0 -5 3 -16 6 -25 4 -10 1 -16 -7 -16 -8 0 -14
11 -14 25 0 14 3 25 8 25 4 0 7 -4 7 -9z m57 -11 c1 -11 -3 -23 -9 -26 -6 -4
-8 -2 -4 4 3 6 2 13 -4 17 -6 4 -8 11 -5 16 10 15 21 10 22 -11z m59 8 c5 -8
2 -9 -11 -5 -14 6 -16 3 -12 -14 4 -16 3 -19 -5 -11 -12 12 -4 42 11 42 5 0
13 -5 17 -12z m38 4 c-6 -4 -14 -14 -17 -22 -4 -10 -6 -8 -6 8 -1 15 5 22 17
22 10 0 13 -3 6 -8z m60 -16 c-7 -18 -25 -17 -32 2 -2 7 2 10 12 6 10 -4 16
-1 16 7 0 7 2 10 5 7 3 -3 3 -13 -1 -22z m43 -6 c2 -11 -2 -20 -7 -20 -6 0
-10 12 -10 27 0 29 12 24 17 -7z m44 21 c-12 -8 -12 -12 -2 -25 8 -10 9 -16 3
-16 -6 0 -14 5 -17 10 -9 15 2 40 17 40 10 0 9 -3 -1 -9z m64 -1 c3 -5 -1 -10
-9 -10 -19 0 -21 -16 -3 -23 9 -4 9 -6 0 -6 -16 -1 -26 17 -19 34 6 17 22 20
31 5z m42 3 c-4 -3 -2 -12 3 -18 8 -9 6 -14 -5 -19 -9 -3 -13 -2 -10 3 3 5 1
12 -5 16 -12 8 -4 25 12 25 6 0 8 -3 5 -7z m103 -3 c5 8 10 11 10 5 0 -5 -5
-17 -10 -25 -9 -13 -11 -13 -20 0 -5 8 -10 20 -10 25 0 6 5 3 10 -5 9 -13 11
-13 20 0z m157 -6 c8 -21 -13 -42 -28 -27 -8 8 -8 13 0 17 6 4 11 2 11 -5 0
-7 3 -9 6 -6 4 4 1 13 -6 22 -9 11 -9 15 -1 15 6 0 14 -7 18 -16z m203 5 c0
-5 -5 -7 -12 -3 -8 5 -9 0 -5 -16 5 -21 5 -22 -10 -8 -8 9 -12 21 -9 27 9 14
36 14 36 0z m50 3 c0 -5 -7 -9 -15 -9 -8 0 -15 4 -15 9 0 4 7 8 15 8 8 0 15
-4 15 -8z m90 -1 c0 -5 3 -16 6 -25 4 -10 1 -16 -7 -16 -8 0 -14 11 -14 25 0
14 3 25 8 25 4 0 7 -4 7 -9z m53 2 c-7 -2 -13 -11 -13 -18 0 -7 6 -16 13 -18
9 -4 9 -6 0 -6 -6 -1 -15 4 -18 9 -9 15 2 40 17 39 10 0 10 -2 1 -6z m62 -19
c0 -22 -26 -26 -32 -4 -4 13 -3 13 7 0 10 -12 11 -11 7 8 -4 15 -1 22 6 19 7
-2 12 -12 12 -23z m92 -4 c2 -11 -2 -20 -7 -20 -6 0 -10 12 -10 27 0 29 12 24
17 -7z m60 14 c8 -20 -17 -36 -34 -22 -10 8 -10 14 -2 24 15 18 28 18 36 -2z
m50 -9 c1 -16 1 -16 -3 -2 -3 9 -9 17 -14 17 -5 0 -11 -8 -13 -17 -3 -13 -5
-12 -6 5 -1 30 33 27 36 -3z m190 18 c-4 -3 -2 -12 3 -18 8 -9 6 -14 -4 -18
-10 -4 -13 -1 -9 9 3 7 0 14 -7 14 -6 0 -8 5 -5 10 3 6 11 10 17 10 6 0 8 -3
5 -7z m103 -24 c0 -10 -4 -19 -9 -19 -5 0 -8 11 -7 24 1 28 16 24 16 -5z m57
15 c8 -21 -13 -42 -28 -27 -13 13 -5 43 11 43 6 0 13 -7 17 -16z m-966 -9 c6
16 8 17 8 3 1 -23 -19 -34 -30 -17 -5 8 -9 19 -9 24 1 6 6 1 12 -10 11 -19 11
-19 19 0z m-1701 -25 c0 -5 -4 -10 -10 -10 -5 0 -10 5 -10 10 0 6 5 10 10 10
6 0 10 -4 10 -10z m-324 -81 c-9 -19 -15 -29 -16 -22 0 15 22 64 27 60 2 -2
-3 -19 -11 -38z m1163 2 c-6 -18 -13 -30 -15 -28 -2 2 1 18 7 36 6 18 13 30
15 28 2 -2 -1 -18 -7 -36z m-1619 -6 c-6 -15 -13 -25 -16 -23 -2 3 1 17 7 32
16 34 23 27 9 -9z m305 0 c0 -14 -1 -25 -2 -25 -7 0 -20 45 -16 53 8 13 16 -1
18 -28z m610 0 c0 -14 0 -25 -2 -25 -8 0 -23 42 -17 51 9 15 17 3 19 -26z
m150 0 c0 -14 -1 -25 -2 -25 -7 0 -20 45 -16 53 8 13 16 -1 18 -28z m252 18
c5 3 9 -3 9 -13 0 -28 -31 -20 -33 8 -1 16 2 20 7 12 4 -7 12 -10 17 -7z m61
-10 c-3 -32 -33 -39 -34 -8 -1 27 4 35 22 35 11 0 14 -8 12 -27z m852 14 c0
-7 -7 -22 -15 -33 -13 -17 -13 -16 -3 14 13 34 18 40 18 19z m102 -17 c3 -19
0 -30 -7 -30 -6 0 -12 14 -12 30 0 17 4 30 8 30 3 0 9 -13 11 -30z m197 9
c-10 -6 -10 -11 2 -25 12 -15 12 -17 -1 -12 -8 2 -16 17 -18 31 -3 22 0 26 13
21 13 -5 14 -9 4 -15z m45 15 c9 -3 16 -16 15 -28 0 -20 -1 -20 -8 -1 -8 19
-8 19 -19 0 -11 -18 -11 -18 -12 8 0 29 1 30 24 21z m311 -3 c3 -5 1 -13 -5
-16 -8 -5 -7 -12 2 -23 12 -15 11 -16 -4 -3 -10 7 -18 22 -18 32 0 20 15 26
25 10z m252 -26 c0 -7 -6 -12 -14 -12 -7 0 -13 11 -13 24 0 19 2 21 13 11 8
-7 14 -17 14 -23z m60 8 c-2 -17 -8 -28 -17 -28 -9 0 -15 11 -17 28 -1 20 3
27 17 27 14 0 18 -7 17 -27z m-3127 6 c0 -5 -4 -8 -9 -4 -6 3 -14 -3 -20 -12
-9 -16 -10 -16 -11 5 0 15 6 22 20 22 11 0 20 -5 20 -11z m45 1 c3 -6 -1 -7
-9 -4 -19 7 -21 -7 -4 -24 9 -9 9 -12 1 -12 -16 0 -26 18 -19 35 6 17 22 20
31 5z m55 2 c0 -4 -5 -13 -12 -20 -9 -9 -9 -12 0 -12 7 0 12 -4 12 -9 0 -6 -9
-9 -20 -8 -20 1 -29 35 -13 50 9 10 33 9 33 -1z m40 -23 c0 -10 -4 -19 -9 -19
-5 0 -8 11 -8 25 0 13 3 22 8 19 5 -3 9 -14 9 -25z m45 22 c-3 -5 -1 -12 5
-16 11 -7 4 -25 -10 -25 -5 0 -7 7 -4 15 4 8 1 15 -6 15 -6 0 -8 5 -5 10 3 6
11 10 16 10 6 0 8 -4 4 -9z m115 -1 c0 -5 -6 -9 -12 -7 -7 1 -12 -4 -10 -10 1
-7 -2 -13 -8 -13 -11 0 -14 23 -3 33 10 11 33 8 33 -3z m43 2 c4 9 6 8 6 -3 1
-8 -5 -23 -12 -33 -10 -13 -14 -15 -14 -5 0 8 -4 23 -9 34 -7 17 -6 18 8 7 13
-10 17 -10 21 0z m107 -11 c0 -11 -4 -23 -10 -26 -14 -9 -32 4 -24 17 4 6 10
5 15 -3 7 -11 9 -10 9 3 0 9 -6 19 -12 21 -8 3 -6 6 5 6 10 1 17 -6 17 -18z
m53 5 c5 -13 -21 -46 -36 -46 -9 0 -9 45 0 53 11 12 31 8 36 -7z m39 -11 c3
-15 1 -25 -6 -25 -6 0 -11 11 -11 25 0 14 3 25 6 25 4 0 9 -11 11 -25z m52 17
c-6 -4 -14 -14 -17 -22 -4 -10 -6 -8 -6 8 -1 15 5 22 17 22 10 0 13 -3 6 -8z
m62 -4 c5 -8 2 -9 -11 -5 -14 6 -16 3 -12 -13 4 -18 3 -19 -9 -9 -11 9 -12 15
-3 25 14 17 26 18 35 2z m44 -5 c0 -16 -2 -16 -11 -3 -9 13 -10 13 -6 -1 3 -9
1 -22 -4 -30 -6 -10 -9 -4 -9 19 0 22 5 32 15 32 8 0 15 -8 15 -17z m40 8 c0
-5 3 -16 6 -25 3 -9 2 -16 -4 -16 -5 0 -12 11 -14 25 -3 14 -1 25 3 25 5 0 9
-4 9 -9z m57 2 c-4 -3 -2 -12 3 -18 8 -9 6 -14 -5 -19 -9 -3 -13 -2 -10 3 3 5
1 12 -5 16 -12 8 -4 25 12 25 6 0 8 -3 5 -7z m108 -3 c3 -5 0 -7 -9 -4 -8 3
-16 -2 -19 -13 -4 -14 -5 -14 -6 5 -1 22 22 31 34 12z m52 -6 c3 -9 0 -20 -8
-24 -15 -10 -29 -4 -29 13 0 7 4 6 11 -3 9 -12 10 -11 6 8 -6 25 10 30 20 6z
m93 -15 c0 -10 -4 -19 -9 -19 -5 0 -8 11 -8 25 0 13 3 22 8 19 5 -3 9 -14 9
-25z m57 15 c8 -21 -13 -42 -28 -27 -13 13 -5 43 11 43 6 0 13 -7 17 -16z m50
-9 c3 -20 3 -20 -5 0 -9 19 -9 19 -20 0 -11 -19 -11 -19 -12 3 0 30 34 27 37
-3z m188 16 c-3 -5 -1 -12 5 -16 13 -8 3 -25 -13 -25 -8 0 -8 3 2 9 9 6 10 11
2 15 -14 9 -14 26 0 26 5 0 8 -4 4 -9z m107 -16 c3 -15 1 -25 -6 -25 -6 0 -11
11 -11 25 0 14 3 25 6 25 4 0 9 -11 11 -25z m61 11 c8 -19 -15 -37 -32 -26
-17 10 -7 40 13 40 7 0 16 -6 19 -14z m97 -5 c0 -11 -4 -23 -10 -26 -14 -9
-32 4 -24 17 4 6 10 5 15 -3 7 -11 9 -10 9 3 0 9 -6 19 -12 21 -8 3 -6 6 5 6
10 1 17 -6 17 -18z m56 8 c3 -6 -3 -21 -15 -32 l-21 -21 0 32 c0 32 21 45 36
21z m34 2 c0 -5 3 -16 6 -25 4 -10 1 -16 -7 -16 -8 0 -14 11 -14 25 0 14 3 25
8 25 4 0 7 -4 7 -9z m51 2 c-11 -5 -11 -7 0 -14 12 -7 12 -10 0 -21 -9 -8 -11
-9 -7 -1 3 6 2 14 -4 18 -16 10 -12 25 8 24 12 0 13 -2 3 -6z m65 -5 c5 -8 2
-9 -9 -5 -11 4 -17 1 -17 -7 0 -8 6 -17 13 -19 9 -4 9 -6 0 -6 -16 -1 -26 17
-19 34 7 18 22 19 32 3z m38 4 c-6 -4 -14 -14 -17 -22 -4 -10 -6 -8 -6 8 -1
15 5 22 17 22 10 0 13 -3 6 -8z m60 -16 c-7 -18 -25 -17 -32 2 -2 7 2 10 12 6
10 -4 16 -1 16 7 0 7 2 10 5 7 3 -3 3 -13 -1 -22z m43 -6 c2 -11 -2 -20 -7
-20 -6 0 -10 12 -10 27 0 29 12 24 17 -7z m44 21 c-12 -8 -12 -12 -2 -25 8
-10 9 -16 3 -16 -6 0 -14 5 -17 10 -9 15 2 40 17 40 10 0 9 -3 -1 -9z m65 -3
c5 -8 2 -9 -9 -5 -11 4 -17 1 -17 -7 0 -8 6 -17 13 -19 9 -4 9 -6 0 -6 -16 -1
-26 17 -19 34 7 18 22 19 32 3z m41 5 c-4 -3 -2 -12 3 -18 8 -9 6 -14 -5 -19
-9 -3 -13 -2 -10 3 3 5 1 12 -5 16 -12 8 -4 25 12 25 6 0 8 -3 5 -7z m103 -3
c5 8 10 11 10 5 0 -5 -5 -17 -10 -25 -9 -13 -11 -13 -20 0 -5 8 -10 20 -10 25
0 6 5 3 10 -5 9 -13 11 -13 20 0z m157 -6 c8 -22 -13 -42 -29 -26 -9 9 -7 13
6 18 14 5 15 9 4 15 -10 7 -10 9 0 9 7 0 15 -7 19 -16z m206 2 c9 -22 -18 -40
-33 -22 -6 9 -9 20 -5 26 9 15 32 12 38 -4z m41 6 c-6 -4 -14 -14 -17 -22 -4
-10 -6 -8 -6 8 -1 15 5 22 17 22 10 0 13 -3 6 -8z m48 -17 c3 -15 1 -25 -6
-25 -6 0 -11 11 -11 25 0 14 3 25 6 25 4 0 9 -11 11 -25z m54 0 c0 -14 -6 -25
-12 -25 -7 0 -11 11 -10 25 0 14 6 25 12 25 7 0 11 -11 10 -25z m61 9 c3 -9 0
-20 -8 -24 -15 -10 -29 -4 -29 13 0 7 4 6 11 -3 9 -12 10 -11 6 8 -6 25 10 30
20 6z m92 -26 c1 -5 -3 -8 -9 -8 -5 0 -10 12 -9 28 0 24 1 25 9 7 5 -11 9 -23
9 -27z m58 26 c9 -23 -13 -40 -32 -24 -12 10 -13 16 -4 26 15 18 28 18 36 -2z
m51 -9 c3 -20 3 -20 -9 0 -12 19 -12 19 -20 0 -7 -18 -8 -18 -8 3 -1 30 32 27
37 -3z m189 18 c-4 -3 -2 -12 3 -18 8 -9 6 -14 -4 -18 -10 -4 -13 -1 -9 9 3 7
0 14 -7 14 -6 0 -8 5 -5 10 3 6 11 10 17 10 6 0 8 -3 5 -7z m103 -24 c0 -10
-4 -19 -9 -19 -5 0 -8 11 -8 25 0 13 3 22 8 19 5 -3 9 -14 9 -25z m57 15 c8
-21 -13 -42 -28 -27 -13 13 -5 43 11 43 6 0 13 -7 17 -16z m-916 -9 c6 16 8
17 8 3 1 -23 -19 -34 -30 -17 -5 8 -9 19 -9 24 1 6 6 1 12 -10 11 -19 11 -19
19 0z m-1701 -25 c0 -5 -4 -10 -10 -10 -5 0 -10 5 -10 10 0 6 5 10 10 10 6 0
10 -4 10 -10z m-324 -81 c-9 -19 -15 -29 -16 -22 0 15 22 64 27 60 2 -2 -3
-19 -11 -38z m1163 2 c-6 -18 -13 -30 -15 -28 -2 2 1 18 7 36 6 18 13 30 15
28 2 -2 -1 -18 -7 -36z m1161 20 c0 -11 3 -26 6 -35 4 -10 1 -16 -7 -16 -9 0
-14 12 -14 35 0 19 3 35 8 35 4 0 7 -9 7 -19z m-2779 -25 c-14 -36 -22 -33 -9
5 6 16 12 28 14 26 3 -2 0 -16 -5 -31z m304 -1 c0 -14 -1 -25 -2 -25 -7 0 -20
45 -16 53 8 13 16 -1 18 -28z m610 0 c0 -14 0 -25 -2 -25 -8 0 -23 42 -17 51
9 15 17 3 19 -26z m150 0 c0 -14 -1 -25 -2 -25 -7 0 -20 45 -16 53 8 13 16 -1
18 -28z m251 18 c5 3 10 -6 10 -19 2 -19 -1 -22 -10 -14 -7 5 -15 7 -18 4 -3
-2 -5 7 -5 22 0 16 2 21 7 14 4 -7 12 -10 16 -7z m61 -10 c-3 -32 -32 -39 -33
-8 -1 27 4 35 21 35 9 0 13 -10 12 -27z m853 14 c0 -7 -7 -22 -15 -33 -13 -17
-13 -16 -3 14 13 34 18 40 18 19z m102 -17 c3 -19 0 -30 -7 -30 -6 0 -12 14
-12 30 0 17 4 30 8 30 3 0 9 -13 11 -30z m192 9 c-3 -5 0 -17 8 -26 11 -14 11
-16 -2 -11 -8 2 -16 17 -18 32 -2 19 0 26 7 21 6 -3 9 -11 5 -16z m-2454 0 c0
-5 -4 -8 -9 -4 -6 3 -14 -3 -20 -12 -9 -16 -10 -16 -11 5 0 15 6 22 20 22 11
0 20 -5 20 -11z m45 1 c3 -6 -1 -7 -9 -4 -19 7 -21 -7 -4 -24 9 -9 9 -12 1
-12 -16 0 -26 18 -19 35 6 17 22 20 31 5z m52 -22 c0 -18 -2 -27 -5 -20 -3 10
-7 10 -18 1 -11 -9 -14 -7 -14 13 0 27 7 38 25 38 6 0 12 -14 12 -32z m43 1
c0 -10 -4 -19 -9 -19 -5 0 -8 11 -8 25 0 13 3 22 8 19 5 -3 9 -14 9 -25z m45
22 c-3 -5 -1 -12 5 -16 12 -7 4 -25 -11 -25 -6 0 -8 4 -4 9 3 5 1 12 -5 16
-12 7 -4 25 11 25 6 0 8 -4 4 -9z m102 -2 c-9 -6 -15 -14 -12 -20 4 -5 1 -9
-4 -9 -12 0 -15 23 -4 33 3 4 13 7 22 7 13 -1 13 -2 -2 -11z m56 -2 c13 12 7
-13 -6 -31 -10 -13 -14 -15 -14 -5 0 8 -4 23 -9 34 -7 17 -6 18 8 8 8 -7 18
-10 21 -6z m107 -6 c0 -11 -4 -23 -10 -26 -14 -9 -32 4 -24 17 4 6 10 5 15 -3
7 -11 9 -10 9 3 0 9 -6 19 -12 21 -8 3 -6 6 5 6 10 1 17 -6 17 -18z m53 5 c5
-13 -21 -46 -36 -46 -9 0 -9 45 0 53 11 12 31 8 36 -7z m39 -11 c3 -15 1 -25
-6 -25 -6 0 -11 11 -11 25 0 14 3 25 6 25 4 0 9 -11 11 -25z m52 17 c-6 -4
-14 -14 -17 -22 -4 -10 -6 -8 -6 8 -1 15 5 22 17 22 10 0 13 -3 6 -8z m62 -4
c5 -8 2 -9 -11 -5 -14 6 -16 3 -12 -13 4 -18 3 -19 -9 -9 -11 9 -12 15 -3 25
14 17 26 18 35 2z m44 -5 c0 -16 -2 -16 -11 -3 -9 13 -10 13 -6 -1 3 -9 1 -22
-4 -30 -6 -10 -9 -4 -9 19 0 22 5 32 15 32 8 0 15 -8 15 -17z m49 -25 c1 -5
-5 -8 -13 -8 -9 0 -12 8 -8 27 5 25 6 25 13 8 4 -11 8 -23 8 -27z m48 22 c1
-11 -3 -23 -9 -26 -6 -4 -8 -2 -4 4 3 6 2 13 -4 17 -6 4 -8 11 -5 16 10 15 21
10 22 -11z m108 10 c3 -5 0 -7 -9 -4 -8 3 -16 -2 -19 -13 -4 -14 -5 -14 -6 5
-1 22 22 31 34 12z m52 -6 c7 -20 -18 -38 -32 -22 -7 7 -6 12 3 15 6 3 10 9 6
14 -3 5 0 9 6 9 6 0 13 -7 17 -16z m93 -15 c0 -10 -4 -19 -9 -19 -5 0 -8 11
-8 25 0 13 3 22 8 19 5 -3 9 -14 9 -25z m57 15 c8 -21 -13 -42 -28 -27 -13 13
-5 43 11 43 6 0 13 -7 17 -16z m50 -9 c1 -16 1 -16 -3 -2 -3 9 -9 17 -14 17
-5 0 -11 -8 -13 -17 -3 -13 -5 -12 -6 5 -1 30 33 27 36 -3z m188 16 c-3 -5 -1
-12 5 -16 6 -4 8 -11 5 -16 -11 -16 -20 -10 -21 16 -1 14 2 25 8 25 5 0 7 -4
3 -9z m107 -16 c3 -16 1 -25 -7 -25 -7 0 -12 11 -11 25 1 32 12 32 18 0z m61
11 c8 -19 -15 -37 -32 -26 -17 10 -7 40 13 40 7 0 16 -6 19 -14z m97 -5 c0
-11 -4 -23 -10 -26 -14 -9 -32 4 -24 17 4 6 10 5 15 -3 7 -11 9 -10 9 3 0 9
-6 19 -12 21 -8 3 -6 6 5 6 10 1 17 -6 17 -18z m56 8 c3 -6 -3 -21 -15 -32
l-21 -21 0 32 c0 32 21 45 36 21z m34 2 c0 -5 3 -16 6 -25 4 -10 1 -16 -7 -16
-8 0 -14 11 -14 25 0 14 3 25 8 25 4 0 7 -4 7 -9z m51 2 c-10 -4 -11 -7 -1
-13 14 -9 5 -30 -13 -30 -8 0 -8 3 2 9 9 6 10 11 2 15 -13 9 -5 26 12 25 8 0
7 -3 -2 -6z m65 -5 c5 -8 2 -9 -9 -5 -11 4 -17 1 -17 -7 0 -8 6 -17 13 -19 9
-4 9 -6 0 -6 -16 -1 -26 17 -19 34 7 18 22 19 32 3z m38 4 c-6 -4 -14 -14 -17
-22 -4 -10 -6 -8 -6 8 -1 15 5 22 17 22 10 0 13 -3 6 -8z m60 -16 c-7 -18 -25
-17 -32 2 -2 7 2 10 12 6 10 -4 16 -1 16 7 0 7 2 10 5 7 3 -3 3 -13 -1 -22z
m43 -6 c2 -11 -2 -20 -7 -20 -6 0 -10 12 -10 27 0 29 12 24 17 -7z m44 21
c-12 -8 -12 -12 -2 -25 8 -10 9 -16 3 -16 -6 0 -14 5 -17 10 -9 15 2 40 17 40
10 0 9 -3 -1 -9z m65 -3 c5 -8 2 -9 -9 -5 -20 7 -22 -4 -5 -21 9 -9 9 -12 1
-12 -16 0 -26 18 -19 35 7 18 22 19 32 3z m39 3 c-3 -5 -1 -12 5 -16 12 -7 4
-25 -11 -25 -6 0 -8 4 -4 9 3 5 1 12 -5 16 -12 7 -4 25 11 25 6 0 8 -4 4 -9z
m105 -1 c5 8 10 11 10 5 0 -5 -5 -17 -10 -25 -9 -13 -11 -13 -20 0 -5 8 -10
20 -10 25 0 6 5 3 10 -5 9 -13 11 -13 20 0z m157 -6 c8 -22 -13 -42 -29 -26
-9 9 -7 13 6 18 14 5 15 9 4 15 -10 7 -10 9 0 9 7 0 15 -7 19 -16z m156 2 c8
-20 -20 -43 -35 -28 -14 14 -3 42 16 42 7 0 16 -6 19 -14z m33 5 c-4 -5 -1
-11 6 -13 14 -5 2 -28 -15 -28 -8 0 -8 3 2 9 9 6 10 11 2 15 -14 9 -14 26 0
26 5 0 8 -4 5 -9z m57 2 c-7 -2 -13 -11 -13 -18 0 -7 6 -16 13 -18 9 -4 9 -6
0 -6 -6 -1 -15 4 -18 9 -9 15 2 40 17 39 10 0 10 -2 1 -6z m55 -15 c-4 -27
-28 -37 -28 -11 0 15 2 16 10 3 8 -13 10 -13 10 2 0 9 -6 19 -12 21 -8 3 -5 6
5 6 13 1 18 -5 15 -21z m101 -20 c1 -5 -5 -8 -13 -8 -9 0 -12 8 -8 27 5 25 6
25 13 8 4 -11 8 -23 8 -27z m59 17 c3 -20 3 -20 -9 0 -12 19 -12 19 -20 0 -7
-18 -8 -18 -8 3 -1 30 32 27 37 -3z m52 16 c0 -13 -17 -23 -23 -14 -2 5 -3 3
-1 -3 1 -6 -2 -17 -7 -25 -6 -10 -9 -7 -9 12 0 14 3 29 7 32 10 10 33 8 33 -2z
m-469 -16 c6 16 8 17 8 3 1 -23 -19 -34 -30 -17 -5 8 -9 19 -9 24 1 6 6 1 12
-10 11 -19 11 -19 19 0z m-1701 -25 c0 -5 -4 -10 -10 -10 -5 0 -10 5 -10 10 0
6 5 10 10 10 6 0 10 -4 10 -10z m2170 0 c0 -5 -4 -10 -10 -10 -5 0 -10 5 -10
10 0 6 5 10 10 10 6 0 10 -4 10 -10z m-2494 -81 c-9 -19 -15 -29 -16 -22 0 15
22 64 27 60 2 -2 -3 -19 -11 -38z m357 4 c5 -23 3 -33 -6 -33 -9 0 -12 11 -9
36 5 41 7 40 15 -3z m806 -2 c-6 -18 -13 -30 -15 -28 -2 2 1 18 7 36 6 18 13
30 15 28 2 -2 -1 -18 -7 -36z m-1618 -5 c-14 -36 -22 -33 -9 5 6 16 12 28 14
26 3 -2 0 -16 -5 -31z m304 -1 c0 -14 -1 -25 -2 -25 -7 0 -20 45 -16 53 8 13
16 -1 18 -28z m610 0 c0 -14 0 -25 -2 -25 -8 0 -23 42 -17 51 9 15 17 3 19
-26z m150 0 c0 -14 -1 -25 -2 -25 -7 0 -20 45 -16 53 8 13 16 -1 18 -28z m251
18 c5 3 10 -6 10 -19 2 -19 -1 -22 -10 -14 -7 5 -15 8 -17 6 -2 -2 -5 7 -6 21
-1 17 2 21 7 13 4 -7 12 -10 16 -7z m62 -10 c-3 -32 -33 -39 -34 -8 -1 27 4
35 22 35 11 0 14 -8 12 -27z m852 14 c0 -7 -7 -22 -15 -33 -13 -17 -13 -16 -3
14 13 34 18 40 18 19z m102 -17 c3 -19 0 -30 -7 -30 -6 0 -12 14 -12 30 0 17
4 30 8 30 3 0 9 -13 11 -30z m106 -8 c-5 -28 -33 -20 -36 11 -3 26 -2 28 18
17 12 -6 20 -19 18 -28z m91 17 c-10 -6 -10 -11 2 -25 12 -15 12 -17 -1 -12
-8 2 -16 17 -18 31 -3 22 0 26 13 21 13 -5 14 -9 4 -15z m95 15 c9 -3 15 -16
15 -28 -1 -17 -2 -17 -6 -3 -2 9 -9 15 -14 11 -5 -3 -7 -10 -4 -15 4 -5 1 -9
-4 -9 -6 0 -11 11 -11 25 0 27 1 28 24 19z m-2554 -15 c0 -5 -4 -8 -9 -4 -6 3
-14 -3 -20 -12 -9 -16 -10 -16 -11 5 0 15 6 22 20 22 11 0 20 -5 20 -11z m46
-1 c4 -6 3 -8 -4 -4 -6 3 -14 1 -18 -5 -3 -6 0 -15 7 -20 9 -6 10 -9 2 -9 -16
0 -26 18 -19 35 6 18 22 19 32 3z m51 -20 c0 -18 -2 -27 -5 -20 -3 10 -7 10
-18 1 -11 -9 -14 -7 -14 13 0 27 7 38 25 38 6 0 12 -14 12 -32z m43 1 c0 -10
-4 -19 -9 -19 -5 0 -8 11 -8 25 0 13 3 22 8 19 5 -3 9 -14 9 -25z m45 22 c-3
-5 -1 -12 5 -16 11 -7 4 -25 -10 -25 -5 0 -7 7 -4 15 4 8 1 15 -6 15 -6 0 -8
5 -5 10 3 6 11 10 16 10 6 0 8 -4 4 -9z m102 -2 c-9 -6 -15 -14 -12 -20 4 -5
1 -9 -4 -9 -12 0 -15 23 -4 33 3 4 13 7 22 7 13 -1 13 -2 -2 -11z m56 -2 c13
12 7 -13 -6 -31 -10 -13 -14 -15 -14 -5 0 8 -4 23 -9 34 -7 17 -6 18 8 8 8 -7
18 -10 21 -6z m107 -6 c0 -11 -4 -23 -10 -26 -14 -9 -32 4 -24 17 4 6 10 5 15
-3 7 -11 9 -10 9 3 0 9 -6 19 -12 21 -8 3 -6 6 5 6 10 1 17 -6 17 -18z m53 5
c5 -13 -21 -46 -36 -46 -9 0 -9 45 0 53 11 12 31 8 36 -7z m39 -11 c3 -15 1
-25 -6 -25 -6 0 -11 11 -11 25 0 14 3 25 6 25 4 0 9 -11 11 -25z m52 17 c-6
-4 -14 -14 -17 -22 -4 -10 -6 -8 -6 8 -1 15 5 22 17 22 10 0 13 -3 6 -8z m62
-4 c5 -8 2 -9 -11 -5 -14 6 -16 3 -12 -13 4 -18 3 -19 -9 -9 -11 9 -12 15 -3
25 14 17 26 18 35 2z m44 -5 c0 -16 -2 -16 -11 -3 -9 13 -10 13 -6 -1 3 -9 1
-22 -4 -30 -6 -10 -9 -4 -9 19 0 22 5 32 15 32 8 0 15 -8 15 -17z m97 -3 c1
-11 -3 -23 -9 -26 -6 -4 -8 -2 -4 4 3 6 2 13 -4 17 -6 4 -8 11 -5 16 10 15 21
10 22 -11z m108 10 c3 -5 0 -7 -9 -4 -8 3 -16 -2 -19 -13 -4 -14 -5 -14 -6 5
-1 22 22 31 34 12z m50 -16 c0 -22 -26 -26 -32 -4 -4 13 -3 13 7 0 10 -12 11
-11 7 8 -4 15 -1 22 6 19 7 -2 12 -12 12 -23z m95 -5 c0 -10 -4 -19 -9 -19 -5
0 -8 11 -8 25 0 13 3 22 8 19 5 -3 9 -14 9 -25z m57 15 c8 -21 -13 -42 -28
-27 -13 13 -5 43 11 43 6 0 13 -7 17 -16z m50 -9 c1 -16 1 -16 -3 -2 -3 9 -9
17 -14 17 -5 0 -11 -8 -13 -17 -3 -13 -5 -12 -6 5 -1 30 33 27 36 -3z m188 16
c-3 -5 -1 -12 5 -16 6 -4 8 -11 5 -16 -11 -16 -20 -10 -21 16 -1 14 2 25 8 25
5 0 7 -4 3 -9z m107 -16 c3 -16 1 -25 -7 -25 -7 0 -12 11 -11 25 1 32 12 32
18 0z m61 11 c8 -20 -20 -43 -35 -28 -14 14 -3 42 16 42 7 0 16 -6 19 -14z
m97 -5 c0 -11 -4 -23 -10 -26 -14 -9 -32 4 -24 17 4 6 10 5 15 -3 7 -11 9 -10
9 3 0 9 -6 19 -12 21 -8 3 -6 6 5 6 10 1 17 -6 17 -18z m56 8 c3 -6 -3 -21
-15 -32 l-21 -21 0 32 c0 32 21 45 36 21z m34 2 c0 -5 3 -16 6 -25 4 -10 1
-16 -7 -16 -8 0 -14 11 -14 25 0 14 3 25 8 25 4 0 7 -4 7 -9z m50 -34 c-10 -9
-11 -9 -6 0 3 6 2 14 -4 18 -6 4 -7 11 -4 17 4 7 10 4 16 -7 7 -12 6 -21 -2
-28z m66 31 c5 -8 2 -9 -9 -5 -11 4 -17 1 -17 -7 0 -8 6 -17 13 -19 9 -4 9 -6
0 -6 -16 -1 -26 17 -19 34 7 18 22 19 32 3z m38 4 c-6 -4 -14 -14 -17 -22 -4
-10 -6 -8 -6 8 -1 15 5 22 17 22 10 0 13 -3 6 -8z m60 -16 c-7 -18 -25 -17
-32 2 -2 7 2 10 12 6 10 -4 16 -1 16 7 0 7 2 10 5 7 3 -3 3 -13 -1 -22z m43
-6 c2 -11 -2 -20 -7 -20 -6 0 -10 12 -10 27 0 29 12 24 17 -7z m44 21 c-12 -8
-12 -12 -2 -25 8 -10 9 -16 3 -16 -6 0 -14 5 -17 10 -9 15 2 40 17 40 10 0 9
-3 -1 -9z m65 -3 c5 -8 2 -9 -9 -5 -11 4 -17 1 -17 -7 0 -8 6 -17 13 -19 9 -4
9 -6 0 -6 -16 -1 -26 17 -19 34 7 18 22 19 32 3z m39 3 c-3 -5 -1 -12 5 -16
12 -7 4 -25 -11 -25 -6 0 -8 4 -4 9 3 5 1 12 -5 16 -12 7 -4 25 11 25 6 0 8
-4 4 -9z m105 -1 c5 8 10 11 10 5 0 -5 -5 -17 -10 -25 -9 -13 -11 -13 -20 0
-5 8 -10 20 -10 25 0 6 5 3 10 -5 9 -13 11 -13 20 0z m207 -6 c8 -21 -13 -42
-28 -27 -8 8 -8 13 0 17 6 4 11 2 11 -5 0 -7 3 -9 6 -6 4 4 1 13 -6 22 -9 11
-9 15 -1 15 6 0 14 -7 18 -16z m88 -8 c0 -18 -3 -22 -13 -14 -9 8 -9 14 -1 24
15 18 14 18 14 -10z m-1795 -26 c0 -5 -4 -10 -10 -10 -5 0 -10 5 -10 10 0 6 5
10 10 10 6 0 10 -4 10 -10z m-324 -81 c-9 -19 -15 -29 -16 -22 0 15 22 64 27
60 2 -2 -3 -19 -11 -38z m357 4 c4 -19 2 -33 -3 -33 -6 0 -10 17 -10 37 0 43
5 41 13 -4z m806 -2 c-6 -18 -13 -30 -15 -28 -2 2 1 18 7 36 6 18 13 30 15 28
2 -2 -1 -18 -7 -36z m1360 9 c4 0 8 -6 8 -13 0 -8 -6 -14 -14 -14 -8 0 -13 12
-12 31 1 17 3 23 6 14 2 -10 8 -18 12 -18z m-2978 -14 c-14 -36 -22 -33 -9 5
6 16 12 28 14 26 3 -2 0 -16 -5 -31z m304 -1 c0 -14 -1 -25 -2 -25 -7 0 -20
45 -16 53 8 13 16 -1 18 -28z m610 0 c0 -14 0 -25 -2 -25 -8 0 -23 42 -17 51
9 15 17 3 19 -26z m150 0 c0 -14 -1 -25 -2 -25 -7 0 -20 45 -16 53 8 13 16 -1
18 -28z m251 18 c5 3 10 -5 10 -18 1 -16 -3 -21 -15 -18 -9 2 -17 15 -18 30
-1 17 2 21 7 13 4 -7 12 -10 16 -7z m62 -10 c-3 -32 -33 -39 -34 -8 -1 27 4
35 22 35 11 0 14 -8 12 -27z m852 14 c0 -7 -7 -22 -15 -33 -13 -17 -13 -16 -3
14 13 34 18 40 18 19z m102 -17 c3 -19 0 -30 -7 -30 -6 0 -12 14 -12 30 0 17
4 30 8 30 3 0 9 -13 11 -30z m194 -5 c1 -14 -2 -23 -7 -20 -5 4 -9 18 -9 32 0
32 12 23 16 -12z m203 19 c4 3 7 -3 7 -13 0 -10 -6 -18 -13 -18 -8 0 -13 11
-12 26 0 14 3 20 6 13 2 -6 8 -10 12 -8z m316 -14 c0 -36 -29 -33 -33 3 -3 23
0 28 15 25 11 -2 18 -12 18 -28z m-2975 9 c0 -5 -4 -8 -9 -4 -6 3 -14 -3 -20
-12 -9 -16 -10 -16 -11 5 0 15 6 22 20 22 11 0 20 -5 20 -11z m45 1 c3 -6 -1
-7 -9 -4 -10 4 -16 1 -16 -9 0 -8 6 -18 13 -20 9 -4 9 -6 0 -6 -16 -1 -26 17
-19 34 6 17 22 20 31 5z m55 2 c0 -4 -5 -13 -12 -20 -9 -9 -9 -12 0 -12 7 0
12 -4 12 -8 0 -4 -9 -8 -20 -8 -14 0 -20 7 -20 21 0 12 3 25 7 28 9 10 33 9
33 -1z m40 -23 c0 -10 -4 -19 -9 -19 -5 0 -8 11 -8 25 0 13 3 22 8 19 5 -3 9
-14 9 -25z m47 24 c-4 -3 -2 -12 3 -18 8 -9 6 -14 -4 -18 -10 -4 -13 -1 -9 9
3 7 0 14 -7 14 -6 0 -8 5 -5 10 3 6 11 10 17 10 6 0 8 -3 5 -7z m113 -3 c0 -5
-6 -9 -12 -7 -7 1 -12 -4 -10 -10 1 -7 -2 -13 -8 -13 -11 0 -14 23 -3 33 10
11 33 8 33 -3z m147 -6 c3 -8 1 -20 -5 -26 -12 -12 -35 -1 -26 14 4 6 10 5 15
-3 7 -11 9 -10 9 3 0 9 -6 19 -12 21 -10 4 -10 6 0 6 7 1 15 -6 19 -15z m56 1
c4 -8 2 -17 -4 -20 -5 -4 -8 -2 -7 3 2 6 -1 10 -7 11 -5 0 -9 -9 -7 -19 2 -11
-2 -20 -7 -20 -12 0 -15 43 -4 53 11 12 31 8 36 -8z m39 -10 c3 -15 1 -25 -6
-25 -6 0 -11 11 -11 25 0 14 3 25 6 25 4 0 9 -11 11 -25z m52 17 c-6 -4 -14
-14 -17 -22 -4 -10 -6 -8 -6 8 -1 15 5 22 17 22 10 0 13 -3 6 -8z m62 -4 c5
-8 2 -9 -11 -5 -14 6 -16 3 -12 -13 4 -18 3 -19 -9 -9 -11 9 -12 15 -3 25 14
17 26 18 35 2z m44 0 c0 -7 -7 -22 -15 -32 -14 -19 -15 -18 -15 12 0 22 5 32
15 32 8 0 15 -6 15 -12z m97 -8 c1 -11 -3 -23 -9 -26 -6 -4 -8 -2 -4 4 3 6 2
13 -4 17 -6 4 -8 11 -5 16 10 15 21 10 22 -11z m108 10 c3 -5 0 -7 -9 -4 -8 3
-16 -2 -19 -13 -4 -14 -5 -14 -6 5 -1 22 22 31 34 12z m52 -6 c3 -9 0 -20 -8
-24 -15 -10 -29 -4 -29 13 0 7 4 6 11 -3 9 -12 10 -11 6 8 -6 25 10 30 20 6z
m93 -15 c0 -10 -4 -19 -9 -19 -5 0 -8 11 -8 25 0 13 3 22 8 19 5 -3 9 -14 9
-25z m57 15 c8 -21 -13 -42 -28 -27 -13 13 -5 43 11 43 6 0 13 -7 17 -16z m50
-9 c3 -20 3 -20 -5 0 -9 19 -9 19 -20 0 -11 -19 -11 -19 -12 3 0 30 34 27 37
-3z m188 16 c-3 -5 -1 -12 5 -16 6 -4 8 -11 5 -16 -11 -16 -20 -10 -21 16 -1
14 2 25 8 25 5 0 7 -4 3 -9z m105 -16 c0 -14 -3 -25 -7 -25 -5 0 -8 11 -8 25
0 14 3 25 8 25 4 0 7 -11 7 -25z m63 11 c8 -20 -20 -43 -35 -28 -14 14 -3 42
16 42 7 0 16 -6 19 -14z m97 -11 c0 -15 -6 -25 -14 -25 -18 0 -30 17 -17 24 5
4 12 0 14 -6 4 -8 6 -7 6 4 1 9 -5 19 -11 21 -8 3 -6 6 5 6 12 1 17 -7 17 -24z
m56 14 c3 -6 -3 -21 -15 -32 l-21 -21 0 32 c0 32 21 45 36 21z m34 2 c0 -5 3
-16 6 -25 3 -9 2 -16 -4 -16 -5 0 -12 11 -14 25 -3 14 -1 25 3 25 5 0 9 -4 9
-9z m57 -11 c1 -11 -3 -23 -9 -26 -6 -4 -8 -2 -4 4 3 6 2 13 -4 17 -6 4 -8 11
-5 16 10 15 21 10 22 -11z m59 8 c5 -8 2 -9 -11 -5 -14 6 -16 3 -12 -14 4 -16
3 -19 -5 -11 -12 12 -4 42 11 42 5 0 13 -5 17 -12z m38 4 c-6 -4 -14 -14 -17
-22 -4 -10 -6 -8 -6 8 -1 15 5 22 17 22 10 0 13 -3 6 -8z m60 -16 c-7 -18 -25
-17 -32 2 -2 7 2 10 12 6 10 -4 16 -1 16 7 0 7 2 10 5 7 3 -3 3 -13 -1 -22z
m43 -6 c2 -11 -2 -20 -7 -20 -6 0 -10 12 -10 27 0 29 12 24 17 -7z m44 21
c-12 -8 -12 -12 -2 -25 8 -10 9 -16 3 -16 -6 0 -14 5 -17 10 -9 15 2 40 17 40
10 0 9 -3 -1 -9z m65 -3 c5 -8 2 -9 -9 -5 -11 4 -17 1 -17 -7 0 -8 6 -17 13
-19 9 -4 9 -6 0 -6 -16 -1 -26 17 -19 34 7 18 22 19 32 3z m41 5 c-4 -3 -2
-12 3 -18 8 -9 6 -14 -5 -19 -9 -3 -13 -2 -10 3 3 5 1 12 -5 16 -12 8 -4 25
12 25 6 0 8 -3 5 -7z m107 -17 c-8 -20 -20 -21 -27 -2 -4 10 -1 13 9 9 7 -3
14 1 14 8 0 7 2 10 5 7 3 -3 3 -13 -1 -22z m153 -2 c3 -18 2 -18 -5 1 -9 19
-9 19 -20 0 -9 -16 -11 -17 -12 -4 0 34 33 37 37 3z m49 14 c5 -7 3 -8 -6 -3
-10 6 -12 2 -7 -15 5 -21 5 -22 -10 -8 -8 9 -12 21 -9 27 9 14 23 14 32 -1z
m157 -2 c10 -24 -15 -38 -35 -19 -11 10 -18 11 -18 5 0 -7 -9 -12 -20 -12 -11
0 -20 7 -20 15 0 8 6 12 14 9 8 -3 23 -1 33 5 25 14 40 14 46 -3z m41 6 c-6
-4 -14 -14 -17 -22 -4 -10 -6 -8 -6 8 -1 15 5 22 17 22 10 0 13 -3 6 -8z m98
-17 c3 -14 2 -25 -2 -25 -4 0 -10 11 -12 25 -3 14 -2 25 2 25 4 0 10 -11 12
-25z m66 0 c3 -20 3 -20 -9 0 -12 19 -12 19 -20 0 -7 -18 -8 -18 -8 3 -1 30
32 27 37 -3z m47 16 c3 -5 1 -12 -4 -15 -5 -4 -11 -3 -14 1 -2 5 -3 3 -1 -3 1
-6 -2 -17 -7 -25 -6 -10 -9 -7 -9 12 0 35 20 53 35 30z m192 2 c-4 -3 -2 -12
3 -18 8 -9 6 -14 -5 -19 -9 -3 -13 -2 -10 3 3 5 1 12 -5 16 -12 8 -4 25 12 25
6 0 8 -3 5 -7z m160 -9 c8 -21 -13 -42 -28 -27 -13 13 -5 43 11 43 6 0 13 -7
17 -16z m-2827 -4 c0 -3 -6 -13 -12 -21 -7 -8 -12 -12 -11 -10 1 2 -2 12 -7
22 -8 14 -6 17 10 16 11 -1 20 -4 20 -7z m2770 -20 c0 -5 -4 -10 -10 -10 -5 0
-10 5 -10 10 0 6 5 10 10 10 6 0 10 -4 10 -10z m-2415 -10 c3 -5 1 -10 -4 -10
-6 0 -11 5 -11 10 0 6 2 10 4 10 3 0 8 -4 11 -10z m2125 0 c0 -5 -4 -10 -10
-10 -5 0 -10 5 -10 10 0 6 5 10 10 10 6 0 10 -4 10 -10z m-2444 -81 c-9 -19
-15 -29 -16 -22 0 15 22 64 27 60 2 -2 -3 -19 -11 -38z m1163 2 c-6 -18 -13
-30 -15 -28 -2 2 1 18 7 36 6 18 13 30 15 28 2 -2 -1 -18 -7 -36z m1248 11
c21 17 41 -6 23 -27 -10 -12 -16 -13 -26 -4 -8 6 -14 8 -14 3 0 -5 -6 0 -12
11 -11 19 -11 19 -19 0 -6 -16 -8 -13 -8 13 l-1 33 22 -20 c16 -16 25 -18 35
-9z m-2866 -16 c-14 -36 -22 -33 -9 5 6 16 12 28 14 26 3 -2 0 -16 -5 -31z
m304 -1 c0 -14 -1 -25 -2 -25 -7 0 -20 45 -16 53 8 13 16 -1 18 -28z m610 0
c0 -14 0 -25 -2 -25 -8 0 -23 42 -17 51 9 15 17 3 19 -26z m150 0 c0 -14 -1
-25 -2 -25 -7 0 -20 45 -16 53 8 13 16 -1 18 -28z m251 18 c5 3 10 -5 10 -18
1 -16 -3 -21 -15 -18 -9 2 -17 15 -18 30 -1 17 2 21 7 13 4 -7 12 -10 16 -7z
m62 -10 c-3 -32 -33 -39 -34 -8 -1 27 4 35 22 35 11 0 14 -8 12 -27z m852 14
c0 -7 -7 -22 -15 -33 -13 -17 -13 -16 -3 14 13 34 18 40 18 19z m102 -17 c3
-19 0 -30 -7 -30 -6 0 -12 14 -12 30 0 17 4 30 8 30 3 0 9 -13 11 -30z m156
-4 c-4 -31 -32 -26 -36 6 -3 23 0 26 18 21 15 -4 20 -12 18 -27z m297 25 c3
-5 1 -13 -5 -16 -8 -5 -7 -11 1 -21 7 -8 7 -14 1 -14 -11 0 -22 23 -22 46 0
16 16 19 25 5z m350 -26 c0 -14 -1 -25 -2 -25 -7 0 -20 45 -16 53 8 13 16 -1
18 -28z m251 18 c5 3 10 -6 10 -19 2 -19 -1 -22 -10 -14 -7 5 -16 7 -19 3 -4
-3 -7 7 -7 23 0 20 3 25 9 15 5 -7 13 -11 17 -8z m62 -10 c-3 -32 -33 -39 -34
-8 -1 27 4 35 22 35 11 0 14 -8 12 -27z m-3378 6 c0 -5 -4 -8 -9 -4 -6 3 -14
-3 -20 -12 -9 -16 -10 -16 -11 5 0 15 6 22 20 22 11 0 20 -5 20 -11z m45 1 c3
-6 -1 -7 -9 -4 -19 7 -21 -7 -4 -24 9 -9 9 -12 1 -12 -16 0 -26 18 -19 35 6
17 22 20 31 5z m52 -20 c0 -16 -4 -30 -9 -30 -5 0 -6 6 -2 13 5 8 2 8 -9 -2
-15 -12 -17 -11 -17 11 0 27 7 38 25 38 6 0 12 -13 12 -30z m43 -1 c0 -10 -4
-19 -9 -19 -5 0 -8 11 -8 25 0 13 3 22 8 19 5 -3 9 -14 9 -25z m45 22 c-3 -5
-1 -12 5 -16 12 -7 4 -25 -11 -25 -6 0 -8 4 -4 9 3 5 1 12 -5 16 -12 7 -4 25
11 25 6 0 8 -4 4 -9z m115 -2 c0 -5 -4 -7 -10 -4 -5 3 -10 -1 -10 -9 0 -9 -4
-16 -10 -16 -11 0 -14 23 -3 33 10 11 33 8 33 -4z m43 -7 c3 7 6 8 6 2 1 -5
-5 -18 -12 -28 -10 -13 -14 -15 -14 -5 0 8 -4 23 -8 34 -6 19 -6 19 8 2 11
-14 16 -15 20 -5z m107 -1 c0 -11 -4 -23 -10 -26 -14 -9 -32 4 -24 17 4 6 10
5 15 -3 7 -11 9 -10 9 3 0 9 -6 19 -12 21 -8 3 -6 6 5 6 10 1 17 -6 17 -18z
m53 5 c5 -13 -21 -46 -36 -46 -9 0 -9 45 0 53 11 12 31 8 36 -7z m39 -11 c3
-15 1 -25 -6 -25 -6 0 -11 11 -11 25 0 14 3 25 6 25 4 0 9 -11 11 -25z m52 17
c-6 -4 -14 -14 -17 -22 -4 -10 -6 -8 -6 8 -1 15 5 22 17 22 10 0 13 -3 6 -8z
m62 -4 c5 -8 2 -9 -9 -5 -11 4 -17 1 -17 -8 0 -8 5 -15 12 -15 6 0 8 -3 5 -6
-4 -4 -13 -1 -22 6 -12 10 -13 16 -4 26 14 17 26 18 35 2z m44 0 c0 -7 -7 -22
-15 -32 -14 -19 -15 -18 -15 12 0 22 5 32 15 32 8 0 15 -6 15 -12z m49 -30 c1
-5 -5 -8 -13 -8 -9 0 -12 8 -8 27 5 25 6 25 13 8 4 -11 8 -23 8 -27z m48 22
c1 -11 -3 -23 -9 -26 -6 -4 -8 -2 -4 4 3 6 2 13 -4 17 -6 4 -8 11 -5 16 10 15
21 10 22 -11z m108 10 c3 -5 0 -7 -9 -4 -8 3 -16 -2 -19 -13 -4 -14 -5 -14 -6
5 -1 22 22 31 34 12z m52 -6 c3 -9 0 -20 -8 -24 -15 -10 -29 -4 -29 13 0 7 4
6 11 -3 9 -12 10 -11 6 8 -6 25 10 30 20 6z m93 -15 c0 -10 -4 -19 -9 -19 -5
0 -8 11 -8 25 0 13 3 22 8 19 5 -3 9 -14 9 -25z m57 15 c8 -21 -13 -42 -28
-27 -13 13 -5 43 11 43 6 0 13 -7 17 -16z m50 -9 c3 -20 3 -20 -5 0 -9 19 -9
19 -20 0 -11 -19 -11 -19 -12 3 0 30 34 27 37 -3z m188 16 c-3 -5 -1 -12 5
-16 6 -4 8 -11 5 -16 -11 -16 -20 -10 -21 16 -1 14 2 25 8 25 5 0 7 -4 3 -9z
m107 -16 c3 -16 1 -25 -7 -25 -7 0 -12 11 -11 25 1 32 12 32 18 0z m61 11 c8
-20 -20 -43 -35 -28 -14 14 -3 42 16 42 7 0 16 -6 19 -14z m97 -11 c0 -15 -6
-25 -14 -25 -18 0 -30 17 -17 24 5 4 12 0 14 -6 4 -8 6 -7 6 4 1 9 -5 19 -11
21 -8 3 -6 6 5 6 12 1 17 -7 17 -24z m56 14 c3 -6 -3 -21 -15 -32 l-21 -21 0
32 c0 32 21 45 36 21z m34 2 c0 -5 3 -16 6 -25 4 -10 1 -16 -7 -16 -8 0 -14
11 -14 25 0 14 3 25 8 25 4 0 7 -4 7 -9z m51 2 c-10 -4 -11 -7 -1 -13 14 -9 5
-30 -13 -30 -8 0 -8 3 2 9 9 6 10 11 2 15 -13 9 -5 26 12 25 8 0 7 -3 -2 -6z
m65 -5 c5 -8 2 -9 -9 -5 -11 4 -17 1 -17 -7 0 -8 6 -17 13 -19 9 -4 9 -6 0 -6
-16 -1 -26 17 -19 34 7 18 22 19 32 3z m33 -5 c-7 -10 -15 -20 -16 -22 -2 -2
-3 5 -3 17 0 14 6 22 16 22 14 0 15 -3 3 -17z m61 -13 c-10 -18 -14 -20 -21
-9 -13 21 -11 29 6 23 8 -4 15 -1 15 7 0 7 3 10 6 7 3 -4 0 -16 -6 -28z m47 0
c2 -11 -2 -20 -7 -20 -6 0 -10 12 -10 27 0 29 12 24 17 -7z m44 21 c-12 -8
-12 -12 -2 -25 8 -10 9 -16 3 -16 -6 0 -14 5 -17 10 -9 15 2 40 17 40 10 0 9
-3 -1 -9z m65 -3 c5 -8 2 -9 -9 -5 -20 7 -22 -4 -5 -21 9 -9 9 -12 1 -12 -16
0 -26 18 -19 35 7 18 22 19 32 3z m39 3 c-3 -5 -1 -12 5 -16 12 -7 4 -25 -11
-25 -6 0 -8 4 -4 9 3 5 1 12 -5 16 -12 7 -4 25 11 25 6 0 8 -4 4 -9z m105 -1
c5 8 10 11 10 5 0 -5 -5 -17 -10 -25 -9 -13 -11 -13 -20 0 -5 8 -10 20 -10 25
0 6 5 3 10 -5 9 -13 11 -13 20 0z m143 -8 c-20 -21 -28 -20 -20 3 4 8 13 15
22 15 13 0 12 -3 -2 -18z m114 2 c3 -8 1 -20 -5 -26 -12 -12 -35 -1 -26 14 4
6 10 5 15 -3 7 -11 9 -10 9 3 0 9 -6 19 -12 21 -10 4 -10 6 0 6 7 1 15 -6 19
-15z m44 7 c-8 -5 -11 -16 -7 -26 5 -15 4 -16 -9 -5 -12 10 -13 16 -4 26 6 8
17 14 23 14 6 0 5 -4 -3 -9z m109 -16 c0 -16 -6 -25 -15 -25 -8 0 -15 8 -15
18 0 15 2 15 11 2 9 -12 10 -11 6 8 -3 12 -1 22 4 22 5 0 9 -11 9 -25z m255
15 c3 -5 0 -7 -9 -4 -8 3 -16 -2 -19 -13 -4 -14 -5 -14 -6 5 -1 22 22 31 34
12z m42 -20 c2 -11 -2 -20 -7 -20 -6 0 -10 12 -10 27 0 29 12 24 17 -7z m49 5
c0 -14 -7 -25 -13 -25 -16 0 -17 16 -3 25 6 4 8 11 5 16 -4 5 -2 9 3 9 6 0 9
-11 8 -25z m59 -1 c0 -22 -26 -26 -32 -4 -4 13 -3 13 7 0 10 -12 11 -11 7 8
-4 15 -1 22 6 19 7 -2 12 -12 12 -23z m152 10 c8 -21 -13 -42 -28 -27 -13 13
-5 43 11 43 6 0 13 -7 17 -16z m50 -9 c3 -20 3 -20 -5 0 -9 19 -9 19 -20 0
-11 -19 -11 -19 -12 3 0 30 34 27 37 -3z m188 16 c-3 -5 -1 -12 5 -16 6 -4 8
-11 5 -16 -11 -16 -20 -10 -21 16 -1 14 2 25 8 25 5 0 7 -4 3 -9z m107 -16 c3
-15 1 -25 -6 -25 -6 0 -11 11 -11 25 0 14 3 25 6 25 4 0 9 -11 11 -25z m61 11
c8 -20 -20 -43 -35 -28 -14 14 -3 42 16 42 7 0 16 -6 19 -14z m-922 -11 c8 19
9 19 6 1 -3 -29 -27 -33 -26 -4 1 20 2 21 7 3 l5 -20 8 20z m459 -15 c0 -5 -4
-10 -10 -10 -5 0 -10 5 -10 10 0 6 5 10 10 10 6 0 10 -4 10 -10z m-2415 -10
c3 -5 1 -10 -4 -10 -6 0 -11 5 -11 10 0 6 2 10 4 10 3 0 8 -4 11 -10z m-319
-81 c-9 -19 -15 -29 -16 -22 0 15 22 64 27 60 2 -2 -3 -19 -11 -38z m357 4 c4
-19 2 -33 -3 -33 -6 0 -10 17 -10 37 0 43 5 41 13 -4z m806 -2 c-6 -18 -13
-30 -15 -28 -2 2 1 18 7 36 6 18 13 30 15 28 2 -2 -1 -18 -7 -36z m-1618 -5
c-14 -36 -22 -33 -9 5 6 16 12 28 14 26 3 -2 0 -16 -5 -31z m304 -1 c0 -14 -1
-25 -2 -25 -7 0 -20 45 -16 53 8 13 16 -1 18 -28z m610 0 c0 -14 0 -25 -2 -25
-8 0 -23 42 -17 51 9 15 17 3 19 -26z m150 0 c0 -14 -1 -25 -2 -25 -7 0 -20
45 -16 53 8 13 16 -1 18 -28z m251 18 c5 3 10 -6 10 -19 2 -19 -1 -22 -10 -14
-7 5 -15 8 -17 6 -2 -2 -5 7 -6 21 -1 17 2 21 7 13 4 -7 12 -10 16 -7z m62
-10 c-3 -32 -33 -39 -34 -8 -1 27 4 35 22 35 11 0 14 -8 12 -27z m852 14 c0
-7 -7 -22 -15 -33 -13 -17 -13 -16 -3 14 13 34 18 40 18 19z m102 -17 c3 -19
0 -30 -7 -30 -6 0 -12 14 -12 30 0 17 4 30 8 30 3 0 9 -13 11 -30z m142 9 c-3
-5 0 -16 6 -24 9 -11 9 -15 1 -15 -13 0 -31 40 -24 53 2 4 9 5 14 1 5 -3 7
-10 3 -15z m354 -5 c9 -16 8 -21 -4 -21 -8 0 -14 10 -14 25 0 28 2 27 18 -4z
m64 2 c3 -15 0 -27 -8 -30 -17 -6 -24 3 -24 31 0 31 26 30 32 -1z m-2822 3 c0
-5 -4 -8 -9 -4 -6 3 -14 -3 -20 -12 -9 -16 -10 -16 -11 5 0 15 6 22 20 22 11
0 20 -5 20 -11z m46 -1 c4 -6 3 -8 -4 -4 -6 3 -14 1 -18 -5 -3 -6 0 -15 7 -20
9 -6 10 -9 2 -9 -16 0 -26 18 -19 35 6 18 22 19 32 3z m51 -18 c0 -20 -3 -26
-9 -18 -6 10 -10 10 -18 -2 -8 -12 -10 -10 -10 11 0 28 7 39 25 39 6 0 12 -14
12 -30z m43 -1 c0 -10 -4 -19 -9 -19 -5 0 -8 11 -8 25 0 13 3 22 8 19 5 -3 9
-14 9 -25z m45 22 c-3 -5 -1 -12 5 -16 12 -7 4 -25 -11 -25 -6 0 -8 4 -4 9 3
5 1 12 -5 16 -12 7 -4 25 11 25 6 0 8 -4 4 -9z m108 2 c-7 -2 -13 -11 -13 -19
0 -8 -4 -14 -10 -14 -11 0 -14 23 -3 33 3 4 13 7 22 6 10 0 12 -2 4 -6z m157
-12 c0 -11 -4 -23 -10 -26 -14 -9 -32 4 -24 17 4 6 10 5 15 -3 7 -11 9 -10 9
3 0 9 -6 19 -12 21 -8 3 -6 6 5 6 10 1 17 -6 17 -18z m53 4 c4 -8 1 -17 -5
-21 -6 -4 -8 -3 -4 4 3 6 2 13 -4 17 -6 4 -10 -5 -10 -19 0 -14 -4 -26 -10
-26 -11 0 -14 43 -3 53 11 12 31 8 36 -8z m39 -10 c3 -15 1 -25 -6 -25 -6 0
-11 11 -11 25 0 14 3 25 6 25 4 0 9 -11 11 -25z m52 17 c-6 -4 -14 -14 -17
-22 -4 -10 -6 -8 -6 8 -1 15 5 22 17 22 10 0 13 -3 6 -8z m62 -4 c5 -8 2 -9
-11 -5 -14 6 -16 3 -12 -13 4 -18 3 -19 -9 -9 -11 9 -12 15 -3 25 14 17 26 18
35 2z m44 0 c0 -7 -7 -22 -15 -32 -14 -19 -15 -18 -15 12 0 22 5 32 15 32 8 0
15 -6 15 -12z m97 -8 c1 -11 -3 -23 -9 -26 -6 -4 -8 -2 -4 4 3 6 2 13 -4 17
-6 4 -8 11 -5 16 10 15 21 10 22 -11z m109 8 c4 -6 3 -8 -4 -4 -6 3 -15 -2
-21 -11 -9 -16 -10 -16 -11 5 0 23 24 31 36 10z m51 -4 c3 -9 0 -20 -8 -24
-15 -10 -29 -4 -29 13 0 7 4 6 11 -3 9 -12 10 -11 6 8 -6 25 10 30 20 6z m93
-15 c0 -10 -4 -19 -9 -19 -5 0 -8 11 -8 25 0 13 3 22 8 19 5 -3 9 -14 9 -25z
m57 15 c8 -21 -13 -42 -28 -27 -13 13 -5 43 11 43 6 0 13 -7 17 -16z m50 -9
c3 -20 3 -20 -5 0 -9 19 -9 19 -20 0 -11 -19 -11 -19 -12 3 0 30 34 27 37 -3z
m188 16 c-3 -5 -1 -12 5 -16 6 -4 8 -11 5 -16 -11 -16 -20 -10 -21 16 -1 14 2
25 8 25 5 0 7 -4 3 -9z m107 -16 c3 -16 1 -25 -7 -25 -7 0 -12 11 -11 25 1 32
12 32 18 0z m61 11 c8 -20 -20 -43 -35 -28 -14 14 -3 42 16 42 7 0 16 -6 19
-14z m97 -5 c0 -11 -4 -23 -10 -26 -14 -9 -32 4 -24 17 4 6 10 5 15 -3 7 -11
9 -10 9 3 0 9 -6 19 -12 21 -8 3 -6 6 5 6 10 1 17 -6 17 -18z m56 8 c3 -6 -3
-21 -15 -32 l-21 -21 0 32 c0 32 21 45 36 21z m34 2 c0 -5 3 -16 6 -25 4 -10
1 -16 -7 -16 -8 0 -14 11 -14 25 0 14 3 25 8 25 4 0 7 -4 7 -9z m50 -34 c-10
-9 -11 -9 -6 0 3 6 2 14 -4 18 -6 4 -7 11 -4 17 4 7 10 4 16 -7 7 -12 6 -21
-2 -28z m66 31 c5 -8 2 -9 -9 -5 -11 4 -17 1 -17 -7 0 -8 6 -17 13 -19 9 -4 9
-6 0 -6 -16 -1 -26 17 -19 34 7 18 22 19 32 3z m38 4 c-6 -4 -14 -14 -17 -22
-4 -10 -6 -8 -6 8 -1 15 5 22 17 22 10 0 13 -3 6 -8z m60 -16 c-7 -18 -25 -17
-32 2 -2 7 2 10 12 6 10 -4 16 -1 16 7 0 7 2 10 5 7 3 -3 3 -13 -1 -22z m43
-6 c2 -11 -2 -20 -7 -20 -6 0 -10 12 -10 27 0 29 12 24 17 -7z m44 21 c-12 -8
-12 -12 -2 -25 8 -10 9 -16 3 -16 -6 0 -14 5 -17 10 -9 15 2 40 17 40 10 0 9
-3 -1 -9z m65 -3 c5 -8 2 -9 -9 -5 -11 4 -17 1 -17 -7 0 -8 6 -17 13 -19 9 -4
9 -6 0 -6 -16 -1 -26 17 -19 34 7 18 22 19 32 3z m39 3 c-3 -5 -1 -12 5 -16
12 -7 4 -25 -11 -25 -6 0 -8 4 -4 9 3 5 1 12 -5 16 -12 7 -4 25 11 25 6 0 8
-4 4 -9z m105 -1 c5 8 10 11 10 5 0 -5 -5 -17 -10 -25 -9 -13 -11 -13 -20 0
-5 8 -10 20 -10 25 0 6 5 3 10 -5 9 -13 11 -13 20 0z m145 1 c-3 -5 -1 -12 5
-16 6 -4 8 -11 5 -16 -11 -16 -20 -10 -21 16 -1 14 2 25 8 25 5 0 7 -4 3 -9z
m118 -5 c8 -20 -20 -43 -35 -28 -14 14 -3 42 16 42 7 0 16 -6 19 -14z m41 6
c-6 -4 -14 -14 -17 -22 -4 -10 -6 -8 -6 8 -1 15 5 22 17 22 10 0 13 -3 6 -8z
m56 -11 c0 -11 -4 -23 -10 -26 -14 -9 -32 4 -24 17 4 6 10 5 15 -3 7 -11 9
-10 9 3 0 9 -6 19 -12 21 -8 3 -6 6 5 6 10 1 17 -6 17 -18z m50 7 c-1 -13 -24
-48 -32 -48 -2 0 -3 14 0 30 4 29 32 44 32 18z m46 0 c5 -7 3 -8 -6 -3 -10 6
-12 3 -7 -14 4 -18 3 -20 -9 -10 -11 9 -12 15 -3 25 14 17 16 17 25 2z m201
-8 c1 -11 -3 -23 -9 -26 -6 -4 -8 -2 -4 4 3 6 2 13 -4 17 -6 4 -8 11 -5 16 10
15 21 10 22 -11z m102 -22 c1 -5 -3 -8 -9 -8 -5 0 -10 12 -9 28 0 24 1 25 9 7
5 -11 9 -23 9 -27z m58 26 c8 -21 -13 -42 -28 -27 -13 13 -5 43 11 43 6 0 13
-7 17 -16z m-2697 -6 c0 -9 4 -8 10 2 5 8 10 10 10 4 0 -5 -6 -17 -12 -25 -7
-8 -12 -12 -11 -10 1 2 -2 12 -8 22 -6 13 -6 19 1 19 5 0 10 -6 10 -12z m375
-28 c3 -5 1 -10 -4 -10 -6 0 -11 5 -11 10 0 6 2 10 4 10 3 0 8 -4 11 -10z
m1920 0 c3 -5 1 -10 -4 -10 -6 0 -11 5 -11 10 0 6 2 10 4 10 3 0 8 -4 11 -10z
m-2239 -81 c-9 -19 -15 -29 -16 -22 0 15 22 64 27 60 2 -2 -3 -19 -11 -38z
m356 6 c4 -39 -7 -49 -14 -12 -4 21 0 47 7 47 1 0 5 -16 7 -35z m961 -2 c5
-23 3 -33 -6 -33 -11 0 -13 11 -8 64 2 16 8 2 14 -31z m634 9 c10 8 17 8 26
-2 10 -10 9 -11 -2 -5 -11 6 -13 3 -9 -13 6 -23 -6 -30 -17 -12 -5 8 -11 7
-20 0 -20 -17 -35 -3 -35 31 l0 30 22 -20 c16 -16 25 -18 35 -9z m-2406 -16
c-14 -36 -22 -33 -9 5 6 16 12 28 14 26 3 -2 0 -16 -5 -31z m304 -1 c0 -14 -1
-25 -2 -25 -7 0 -20 45 -16 53 8 13 16 -1 18 -28z m610 0 c0 -14 0 -25 -2 -25
-8 0 -23 42 -17 51 9 15 17 3 19 -26z m150 0 c0 -14 -1 -25 -2 -25 -7 0 -20
45 -16 53 8 13 16 -1 18 -28z m251 18 c5 3 9 -5 9 -17 0 -33 -30 -22 -32 11
-1 17 2 21 7 13 4 -7 12 -10 16 -7z m62 -10 c-3 -32 -33 -39 -34 -8 -1 27 4
35 22 35 11 0 14 -8 12 -27z m240 -4 c-6 -16 -12 -28 -14 -26 -5 5 13 57 20
57 3 0 0 -14 -6 -31z m612 18 c0 -7 -7 -22 -15 -33 -13 -17 -13 -16 -3 14 13
34 18 40 18 19z m102 -17 c3 -19 0 -30 -7 -30 -6 0 -12 14 -12 30 0 17 4 30 8
30 3 0 9 -13 11 -30z m144 -5 c1 -14 1 -25 -2 -25 -8 0 -22 45 -17 53 8 13 16
0 19 -28z m106 5 c3 -17 0 -30 -6 -30 -6 0 -11 14 -11 30 0 17 3 30 6 30 4 0
9 -13 11 -30z m154 -16 c-7 -18 -22 -18 -30 1 -3 8 3 22 12 31 16 17 17 17 20
0 2 -9 1 -24 -2 -32z m649 11 c0 -14 -1 -25 -2 -25 -7 0 -20 45 -16 53 8 13
16 -1 18 -28z m155 15 c-6 -3 -8 -14 -4 -23 3 -9 3 -17 0 -17 -9 0 -25 43 -20
52 3 4 12 4 20 1 11 -4 12 -8 4 -13z m249 4 c4 3 7 -3 7 -13 0 -10 -6 -18 -13
-18 -8 0 -13 11 -12 26 0 14 3 20 6 13 2 -6 8 -10 12 -8z m63 -8 c3 -15 0 -27
-8 -30 -17 -6 -24 3 -24 31 0 31 26 30 32 -1z m-3782 3 c0 -5 -4 -8 -9 -4 -6
3 -14 -3 -20 -12 -9 -15 -10 -15 -11 -2 0 9 3 19 7 22 10 11 33 8 33 -4z m45
1 c3 -5 -1 -10 -9 -10 -19 0 -21 -16 -3 -23 9 -4 9 -6 0 -6 -16 -1 -26 17 -19
34 6 17 22 20 31 5z m52 -22 c0 -18 -2 -27 -5 -20 -3 10 -7 10 -18 1 -11 -9
-14 -7 -14 13 0 27 7 38 25 38 6 0 12 -14 12 -32z m43 1 c0 -10 -4 -19 -9 -19
-5 0 -8 11 -8 25 0 13 3 22 8 19 5 -3 9 -14 9 -25z m45 22 c-3 -5 -1 -12 5
-16 11 -7 4 -25 -10 -25 -5 0 -7 7 -4 15 4 8 1 15 -6 15 -6 0 -8 5 -5 10 3 6
11 10 16 10 6 0 8 -4 4 -9z m115 -1 c0 -5 -6 -9 -12 -7 -7 1 -12 -4 -10 -10 1
-7 -2 -13 -8 -13 -11 0 -14 23 -3 33 10 11 33 8 33 -3z m148 -18 c2 -14 -2
-22 -12 -22 -19 0 -30 17 -16 25 5 3 10 1 10 -6 0 -7 3 -9 6 -6 4 4 1 14 -7
23 -12 15 -12 17 1 12 8 -2 16 -14 18 -26z m55 13 c4 -8 2 -17 -4 -20 -5 -4
-8 -2 -7 3 2 6 -1 10 -7 11 -5 0 -9 -9 -7 -19 2 -11 -2 -20 -7 -20 -12 0 -15
43 -4 53 11 12 31 8 36 -8z m39 -10 c3 -15 1 -25 -6 -25 -6 0 -11 11 -11 25 0
14 3 25 6 25 4 0 9 -11 11 -25z m52 17 c-6 -4 -14 -14 -17 -22 -4 -10 -6 -8
-6 8 -1 15 5 22 17 22 10 0 13 -3 6 -8z m62 -4 c5 -8 2 -9 -11 -5 -14 6 -16 3
-12 -13 4 -18 3 -19 -9 -9 -11 9 -12 15 -3 25 14 17 26 18 35 2z m44 0 c0 -7
-7 -22 -15 -32 -14 -19 -15 -18 -15 12 0 22 5 32 15 32 8 0 15 -6 15 -12z m97
-8 c1 -11 -3 -23 -9 -26 -6 -4 -8 -2 -4 4 3 6 2 13 -4 17 -6 4 -8 11 -5 16 10
15 21 10 22 -11z m109 8 c4 -6 3 -8 -4 -4 -6 3 -15 -2 -21 -11 -9 -16 -10 -16
-11 5 0 23 24 31 36 10z m49 -14 c0 -22 -26 -26 -32 -4 -4 13 -3 13 7 0 10
-12 11 -11 7 8 -4 15 -1 22 6 19 7 -2 12 -12 12 -23z m90 16 c3 -5 1 -10 -4
-10 -6 0 -11 5 -11 10 0 6 2 10 4 10 3 0 8 -4 11 -10z m62 -6 c8 -21 -13 -42
-28 -27 -13 13 -5 43 11 43 6 0 13 -7 17 -16z m50 -9 c3 -20 3 -20 -5 0 -9 19
-9 19 -20 0 -11 -19 -11 -19 -12 3 0 30 34 27 37 -3z m188 16 c-3 -5 -1 -12 5
-16 6 -4 8 -11 5 -16 -11 -16 -20 -10 -21 16 -1 14 2 25 8 25 5 0 7 -4 3 -9z
m107 -16 c3 -15 1 -25 -6 -25 -6 0 -11 11 -11 25 0 14 3 25 6 25 4 0 9 -11 11
-25z m61 11 c8 -20 -20 -43 -35 -28 -14 14 -3 42 16 42 7 0 16 -6 19 -14z m97
-11 c0 -15 -6 -25 -14 -25 -19 0 -29 17 -16 25 5 3 10 1 10 -6 0 -7 3 -9 6 -6
4 4 1 13 -6 22 -10 12 -10 15 4 15 10 0 16 -9 16 -25z m56 14 c3 -6 -3 -21
-15 -32 l-21 -21 0 32 c0 32 21 45 36 21z m91 -9 c1 -11 -3 -23 -9 -26 -6 -4
-8 -2 -4 4 3 6 2 13 -4 17 -6 4 -8 11 -5 16 10 15 21 10 22 -11z m59 8 c5 -8
2 -9 -11 -5 -14 6 -16 3 -12 -14 4 -16 3 -19 -5 -11 -12 12 -4 42 11 42 5 0
13 -5 17 -12z m50 0 c4 -6 3 -8 -4 -4 -6 3 -15 -2 -21 -11 -9 -16 -10 -16 -11
5 0 23 24 31 36 10z m48 -12 c-7 -18 -25 -17 -32 2 -2 7 2 10 12 6 10 -4 16
-1 16 7 0 7 2 10 5 7 3 -3 3 -13 -1 -22z m43 -6 c2 -11 -2 -20 -7 -20 -6 0
-10 12 -10 27 0 29 12 24 17 -7z m44 21 c-12 -8 -12 -12 -2 -25 8 -10 9 -16 3
-16 -6 0 -14 5 -17 10 -9 15 2 40 17 40 10 0 9 -3 -1 -9z m64 -1 c3 -5 -1 -10
-9 -10 -19 0 -21 -16 -3 -23 9 -4 9 -6 0 -6 -16 -1 -26 17 -19 34 6 17 22 20
31 5z m40 1 c-3 -5 -1 -12 5 -16 12 -7 4 -25 -11 -25 -6 0 -8 4 -4 9 3 5 1 12
-5 16 -12 7 -4 25 11 25 6 0 8 -4 4 -9z m362 -7 c8 -21 -13 -42 -28 -27 -8 8
-8 13 0 17 6 4 11 2 11 -5 0 -7 3 -9 6 -6 4 4 1 13 -6 22 -9 11 -9 15 -1 15 6
0 14 -7 18 -16z m153 -9 c0 -16 -6 -25 -15 -25 -16 0 -19 9 -9 34 9 25 24 19
24 -9z m108 0 c3 -17 1 -17 -7 -5 -10 13 -11 13 -11 0 0 -13 -1 -13 -10 0 -15
22 -12 32 7 28 10 -2 19 -12 21 -23z m41 -17 c1 -5 -3 -8 -9 -8 -5 0 -10 12
-9 28 0 24 1 25 9 7 5 -11 9 -23 9 -27z m48 22 c1 -11 -3 -23 -9 -26 -6 -4 -8
-2 -4 4 3 6 2 13 -4 17 -6 4 -8 11 -5 16 10 15 21 10 22 -11z m50 0 c1 -11 -3
-23 -9 -26 -6 -4 -8 -2 -4 4 3 6 2 13 -4 17 -6 4 -8 11 -5 16 10 15 21 10 22
-11z m52 -22 c1 -5 -3 -8 -9 -8 -5 0 -10 12 -9 28 0 24 1 25 9 7 5 -11 9 -23
9 -27z m58 26 c9 -23 -13 -40 -32 -24 -12 10 -13 16 -4 26 15 18 28 18 36 -2z
m50 -9 c1 -16 1 -16 -3 -2 -3 9 -9 17 -14 17 -5 0 -11 -8 -13 -17 -3 -13 -5
-12 -6 5 -1 30 33 27 36 -3z m31 5 c-14 -22 -24 -19 -15 5 4 8 11 15 17 15 6
0 6 -7 -2 -20z m67 10 c3 -5 -1 -10 -9 -10 -19 0 -21 -16 -3 -23 9 -4 9 -6 0
-6 -16 -1 -26 17 -19 34 6 17 22 20 31 5z m55 3 c0 -5 -9 -19 -20 -33 l-20
-25 0 26 c0 14 3 29 7 32 9 9 33 9 33 0z m40 -24 c0 -10 -4 -19 -9 -19 -5 0
-8 11 -8 25 0 13 3 22 8 19 5 -3 9 -14 9 -25z m45 22 c-3 -5 -1 -12 5 -16 11
-7 4 -25 -10 -25 -5 0 -7 7 -4 15 4 8 1 15 -6 15 -6 0 -8 5 -5 10 3 6 11 10
16 10 6 0 8 -4 4 -9z m115 1 c0 -4 -9 -8 -20 -9 -11 -1 -18 2 -15 8 7 11 35
12 35 1z m48 -20 c4 -24 -21 -31 -34 -10 -5 8 -2 9 9 5 20 -8 22 4 5 22 -11
11 -10 13 2 9 8 -3 16 -14 18 -26z m94 3 c3 -15 1 -25 -6 -25 -6 0 -11 11 -11
25 0 14 3 25 6 25 4 0 9 -11 11 -25z m53 15 c4 -6 3 -9 -2 -8 -4 2 -9 -1 -9
-7 -1 -5 3 -9 10 -7 7 2 7 -1 -1 -9 -17 -17 -38 3 -30 25 7 18 23 21 32 6z
m54 -12 c-1 -18 -2 -19 -6 -5 -2 9 -9 15 -14 11 -5 -3 -7 -10 -4 -15 4 -5 1
-9 -4 -9 -12 0 -15 23 -4 33 14 15 33 6 32 -15z m198 2 c1 -11 -3 -23 -9 -26
-6 -4 -8 -2 -4 4 3 6 2 13 -4 17 -6 4 -8 11 -5 16 10 15 21 10 22 -11z m102
-22 c1 -5 -3 -8 -9 -8 -5 0 -10 12 -9 28 0 24 1 25 9 7 5 -11 9 -23 9 -27z
m58 26 c9 -23 -13 -40 -32 -24 -12 10 -13 16 -4 26 15 18 28 18 36 -2z m-3657
-6 c0 -9 4 -8 10 2 5 8 10 10 10 4 0 -5 -6 -17 -12 -25 -7 -8 -12 -12 -11 -10
1 2 -2 12 -8 22 -6 13 -6 19 1 19 5 0 10 -6 10 -12z m1883 -5 c-3 -7 -9 -13
-13 -13 -4 0 -10 6 -13 13 -3 7 3 13 13 13 10 0 16 -6 13 -13z m-1163 -13 c0
-5 -4 -10 -10 -10 -5 0 -10 5 -10 10 0 6 5 10 10 10 6 0 10 -4 10 -10z m-345
-10 c3 -5 1 -10 -4 -10 -6 0 -11 5 -11 10 0 6 2 10 4 10 3 0 8 -4 11 -10z"/>
<path d="M2480 2820 c0 -5 5 -10 10 -10 6 0 10 5 10 10 0 6 -4 10 -10 10 -5 0
-10 -4 -10 -10z"/>
<path d="M3825 2820 c4 -6 11 -8 16 -5 14 9 11 15 -7 15 -8 0 -12 -5 -9 -10z"/>
<path d="M1525 2640 c3 -5 8 -10 11 -10 2 0 4 5 4 10 0 6 -5 10 -11 10 -5 0
-7 -4 -4 -10z"/>
<path d="M716 2651 c-4 -5 -2 -12 3 -15 5 -4 12 -2 15 3 4 5 2 12 -3 15 -5 4
-12 2 -15 -3z"/>
<path d="M1320 2645 c0 -8 5 -15 10 -15 6 0 10 7 10 15 0 8 -4 15 -10 15 -5 0
-10 -7 -10 -15z"/>
<path d="M1726 2651 c-4 -5 -2 -12 3 -15 5 -4 12 -2 15 3 4 5 2 12 -3 15 -5 4
-12 2 -15 -3z"/>
<path d="M1880 2644 c0 -8 5 -12 10 -9 6 4 8 11 5 16 -9 14 -15 11 -15 -7z"/>
<path d="M1525 2530 c3 -5 8 -10 11 -10 2 0 4 5 4 10 0 6 -5 10 -11 10 -5 0
-7 -4 -4 -10z"/>
<path d="M716 2541 c-4 -5 -2 -12 3 -15 5 -4 12 -2 15 3 4 5 2 12 -3 15 -5 4
-12 2 -15 -3z"/>
<path d="M1320 2535 c0 -8 5 -15 10 -15 6 0 10 7 10 15 0 8 -4 15 -10 15 -5 0
-10 -7 -10 -15z"/>
<path d="M1726 2541 c-4 -5 -2 -12 3 -15 5 -4 12 -2 15 3 4 5 2 12 -3 15 -5 4
-12 2 -15 -3z"/>
<path d="M1880 2534 c0 -8 5 -12 10 -9 6 4 8 11 5 16 -9 14 -15 11 -15 -7z"/>
<path d="M2635 2541 c-3 -5 -1 -12 5 -16 5 -3 10 1 10 9 0 18 -6 21 -15 7z"/>
<path d="M2685 2541 c-3 -5 -1 -12 5 -16 5 -3 10 1 10 9 0 18 -6 21 -15 7z"/>
<path d="M1520 2420 c0 -5 5 -10 10 -10 6 0 10 5 10 10 0 6 -4 10 -10 10 -5 0
-10 -4 -10 -10z"/>
<path d="M3390 2420 c0 -5 5 -10 10 -10 6 0 10 5 10 10 0 6 -4 10 -10 10 -5 0
-10 -4 -10 -10z"/>
<path d="M1320 2425 c0 -8 5 -15 10 -15 6 0 10 7 10 15 0 8 -4 15 -10 15 -5 0
-10 -7 -10 -15z"/>
<path d="M1726 2431 c-4 -5 -2 -12 3 -15 5 -4 12 -2 15 3 4 5 2 12 -3 15 -5 4
-12 2 -15 -3z"/>
<path d="M1880 2424 c0 -8 5 -12 10 -9 6 4 8 11 5 16 -9 14 -15 11 -15 -7z"/>
<path d="M3190 2424 c0 -8 5 -12 10 -9 6 3 10 10 10 16 0 5 -4 9 -10 9 -5 0
-10 -7 -10 -16z"/>
<path d="M3590 2431 c0 -6 5 -13 10 -16 6 -3 10 1 10 9 0 9 -4 16 -10 16 -5 0
-10 -4 -10 -9z"/>
<path d="M1520 2310 c0 -5 5 -10 10 -10 6 0 10 5 10 10 0 6 -4 10 -10 10 -5 0
-10 -4 -10 -10z"/>
<path d="M3340 2310 c0 -5 5 -10 10 -10 6 0 10 5 10 10 0 6 -4 10 -10 10 -5 0
-10 -4 -10 -10z"/>
<path d="M716 2321 c-4 -5 -2 -12 3 -15 5 -4 12 -2 15 3 4 5 2 12 -3 15 -5 4
-12 2 -15 -3z"/>
<path d="M1320 2315 c0 -8 5 -15 10 -15 6 0 10 7 10 15 0 8 -4 15 -10 15 -5 0
-10 -7 -10 -15z"/>
<path d="M1726 2321 c-4 -5 -2 -12 3 -15 5 -4 12 -2 15 3 4 5 2 12 -3 15 -5 4
-12 2 -15 -3z"/>
<path d="M1880 2314 c0 -8 5 -12 10 -9 6 4 8 11 5 16 -9 14 -15 11 -15 -7z"/>
<path d="M2786 2321 c-4 -5 -2 -12 3 -15 5 -4 12 -2 15 3 4 5 2 12 -3 15 -5 4
-12 2 -15 -3z"/>
<path d="M3140 2314 c0 -8 5 -12 10 -9 6 3 10 10 10 16 0 5 -4 9 -10 9 -5 0
-10 -7 -10 -16z"/>
<path d="M3540 2315 c0 -8 5 -15 10 -15 6 0 10 7 10 15 0 8 -4 15 -10 15 -5 0
-10 -7 -10 -15z"/>
<path d="M1525 2200 c3 -5 8 -10 11 -10 2 0 4 5 4 10 0 6 -5 10 -11 10 -5 0
-7 -4 -4 -10z"/>
<path d="M716 2211 c-4 -5 -2 -12 3 -15 5 -4 12 -2 15 3 4 5 2 12 -3 15 -5 4
-12 2 -15 -3z"/>
<path d="M1320 2205 c0 -8 5 -15 10 -15 6 0 10 7 10 15 0 8 -4 15 -10 15 -5 0
-10 -7 -10 -15z"/>
<path d="M1726 2211 c-4 -5 -2 -12 3 -15 5 -4 12 -2 15 3 4 5 2 12 -3 15 -5 4
-12 2 -15 -3z"/>
<path d="M1880 2204 c0 -8 5 -12 10 -9 6 4 8 11 5 16 -9 14 -15 11 -15 -7z"/>
<path d="M2732 2211 c4 -13 18 -16 19 -4 0 4 -5 9 -11 12 -7 2 -11 -2 -8 -8z"/>
<path d="M1520 2090 c0 -5 5 -10 10 -10 6 0 10 5 10 10 0 6 -4 10 -10 10 -5 0
-10 -4 -10 -10z"/>
<path d="M2585 2101 c-3 -5 -1 -12 5 -16 5 -3 10 1 10 9 0 18 -6 21 -15 7z"/>
<path d="M716 2101 c-4 -5 -2 -12 3 -15 5 -4 12 -2 15 3 4 5 2 12 -3 15 -5 4
-12 2 -15 -3z"/>
<path d="M1320 2095 c0 -8 5 -15 10 -15 6 0 10 7 10 15 0 8 -4 15 -10 15 -5 0
-10 -7 -10 -15z"/>
<path d="M1726 2101 c-4 -5 -2 -12 3 -15 5 -4 12 -2 15 3 4 5 2 12 -3 15 -5 4
-12 2 -15 -3z"/>
<path d="M1880 2094 c0 -8 5 -12 10 -9 6 4 8 11 5 16 -9 14 -15 11 -15 -7z"/>
<path d="M1520 1980 c0 -5 5 -10 10 -10 6 0 10 5 10 10 0 6 -4 10 -10 10 -5 0
-10 -4 -10 -10z"/>
<path d="M1320 1985 c0 -8 5 -15 10 -15 6 0 10 7 10 15 0 8 -4 15 -10 15 -5 0
-10 -7 -10 -15z"/>
<path d="M1726 1991 c-4 -5 -2 -12 3 -15 5 -4 12 -2 15 3 4 5 2 12 -3 15 -5 4
-12 2 -15 -3z"/>
<path d="M1880 1984 c0 -8 5 -12 10 -9 6 4 8 11 5 16 -9 14 -15 11 -15 -7z"/>
<path d="M2786 1991 c-4 -5 -2 -12 3 -15 5 -4 12 -2 15 3 4 5 2 12 -3 15 -5 4
-12 2 -15 -3z"/>
<path d="M3390 1985 c0 -8 5 -15 10 -15 6 0 10 7 10 15 0 8 -4 15 -10 15 -5 0
-10 -7 -10 -15z"/>
<path d="M3036 1881 c-4 -5 -2 -12 3 -15 5 -4 12 -2 15 3 4 5 2 12 -3 15 -5 4
-12 2 -15 -3z"/>
<path d="M1520 1870 c0 -5 5 -10 10 -10 6 0 10 5 10 10 0 6 -4 10 -10 10 -5 0
-10 -4 -10 -10z"/>
<path d="M2635 1881 c-3 -5 -1 -12 5 -16 5 -3 10 1 10 9 0 18 -6 21 -15 7z"/>
<path d="M3595 1870 c3 -5 8 -10 11 -10 2 0 4 5 4 10 0 6 -5 10 -11 10 -5 0
-7 -4 -4 -10z"/>
<path d="M716 1881 c-4 -5 -2 -12 3 -15 5 -4 12 -2 15 3 4 5 2 12 -3 15 -5 4
-12 2 -15 -3z"/>
<path d="M1320 1875 c0 -8 5 -15 10 -15 6 0 10 7 10 15 0 8 -4 15 -10 15 -5 0
-10 -7 -10 -15z"/>
<path d="M1726 1881 c-4 -5 -2 -12 3 -15 5 -4 12 -2 15 3 4 5 2 12 -3 15 -5 4
-12 2 -15 -3z"/>
<path d="M1880 1874 c0 -8 5 -12 10 -9 6 4 8 11 5 16 -9 14 -15 11 -15 -7z"/>
<path d="M3390 1875 c0 -8 5 -15 10 -15 6 0 10 7 10 15 0 8 -4 15 -10 15 -5 0
-10 -7 -10 -15z"/>
<path d="M3796 1881 c-4 -5 -2 -12 3 -15 5 -4 12 -2 15 3 4 5 2 12 -3 15 -5 4
-12 2 -15 -3z"/>
<path d="M1520 1760 c0 -5 5 -10 10 -10 6 0 10 5 10 10 0 6 -4 10 -10 10 -5 0
-10 -4 -10 -10z"/>
<path d="M1320 1765 c0 -8 5 -15 10 -15 6 0 10 7 10 15 0 8 -4 15 -10 15 -5 0
-10 -7 -10 -15z"/>
<path d="M1726 1771 c-4 -5 -2 -12 3 -15 5 -4 12 -2 15 3 4 5 2 12 -3 15 -5 4
-12 2 -15 -3z"/>
<path d="M1880 1764 c0 -8 5 -12 10 -9 6 4 8 11 5 16 -9 14 -15 11 -15 -7z"/>
<path d="M2680 1771 c0 -6 5 -13 10 -16 6 -3 10 1 10 9 0 9 -4 16 -10 16 -5 0
-10 -4 -10 -9z"/>
<path d="M3240 1764 c0 -8 5 -12 10 -9 6 3 10 10 10 16 0 5 -4 9 -10 9 -5 0
-10 -7 -10 -16z"/>
<path d="M2536 1661 c-4 -7 -5 -15 -2 -18 9 -9 19 4 14 18 -4 11 -6 11 -12 0z"/>
<path d="M1525 1650 c-3 -5 -1 -10 4 -10 6 0 11 5 11 10 0 6 -2 10 -4 10 -3 0
-8 -4 -11 -10z"/>
<path d="M2885 1661 c-3 -5 -1 -12 5 -16 5 -3 10 1 10 9 0 18 -6 21 -15 7z"/>
<path d="M1320 1655 c0 -8 5 -15 10 -15 6 0 10 7 10 15 0 8 -4 15 -10 15 -5 0
-10 -7 -10 -15z"/>
<path d="M1726 1661 c-4 -5 -2 -12 3 -15 5 -4 12 -2 15 3 4 5 2 12 -3 15 -5 4
-12 2 -15 -3z"/>
<path d="M1880 1654 c0 -8 5 -12 10 -9 6 4 8 11 5 16 -9 14 -15 11 -15 -7z"/>
<path d="M3190 1654 c0 -8 5 -12 10 -9 6 3 10 10 10 16 0 5 -4 9 -10 9 -5 0
-10 -7 -10 -16z"/>
<path d="M4200 1655 c0 -8 5 -15 10 -15 6 0 10 7 10 15 0 8 -4 15 -10 15 -5 0
-10 -7 -10 -15z"/>
<path d="M5984 2335 c0 -104 2 -146 3 -92 2 54 2 139 0 190 -1 51 -3 7 -3 -98z"/>
<path d="M4797 2454 c-4 -4 -6 -26 -6 -48 1 -23 3 -33 6 -23 2 9 7 17 10 17 4
0 15 -8 26 -17 12 -11 17 -12 12 -4 -4 8 -8 28 -9 45 -1 30 -23 46 -39 30z
m28 -34 c-5 -8 -11 -8 -17 -2 -6 6 -7 16 -3 22 5 8 11 8 17 2 6 -6 7 -16 3
-22z"/>
<path d="M5260 2447 c0 -8 -9 -17 -20 -20 -14 -3 -20 -14 -20 -31 0 -21 5 -26
24 -26 21 0 24 6 28 41 2 22 0 43 -4 45 -4 3 -8 -1 -8 -9z m0 -47 c0 -11 -7
-20 -15 -20 -15 0 -21 21 -8 33 12 13 23 7 23 -13z"/>
<path d="M5810 2447 c0 -7 -10 -17 -22 -22 -26 -11 -31 -46 -8 -53 13 -5 13
-3 1 12 -10 12 -11 20 -3 28 15 15 35 -1 29 -23 -3 -11 -1 -19 4 -19 5 0 9 20
9 45 0 25 -2 45 -5 45 -3 0 -5 -6 -5 -13z"/>
<path d="M5443 2410 c0 -25 2 -35 4 -22 2 12 2 32 0 45 -2 12 -4 2 -4 -23z"/>
<path d="M5393 2419 c4 -13 7 -30 7 -36 0 -7 3 -13 8 -13 13 0 6 64 -8 68 -9
3 -11 -2 -7 -19z"/>
<path d="M5668 2435 c-6 -7 3 -65 11 -65 7 0 7 58 -1 65 -2 3 -7 3 -10 0z"/>
<path d="M4861 2410 c-1 -35 17 -52 41 -39 19 10 25 49 8 49 -5 0 -10 -9 -10
-21 0 -28 -23 -19 -31 12 l-7 24 -1 -25z"/>
<path d="M4968 2400 c2 -16 8 -30 13 -30 10 0 12 21 3 44 -10 27 -21 18 -16
-14z"/>
<path d="M5042 2400 c0 -19 2 -27 5 -17 2 9 2 25 0 35 -3 9 -5 1 -5 -18z"/>
<path d="M5071 2396 c1 -27 2 -28 7 -8 4 13 12 23 17 23 6 0 13 -10 17 -23 6
-19 7 -18 5 7 -2 23 -7 30 -24 31 -19 1 -23 -4 -22 -30z"/>
<path d="M5145 2420 c-3 -5 0 -19 8 -31 9 -12 18 -16 21 -10 4 5 -2 14 -11 20
-16 9 -16 12 -3 21 9 6 10 10 3 10 -6 0 -15 -4 -18 -10z"/>
<path d="M5300 2415 c-17 -21 -5 -45 22 -44 22 2 22 2 2 6 -16 3 -20 9 -17 24
3 10 10 19 15 19 6 0 8 -7 5 -14 -4 -10 -1 -13 9 -9 11 4 12 9 3 19 -15 18
-24 18 -39 -1z"/>
<path d="M5466 2419 c7 -8 14 -23 17 -34 4 -13 5 -9 4 9 -1 16 -9 32 -17 34
-12 4 -13 2 -4 -9z"/>
<path d="M5510 2415 c-17 -21 -5 -45 22 -44 17 1 18 2 6 6 -19 5 -25 43 -7 43
6 0 9 -7 6 -14 -4 -10 -1 -13 9 -9 11 4 12 9 3 19 -15 18 -24 18 -39 -1z"/>
<path d="M5610 2415 c-16 -19 -6 -45 17 -44 15 1 16 2 2 6 -18 4 -15 43 3 43
6 0 7 -8 3 -17 -5 -14 -3 -15 6 -6 11 11 5 33 -10 33 -5 0 -14 -7 -21 -15z"/>
<path d="M5710 2411 c-12 -23 14 -56 33 -44 8 5 6 9 -5 11 -10 2 -18 10 -18
17 0 8 8 19 18 24 16 10 16 10 0 11 -10 0 -22 -9 -28 -19z"/>
<path d="M4930 2395 c0 -14 4 -25 9 -25 5 0 9 11 9 25 0 14 -4 25 -9 25 -5 0
-9 -11 -9 -25z"/>
<path d="M5192 2395 c0 -16 2 -22 5 -12 2 9 2 23 0 30 -3 6 -5 -1 -5 -18z"/>
<path d="M5421 2263 c1 -26 3 -40 6 -31 2 9 13 20 24 23 28 9 21 49 -8 53 -21
3 -23 0 -22 -45z m34 19 c0 -18 -20 -15 -23 4 -3 10 1 15 10 12 7 -3 13 -10
13 -16z"/>
<path d="M5496 2294 c-33 -32 -10 -79 36 -72 17 2 24 11 26 31 6 49 -30 73
-62 41z m52 -27 c4 -33 -22 -47 -45 -25 -12 13 -13 20 -3 37 15 30 44 23 48
-12z"/>
<path d="M5580 2265 c0 -40 2 -45 23 -45 29 0 47 18 47 45 0 27 -18 45 -47 45
-21 0 -23 -5 -23 -45z m53 13 c14 -22 1 -48 -23 -48 -15 0 -20 7 -20 28 0 44
22 54 43 20z"/>
<path d="M5233 2276 c4 -10 7 -26 7 -37 0 -10 3 -19 8 -19 13 0 6 64 -8 68 -9
3 -11 -1 -7 -12z"/>
<path d="M5011 2247 c1 -29 2 -30 8 -8 10 36 31 38 32 4 1 -27 1 -27 8 -4 9
34 29 37 34 6 4 -25 4 -25 3 2 -1 25 -5 27 -43 30 -42 3 -43 2 -42 -30z"/>
<path d="M5130 2272 c17 -8 26 -42 10 -42 -5 0 -10 5 -10 11 0 5 -5 7 -10 4
-15 -9 -2 -25 21 -25 14 0 19 7 19 30 0 25 -4 30 -22 29 -17 0 -19 -2 -8 -7z"/>
<path d="M5184 2269 c-3 -6 0 -15 7 -20 12 -8 12 -11 -1 -19 -13 -8 -13 -10 2
-10 24 0 30 16 12 30 -12 11 -12 15 -2 21 9 6 9 9 1 9 -6 0 -15 -5 -19 -11z"/>
<path d="M5275 2260 c-8 -27 1 -40 28 -39 17 1 18 2 5 6 -22 5 -24 23 -3 23 8
0 15 7 15 15 0 22 -38 18 -45 -5z"/>
<path d="M5341 2248 c1 -22 3 -26 6 -13 3 11 10 26 15 33 8 9 6 12 -6 12 -12
0 -16 -9 -15 -32z"/>
<path d="M1426 1323 c-273 -3 -362 -6 -368 -16 -12 -19 -9 -122 4 -135 17 -17
729 -17 746 0 18 18 15 123 -4 142 -8 9 -16 15 -17 14 -1 -2 -164 -4 -361 -5z
m-61 -43 c3 -5 1 -10 -4 -10 -6 0 -11 5 -11 10 0 6 2 10 4 10 3 0 8 -4 11 -10z
m80 0 c3 -5 1 -10 -4 -10 -6 0 -11 5 -11 10 0 6 2 10 4 10 3 0 8 -4 11 -10z
m-104 -32 c0 -10 2 -10 6 0 2 6 20 12 39 12 20 0 34 -5 34 -12 0 -8 3 -9 8 -3
4 6 45 11 92 12 47 0 79 -1 72 -4 -10 -4 -10 -8 -1 -20 10 -11 10 -16 0 -23
-21 -12 -50 0 -54 24 -3 20 -4 20 -15 -4 -6 -14 -11 -21 -11 -17 -1 4 -10 3
-20 -3 -11 -5 -22 -6 -25 -1 -3 4 -16 7 -30 6 -17 -2 -26 3 -31 18 l-8 22 -4
-22 c-6 -29 -62 -34 -64 -5 -1 16 -2 16 -6 0 -2 -10 -9 -18 -14 -18 -5 0 -10
8 -10 18 -1 16 -2 16 -6 0 -7 -27 -23 -22 -23 7 0 22 4 25 35 25 21 0 35 -5
36 -12z"/>
<path d="M1470 1234 c0 -8 5 -12 10 -9 6 4 8 11 5 16 -9 14 -15 11 -15 -7z"/>
<path d="M1560 1230 c0 -5 5 -10 11 -10 5 0 7 5 4 10 -3 6 -8 10 -11 10 -2 0
-4 -4 -4 -10z"/>
<path d="M87 1313 c-12 -12 -8 -198 5 -211 16 -16 700 -17 729 -2 17 9 19 22
19 103 0 59 -4 97 -12 105 -9 9 -106 12 -373 12 -199 0 -365 -3 -368 -7z m232
-72 c8 -5 11 -16 7 -29 -4 -11 -2 -23 4 -27 5 -3 10 2 10 13 0 23 23 35 38 20
8 -8 15 -8 24 0 22 18 40 -2 36 -39 -2 -26 -8 -35 -25 -37 -13 -2 -23 1 -23 7
0 6 5 11 11 11 8 0 7 5 -2 16 -11 13 -14 13 -21 1 -8 -16 -42 -13 -65 6 -9 6
-13 6 -13 -2 0 -6 -4 -11 -10 -11 -11 0 -14 63 -3 73 8 9 15 9 32 -2z m151 -1
c0 -5 -4 -10 -10 -10 -5 0 -10 5 -10 10 0 6 5 10 10 10 6 0 10 -4 10 -10z m98
-16 c14 5 24 1 30 -10 6 -11 11 -13 16 -5 4 6 11 11 16 11 11 0 -8 -49 -27
-70 -12 -13 -13 -12 -12 5 4 35 -1 55 -11 55 -5 0 -10 -9 -10 -19 0 -20 -25
-35 -41 -25 -5 3 -9 14 -9 25 0 10 -4 19 -8 19 -5 0 -8 -10 -8 -21 1 -12 -5
-24 -13 -27 -10 -3 -12 0 -8 11 3 9 2 19 -3 22 -6 4 -10 -1 -10 -9 0 -9 -4
-16 -10 -16 -5 0 -10 12 -10 26 0 19 4 25 15 21 8 -4 17 -2 20 3 3 5 12 7 19
4 8 -3 17 0 21 6 6 9 9 9 15 0 4 -7 16 -9 28 -6z"/>
<path d="M410 1194 c0 -8 5 -12 10 -9 6 4 8 11 5 16 -9 14 -15 11 -15 -7z"/>
<path d="M541 1194 c0 -11 3 -14 6 -6 3 7 2 16 -1 19 -3 4 -6 -2 -5 -13z"/>
<path d="M1062 1088 c-12 -12 -17 -104 -6 -132 5 -14 48 -16 379 -16 331 0
374 2 379 16 11 28 6 120 -6 132 -17 17 -729 17 -746 0z m428 -67 l0 -40 -42
1 c-24 1 -48 5 -54 10 -6 4 -20 -1 -32 -12 -29 -27 -32 -26 -32 20 0 33 3 40
19 40 11 0 23 -5 26 -10 4 -7 11 -7 18 -2 7 5 28 9 46 9 19 0 37 5 39 11 7 23
12 12 12 -27z m43 -3 c7 -25 1 -38 -18 -38 -9 0 -13 9 -11 28 4 33 4 32 15 32
5 0 11 -10 14 -22z"/>
<path d="M1350 1010 c0 -5 5 -10 10 -10 6 0 10 5 10 10 0 6 -4 10 -10 10 -5 0
-10 -4 -10 -10z"/>
<path d="M1400 1010 c0 -5 5 -10 10 -10 6 0 10 5 10 10 0 6 -4 10 -10 10 -5 0
-10 -4 -10 -10z"/>
<path d="M1460 1009 c0 -5 5 -7 10 -4 6 3 10 8 10 11 0 2 -4 4 -10 4 -5 0 -10
-5 -10 -11z"/>
<path d="M1062 868 c-12 -12 -17 -104 -6 -132 5 -14 48 -16 379 -16 331 0 374
2 379 16 11 28 6 120 -6 132 -17 17 -729 17 -746 0z m308 -44 c0 -8 5 -12 10
-9 6 3 10 1 10 -6 0 -10 3 -10 12 -1 15 15 38 16 38 2 0 -5 -7 -10 -15 -10 -8
0 -15 -4 -15 -10 0 -18 32 -10 37 9 3 14 14 18 43 18 31 0 37 -3 33 -16 -4
-12 -2 -11 9 3 9 12 22 17 31 13 9 -3 19 -2 22 4 4 5 12 6 18 2 7 -4 20 -6 29
-5 13 2 16 -4 15 -25 -2 -22 -8 -29 -30 -31 -22 -3 -27 1 -28 20 0 21 -1 22
-8 3 -7 -17 -18 -20 -87 -21 -43 -1 -85 3 -91 8 -9 7 -13 7 -13 0 0 -11 -18
-11 -37 1 -8 5 -13 4 -13 -2 0 -6 -7 -11 -15 -11 -8 0 -15 -5 -15 -11 0 -5 -4
-8 -10 -4 -5 3 -6 13 -3 23 6 15 5 15 -11 2 -16 -13 -20 -12 -36 8 l-19 22 -4
-22 c-3 -20 -4 -21 -11 -5 -16 34 -1 44 68 43 47 -1 66 3 66 12 0 6 5 12 10
12 6 0 10 -7 10 -16z"/>
<path d="M1310 790 c0 -5 5 -10 10 -10 6 0 10 5 10 10 0 6 -4 10 -10 10 -5 0
-10 -4 -10 -10z"/>
<path d="M1605 790 c3 -5 11 -10 16 -10 6 0 7 5 4 10 -3 6 -11 10 -16 10 -6 0
-7 -4 -4 -10z"/>
<path d="M1062 648 c-12 -12 -17 -104 -6 -132 5 -14 48 -16 379 -16 331 0 374
2 379 16 11 28 6 120 -6 132 -17 17 -729 17 -746 0z m148 -49 c0 -18 2 -19 15
-9 11 9 19 9 28 2 7 -6 18 -7 26 -2 8 4 20 6 28 3 7 -3 13 2 13 11 0 9 5 16
10 16 6 0 10 -10 10 -21 0 -16 3 -19 13 -11 15 13 67 4 67 -12 0 -7 3 -7 8 1
10 16 73 23 90 10 8 -6 17 -5 26 2 10 8 16 9 21 1 4 -7 12 -7 25 0 10 5 26 7
34 4 9 -4 16 -1 16 6 0 9 3 10 14 1 7 -6 20 -9 29 -5 8 3 18 1 22 -5 3 -6 1
-11 -6 -11 -8 0 -9 -3 0 -13 14 -18 4 -27 -31 -27 -22 0 -28 5 -29 23 -1 21
-1 21 -9 -3 l-7 -25 -11 25 c-10 24 -11 24 -11 3 -1 -24 -21 -33 -21 -10 0 8
-2 9 -8 1 -4 -7 -19 -12 -34 -12 -21 0 -28 6 -29 22 -2 20 -2 20 -6 -1 -2 -13
-9 -23 -14 -23 -5 0 -10 10 -10 23 l-2 22 -4 -22 c-5 -27 -23 -31 -23 -5 -1
12 -5 9 -16 -10 -8 -16 -18 -28 -23 -28 -4 0 -6 12 -3 28 4 25 3 25 -10 9 -10
-13 -23 -17 -51 -14 -24 3 -43 -1 -52 -9 -19 -19 -25 -17 -26 9 0 12 -3 16 -6
10 -2 -7 -13 -13 -24 -13 -10 0 -19 6 -19 13 0 9 -3 9 -9 -1 -11 -18 -45 -11
-49 10 -3 16 25 55 41 57 4 1 7 -9 7 -20z"/>
<path d="M1175 571 c-3 -5 -1 -12 5 -16 5 -3 10 1 10 9 0 18 -6 21 -15 7z"/>
<path d="M1285 571 c-3 -5 -1 -12 5 -16 5 -3 10 1 10 9 0 18 -6 21 -15 7z"/>
<path d="M1360 571 c0 -6 5 -13 10 -16 6 -3 10 1 10 9 0 9 -4 16 -10 16 -5 0
-10 -4 -10 -9z"/>
<path d="M1660 566 c0 -9 5 -16 10 -16 6 0 10 4 10 9 0 6 -4 13 -10 16 -5 3
-10 -1 -10 -9z"/>
<path d="M1062 428 c-7 -7 -12 -39 -12 -73 0 -34 5 -66 12 -73 17 -17 729 -17
746 0 16 16 16 130 0 146 -17 17 -729 17 -746 0z m378 -49 c0 -18 2 -19 15 -9
11 9 19 10 28 1 10 -8 17 -7 25 1 7 7 12 10 13 8 9 -53 9 -60 -6 -60 -9 0 -14
4 -10 9 3 5 1 12 -5 16 -5 3 -10 0 -10 -8 0 -11 -14 -15 -60 -15 -56 0 -65 5
-61 31 0 4 -3 7 -9 7 -5 0 -10 -9 -10 -20 0 -11 -4 -20 -10 -20 -11 0 -14 50
-2 51 4 0 18 2 32 4 14 1 31 -2 38 -7 9 -8 12 -5 12 11 0 11 5 21 10 21 6 0
10 -10 10 -21z"/>
<path d="M1380 351 c0 -6 5 -13 10 -16 6 -3 10 1 10 9 0 9 -4 16 -10 16 -5 0
-10 -4 -10 -9z"/>
<path d="M1062 208 c-7 -7 -12 -39 -12 -73 0 -34 5 -66 12 -73 17 -17 729 -17
746 0 16 16 16 130 0 146 -17 17 -729 17 -746 0z m254 -63 c-7 -19 1 -19 21 0
11 12 18 13 29 4 7 -6 18 -8 24 -4 16 10 181 12 187 3 2 -5 -2 -8 -9 -8 -10 0
-10 -2 1 -9 7 -5 10 -14 7 -20 -11 -17 -54 -13 -65 7 -10 16 -10 16 -11 0 0
-11 -8 -18 -20 -18 -18 0 -25 11 -21 33 1 5 -3 6 -9 2 -5 -3 -10 -12 -10 -18
0 -16 -40 -19 -57 -5 -8 6 -13 7 -13 1 0 -6 -17 -10 -38 -10 -29 0 -39 4 -39
16 -2 25 5 41 18 41 6 0 9 -7 5 -15z"/>
<path d="M1400 125 c0 -9 5 -15 11 -13 6 2 11 8 11 13 0 5 -5 11 -11 13 -6 2
-11 -4 -11 -13z"/>
<path d="M1530 125 c0 -8 7 -15 16 -15 14 0 14 3 4 15 -7 8 -14 15 -16 15 -2
0 -4 -7 -4 -15z"/>
</g>
</svg>
