<?xml version="1.0" standalone="no"?>
<!DOCTYPE svg PUBLIC "-//W3C//DTD SVG 20010904//EN"
 "http://www.w3.org/TR/2001/REC-SVG-20010904/DTD/svg10.dtd">
<svg version="1.0" xmlns="http://www.w3.org/2000/svg"
 width="602.000000pt" height="335.000000pt" viewBox="0 0 602.000000 335.000000"
 preserveAspectRatio="xMidYMid meet">

<g transform="translate(0.000000,335.000000) scale(0.100000,-0.100000)"
fill="#000000" stroke="none">
<path d="M0 1675 l0 -1675 25 0 25 0 0 1675 0 1675 -25 0 -25 0 0 -1675z"/>
<path d="M3955 3170 c-14 -6 -5 -9 35 -9 40 0 49 3 35 9 -11 5 -27 9 -35 9 -8
0 -24 -4 -35 -9z"/>
<path d="M4368 3173 c177 -2 467 -2 645 0 177 1 32 2 -323 2 -355 0 -500 -1
-322 -2z"/>
<path d="M5478 3173 c7 -3 16 -2 19 1 4 3 -2 6 -13 5 -11 0 -14 -3 -6 -6z"/>
<path d="M5528 3173 c7 -3 16 -2 19 1 4 3 -2 6 -13 5 -11 0 -14 -3 -6 -6z"/>
<path d="M3841 3091 c-12 -16 -21 -35 -21 -43 0 -7 6 -3 13 8 6 12 18 31 25
43 19 31 7 26 -17 -8z"/>
<path d="M4495 3057 c-4 -10 -5 -21 -1 -24 10 -10 18 4 13 24 -4 17 -4 17 -12
0z"/>
<path d="M4381 3044 c0 -11 3 -14 6 -6 3 7 2 16 -1 19 -3 4 -6 -2 -5 -13z"/>
<path d="M4418 3013 c7 -3 16 -2 19 1 4 3 -2 6 -13 5 -11 0 -14 -3 -6 -6z"/>
<path d="M4598 3013 c6 -2 18 -2 25 0 6 3 1 5 -13 5 -14 0 -19 -2 -12 -5z"/>
<path d="M4828 3013 c7 -3 16 -2 19 1 4 3 -2 6 -13 5 -11 0 -14 -3 -6 -6z"/>
<path d="M4888 3013 c6 -2 18 -2 25 0 6 3 1 5 -13 5 -14 0 -19 -2 -12 -5z"/>
<path d="M4958 3013 c7 -3 16 -2 19 1 4 3 -2 6 -13 5 -11 0 -14 -3 -6 -6z"/>
<path d="M3802 2970 c0 -19 2 -27 5 -17 2 9 2 25 0 35 -3 9 -5 1 -5 -18z"/>
<path d="M4981 2943 c0 -11 3 -13 6 -5 2 6 9 10 14 6 5 -3 9 0 9 5 0 6 -7 11
-15 11 -8 0 -15 -8 -14 -17z"/>
<path d="M4000 2940 c-13 -8 -12 -10 3 -10 9 0 17 5 17 10 0 12 -1 12 -20 0z"/>
<path d="M3810 2913 c0 -4 5 -15 10 -23 8 -13 10 -13 10 2 0 9 -4 20 -10 23
-5 3 -10 3 -10 -2z"/>
<path d="M4480 2916 c0 -2 7 -7 16 -10 8 -3 12 -2 9 4 -6 10 -25 14 -25 6z"/>
<path d="M4673 2903 c9 -2 23 -2 30 0 6 3 -1 5 -18 5 -16 0 -22 -2 -12 -5z"/>
<path d="M4988 2903 c7 -3 16 -2 19 1 4 3 -2 6 -13 5 -11 0 -14 -3 -6 -6z"/>
<path d="M5248 2903 c7 -3 16 -2 19 1 4 3 -2 6 -13 5 -11 0 -14 -3 -6 -6z"/>
<path d="M3988 2783 c6 -2 18 -2 25 0 6 3 1 5 -13 5 -14 0 -19 -2 -12 -5z"/>
<path d="M3451 2255 c-1 -23 3 -31 17 -31 11 0 17 8 17 22 0 16 -3 19 -12 13
-8 -7 -13 -4 -16 8 -3 11 -5 6 -6 -12z"/>
<path d="M3570 2250 c0 -25 4 -31 17 -28 26 5 28 35 4 48 -19 10 -21 8 -21
-20z m30 -11 c0 -5 -4 -9 -10 -9 -5 0 -10 7 -10 16 0 8 5 12 10 9 6 -3 10 -10
10 -16z"/>
<path d="M3682 2250 c0 -19 2 -27 5 -17 2 9 2 25 0 35 -3 9 -5 1 -5 -18z"/>
<path d="M3511 2248 c-1 -22 4 -28 19 -28 15 0 20 6 19 28 -2 23 -2 24 -6 5
-2 -13 -8 -23 -13 -23 -5 0 -11 10 -13 23 -4 19 -4 18 -6 -5z"/>
<path d="M3624 2256 c-8 -20 3 -36 24 -35 11 0 12 3 5 6 -7 2 -13 12 -13 21 0
15 2 15 11 2 9 -12 10 -12 7 -1 -6 21 -27 25 -34 7z"/>
<path d="M3712 2258 c-14 -14 -4 -38 17 -37 10 0 11 2 4 6 -7 2 -13 12 -13 21
0 15 2 15 10 2 6 -9 10 -10 10 -3 0 17 -15 24 -28 11z"/>
<path d="M3760 2251 c0 -11 3 -22 8 -24 4 -3 7 6 7 19 0 13 -3 24 -7 24 -5 0
-8 -9 -8 -19z"/>
<path d="M3305 2005 c-23 -22 -25 -31 -25 -125 0 -94 2 -103 25 -125 l24 -25
321 0 c391 0 360 -13 360 154 0 107 -1 116 -22 130 -19 14 -69 16 -341 16
l-318 0 -24 -25z m679 -21 c9 -23 7 -197 -2 -212 -7 -9 -81 -12 -338 -10
l-329 3 -3 104 c-1 58 0 111 2 118 4 10 71 13 335 13 291 0 330 -2 335 -16z"/>
<path d="M3334 1981 c-2 -2 -4 -51 -4 -108 l0 -103 315 0 315 0 0 105 0 104
-311 3 c-171 2 -313 1 -315 -1z m257 -93 c16 1 29 -2 29 -8 0 -5 -5 -10 -11
-10 -5 0 -8 -4 -5 -9 3 -5 -12 -9 -34 -9 -38 -1 -40 1 -40 30 0 27 2 29 16 17
9 -7 29 -12 45 -11z m-126 -12 c0 -14 -6 -22 -17 -22 -12 0 -18 8 -18 21 0 13
7 21 18 22 11 1 17 -6 17 -21z m35 -16 c5 0 11 8 13 18 4 13 5 11 6 -5 1 -17
-5 -23 -19 -23 -14 0 -20 6 -19 23 1 16 2 18 6 5 2 -10 8 -18 13 -18z m222 8
c-2 -11 -10 -17 -18 -14 -7 3 -20 -1 -28 -9 -21 -21 -26 -19 -26 14 0 28 2 30
39 29 33 0 38 -3 33 -20z m53 2 c0 -8 -8 -16 -17 -18 -13 -2 -18 3 -18 18 0
15 5 20 18 18 9 -2 17 -10 17 -18z m95 13 c0 -1 -4 -13 -10 -27 -11 -30 -31
-36 -23 -7 3 10 0 22 -6 25 -6 4 -11 0 -11 -8 0 -9 -7 -16 -15 -16 -8 0 -15 9
-15 20 0 18 6 20 40 18 22 -2 40 -4 40 -5z"/>
<path d="M418 1744 c-55 -29 -58 -48 -58 -344 l0 -270 34 -38 34 -37 369 -3
c355 -2 369 -2 401 18 57 35 62 61 62 335 0 267 -4 293 -55 333 -27 22 -33 22
-394 22 -304 -1 -371 -3 -393 -16z m784 -33 l33 -29 3 -264 c2 -249 1 -265
-18 -296 -11 -18 -32 -37 -46 -42 -15 -6 -172 -10 -376 -10 l-350 0 -34 34
-34 34 0 262 c0 271 2 289 44 322 19 16 55 18 383 18 l363 0 32 -29z"/>
<path d="M670 1470 c0 -33 3 -40 20 -40 11 0 20 5 20 10 0 6 -7 10 -15 10 -8
0 -15 5 -15 10 0 6 8 10 18 10 14 0 15 2 2 10 -13 9 -13 11 0 20 12 8 11 10
-7 10 -20 0 -23 -5 -23 -40z"/>
<path d="M731 1500 c10 -6 15 -18 12 -34 -3 -13 0 -27 6 -30 7 -5 11 5 11 28
0 19 6 37 13 39 6 3 -4 6 -23 6 -27 0 -31 -2 -19 -9z"/>
<path d="M802 1498 c-28 -28 1 -78 35 -62 16 7 15 8 -4 11 -15 3 -23 11 -23
24 0 11 10 24 23 29 21 8 21 9 2 9 -12 1 -26 -4 -33 -11z"/>
<path d="M870 1471 c0 -33 3 -41 19 -41 48 0 56 73 9 78 -27 3 -28 1 -28 -37z
m44 13 c8 -20 -1 -34 -20 -34 -8 0 -14 8 -14 18 0 33 23 44 34 16z"/>
<path d="M586 1364 c-9 -8 -16 -19 -16 -24 0 -17 12 -40 21 -40 5 0 4 9 -3 21
-11 18 -10 23 11 40 13 10 19 19 13 19 -6 0 -18 -7 -26 -16z"/>
<path d="M791 1366 c-10 -11 -7 -17 10 -29 11 -9 18 -20 14 -26 -3 -6 -1 -11
4 -11 19 0 12 29 -11 41 -21 11 -21 12 -3 25 10 8 14 14 8 14 -6 0 -16 -6 -22
-14z"/>
<path d="M858 1368 c9 -9 15 -9 24 0 9 9 7 12 -12 12 -19 0 -21 -3 -12 -12z"/>
<path d="M917 1373 c-10 -9 -8 -73 2 -73 4 0 7 15 5 34 -2 26 2 36 14 39 15 4
15 5 1 6 -9 0 -19 -2 -22 -6z"/>
<path d="M977 1373 c-4 -3 -6 -22 -6 -42 1 -20 3 -28 6 -18 2 9 7 17 10 17 4
0 16 -8 27 -17 19 -16 19 -16 7 -1 -7 9 -10 21 -7 27 4 5 -3 7 -15 4 -16 -4
-20 -2 -17 8 3 8 12 13 21 13 9 -1 14 2 11 7 -6 11 -28 12 -37 2z"/>
<path d="M653 1335 c0 -22 2 -30 4 -17 2 12 2 30 0 40 -3 9 -5 -1 -4 -23z"/>
<path d="M761 1350 c0 -15 -6 -31 -13 -38 -9 -9 -9 -12 0 -12 16 0 25 23 19
52 -4 22 -4 22 -6 -2z"/>
<path d="M710 1310 c0 -5 5 -10 11 -10 5 0 7 5 4 10 -3 6 -8 10 -11 10 -2 0
-4 -4 -4 -10z"/>
<path d="M1644 1716 c-33 -33 -34 -36 -36 -122 -1 -49 0 -170 1 -269 3 -143 7
-184 19 -204 32 -47 58 -51 390 -51 424 0 401 -20 401 342 1 252 -6 290 -58
321 -26 15 -66 17 -356 17 l-327 0 -34 -34z m718 -11 c14 -14 28 -39 32 -56 3
-18 6 -129 6 -248 0 -186 -2 -221 -18 -251 -29 -58 -36 -60 -370 -60 -322 0
-347 3 -372 49 -6 12 -10 119 -10 275 l0 254 26 31 26 31 328 0 327 0 25 -25z"/>
<path d="M5152 1495 c0 -16 2 -22 5 -12 2 9 2 23 0 30 -3 6 -5 -1 -5 -18z"/>
<path d="M5033 1419 c-39 -14 -57 -69 -24 -69 11 0 23 -4 26 -10 10 -17 33
-11 62 16 26 23 26 25 6 19 -16 -4 -23 -2 -23 7 -1 27 -24 46 -47 37z"/>
<path d="M5392 1365 c-1 -47 1 -56 9 -42 10 18 11 18 31 0 21 -18 21 -18 9 5
-7 13 -10 30 -7 38 3 8 1 14 -4 14 -6 0 -10 -4 -10 -10 0 -25 -19 -6 -23 23
-2 18 -4 6 -5 -28z"/>
<path d="M5462 1359 c2 -34 7 -45 23 -48 16 -3 17 -1 7 12 -7 8 -12 28 -10 43
2 15 -2 29 -10 31 -10 4 -12 -6 -10 -38z"/>
<path d="M5353 1383 c-7 -2 -13 -20 -13 -39 0 -21 4 -33 10 -29 6 3 10 16 10
29 0 12 5 27 12 34 12 12 3 15 -19 5z"/>
<path d="M5071 1294 c0 -11 3 -14 6 -6 3 7 2 16 -1 19 -3 4 -6 -2 -5 -13z"/>
<path d="M6000 914 c-8 -16 -17 -31 -20 -34 -3 -3 -11 -21 -18 -40 -11 -33
-10 -36 18 -64 16 -17 32 -27 35 -24 3 3 4 47 3 98 -3 90 -4 92 -18 64z"/>
<path d="M190 840 c-19 -19 -20 -33 -20 -217 0 -109 4 -203 8 -209 12 -18 49
-34 81 -34 29 0 29 -1 20 -32 -14 -52 -11 -141 7 -166 15 -22 19 -22 249 -22
199 0 236 2 249 16 12 11 16 36 16 97 0 90 -13 130 -24 77 -3 -18 -6 -64 -6
-101 l0 -69 -232 2 -233 3 1 113 1 112 -47 0 c-25 0 -51 5 -58 12 -8 8 -12 67
-12 199 0 231 -9 219 160 219 157 0 160 -2 161 -123 1 -51 4 -80 6 -64 6 41
33 35 33 -8 0 -29 -4 -35 -21 -35 -17 0 -20 -5 -17 -32 2 -24 8 -32 26 -33 22
-2 22 0 22 127 0 175 -5 171 180 166 78 -2 144 -8 149 -13 7 -7 12 -86 13
-199 3 -176 2 -189 -16 -202 -11 -8 -35 -14 -53 -14 -18 0 -33 -4 -33 -10 0
-5 20 -10 44 -10 37 0 48 5 66 27 20 26 21 36 18 216 -4 240 7 227 -189 227
-146 0 -184 -8 -195 -44 l-7 -21 -9 21 c-16 36 -52 44 -188 44 -117 0 -132 -2
-150 -20z"/>
<path d="M5872 605 c-8 -18 -5 -25 22 -43 17 -11 40 -24 51 -28 11 -4 32 -16
48 -26 l27 -19 0 34 c0 32 -4 36 -69 68 -69 34 -70 34 -79 14z"/>
<path d="M3451 570 c0 -19 3 -29 6 -22 4 9 8 10 18 2 10 -8 13 -5 11 14 0 13
-5 22 -10 19 -4 -3 -12 1 -17 8 -6 10 -8 3 -8 -21z"/>
<path d="M3570 570 c0 -25 4 -31 17 -28 26 5 28 35 4 48 -19 10 -21 8 -21 -20z
m30 -5 c0 -8 -4 -15 -10 -15 -5 0 -10 7 -10 15 0 8 5 15 10 15 6 0 10 -7 10
-15z"/>
<path d="M3682 570 c0 -19 2 -27 5 -17 2 9 2 25 0 35 -3 9 -5 1 -5 -18z"/>
<path d="M3511 568 c-1 -22 4 -28 19 -28 15 0 20 6 19 28 -2 23 -2 24 -6 5 -2
-13 -8 -23 -13 -23 -5 0 -11 10 -13 23 -4 19 -4 18 -6 -5z"/>
<path d="M3624 576 c-8 -20 3 -36 24 -35 11 0 12 3 5 6 -7 2 -13 12 -13 21 0
15 2 15 11 2 9 -12 10 -12 7 -1 -6 21 -27 25 -34 7z"/>
<path d="M3708 578 c-8 -20 2 -38 20 -37 11 0 12 2 5 6 -7 2 -13 12 -13 21 0
15 2 15 11 2 9 -12 10 -12 7 -1 -6 20 -24 25 -30 9z"/>
<path d="M3760 571 c0 -11 3 -22 8 -24 4 -3 7 6 7 19 0 13 -3 24 -7 24 -5 0
-8 -9 -8 -19z"/>
<path d="M5846 540 c-3 -8 -19 -58 -37 -110 -17 -52 -40 -113 -50 -134 -10
-22 -19 -50 -19 -63 0 -13 -7 -37 -15 -53 -18 -35 -19 -58 -8 -125 l8 -50 148
-3 147 -3 0 240 0 239 -37 7 c-41 7 -114 42 -125 59 -5 7 -9 5 -12 -4z"/>
<path d="M510 515 c0 -8 5 -15 10 -15 6 0 10 7 10 15 0 8 -4 15 -10 15 -5 0
-10 -7 -10 -15z"/>
<path d="M504 445 c-9 -28 -8 -35 3 -35 7 0 17 10 22 22 l8 23 7 -23 c5 -15
15 -22 32 -22 16 0 28 -8 34 -22 8 -22 9 -22 9 -2 1 13 -8 25 -24 32 -13 6
-27 23 -31 37 -10 40 -46 34 -60 -10z"/>
<path d="M351 394 c0 -11 3 -14 6 -6 3 7 2 16 -1 19 -3 4 -6 -2 -5 -13z"/>
<path d="M400 390 c0 -13 5 -18 14 -14 8 3 12 12 9 20 -8 21 -23 17 -23 -6z"/>
<path d="M467 390 c3 -11 7 -20 9 -20 2 0 4 9 4 20 0 11 -4 20 -9 20 -5 0 -7
-9 -4 -20z"/>
<path d="M737 390 c3 -11 7 -20 9 -20 2 0 4 9 4 20 0 11 -4 20 -9 20 -5 0 -7
-9 -4 -20z"/>
<path d="M505 380 c-3 -5 -1 -10 4 -10 6 0 11 5 11 10 0 6 -2 10 -4 10 -3 0
-8 -4 -11 -10z"/>
<path d="M540 380 c0 -5 7 -7 15 -4 8 4 15 8 15 10 0 2 -7 4 -15 4 -8 0 -15
-4 -15 -10z"/>
<path d="M671 374 c0 -11 3 -14 6 -6 3 7 2 16 -1 19 -3 4 -6 -2 -5 -13z"/>
<path d="M3304 336 c-16 -12 -19 -29 -22 -125 -4 -107 -3 -111 22 -136 l26
-26 326 3 c309 3 326 4 340 22 10 14 14 51 14 132 0 105 -1 114 -22 128 -32
23 -653 24 -684 2z m667 -16 c17 -10 19 -22 19 -113 0 -56 -4 -108 -8 -115 -7
-9 -81 -12 -338 -10 l-329 3 -3 109 c-2 71 1 113 9 122 9 11 68 14 321 14 194
0 317 -4 329 -10z"/>
<path d="M3337 303 c-4 -3 -7 -53 -7 -110 l0 -103 315 0 315 0 0 110 0 110
-308 0 c-170 0 -312 -3 -315 -7z m117 -84 c10 8 13 3 13 -19 0 -22 -3 -27 -13
-19 -8 7 -14 6 -17 -3 -3 -7 -5 3 -5 22 0 19 2 29 5 22 3 -9 9 -10 17 -3z m98
-1 c3 -7 18 -11 36 -10 18 1 32 -2 32 -8 0 -5 -6 -10 -12 -10 -9 0 -9 -3 1 -9
10 -6 -1 -9 -32 -9 -45 0 -47 1 -47 29 0 29 15 40 22 17z m-52 -38 c5 0 11 8
13 18 4 13 5 11 6 -5 1 -17 -5 -23 -19 -23 -14 0 -20 6 -19 23 1 16 2 18 6 5
2 -10 8 -18 13 -18z m222 8 c-2 -11 -10 -17 -18 -14 -7 3 -20 -1 -28 -9 -21
-21 -26 -19 -26 14 0 28 2 30 39 29 33 0 38 -3 33 -20z m53 2 c0 -8 -8 -16
-17 -18 -13 -2 -18 3 -18 18 0 15 5 20 18 18 9 -2 17 -10 17 -18z m95 13 c0
-1 -4 -13 -10 -27 -11 -30 -31 -36 -23 -7 3 10 0 22 -6 25 -6 4 -11 1 -11 -7
0 -7 -7 -14 -15 -14 -8 0 -15 9 -15 19 0 15 7 18 40 16 22 -2 40 -4 40 -5z"/>
<path d="M3750 189 c0 -5 5 -7 10 -4 6 3 10 8 10 11 0 2 -4 4 -10 4 -5 0 -10
-5 -10 -11z"/>
</g>
</svg>
