<?xml version="1.0" standalone="no"?>
<!DOCTYPE svg PUBLIC "-//W3C//DTD SVG 20010904//EN"
 "http://www.w3.org/TR/2001/REC-SVG-20010904/DTD/svg10.dtd">
<svg version="1.0" xmlns="http://www.w3.org/2000/svg"
 width="602.000000pt" height="126.000000pt" viewBox="0 0 602.000000 126.000000"
 preserveAspectRatio="xMidYMid meet">

<g transform="translate(0.000000,126.000000) scale(0.100000,-0.100000)"
fill="#000000" stroke="none">
<path d="M1900 1012 c0 -14 -9 -21 -29 -25 -32 -7 -46 -34 -37 -72 7 -26 34
-41 49 -26 5 5 16 7 23 4 11 -4 14 9 14 60 0 36 -4 69 -10 72 -5 3 -10 -3 -10
-13z m0 -66 c0 -26 -24 -51 -40 -41 -11 7 -14 48 -3 58 3 4 15 7 25 7 12 0 18
-7 18 -24z"/>
<path d="M1950 962 c0 -55 3 -71 16 -76 24 -9 31 -8 48 10 33 32 9 105 -29 90
-10 -4 -15 1 -15 14 0 10 -4 22 -10 25 -6 4 -10 -20 -10 -63z m63 -11 c6 -23
-10 -51 -28 -51 -15 0 -22 50 -8 63 12 13 31 7 36 -12z"/>
<path d="M2650 1015 c0 -8 5 -15 10 -15 6 0 10 7 10 15 0 8 -4 15 -10 15 -5 0
-10 -7 -10 -15z"/>
<path d="M3130 1010 c0 -13 -7 -20 -19 -20 -20 0 -51 -34 -51 -56 0 -7 8 -21
18 -32 12 -16 24 -19 45 -15 26 5 27 7 27 74 0 39 -4 69 -10 69 -5 0 -10 -9
-10 -20z m-2 -72 c-3 -36 -31 -50 -42 -22 -10 26 3 54 25 54 17 0 20 -6 17
-32z"/>
<path d="M4098 1023 c7 -3 12 -26 12 -63 0 -47 -3 -59 -17 -63 -10 -3 2 -5 27
-6 35 0 41 2 28 10 -14 8 -18 23 -18 69 0 56 -2 60 -22 59 -13 0 -17 -3 -10
-6z"/>
<path d="M4883 1019 c13 -8 17 -23 17 -64 0 -43 -4 -54 -17 -58 -10 -3 2 -5
27 -5 25 0 37 2 28 5 -15 4 -18 16 -18 69 0 63 0 64 -27 64 -24 -1 -25 -2 -10
-11z"/>
<path d="M5333 1019 c13 -8 17 -23 17 -64 0 -43 -4 -54 -17 -58 -10 -3 2 -5
27 -5 25 0 37 2 28 5 -15 4 -18 16 -18 69 0 63 0 64 -27 64 -24 -1 -25 -2 -10
-11z"/>
<path d="M4441 1008 c0 -10 -8 -18 -16 -18 -8 0 -15 -4 -15 -9 0 -5 7 -11 15
-15 9 -3 15 -18 15 -40 0 -26 5 -36 20 -41 11 -3 25 -3 32 1 9 6 5 10 -12 14
-19 4 -26 13 -28 38 -3 29 -1 32 23 32 15 0 24 4 20 10 -3 6 -15 10 -25 10
-10 0 -21 8 -23 18 -4 16 -5 16 -6 0z"/>
<path d="M2187 983 c-16 -15 -6 -44 18 -53 35 -13 31 -30 -7 -30 -25 0 -29 -3
-20 -12 8 -8 20 -9 39 -2 37 13 41 41 9 55 -31 14 -34 29 -6 29 11 0 20 5 20
10 0 11 -43 14 -53 3z"/>
<path d="M2296 974 c-32 -31 -7 -94 37 -94 28 0 28 19 0 22 -42 5 -41 28 1 28
28 0 36 4 36 18 0 39 -45 55 -74 26z m52 -16 c-2 -5 -7 -9 -11 -9 -4 1 -14 1
-23 1 -13 0 -14 3 -4 14 12 16 43 10 38 -6z"/>
<path d="M2423 983 c-20 -4 -23 -11 -23 -49 0 -24 5 -44 10 -44 6 0 10 16 10
35 0 40 21 55 46 34 14 -12 16 -11 13 6 -4 21 -19 25 -56 18z"/>
<path d="M2500 986 c0 -16 41 -96 50 -96 11 0 40 63 40 87 0 24 -18 5 -25 -27
-9 -39 -18 -38 -34 5 -7 19 -17 35 -22 35 -5 0 -9 -2 -9 -4z"/>
<path d="M2630 980 c0 -5 4 -10 9 -10 5 0 11 -14 13 -31 4 -24 0 -33 -16 -39
-16 -7 -11 -9 24 -9 35 0 41 2 28 10 -12 7 -18 22 -18 49 0 33 -3 40 -20 40
-11 0 -20 -4 -20 -10z"/>
<path d="M2744 965 c-20 -30 -11 -62 22 -77 18 -9 28 -8 36 0 9 9 6 12 -14 12
-17 0 -29 7 -33 19 -9 28 5 51 31 51 13 0 24 5 24 10 0 21 -50 10 -66 -15z"/>
<path d="M2856 974 c-32 -31 -7 -94 37 -94 28 0 28 19 0 22 -42 5 -41 28 1 28
28 0 36 4 36 18 0 39 -45 55 -74 26z m52 -16 c-2 -5 -7 -9 -11 -9 -4 1 -14 1
-23 1 -13 0 -14 3 -4 14 12 16 43 10 38 -6z"/>
<path d="M3192 978 c-30 -30 -3 -98 38 -98 30 0 33 18 3 22 -42 5 -41 28 1 28
38 0 43 8 26 41 -12 21 -50 25 -68 7z m53 -28 c-6 -10 -45 -1 -45 10 0 13 24
18 37 8 7 -6 11 -14 8 -18z"/>
<path d="M3290 985 c0 -22 34 -95 45 -95 14 0 51 88 41 97 -3 3 -13 -11 -21
-31 -14 -34 -35 -41 -35 -12 0 14 -29 55 -30 41z"/>
<path d="M3530 975 c-15 -17 -6 -33 26 -45 34 -13 30 -30 -8 -30 -25 0 -29 -3
-20 -12 16 -16 66 1 70 25 3 12 -6 21 -27 28 -37 13 -41 29 -6 29 14 0 25 5
25 10 0 15 -46 12 -60 -5z"/>
<path d="M3630 977 c0 -24 29 -87 40 -87 6 0 20 21 30 46 23 52 23 54 11 54
-5 0 -15 -16 -21 -35 -14 -43 -26 -45 -35 -5 -7 32 -25 51 -25 27z"/>
<path d="M3754 965 c-20 -30 -11 -62 22 -77 18 -9 28 -8 36 0 9 9 7 12 -9 12
-27 0 -46 24 -38 50 4 13 15 20 31 20 13 0 24 5 24 10 0 21 -50 10 -66 -15z"/>
<path d="M3988 979 c-22 -13 -24 -62 -2 -83 17 -18 24 -19 51 -9 15 6 13 8
-12 13 -25 4 -30 10 -30 35 0 25 4 30 28 33 15 2 25 8 22 13 -8 12 -35 11 -57
-2z"/>
<path d="M4198 984 c-13 -13 -9 -81 6 -93 8 -7 25 -9 40 -5 24 6 26 10 24 58
-1 42 -2 44 -5 14 -4 -39 -28 -67 -43 -52 -5 5 -10 26 -12 47 -2 22 -6 35 -10
31z"/>
<path d="M4323 983 c-24 -9 -14 -40 17 -53 35 -14 31 -30 -8 -30 -19 0 -23 -3
-15 -11 7 -7 23 -9 37 -5 34 8 35 42 1 58 -14 6 -25 15 -25 20 0 4 11 8 25 8
14 0 25 5 25 10 0 10 -35 12 -57 3z"/>
<path d="M4542 978 c-7 -7 -12 -27 -12 -45 0 -26 6 -36 24 -45 14 -6 33 -7 43
-3 15 7 13 9 -11 14 -41 8 -46 31 -7 31 23 0 31 5 31 18 0 22 -19 42 -40 42
-9 0 -21 -5 -28 -12z m48 -23 c-8 -15 -40 -13 -40 2 0 9 8 13 23 11 12 -2 20
-7 17 -13z"/>
<path d="M4651 935 c1 -44 2 -46 8 -16 7 40 37 64 51 41 5 -8 12 -11 16 -7 13
13 -18 36 -47 34 -28 -2 -29 -4 -28 -52z"/>
<path d="M4987 972 c-23 -25 -21 -55 3 -77 42 -38 98 21 66 70 -19 30 -47 32
-69 7z m58 -13 c4 -5 4 -21 1 -35 -5 -19 -12 -25 -29 -22 -37 5 -36 68 2 68
11 0 23 -5 26 -11z"/>
<path d="M5107 972 c-10 -10 -17 -28 -17 -40 0 -27 43 -57 67 -47 15 7 12 9
-12 14 -25 5 -30 11 -30 36 0 25 4 30 28 33 15 2 25 8 22 13 -10 15 -41 10
-58 -9z"/>
<path d="M5215 981 c-4 -7 4 -11 19 -11 34 0 42 -18 10 -22 -15 -2 -32 -11
-38 -20 -16 -26 13 -51 48 -42 25 6 27 10 24 53 -3 41 -6 46 -30 49 -14 2 -29
-2 -33 -7z m45 -66 c-7 -8 -19 -15 -26 -15 -8 0 -14 7 -14 15 0 10 10 15 26
15 22 0 25 -2 14 -15z"/>
<path d="M2075 940 c3 -5 15 -10 25 -10 10 0 22 5 25 10 4 6 -7 10 -25 10 -18
0 -29 -4 -25 -10z"/>
<path d="M2985 910 c-4 -6 -3 -16 3 -22 6 -6 12 -6 17 2 4 6 3 16 -3 22 -6 6
-12 6 -17 -2z"/>
<path d="M3435 910 c-4 -6 -3 -16 3 -22 6 -6 12 -6 17 2 4 6 3 16 -3 22 -6 6
-12 6 -17 -2z"/>
<path d="M3885 910 c-4 -6 -3 -16 3 -22 6 -6 12 -6 17 2 4 6 3 16 -3 22 -6 6
-12 6 -17 -2z"/>
<path d="M4785 910 c-4 -6 -3 -16 3 -22 6 -6 12 -6 17 2 4 6 3 16 -3 22 -6 6
-12 6 -17 -2z"/>
</g>
</svg>
