<?xml version="1.0" standalone="no"?>
<!DOCTYPE svg PUBLIC "-//W3C//DTD SVG 20010904//EN"
 "http://www.w3.org/TR/2001/REC-SVG-20010904/DTD/svg10.dtd">
<svg version="1.0" xmlns="http://www.w3.org/2000/svg"
 width="602.000000pt" height="231.000000pt" viewBox="0 0 602.000000 231.000000"
 preserveAspectRatio="xMidYMid meet">

<g transform="translate(0.000000,231.000000) scale(0.100000,-0.100000)"
fill="#000000" stroke="none">
<path d="M76 2178 c-3 -13 -6 -461 -6 -995 l0 -973 2890 0 2890 0 0 875 0 875
-807 2 -808 3 -5 115 -5 115 -2071 3 -2072 2 -6 -22z m96 -48 c32 -19 57 -37
58 -40 0 -3 -30 -24 -65 -48 l-65 -42 0 86 c0 47 3 84 8 82 4 -1 33 -19 64
-38z m228 -30 c0 -14 5 -18 18 -13 14 6 15 4 4 -9 -9 -11 -10 -18 -2 -23 5 -3
10 -11 10 -18 0 -8 -3 -8 -11 0 -6 6 -18 9 -25 6 -11 -4 -14 5 -14 36 0 23 5
41 10 41 6 0 10 -9 10 -20z m140 5 c0 -8 6 -15 14 -15 20 0 27 -25 12 -46 -22
-29 -46 -11 -46 36 0 22 5 40 10 40 6 0 10 -7 10 -15z m290 -18 c0 -18 5 -38
12 -45 9 -9 6 -12 -16 -12 -24 0 -27 2 -16 15 7 8 10 28 8 45 -3 16 -1 30 4
30 4 0 8 -15 8 -33z m578 -9 c-2 -35 -7 -44 -25 -46 -33 -5 -41 34 -11 63 33
33 40 30 36 -17z m382 22 c0 -11 5 -17 13 -15 8 4 12 -5 13 -26 1 -20 -2 -27
-9 -20 -5 5 -16 7 -23 4 -11 -4 -14 5 -14 36 0 23 5 41 10 41 6 0 10 -9 10
-20z m140 6 c0 -7 9 -16 20 -19 24 -6 26 -29 5 -47 -26 -21 -45 -4 -45 40 0
22 5 40 10 40 6 0 10 -6 10 -14z m-1165 -24 c-20 -4 -19 -16 2 -37 16 -16 15
-17 -2 -14 -18 4 -39 54 -29 70 3 5 14 3 25 -4 16 -10 17 -13 4 -15z m350 0
c-20 -5 -19 -28 3 -42 15 -10 15 -10 -3 -8 -12 2 -21 12 -23 26 -2 12 -8 22
-14 22 -7 0 -6 5 2 15 9 11 16 12 31 2 16 -10 17 -13 4 -15z m1250 0 c-19 -4
-19 -11 3 -35 16 -18 16 -19 -2 -16 -12 2 -23 16 -27 33 -10 38 -3 49 22 33
16 -10 17 -13 4 -15z m-1027 -26 c-4 -26 -37 -28 -52 -3 -9 15 -7 21 8 32 24
18 48 2 44 -29z m122 24 c-9 -6 -7 -11 6 -19 16 -9 17 -12 4 -21 -8 -5 -22
-10 -30 -10 -13 0 -13 1 0 11 11 8 12 12 3 16 -7 2 -13 11 -13 18 0 15 20 25
34 17 4 -2 3 -8 -4 -12z m-990 -10 c0 -27 18 -25 23 3 3 15 5 12 6 -11 1 -29
-2 -33 -21 -30 -17 2 -24 11 -26 31 -2 15 1 27 7 27 6 0 11 -9 11 -20z m170 5
c0 -8 -7 -15 -15 -15 -18 0 -20 -16 -2 -23 7 -3 5 -6 -6 -6 -20 -1 -32 22 -23
44 3 8 15 15 26 15 11 0 20 -7 20 -15z m50 4 l-25 -10 24 -20 c23 -19 23 -19
2 -19 -12 0 -24 7 -27 15 -10 24 4 45 28 44 23 0 23 0 -2 -10z m300 -2 c0 -7
-5 -18 -12 -25 -9 -9 -9 -12 0 -12 7 0 12 -7 12 -16 0 -11 -8 -14 -25 -12 -14
2 -25 6 -25 11 0 4 0 21 0 37 0 25 4 30 25 30 14 0 25 -6 25 -13z m70 -2 c0
-9 -9 -15 -22 -15 -22 -1 -23 -1 -4 -15 16 -12 17 -15 4 -15 -22 0 -40 24 -32
44 8 20 54 22 54 1z m210 -10 c0 -15 -7 -28 -17 -32 -10 -4 -21 -11 -25 -17
-4 -6 -8 8 -8 32 0 38 2 42 25 42 20 0 25 -5 25 -25z m418 -2 c2 -13 -1 -23
-7 -23 -6 0 -11 9 -11 20 0 11 -4 20 -10 20 -5 0 -10 -12 -10 -26 0 -14 -4
-23 -10 -19 -5 3 -10 17 -10 31 0 22 4 25 28 22 19 -2 28 -9 30 -25z m172 7
c0 -11 5 -20 10 -20 6 0 10 9 10 21 0 11 4 18 9 15 4 -3 6 -17 3 -31 -7 -37
-46 -31 -50 8 -2 15 1 27 7 27 6 0 11 -9 11 -20z m178 3 c2 -8 -5 -13 -17 -13
-25 0 -28 -17 -3 -23 12 -4 11 -5 -6 -6 -25 -1 -38 20 -28 45 7 18 47 15 54
-3z m114 10 c-10 -4 -9 -8 4 -17 20 -15 11 -36 -14 -36 -15 0 -15 2 -2 10 13
9 13 12 -3 21 -20 12 -14 29 11 28 11 0 13 -2 4 -6z m76 -6 c18 31 21 9 4 -26
-10 -19 -24 -37 -32 -39 -12 -4 -13 -2 -4 9 7 8 8 22 3 34 -12 31 -10 42 5 22
14 -18 15 -18 24 0z m64 6 c-10 -4 -9 -8 4 -17 20 -15 11 -36 -14 -36 -15 0
-15 2 -2 10 13 9 13 12 -3 21 -20 12 -14 29 11 28 11 0 13 -2 4 -6z m158 -8
c0 -8 -7 -15 -15 -15 -18 0 -20 -16 -2 -23 7 -3 5 -6 -6 -6 -20 -1 -32 22 -23
44 3 8 15 15 26 15 11 0 20 -7 20 -15z m78 -12 c3 -18 -2 -23 -17 -23 -13 0
-21 7 -22 18 -1 16 -2 16 -6 0 -2 -10 -9 -18 -14 -18 -7 0 -7 17 0 48 1 2 13
2 29 0 19 -2 28 -9 30 -25z m-925 0 c-7 -2 -19 -2 -25 0 -7 3 -2 5 12 5 14 0
19 -2 13 -5z m484 1 c-3 -3 -12 -4 -19 -1 -8 3 -5 6 6 6 11 1 17 -2 13 -5z
m-1892 -204 c3 -11 11 -20 17 -20 5 0 8 7 5 15 -4 8 -2 17 3 20 6 4 10 -9 10
-29 0 -45 -17 -55 -32 -19 l-11 28 -7 -30 c-7 -28 -8 -27 -9 13 -1 44 13 57
24 22z m89 -12 l14 -31 7 33 c7 32 8 33 21 15 16 -22 18 -39 4 -30 -5 3 -10
-1 -10 -9 0 -22 -17 -28 -40 -14 -17 11 -22 11 -30 -2 -8 -13 -10 -13 -10 2 0
21 17 68 25 68 3 0 12 -14 19 -32z m85 -26 c1 -14 -3 -21 -10 -17 -6 4 -8 13
-5 20 2 7 0 17 -6 23 -6 6 -7 16 -2 23 9 15 22 -12 23 -49z m35 43 c-19 -14
-19 -14 1 -15 18 -1 19 -1 3 -11 -10 -5 -18 -14 -18 -19 0 -5 8 -11 18 -13 13
-4 11 -5 -5 -6 -20 -1 -23 4 -23 39 0 34 3 40 22 40 21 0 21 0 2 -15z m74 8
c-23 -6 -23 -11 4 -32 25 -21 17 -42 -15 -40 -17 1 -18 2 -4 6 23 6 22 18 -5
35 -25 17 -17 39 15 37 17 -1 18 -2 5 -6z m90 -16 c2 -9 -4 -20 -15 -24 -10
-4 -23 -14 -30 -22 -10 -13 -12 -9 -13 27 0 41 1 43 27 40 17 -2 29 -10 31
-21z m58 -12 c18 -45 18 -48 -6 -33 -17 11 -22 10 -30 -2 -8 -13 -10 -13 -10
2 0 21 17 68 25 68 3 0 13 -16 21 -35z m57 25 c-14 -6 -23 -18 -23 -30 0 -12
9 -24 23 -30 l22 -9 -23 0 c-15 -1 -26 7 -31 22 -11 29 4 57 32 56 l22 0 -22
-9z m61 -5 c-19 -14 -19 -14 1 -15 20 -1 20 -1 1 -12 -19 -11 -19 -11 -1 -24
18 -13 18 -14 -3 -14 -19 0 -22 6 -22 40 0 34 3 40 22 40 21 0 21 0 2 -15z
m429 -4 c3 15 5 8 6 -18 1 -47 -10 -55 -27 -20 -8 17 -11 18 -11 5 -1 -30 -21
-20 -21 10 0 40 11 47 31 20 l17 -22 5 25z m68 -13 l13 -33 4 33 c3 29 5 32
19 20 13 -10 17 -10 20 0 9 24 23 0 22 -36 -1 -25 -3 -29 -6 -14 -3 15 -10 22
-18 18 -8 -3 -16 0 -19 7 -2 7 -5 2 -5 -10 -1 -24 -23 -43 -29 -25 -5 16 -42
16 -42 0 0 -6 -3 -9 -6 -5 -8 8 15 77 26 77 4 0 14 -15 21 -32z m127 25 c-21
-5 -24 -23 -5 -24 10 0 10 -2 0 -6 -19 -7 -16 -31 5 -37 10 -3 6 -4 -8 -3 -43
3 -41 78 2 76 17 -1 18 -2 6 -6z m2049 -38 c2 -32 0 -36 -8 -22 -8 14 -14 16
-25 6 -12 -9 -14 -5 -14 25 0 33 3 37 23 34 18 -2 22 -10 24 -43z m47 30 c-19
-14 -19 -14 1 -15 20 -1 20 -1 1 -12 -19 -11 -19 -11 -1 -24 18 -13 18 -14 -3
-14 -19 0 -22 6 -22 40 0 34 3 40 22 40 21 0 21 0 2 -15z m89 -17 l11 -33 6
30 c4 24 10 30 30 30 19 0 26 -6 28 -26 5 -39 -19 -53 -63 -39 -29 9 -39 9
-52 -2 -15 -11 -16 -11 -10 5 4 11 10 30 13 43 9 33 23 30 37 -8z m132 18 c16
21 20 13 6 -14 -5 -9 -12 -26 -16 -37 -5 -17 -9 -13 -21 20 -17 50 -17 55 1
31 15 -20 15 -20 30 0z m395 4 c-13 -9 -13 -12 4 -25 24 -18 14 -45 -16 -44
l-23 0 24 10 23 9 -23 18 c-24 20 -19 42 9 42 15 0 15 -2 2 -10z m83 3 c-7 -2
-14 -19 -14 -36 -2 -28 -2 -29 -6 -7 -3 14 -10 31 -15 38 -8 9 -4 12 18 11 16
0 23 -3 17 -6z m72 -36 c6 -22 4 -26 -9 -21 -9 3 -23 1 -31 -6 -19 -16 -19 -9
0 37 17 39 29 36 40 -10z m57 8 c-2 -19 -8 -35 -12 -35 -4 0 -10 16 -12 35 -3
27 0 35 12 35 12 0 15 -8 12 -35z m136 28 c-23 -6 -23 -19 -1 -31 23 -13 9
-42 -19 -41 l-23 2 23 4 c27 5 28 10 0 32 -25 21 -17 42 15 40 17 -1 18 -2 5
-6z m349 -38 c2 -32 0 -36 -8 -22 -8 14 -14 16 -25 6 -12 -9 -14 -6 -14 18 0
34 8 45 30 41 10 -2 16 -16 17 -43z m53 35 c-12 -8 -13 -12 -2 -19 11 -6 10
-10 -5 -15 -17 -7 -17 -8 2 -23 l20 -15 -20 4 c-35 6 -33 78 2 78 15 0 16 -2
3 -10z m68 3 c-23 -6 -23 -11 4 -32 25 -21 17 -42 -15 -40 -17 1 -18 2 -4 6
22 6 22 19 0 31 -20 12 -10 42 14 41 17 -1 17 -2 1 -6z m85 0 c-7 -2 -13 -18
-13 -34 0 -41 -17 -36 -22 6 -4 32 -2 35 22 34 14 0 19 -3 13 -6z m66 -24 c15
-45 14 -51 -9 -37 -17 11 -22 10 -30 -2 -13 -20 -12 0 1 39 6 17 15 31 19 31
4 0 13 -14 19 -31z m68 -14 c2 -32 0 -36 -8 -22 -8 14 -14 16 -25 6 -12 -9
-14 -5 -14 25 0 33 3 37 23 34 18 -2 22 -10 24 -43z m66 38 c-7 -2 -14 -21
-15 -41 l-1 -37 -4 35 c-3 19 -10 38 -16 42 -7 4 1 7 18 7 17 0 24 -3 18 -6z
m55 0 c-24 -6 -23 -20 3 -28 28 -9 20 -40 -11 -42 -15 -1 -18 0 -7 3 22 7 22
20 0 32 -20 12 -10 42 14 41 17 -1 17 -2 1 -6z m291 -42 c10 -30 9 -32 -5 -20
-12 10 -20 10 -35 1 -23 -15 -23 -12 -4 35 17 40 26 37 44 -16z m53 38 c-16
-6 -22 -16 -20 -29 2 -12 8 -20 13 -20 6 1 9 8 7 16 -2 8 2 14 8 14 5 0 10
-11 10 -25 0 -27 -26 -35 -48 -13 -26 26 -6 69 33 67 18 0 18 -1 -3 -10z m62
-4 c-19 -14 -19 -14 1 -15 20 -1 20 -1 1 -12 -19 -11 -19 -11 -1 -24 18 -13
18 -14 -3 -14 -19 0 -22 6 -22 40 0 34 3 40 22 40 21 0 21 0 2 -15z m-1296
-53 c8 -2 12 7 12 27 0 17 5 31 10 31 16 0 12 -46 -5 -60 -24 -20 -45 -5 -44
32 l1 33 7 -29 c3 -16 12 -31 19 -34z m-4158 -92 c0 -14 5 -18 18 -13 14 6 15
4 4 -9 -9 -11 -10 -18 -2 -23 5 -3 10 -11 10 -18 0 -8 -3 -8 -11 0 -6 6 -18 9
-25 6 -11 -4 -14 5 -14 36 0 23 5 41 10 41 6 0 10 -9 10 -20z m151 -10 c16 0
20 -6 17 -27 -2 -20 -9 -28 -23 -28 -17 0 -20 7 -22 45 -1 25 1 37 4 28 2 -10
13 -18 24 -18z m1109 -9 c0 -43 -23 -62 -47 -38 -16 16 -7 47 13 47 8 0 17 7
20 15 10 25 14 17 14 -24z m402 30 c-7 -4 -12 -12 -11 -17 0 -5 -2 -20 -7 -33
l-7 -25 -9 23 c-10 28 6 61 30 61 13 0 14 -2 4 -9z m140 -35 c-4 -33 -24 -52
-43 -40 -16 9 -10 36 14 59 28 28 34 24 29 -19z m58 34 c-13 -9 -13 -11 0 -20
10 -6 11 -10 3 -10 -7 0 -13 -9 -13 -20 0 -27 -18 -25 -22 3 -4 28 12 57 32
57 13 0 13 -1 0 -10z m670 -23 c0 -18 5 -38 12 -45 9 -9 8 -12 -7 -12 -17 0
-20 7 -20 45 0 25 3 45 8 45 4 0 7 -15 7 -33z m756 -2 c-8 -19 -20 -43 -26
-52 -9 -15 -10 -14 -4 7 8 30 33 80 39 80 3 0 -1 -16 -9 -35z m2105 2 c12 -3
19 -13 18 -29 l0 -23 -9 23 c-5 12 -12 22 -15 22 -3 0 -10 -10 -15 -22 -7 -19
-9 -14 -8 22 0 25 2 38 5 29 2 -10 13 -19 24 -22z m-4833 -8 c-11 -7 -11 -12
0 -30 11 -17 11 -20 1 -17 -14 5 -31 57 -23 70 3 5 12 4 20 -3 12 -10 12 -14
2 -20z m972 21 c0 -17 -31 -73 -37 -67 -2 3 0 14 6 25 15 29 14 40 -6 45 -11
3 -7 5 10 6 15 0 27 -4 27 -9z m65 -30 c0 -28 -4 -35 -20 -35 -16 0 -20 7 -22
38 -2 34 0 38 20 35 18 -2 22 -10 22 -38z m320 27 c-17 -13 -17 -14 4 -20 28
-7 25 -42 -4 -42 -13 0 -21 8 -23 23 -5 33 4 52 25 52 15 0 15 -1 -2 -13z m90
-27 c0 -28 -4 -35 -20 -35 -16 0 -21 8 -23 38 -3 35 -1 38 19 35 19 -2 23 -9
24 -38z m69 24 c3 -9 6 -19 6 -24 0 -12 -30 -40 -43 -40 -6 0 -2 7 9 15 17 13
17 14 2 15 -21 0 -32 16 -24 35 7 20 42 19 50 -1z m66 -20 c0 -32 -2 -35 -22
-28 -32 9 -33 10 -14 39 23 35 36 31 36 -11z m1081 -7 c5 -30 3 -37 -10 -37
-12 0 -16 10 -16 40 0 50 18 47 26 -3z m129 19 c0 -13 3 -31 6 -40 5 -12 0
-16 -17 -16 -18 0 -20 3 -11 12 15 15 16 48 1 48 -5 0 -7 5 -4 10 11 18 25 10
25 -14z m556 -14 c1 -27 -1 -31 -13 -20 -11 9 -16 9 -24 -3 -6 -10 -9 -3 -9
24 0 34 3 38 22 35 18 -2 23 -10 24 -36z m684 23 c10 -12 10 -21 1 -41 -14
-31 -45 -29 -49 4 -7 48 21 69 48 37z m730 -13 c0 -15 5 -33 12 -40 9 -9 6
-12 -17 -12 -23 0 -26 3 -17 12 15 15 16 48 1 48 -5 0 -7 5 -4 10 12 19 25 10
25 -18z m-5254 -13 c1 -5 2 -14 3 -21 1 -17 18 2 24 27 3 13 5 10 6 -11 1 -26
-3 -31 -21 -30 -18 1 -24 8 -26 31 -3 26 11 30 14 4z m137 5 c-4 -11 1 -22 13
-31 19 -14 19 -15 -1 -11 -21 3 -36 58 -16 58 6 0 8 -7 4 -16z m37 -5 c0 -5
-4 -9 -10 -9 -5 0 -10 7 -10 16 0 8 5 12 10 9 6 -3 10 -10 10 -16z m117 14
c-17 -4 -17 -5 -1 -17 20 -15 11 -36 -14 -35 -14 0 -13 2 3 9 18 7 19 8 3 15
-26 10 -22 35 5 34 18 -1 18 -2 4 -6z m72 -6 c16 28 13 -4 -4 -37 -9 -17 -20
-30 -26 -30 -8 0 -8 5 0 14 9 11 9 20 2 35 -15 28 -13 39 3 18 14 -18 15 -18
25 0z m63 6 c-10 -4 -9 -8 4 -17 20 -15 11 -36 -14 -36 -15 0 -15 2 -2 10 13
9 13 12 -3 21 -20 12 -14 29 11 28 11 0 13 -2 4 -6z m153 -4 c4 -6 4 -13 0
-17 -4 -4 -10 -1 -12 6 -6 17 -23 15 -23 -3 0 -7 8 -19 18 -24 15 -9 15 -10 1
-11 -22 0 -43 26 -35 45 6 17 42 20 51 4z m74 -16 l-1 -28 -8 25 c-8 24 -8 24
-9 3 -1 -27 -21 -31 -22 -5 0 14 -2 14 -9 -3 -8 -18 -9 -17 -9 8 -1 24 3 27
29 27 26 0 30 -3 29 -27z m245 12 c-19 -15 -19 -15 0 -30 17 -13 17 -15 3 -15
-23 0 -40 33 -25 48 7 7 19 12 27 12 11 0 10 -4 -5 -15z m92 0 c7 -18 -13 -45
-33 -45 -17 0 -27 24 -19 45 7 20 45 19 52 0z m64 5 c0 -5 -7 -7 -15 -4 -10 4
-15 0 -15 -15 0 -12 -4 -21 -9 -21 -4 0 -6 11 -3 25 3 16 11 25 23 25 11 0 19
-4 19 -10z m70 -5 c0 -8 -5 -15 -11 -15 -5 0 -7 5 -4 10 3 6 1 10 -4 10 -15 0
-14 -37 2 -43 7 -3 5 -6 -6 -6 -20 -1 -32 22 -23 44 3 8 15 15 26 15 11 0 20
-7 20 -15z m138 -12 c2 -13 -1 -23 -7 -23 -6 0 -11 9 -11 20 0 27 -18 25 -23
-2 -4 -19 -4 -18 -6 5 -1 24 2 28 22 25 14 -2 23 -11 25 -25z m54 20 c-10 -4
-10 -8 -2 -19 14 -16 5 -34 -18 -33 -14 0 -13 2 3 9 18 7 19 8 3 15 -26 10
-22 35 5 34 12 0 16 -3 9 -6z m336 0 c-10 -2 -18 -11 -18 -18 0 -8 8 -19 18
-24 15 -9 15 -10 1 -11 -23 0 -41 24 -33 44 3 9 16 15 28 15 16 -1 17 -2 4 -6z
m562 -18 c0 -14 -4 -25 -9 -25 -5 0 -17 -7 -25 -16 -15 -14 -16 -12 -16 25 0
37 2 41 25 41 20 0 25 -5 25 -25z m90 13 c0 -4 9 -8 20 -8 11 0 20 5 20 10 0
16 30 12 36 -5 4 -8 10 -15 15 -15 5 0 9 7 9 15 0 8 5 15 10 15 6 0 3 -14 -6
-32 l-16 -32 -16 30 c-11 20 -17 24 -19 14 -13 -44 -13 -45 -24 -30 -8 13 -10
13 -18 0 -8 -12 -11 -11 -17 5 -15 39 -41 45 -54 13 -8 -22 -9 -22 -9 5 -1 25
2 27 34 25 19 -1 35 -6 35 -10z m1585 -29 c6 0 13 10 17 23 6 19 7 18 5 -7 -2
-23 -7 -30 -22 -30 -15 0 -20 7 -22 30 -2 25 -1 26 5 7 4 -13 12 -23 17 -23z
m92 11 c3 -25 3 -25 -7 -2 -5 12 -12 22 -15 22 -3 0 -10 -10 -15 -22 -8 -22
-9 -22 -9 5 -1 24 3 28 22 25 15 -2 23 -11 24 -28z m71 3 c2 -13 -1 -23 -7
-23 -6 0 -11 9 -11 20 0 11 -4 20 -10 20 -5 0 -10 -9 -10 -20 0 -11 -4 -20
-10 -20 -11 0 -14 33 -3 44 15 15 48 1 51 -21z m54 -3 c3 -23 1 -30 -11 -30
-11 0 -16 9 -16 30 0 17 5 30 11 30 7 0 14 -13 16 -30z m77 3 c-2 -24 -2 -25
-6 -5 -2 12 -9 22 -14 22 -5 0 -14 -10 -19 -22 -8 -22 -9 -22 -9 5 -1 22 3 27
24 27 21 0 25 -4 24 -27z m71 15 c0 -6 -10 -22 -22 -35 -12 -13 -16 -23 -10
-23 7 0 12 5 12 10 0 6 5 10 10 10 6 0 10 -7 10 -15 0 -9 -9 -15 -25 -15 -22
0 -25 4 -25 40 0 36 3 40 25 40 14 0 25 -5 25 -12z m-2873 -14 c-3 -3 -12 -4
-19 -1 -8 3 -5 6 6 6 11 1 17 -2 13 -5z m750 0 c-3 -3 -12 -4 -19 -1 -8 3 -5
6 6 6 11 1 17 -2 13 -5z m-2197 -114 c0 -14 5 -18 17 -13 14 6 14 3 -3 -20
-26 -36 -34 -34 -34 13 0 22 5 40 10 40 6 0 10 -9 10 -20z m151 -10 c24 0 27
-45 3 -54 -26 -10 -34 2 -33 47 1 23 3 34 6 25 2 -10 13 -18 24 -18z m1109 -9
c0 -30 -4 -40 -20 -44 -10 -3 -24 1 -30 8 -13 16 -3 45 16 45 8 0 17 7 20 15
10 25 14 17 14 -24z m402 30 c-7 -4 -12 -12 -11 -17 0 -5 -2 -20 -7 -34 l-8
-25 -6 25 c-8 31 5 60 28 60 13 0 14 -2 4 -9z m140 -33 c-5 -36 -18 -49 -39
-41 -20 8 -16 33 10 58 28 27 35 24 29 -17z m58 32 c-13 -9 -13 -11 0 -20 10
-6 11 -10 3 -10 -7 0 -13 -9 -13 -20 0 -28 -17 -25 -22 4 -6 30 8 56 30 56 15
0 15 -2 2 -10z m560 -29 c0 -30 -4 -40 -19 -44 -19 -5 -41 9 -41 26 0 11 41
54 53 56 4 1 7 -16 7 -38z m866 4 c-17 -40 -40 -78 -33 -55 14 48 32 90 39 90
5 0 2 -16 -6 -35z m884 31 c0 -3 -4 -8 -10 -11 -5 -3 -10 -1 -10 4 0 6 5 11
10 11 6 0 10 -2 10 -4z m1221 -26 c14 0 19 -7 18 -27 -2 -24 -2 -25 -6 -5 -2
12 -11 22 -18 22 -7 0 -16 -10 -18 -22 -2 -13 -4 -3 -4 22 -1 25 1 37 4 28 2
-10 13 -18 24 -18z m-4830 -8 c-14 -5 -15 -32 -1 -32 6 0 10 -5 10 -11 0 -22
-24 -2 -32 26 -9 35 -1 50 19 33 10 -8 11 -14 4 -16z m969 24 c0 -15 -24 -66
-31 -66 -12 0 -11 17 1 25 16 10 12 33 -7 38 -11 3 -7 5 10 6 15 0 27 -1 27
-3z m67 -33 c-2 -31 -6 -38 -22 -38 -16 0 -20 7 -22 38 -2 33 0 37 22 37 22 0
24 -4 22 -37z m318 24 c-17 -13 -17 -14 4 -20 25 -6 28 -32 5 -41 -23 -9 -34
2 -34 33 0 31 7 41 29 41 12 0 11 -3 -4 -13z m91 -24 c3 -21 -1 -33 -12 -37
-24 -9 -34 2 -34 40 0 30 3 35 21 32 16 -2 23 -11 25 -35z m72 14 c4 -20 -24
-57 -42 -57 -6 0 -2 7 8 15 17 13 17 15 4 15 -21 0 -32 16 -24 36 8 21 50 14
54 -9z m62 -13 c0 -32 -2 -35 -22 -28 -31 9 -32 10 -23 31 7 17 8 17 16 -2 8
-16 8 -15 4 8 -4 20 -1 27 10 27 11 0 15 -10 15 -36z m340 26 c0 -5 7 -10 15
-10 8 0 15 -4 15 -10 0 -12 22 -9 32 5 11 15 18 2 12 -22 -8 -29 -54 -29 -54
1 -1 19 -2 19 -21 -6 -11 -16 -26 -28 -32 -28 -7 0 -3 7 7 15 17 13 17 15 4
15 -21 0 -32 16 -24 35 6 17 46 21 46 5z m740 -14 c0 -13 3 -31 6 -40 4 -11 0
-16 -13 -16 -15 0 -18 8 -18 40 0 26 4 40 12 40 7 0 13 -11 13 -24z m130 0 c0
-13 3 -31 6 -40 4 -12 0 -16 -15 -16 -12 0 -21 5 -21 10 0 6 5 10 10 10 6 0
10 9 10 20 0 11 -5 20 -11 20 -5 0 -7 5 -4 10 11 18 25 10 25 -14z m557 -11
c-1 -28 -3 -32 -15 -23 -10 9 -16 8 -23 -3 -6 -10 -9 -3 -9 24 0 32 3 37 24
37 21 0 24 -4 23 -35z m688 15 c3 -10 1 -28 -5 -40 -12 -22 -12 -22 -34 -14
-16 6 -22 54 -9 67 13 14 42 6 48 -13z m725 -4 c0 -14 5 -28 10 -31 16 -10 11
-25 -8 -25 -14 0 -17 8 -17 40 0 22 3 40 7 40 5 0 8 -11 8 -24z m-5252 -12
c-2 -10 2 -19 9 -21 6 -2 13 6 16 19 4 21 4 21 6 -3 1 -27 -21 -45 -40 -33
-13 7 -11 54 1 54 6 0 10 -7 8 -16z m172 1 c0 -8 -4 -15 -10 -15 -5 0 -10 5
-10 10 0 6 -5 10 -11 10 -6 0 -9 -8 -7 -17 2 -10 10 -17 16 -15 7 1 12 -3 12
-9 0 -24 -35 -2 -38 24 -3 23 0 27 22 27 16 0 26 -6 26 -15z m112 8 c-10 -4
-9 -8 4 -17 9 -7 14 -18 10 -24 -9 -15 -36 -16 -36 -1 0 5 5 7 10 4 6 -3 10
-2 10 4 0 5 -4 13 -10 16 -16 10 -11 25 8 24 11 0 12 -2 4 -6z m77 -6 c16 28
13 -4 -4 -37 -9 -17 -20 -30 -26 -30 -8 0 -8 5 0 14 9 11 9 20 2 35 -15 28
-13 39 3 18 14 -18 15 -18 25 0z m63 6 c-10 -4 -9 -8 5 -19 16 -12 16 -15 3
-24 -19 -13 -30 -13 -30 1 0 5 5 7 10 4 6 -3 10 -2 10 3 0 6 -7 12 -15 16 -23
8 -18 26 8 25 12 0 16 -3 9 -6z m153 -2 c3 -5 1 -12 -5 -16 -5 -3 -10 -1 -10
4 0 6 -5 11 -11 11 -6 0 -9 -8 -7 -17 2 -10 10 -17 16 -15 7 1 12 -2 12 -8 0
-15 -26 -12 -40 5 -7 8 -10 22 -6 30 6 16 41 21 51 6z m74 -18 l-1 -28 -8 25
c-8 24 -8 24 -9 3 -1 -13 -5 -23 -11 -23 -5 0 -10 10 -11 23 -1 21 -1 21 -9
-3 l-8 -25 -1 28 c-1 24 3 27 29 27 26 0 30 -3 29 -27z m249 20 c-22 -5 -24
-33 -3 -33 8 0 15 -4 15 -10 0 -17 -29 -11 -38 8 -13 24 -4 42 21 41 17 -1 18
-2 5 -6z m89 -9 c3 -8 -2 -23 -11 -32 -15 -15 -17 -15 -32 0 -21 21 -11 48 16
48 11 0 23 -7 27 -16z m51 9 c-10 -2 -18 -13 -18 -24 0 -10 -4 -19 -9 -19 -4
0 -6 11 -3 25 3 18 10 25 26 24 17 -1 17 -2 4 -6z m82 -8 c0 -8 -5 -15 -11
-15 -5 0 -7 5 -4 10 3 6 1 10 -4 10 -15 0 -14 -23 1 -38 13 -13 8 -15 -16 -6
-16 6 -22 35 -9 47 12 13 43 7 43 -8z m138 -12 c2 -13 -1 -23 -7 -23 -6 0 -11
9 -11 20 0 27 -18 25 -23 -2 -4 -19 -4 -18 -6 5 -1 24 2 28 22 25 14 -2 23
-11 25 -25z m49 20 c-4 -3 -2 -12 4 -19 6 -7 8 -18 4 -24 -8 -13 -35 -13 -35
1 0 5 5 7 10 4 6 -3 10 -2 10 4 0 5 -4 13 -10 16 -16 10 -12 25 7 25 9 0 13
-3 10 -7z m341 0 c-23 -6 -23 -33 -1 -33 13 0 14 -3 5 -12 -9 -9 -15 -9 -27 3
-20 20 -9 49 19 48 16 -1 17 -2 4 -6z m548 -6 c7 10 14 13 14 7 0 -5 -7 -19
-15 -30 -13 -16 -16 -17 -25 -4 -5 8 -10 22 -10 30 1 11 3 11 11 -3 10 -18 11
-18 25 0z m84 -29 c-1 -35 -3 -39 -11 -25 -6 9 -14 15 -18 12 -14 -8 -32 21
-25 39 3 9 17 16 30 16 22 0 24 -4 24 -42z m1601 2 c5 0 14 10 19 23 9 21 9
21 9 -4 1 -16 -6 -29 -15 -33 -23 -9 -34 2 -33 32 2 24 2 24 6 5 2 -13 9 -23
14 -23z m95 12 c1 -18 1 -19 -3 -2 -6 27 -31 25 -36 -2 -4 -19 -4 -18 -6 5 -1
24 2 28 22 25 15 -2 22 -10 23 -26z m72 1 c2 -13 -1 -23 -7 -23 -6 0 -11 9
-11 20 0 11 -4 20 -10 20 -5 0 -10 -9 -10 -20 0 -11 -4 -20 -10 -20 -5 0 -10
12 -10 26 0 22 4 25 28 22 19 -2 28 -9 30 -25z m52 13 c0 -8 3 -21 6 -30 4
-11 0 -16 -13 -16 -16 0 -20 6 -19 30 1 29 26 44 26 16z m79 -13 c-2 -24 -2
-25 -6 -5 -2 12 -9 22 -14 22 -5 0 -14 -10 -19 -22 -8 -22 -9 -22 -9 5 -1 22
3 27 24 27 21 0 25 -4 24 -27z m71 12 c0 -8 -4 -15 -10 -15 -5 0 -10 5 -10 10
0 6 -5 10 -11 10 -8 0 -8 -5 1 -15 10 -12 10 -18 0 -30 -10 -12 -9 -15 4 -15
10 0 14 5 11 10 -3 6 -1 10 5 10 21 0 4 -25 -18 -28 -20 -3 -22 1 -22 37 0 37
2 41 25 41 16 0 25 -6 25 -15z m-2873 -11 c-3 -3 -12 -4 -19 -1 -8 3 -5 6 6 6
11 1 17 -2 13 -5z m750 0 c-3 -3 -12 -4 -19 -1 -8 3 -5 6 6 6 11 1 17 -2 13
-5z m-2167 -25 c0 -6 -4 -7 -10 -4 -5 3 -10 11 -10 16 0 6 5 7 10 4 6 -3 10
-11 10 -16z m-30 -85 c0 -24 2 -25 17 -13 15 12 16 12 10 -4 -4 -10 -2 -27 3
-38 12 -21 1 -26 -18 -7 -9 9 -12 9 -12 0 0 -7 -4 -12 -10 -12 -5 0 -10 23
-10 50 0 28 5 50 10 50 6 0 10 -12 10 -26z m150 -4 c10 0 20 -6 23 -12 3 -10
7 -10 20 1 20 16 47 8 47 -14 0 -9 -9 -15 -22 -16 -22 -1 -22 -1 2 -9 22 -6
23 -8 7 -15 -12 -5 -24 -2 -34 8 -15 15 -17 15 -28 0 -23 -31 -45 -8 -44 44 1
26 3 40 6 31 2 -10 13 -18 23 -18z m1028 -61 c-20 -13 -26 -11 -38 11 -8 15
-5 24 17 48 l28 28 3 -39 c2 -25 -2 -43 -10 -48z m2101 25 c-12 -27 -23 -44
-26 -37 -2 7 5 34 17 60 12 26 24 43 26 37 3 -6 -5 -33 -17 -60z m2112 33 c14
-4 19 -14 19 -38 0 -34 -14 -31 -23 6 -5 19 -5 19 -12 -2 -11 -36 -25 -27 -25
15 0 39 12 66 18 39 2 -8 12 -17 23 -20z m-4811 -9 c0 -5 -7 -8 -15 -8 -20 0
-19 -17 2 -29 21 -11 11 -26 -12 -18 -8 4 -15 15 -15 26 0 11 -4 23 -10 26 -6
4 -5 11 2 19 10 10 17 11 30 2 10 -6 18 -14 18 -18z m2643 -20 c5 -35 4 -38
-19 -38 -13 0 -24 5 -24 10 0 6 5 10 10 10 14 0 12 37 -2 43 -10 4 -9 8 2 16
19 13 26 5 33 -41z m128 35 c1 -10 1 -23 0 -30 -1 -6 3 -14 9 -18 18 -11 11
-25 -13 -25 -21 0 -23 4 -21 43 2 50 2 47 14 47 6 0 11 -8 11 -17z m560 -25
c6 -40 1 -46 -19 -26 -9 9 -12 9 -12 0 0 -7 -4 -12 -10 -12 -5 0 -10 18 -10
41 0 36 2 40 22 37 18 -2 24 -12 29 -40z m259 13 c0 -16 3 -36 6 -45 4 -11 0
-16 -13 -16 -17 0 -19 6 -17 38 3 52 3 52 14 52 6 0 10 -13 10 -29z m418 17
c25 -25 8 -78 -25 -78 -20 0 -35 47 -23 71 12 22 30 25 48 7z m745 -40 c5 -35
4 -38 -19 -38 -13 0 -24 5 -24 10 0 6 5 10 10 10 14 0 12 37 -2 43 -10 4 -9 8
2 16 19 13 26 5 33 -41z m-4293 31 c11 -8 12 -12 3 -16 -7 -2 -13 -11 -13 -18
0 -7 6 -15 13 -18 6 -2 9 -7 6 -11 -12 -13 -37 6 -42 32 -8 41 4 52 33 31z
m480 0 c11 -8 12 -12 3 -16 -15 -6 -17 -33 -3 -33 6 0 10 -5 10 -11 0 -23 -34
-2 -41 25 -12 43 0 57 31 35z m-1450 -32 c0 -24 16 -13 23 18 3 11 5 3 6 -18
1 -34 -1 -38 -21 -35 -18 2 -24 11 -26 37 -2 21 0 31 7 26 6 -3 11 -16 11 -28z
m300 23 c0 -5 -6 -10 -12 -10 -7 0 -5 -5 5 -11 14 -8 16 -14 6 -25 -6 -8 -18
-14 -25 -14 -17 0 -19 20 -1 21 10 0 10 2 0 6 -21 8 -15 43 7 43 11 0 20 -4
20 -10z m58 -3 c6 10 13 15 17 11 11 -11 -30 -83 -50 -87 -16 -3 -17 -1 -7 11
7 9 10 29 6 49 -5 31 -4 33 9 16 15 -18 16 -18 25 0z m69 -1 c-3 -8 -1 -16 5
-18 19 -7 0 -38 -22 -38 -11 0 -20 5 -20 10 0 6 8 10 17 10 15 0 15 1 -2 13
-20 15 -13 37 12 37 9 0 13 -6 10 -14z m151 -9 c2 -12 -3 -17 -20 -18 -17 -1
-18 -3 -5 -6 22 -6 23 -26 1 -21 -27 5 -40 34 -24 53 16 20 44 16 48 -8z m71
-14 c0 -21 -3 -33 -5 -26 -3 7 -12 9 -20 6 -9 -3 -14 2 -15 13 0 18 -1 17 -9
-1 -7 -17 -9 -15 -9 13 -1 29 2 32 29 32 28 0 30 -2 29 -37z m269 14 c2 -11
-3 -17 -15 -17 -15 0 -15 -2 -3 -10 18 -11 6 -25 -15 -16 -22 8 -29 34 -15 52
17 19 44 14 48 -9z m132 13 c0 -5 -7 -10 -15 -10 -8 0 -15 -7 -15 -15 0 -8 7
-15 15 -15 8 0 15 -5 15 -11 0 -16 -31 -7 -43 13 -8 12 -7 21 2 32 15 18 41
22 41 6z m215 -10 c4 -11 10 -18 15 -15 5 3 6 13 3 21 -4 12 0 15 18 12 19 -2
24 -9 24 -33 0 -27 -3 -30 -30 -28 -16 2 -45 3 -62 3 -30 1 -33 4 -33 30 0 26
3 30 29 30 21 0 32 -6 36 -20z m125 10 c0 -5 -6 -10 -12 -10 -9 0 -9 -3 1 -9
8 -5 11 -16 8 -25 -7 -18 -32 -21 -42 -6 -3 6 2 10 11 10 17 0 16 1 -1 13 -10
8 -15 19 -11 25 9 15 46 16 46 2z m138 -13 c2 -11 -3 -17 -15 -18 -16 0 -16
-1 2 -9 18 -7 19 -8 2 -15 -19 -8 -47 10 -47 29 0 34 52 46 58 13z m69 7 c2
-7 -4 -11 -14 -10 -12 1 -19 -7 -21 -23 -3 -16 -6 -20 -11 -12 -5 7 -6 23 -3
37 3 18 10 24 25 22 11 -2 22 -8 24 -14z m2279 -10 c-3 -7 -1 -16 4 -19 6 -4
10 3 10 14 0 11 5 23 11 26 7 5 9 -5 7 -26 -4 -40 -31 -51 -48 -19 -13 24 -6
55 11 45 6 -4 8 -13 5 -21z m102 -6 c4 -33 -15 -38 -21 -5 l-4 22 -8 -22 c-10
-30 -25 -29 -25 0 0 30 9 39 35 35 13 -2 21 -12 23 -30z m70 0 c2 -16 -1 -28
-7 -28 -6 0 -11 9 -11 20 0 11 -4 20 -10 20 -5 0 -10 -9 -10 -20 0 -11 -4 -20
-10 -20 -11 0 -14 43 -3 54 17 17 48 0 51 -26z m136 16 c9 -24 7 -44 -4 -44
-5 0 -10 9 -10 20 0 11 -4 20 -10 20 -5 0 -10 -9 -10 -20 0 -11 -4 -20 -10
-20 -5 0 -10 14 -10 30 0 25 4 30 24 30 13 0 27 -7 30 -16z m65 -6 c-2 -13 0
-29 5 -36 11 -19 -7 -34 -35 -30 -20 2 -24 8 -21 33 4 46 10 55 32 55 16 0 21
-5 19 -22z m-4019 -8 c0 -5 -9 -10 -21 -10 -11 0 -17 5 -14 10 3 6 13 10 21
10 8 0 14 -4 14 -10z m950 0 c0 -5 -9 -10 -21 -10 -11 0 -17 5 -14 10 3 6 13
10 21 10 8 0 14 -4 14 -10z m-1250 -121 c0 -16 3 -19 13 -11 9 8 12 4 12 -18
0 -22 -3 -26 -12 -18 -9 7 -13 7 -13 -1 0 -6 -4 -11 -10 -11 -5 0 -10 18 -10
40 0 22 5 40 10 40 6 0 10 -10 10 -21z m153 -2 c17 -6 24 -42 9 -51 -5 -3 -8
4 -8 14 1 11 -3 19 -9 19 -5 0 -10 -9 -9 -19 0 -11 -3 -20 -8 -20 -4 0 -8 19
-8 43 0 23 4 37 8 31 4 -6 15 -13 25 -17z m815 -5 c14 11 15 10 9 -6 -4 -10
-2 -25 4 -32 8 -9 8 -14 1 -14 -6 0 -14 5 -18 11 -4 8 -9 7 -15 -2 -6 -9 -8 2
-7 31 0 25 3 35 5 22 4 -20 7 -21 21 -10z m138 5 c30 -28 23 -57 -12 -57 -21
0 -24 4 -24 40 0 22 2 40 5 40 3 0 17 -10 31 -23z m2116 -22 c3 -27 0 -35 -12
-35 -11 0 -15 10 -13 37 2 47 1 45 12 39 5 -3 11 -22 13 -41z m68 26 c-5 -11
-15 -32 -20 -47 -6 -15 -13 -25 -15 -22 -7 7 27 88 37 88 5 0 4 -9 -2 -19z
m63 -23 c5 -34 3 -38 -15 -38 -17 0 -19 2 -7 16 10 12 10 20 1 34 -9 14 -8 20
1 23 15 5 13 9 20 -35z m553 -2 c1 -34 0 -37 -12 -22 -12 16 -13 16 -23 -1 -9
-15 -10 -12 -11 18 0 40 7 51 30 47 10 -2 15 -16 16 -42z m684 24 c16 -30 3
-62 -23 -58 -38 5 -33 77 5 78 4 0 12 -9 18 -20z m742 -47 c8 -10 4 -13 -18
-12 -16 0 -23 3 -16 6 6 2 12 16 12 29 0 13 -6 24 -12 24 -9 0 -8 4 2 10 12 7
16 4 18 -18 2 -15 8 -33 14 -39z m61 44 c11 -4 17 -16 16 -34 -1 -26 -1 -26
-7 -5 -4 13 -11 23 -17 23 -5 0 -13 -10 -17 -23 -4 -16 -6 -10 -7 22 0 25 3
40 7 34 4 -6 15 -13 25 -17z m-4834 -13 c-9 -11 -8 -18 1 -29 10 -12 10 -15
-3 -15 -8 0 -17 12 -20 27 -6 34 -1 44 19 36 11 -4 12 -9 3 -19z m1639 17 c11
-7 10 -9 -3 -14 -13 -6 -14 -11 -4 -28 9 -17 8 -20 -2 -17 -7 2 -16 16 -20 31
-9 35 2 46 29 28z m-2128 -34 c0 -24 16 -13 23 18 3 13 5 8 6 -13 1 -29 -2
-33 -21 -30 -17 2 -24 11 -26 32 -2 18 0 26 7 21 6 -3 11 -16 11 -28z m165 22
c4 -6 4 -13 0 -17 -4 -4 -10 -1 -12 6 -6 15 -23 6 -23 -13 0 -7 8 -16 18 -18
13 -4 11 -5 -5 -6 -18 -1 -23 4 -23 22 0 13 3 27 7 30 10 10 31 8 38 -4z m125
0 c-11 -8 -12 -12 -2 -16 21 -8 14 -33 -10 -32 -19 1 -19 2 -5 6 17 4 17 5 1
17 -19 15 -11 36 14 36 15 0 15 -2 2 -11z m49 -11 l9 -23 10 25 c10 23 11 23
11 4 1 -23 -38 -79 -47 -69 -4 3 0 10 7 14 10 7 10 13 2 29 -12 22 -14 42 -6
42 3 0 10 -10 14 -22z m81 12 c-13 -9 -13 -12 3 -21 22 -13 13 -29 -16 -28
-21 0 -21 1 -2 8 18 7 18 8 1 18 -21 12 -13 33 12 33 15 0 15 -2 2 -10z m150
0 c8 -5 11 -13 6 -17 -5 -4 -11 -2 -13 5 -7 19 -23 14 -23 -7 0 -11 8 -22 18
-24 12 -4 11 -5 -6 -6 -27 -1 -39 23 -22 44 14 17 20 18 40 5z m77 -26 c2 -28
2 -28 -6 -4 l-7 25 -8 -25 -8 -25 -8 25 -8 25 -2 -25 c-2 -19 -4 -20 -7 -7 -8
29 4 47 29 44 17 -3 23 -11 25 -33z m471 16 c5 -13 3 -13 -11 -1 -15 12 -17
11 -17 -7 0 -11 6 -23 13 -25 7 -3 5 -6 -6 -6 -20 -1 -32 22 -23 45 7 19 37
15 44 -6z m140 -13 c3 -26 1 -28 -25 -25 -28 3 -35 19 -12 27 7 2 9 -1 5 -8
-4 -6 -2 -11 3 -11 15 0 14 37 -1 44 -7 3 -4 5 7 3 14 -1 21 -11 23 -30z m70
5 c3 -17 -2 -25 -17 -29 -12 -3 -21 -9 -21 -14 0 -5 -4 -9 -10 -9 -11 0 -14
63 -3 74 15 15 48 1 51 -22z m50 -5 c2 -17 -1 -27 -10 -27 -8 0 -13 13 -14 30
-1 38 20 35 24 -3z m62 23 c-13 -9 -13 -12 3 -21 24 -14 21 -29 -5 -29 -16 0
-19 3 -10 9 10 6 10 10 -2 21 -18 14 -12 30 12 30 15 0 15 -2 2 -10z m85 -1
c4 -6 4 -13 0 -17 -3 -3 -10 -1 -14 7 -6 9 -10 7 -14 -8 -3 -13 1 -21 12 -24
14 -4 13 -5 -2 -6 -20 -1 -32 21 -23 44 6 17 32 20 41 4z m70 0 c4 -6 0 -9
-11 -7 -12 2 -20 -5 -25 -22 -6 -23 -7 -23 -8 8 -1 25 3 32 18 32 11 0 23 -5
26 -11z m60 -3 c8 10 15 16 15 12 0 -13 -23 -58 -30 -58 -7 0 -30 45 -30 58 0
4 7 -2 15 -12 15 -20 15 -20 30 0z m71 -4 c1 -7 0 -8 -3 -2 -8 17 -23 11 -23
-9 0 -11 8 -22 18 -24 12 -4 11 -5 -6 -6 -27 -1 -39 23 -22 44 14 17 32 15 36
-3z m74 9 c0 -5 -9 -11 -21 -14 -12 -3 -18 -10 -15 -16 4 -5 2 -12 -4 -16 -11
-7 -14 37 -3 48 9 10 43 8 43 -2z m140 -12 c0 -15 4 -19 16 -15 9 3 21 6 27 6
7 0 3 7 -7 15 -16 12 -17 15 -4 15 21 0 42 -26 34 -45 -4 -10 -17 -14 -41 -13
-27 2 -35 7 -36 23 -1 17 -2 16 -9 -5 -8 -25 -8 -25 -9 -2 -1 13 -5 20 -11 17
-6 -4 -8 -10 -5 -15 3 -5 1 -11 -5 -15 -11 -7 -14 37 -3 48 3 4 17 7 30 7 17
0 23 -6 23 -21z m114 6 c-4 -8 -1 -15 5 -15 6 0 11 -7 11 -15 0 -9 -9 -15 -22
-14 -13 0 -17 3 -10 6 10 4 10 8 2 19 -12 14 -6 34 10 34 5 0 7 -7 4 -15z
m151 4 c4 -6 4 -13 0 -17 -3 -3 -10 -1 -14 7 -6 9 -10 7 -14 -8 -3 -13 1 -21
12 -24 11 -3 10 -5 -6 -6 -25 -1 -34 17 -21 42 10 19 33 23 43 6z m70 0 c4 -6
0 -9 -11 -7 -12 2 -20 -5 -25 -22 -6 -23 -7 -23 -8 8 -1 25 3 32 18 32 11 0
23 -5 26 -11z m1702 -24 c2 -25 1 -26 -5 -7 -4 13 -11 23 -17 23 -5 0 -13 -10
-17 -23 -5 -19 -6 -18 -7 10 -1 29 2 33 22 30 17 -2 22 -10 24 -33z m67 19 c9
-24 7 -44 -4 -44 -5 0 -10 9 -10 20 0 27 -18 25 -23 -2 -3 -20 -4 -21 -11 -5
-5 9 -6 24 -2 32 7 20 42 19 50 -1z m57 -17 c6 -21 4 -27 -9 -27 -12 0 -17 9
-17 30 0 36 16 34 26 -3z m76 -2 c1 -18 -1 -22 -4 -10 -6 26 -23 43 -24 27 -3
-26 -4 -31 -11 -38 -5 -4 -8 4 -8 18 0 49 44 52 47 3z m73 21 c0 -8 -4 -18
-10 -21 -5 -3 -10 1 -10 10 0 9 -5 13 -10 10 -6 -4 -7 -12 -3 -18 4 -7 7 -21
5 -32 -2 -19 -1 -19 6 -1 7 15 11 17 17 7 8 -14 -12 -33 -30 -28 -12 4 -19 52
-11 73 7 18 46 18 46 0z m-3300 -16 c0 -11 5 -20 10 -20 6 0 10 9 10 20 0 11
5 20 11 20 6 0 9 -10 7 -22 -2 -17 -10 -23 -28 -23 -18 0 -26 6 -28 23 -2 12
1 22 7 22 6 0 11 -9 11 -20z m2931 -20 c5 0 14 10 19 23 8 21 9 21 9 -6 1 -24
-3 -28 -21 -25 -15 2 -23 10 -24 23 -1 15 0 16 3 3 3 -10 9 -18 14 -18z
m-3661 20 c0 -5 -4 -10 -10 -10 -5 0 -10 5 -10 10 0 6 5 10 10 10 6 0 10 -4
10 -10z m1630 0 c0 -5 -5 -10 -11 -10 -5 0 -7 5 -4 10 3 6 8 10 11 10 2 0 4
-4 4 -10z m-1769 -123 c29 -8 22 -51 -8 -55 -21 -3 -23 0 -22 45 1 26 3 41 6
32 2 -10 13 -19 24 -22z m816 -3 c11 5 13 2 9 -10 -4 -9 -1 -23 5 -30 7 -9 8
-14 1 -14 -6 0 -13 6 -15 13 -4 9 -8 8 -16 -3 -8 -11 -10 -3 -9 35 0 28 3 40
5 27 3 -16 9 -22 20 -18z m141 6 c17 0 23 -33 8 -48 -25 -26 -46 -7 -46 40 1
38 2 41 14 26 7 -10 18 -18 24 -18z m613 -18 c4 -34 2 -42 -10 -42 -12 0 -16
11 -16 45 0 56 18 54 26 -3z m70 0 c4 -34 2 -42 -10 -42 -12 0 -16 11 -16 45
0 56 18 54 26 -3z m3600 15 c13 -4 19 -13 18 -34 -1 -26 -2 -26 -7 -5 -4 13
-11 23 -17 23 -5 0 -13 -10 -17 -23 -4 -15 -6 -5 -6 27 0 28 2 43 5 34 2 -10
13 -19 24 -22z m-5391 4 c0 -10 7 -24 15 -31 8 -7 15 -17 15 -22 0 -6 -7 -5
-15 2 -10 9 -15 9 -15 1 0 -6 -4 -11 -10 -11 -5 0 -10 18 -10 40 0 22 5 40 10
40 6 0 10 -8 10 -19z m556 -13 c-8 -5 -7 -13 2 -29 11 -17 11 -20 1 -17 -15 5
-28 46 -21 65 3 9 7 9 17 0 9 -9 10 -14 1 -19z m2666 -13 c3 -27 0 -35 -12
-35 -11 0 -15 10 -13 37 2 47 1 45 12 39 5 -3 11 -22 13 -41z m68 26 c-5 -11
-15 -32 -20 -47 -6 -15 -13 -25 -15 -22 -7 7 27 88 37 88 5 0 4 -9 -2 -19z
m60 -9 c0 -15 5 -33 12 -40 9 -9 6 -12 -17 -12 -23 0 -26 3 -17 12 15 15 16
48 1 48 -5 0 -7 5 -4 10 12 19 25 10 25 -18z m556 -14 c1 -32 -1 -35 -11 -21
-11 15 -13 15 -23 -3 -10 -16 -11 -12 -12 24 0 39 2 43 23 40 18 -2 22 -10 23
-40z m686 17 c9 -21 9 -29 -4 -42 -23 -22 -48 -9 -48 25 0 49 33 59 52 17z
m740 -42 c8 -10 4 -13 -18 -12 -16 0 -23 3 -16 6 6 2 12 16 12 29 0 13 -6 24
-12 24 -9 0 -8 4 2 10 12 7 16 4 18 -18 2 -15 8 -33 14 -39z m-3818 51 c15 -6
15 -8 -1 -19 -15 -11 -16 -15 -3 -31 13 -15 13 -17 1 -12 -22 7 -35 68 -15 68
1 0 10 -3 18 -6z m1296 -4 c10 -6 11 -10 3 -10 -7 0 -13 -9 -13 -19 0 -11 6
-22 13 -24 7 -4 6 -6 -5 -6 -9 -1 -20 11 -26 28 -14 39 -3 51 28 31z m-2740
-33 c0 -24 16 -13 23 18 3 13 5 8 6 -13 1 -29 -2 -33 -21 -30 -17 2 -24 11
-26 32 -2 18 0 26 7 21 6 -3 11 -16 11 -28z m165 22 c4 -6 4 -13 0 -17 -4 -4
-10 -1 -12 6 -7 19 -23 14 -23 -7 0 -11 8 -22 18 -24 16 -4 16 -5 -1 -6 -20
-1 -32 21 -23 44 6 17 32 20 41 4z m120 1 c-18 -7 -19 -8 -2 -15 25 -10 21
-35 -5 -34 -21 0 -21 1 -4 8 18 7 18 8 3 14 -25 10 -21 37 6 36 21 0 21 -1 2
-9z m75 -3 c9 15 10 13 5 -12 -7 -33 -22 -55 -37 -55 -7 0 -7 5 0 13 7 8 7 18
2 27 -6 8 -10 22 -10 30 1 12 4 11 14 -3 14 -18 15 -18 26 0z m61 4 c-11 -7
-10 -11 4 -19 21 -11 12 -32 -13 -32 -14 0 -14 2 -3 9 11 7 10 11 -4 19 -21
11 -12 32 13 32 14 0 14 -2 3 -9z m154 -2 c4 -6 4 -13 0 -17 -4 -4 -10 -1 -12
6 -7 19 -23 14 -23 -7 0 -11 8 -22 18 -24 13 -4 12 -5 -4 -6 -12 0 -25 6 -28
15 -12 30 33 60 49 33z m72 -24 c2 -29 2 -29 -7 -5 -5 17 -8 19 -9 8 -1 -10
-5 -18 -11 -18 -5 0 -10 8 -11 18 -1 11 -4 9 -9 -8 -8 -23 -8 -23 -9 8 -1 31
1 33 27 30 22 -2 27 -8 29 -33z m303 10 c0 -14 5 -25 10 -25 6 0 10 12 10 27
0 20 3 24 11 16 19 -19 6 -48 -21 -48 -20 0 -26 6 -28 28 -2 15 1 27 7 27 6 0
11 -11 11 -25z m165 14 c4 -6 4 -13 0 -17 -3 -3 -10 0 -15 8 -8 12 -10 11 -10
-7 0 -12 6 -24 13 -26 7 -3 5 -6 -6 -6 -20 -1 -32 22 -23 44 6 17 32 20 41 4z
m119 -4 c-19 -15 -19 -15 0 -30 18 -13 18 -15 3 -15 -20 0 -32 23 -23 45 3 8
13 15 23 15 15 0 15 -2 -3 -15z m91 -15 c0 -18 -6 -26 -23 -28 -13 -2 -25 3
-28 12 -10 26 4 48 28 44 17 -2 23 -10 23 -28z m64 -2 c-2 -31 -2 -31 -6 -5
-5 31 -23 37 -23 8 0 -11 -4 -23 -10 -26 -6 -4 -10 7 -10 24 0 26 4 31 25 31
22 0 25 -4 24 -32z m141 22 c0 -5 -7 -7 -15 -4 -8 4 -16 1 -16 -5 -3 -26 -4
-30 -11 -37 -5 -4 -8 7 -8 24 0 27 4 32 25 32 14 0 25 -4 25 -10z m65 -20 c0
-16 -6 -26 -19 -28 -25 -5 -39 12 -31 38 10 31 50 24 50 -10z m200 19 c4 -6 4
-13 0 -17 -3 -3 -10 0 -15 8 -8 12 -10 11 -10 -7 0 -12 6 -24 13 -26 7 -3 5
-6 -6 -6 -20 -1 -32 22 -23 44 6 17 32 20 41 4z m75 1 c0 -5 -6 -7 -14 -4 -9
3 -18 -5 -24 -23 l-10 -28 -1 33 c-1 28 2 32 24 32 14 0 25 -4 25 -10z m137
-20 c2 -23 2 -23 -6 -5 -8 17 -10 18 -10 3 -1 -10 -5 -18 -11 -18 -5 0 -10 8
-11 18 -1 11 -4 9 -9 -8 -8 -23 -8 -23 -9 8 -1 31 1 33 27 30 21 -2 28 -9 29
-28z m61 -3 c3 -21 -1 -27 -17 -27 -22 0 -36 16 -22 24 5 4 12 0 14 -6 3 -7 6
-3 6 9 1 12 -5 24 -11 27 -7 3 -4 5 7 3 14 -1 21 -11 23 -30z m69 -2 c2 -25 1
-26 -5 -7 -4 13 -11 23 -17 23 -5 0 -13 -10 -17 -23 -5 -19 -6 -18 -7 10 -1
29 2 33 22 30 17 -2 22 -10 24 -33z m71 2 c3 -23 0 -27 -22 -27 -16 0 -26 6
-26 15 0 8 5 15 11 15 5 0 7 -4 4 -10 -3 -5 -1 -10 4 -10 15 0 14 37 -1 44 -7
3 -4 5 7 3 14 -1 21 -11 23 -30z m72 25 c0 -4 -11 -23 -25 -42 l-25 -34 0 35
c0 20 3 39 7 42 9 10 43 9 43 -1z m65 -3 c4 -6 4 -13 0 -17 -4 -4 -10 -1 -12
6 -7 19 -23 14 -23 -7 0 -11 8 -22 18 -24 13 -4 12 -5 -4 -6 -12 0 -25 6 -28
15 -12 30 33 60 49 33z m70 0 c4 -6 0 -9 -11 -7 -12 2 -20 -5 -24 -22 -3 -14
-9 -20 -12 -14 -12 18 3 54 23 54 10 0 21 -5 24 -11z m139 -5 c9 -23 7 -34 -5
-34 -5 0 -8 4 -4 9 3 5 1 12 -5 16 -5 3 -10 -2 -11 -12 0 -16 -1 -16 -9 2 -7
17 -9 17 -9 3 -1 -10 -5 -18 -11 -18 -11 0 -14 33 -3 43 12 13 51 7 57 -9z
m61 -14 c0 -18 -6 -26 -22 -28 -16 -2 -23 2 -23 12 0 9 5 16 11 16 5 0 7 -4 4
-10 -3 -5 -1 -10 4 -10 15 0 14 37 -1 44 -7 3 -4 5 7 3 14 -2 20 -10 20 -27z
m55 19 c-11 -8 -12 -12 -2 -16 21 -8 13 -33 -10 -32 -21 0 -22 1 -3 8 18 7 18
8 1 18 -21 12 -13 33 12 33 15 0 15 -2 2 -11z m145 0 c4 -6 4 -13 0 -17 -3 -3
-10 0 -15 8 -8 12 -10 11 -10 -7 0 -12 6 -24 13 -26 7 -3 5 -6 -6 -6 -20 -1
-32 22 -23 44 6 17 32 20 41 4z m75 1 c0 -5 -6 -7 -14 -4 -9 3 -18 -5 -24 -23
l-10 -28 -1 33 c-1 28 2 32 24 32 14 0 25 -4 25 -10z m995 -31 c6 0 13 10 17
23 5 19 6 18 7 -10 1 -29 -2 -33 -21 -30 -18 2 -23 10 -25 33 -2 25 -1 26 5 7
4 -13 12 -23 17 -23z m92 6 c2 -25 1 -26 -5 -7 -4 13 -11 23 -17 23 -5 0 -13
-10 -17 -23 -5 -19 -6 -18 -7 10 -1 29 2 33 22 30 17 -2 22 -10 24 -33z m67
19 c9 -23 7 -34 -4 -34 -5 0 -10 10 -10 22 0 26 -16 14 -22 -17 -5 -18 -6 -18
-13 -2 -4 9 -5 24 -1 32 7 20 42 19 50 -1z m57 -17 c6 -21 4 -27 -9 -27 -12 0
-17 9 -17 30 0 36 16 34 26 -3z m78 1 c0 -18 -3 -26 -6 -18 -14 44 -15 45 -29
15 l-13 -30 -1 33 c0 28 3 32 25 32 22 0 25 -4 24 -32z m71 19 c0 -8 -9 -22
-20 -32 -11 -10 -17 -22 -14 -26 3 -5 0 -9 -5 -9 -12 0 -15 62 -4 73 12 12 43
7 43 -6z m-1783 -13 c-3 -3 -12 -4 -19 -1 -8 3 -5 6 6 6 11 1 17 -2 13 -5z
m-187 -45 c0 -5 -4 -9 -10 -9 -5 0 -10 7 -10 16 0 8 5 12 10 9 6 -3 10 -10 10
-16z m1970 6 c0 -8 -4 -15 -10 -15 -5 0 -10 7 -10 15 0 8 5 15 10 15 6 0 10
-7 10 -15z m-4303 -91 c13 5 14 4 4 -8 -8 -10 -9 -16 -1 -21 5 -3 10 -11 10
-17 0 -7 -6 -6 -15 2 -11 9 -15 9 -15 1 0 -7 -4 -9 -10 -6 -12 7 -14 68 -2 79
4 4 8 -2 10 -14 3 -15 8 -20 19 -16z m134 6 c31 0 22 -54 -8 -58 -21 -3 -23 0
-22 45 1 26 3 40 6 31 2 -10 13 -18 24 -18z m814 -6 c9 3 12 0 8 -10 -3 -8 0
-21 7 -29 8 -9 8 -15 2 -15 -6 0 -13 6 -15 13 -4 9 -8 8 -16 -3 -8 -11 -10 -3
-9 35 0 28 3 40 5 27 3 -15 10 -22 18 -18z m143 6 c17 0 23 -33 8 -48 -25 -26
-46 -7 -46 40 1 38 2 41 14 26 7 -10 18 -18 24 -18z m612 15 c-10 -12 -10 -15
1 -15 10 0 10 -3 1 -12 -7 -7 -12 -21 -13 -32 0 -16 -3 -13 -9 8 -10 31 2 66
22 66 7 0 6 -5 -2 -15z m3671 -18 c12 -3 19 -13 18 -29 0 -20 -1 -20 -8 -5 -9
25 -25 23 -33 -5 -4 -15 -6 -5 -6 27 0 28 2 43 5 34 2 -10 13 -19 24 -22z
m-4833 -8 c-11 -7 -11 -12 0 -30 11 -17 11 -20 1 -17 -14 5 -31 57 -23 70 3 5
12 4 20 -3 12 -10 12 -14 2 -20z m1229 20 c-17 -10 -16 -11 4 -28 19 -15 20
-18 5 -30 -22 -18 -46 -7 -46 22 0 27 17 47 40 47 12 -1 12 -3 -3 -11z m66
-13 c19 6 20 5 9 -9 -9 -10 -10 -17 -2 -22 5 -3 10 -11 10 -17 0 -7 -5 -6 -15
2 -8 6 -19 9 -25 5 -6 -4 -10 8 -9 32 1 21 3 30 6 20 3 -13 10 -16 26 -11z
m82 14 c3 -5 1 -19 -6 -31 -9 -17 -8 -23 2 -30 10 -6 6 -9 -13 -9 -31 0 -36
11 -13 30 18 15 19 37 3 43 -8 3 -7 6 4 6 9 1 20 -3 23 -9z m50 -3 c-17 -13
-17 -14 4 -20 28 -7 25 -42 -4 -42 -13 0 -21 8 -23 23 -5 33 4 52 25 52 15 0
15 -1 -2 -13z m1236 -30 c5 -30 3 -37 -10 -37 -12 0 -16 10 -16 40 -1 50 18
48 26 -3z m69 24 c-5 -11 -15 -32 -20 -47 -6 -15 -13 -24 -16 -22 -7 8 27 88
37 88 6 0 5 -8 -1 -19z m60 -5 c0 -13 3 -31 6 -40 5 -12 0 -16 -17 -16 -18 0
-20 3 -11 12 15 15 16 48 1 48 -5 0 -7 5 -4 10 11 18 25 10 25 -14z m557 -20
c2 -34 1 -37 -11 -21 -13 18 -14 18 -24 -1 -10 -16 -11 -12 -12 24 0 39 2 43
23 40 18 -2 22 -10 24 -42z m683 29 c10 -12 10 -21 1 -41 -14 -31 -45 -29 -49
4 -7 48 21 69 48 37z m730 -13 c0 -15 5 -33 12 -40 9 -9 7 -12 -10 -12 -19 0
-21 4 -15 30 3 20 1 30 -6 30 -7 0 -9 5 -6 10 12 19 25 10 25 -18z m-5255 -15
c0 -22 20 -18 27 5 5 19 6 18 7 -10 1 -29 -2 -33 -21 -30 -17 2 -24 11 -26 33
-2 17 0 26 4 22 5 -5 9 -14 9 -20z m170 12 c4 -6 4 -13 0 -17 -4 -4 -10 -1
-12 6 -6 17 -23 15 -23 -3 0 -7 8 -19 18 -24 16 -10 16 -10 -1 -11 -20 0 -32
23 -23 45 6 17 32 20 41 4z m127 4 c-10 -4 -10 -8 -2 -19 14 -16 5 -34 -18
-34 -15 0 -15 2 -2 11 11 8 12 12 3 16 -22 8 -14 33 10 32 12 0 16 -3 9 -6z
m68 -6 c9 15 10 13 5 -12 -7 -33 -22 -55 -37 -55 -7 0 -7 4 0 13 5 7 6 21 1
32 -12 31 -10 42 5 22 14 -18 15 -18 26 0z m61 4 c-11 -7 -10 -11 4 -19 21
-11 12 -32 -13 -32 -13 0 -14 2 -4 9 10 6 10 10 -2 21 -18 14 -12 30 12 30 14
0 14 -2 3 -9z m154 -2 c4 -6 4 -13 0 -17 -4 -4 -10 -1 -12 6 -7 19 -23 14 -23
-7 0 -11 8 -22 18 -24 14 -4 14 -5 1 -6 -22 -1 -41 23 -33 43 7 18 39 22 49 5z
m74 -21 c-1 -31 -1 -32 -9 -8 -5 17 -8 19 -9 8 -1 -10 -5 -18 -11 -18 -5 0
-10 8 -11 18 0 14 -2 14 -9 -3 -8 -18 -9 -17 -9 8 -1 24 3 27 29 27 27 0 30
-3 29 -32z m301 6 c0 -14 4 -23 10 -19 6 3 10 16 10 28 0 15 3 18 11 10 19
-19 6 -48 -21 -48 -20 0 -26 6 -28 28 -2 15 1 27 7 27 6 0 11 -12 11 -26z
m165 15 c4 -6 4 -13 0 -17 -3 -3 -10 0 -15 8 -8 12 -10 11 -10 -7 0 -12 6 -24
13 -26 7 -3 5 -6 -6 -6 -20 -1 -32 22 -23 44 6 17 32 20 41 4z m143 -17 c2
-14 -3 -24 -15 -29 -10 -4 -21 -11 -25 -17 -5 -6 -8 -1 -9 12 -1 12 -2 28 -3
35 -4 21 5 28 27 25 14 -2 23 -11 25 -26z m66 19 c3 -5 -2 -8 -11 -7 -10 0
-20 -9 -24 -24 -6 -23 -7 -23 -8 8 -1 25 3 32 18 32 11 0 22 -4 25 -9z m70 -7
c7 -19 -10 -44 -31 -44 -17 0 -27 24 -19 45 7 20 42 19 50 -1z m62 -17 c1 -20
-2 -24 -11 -17 -7 6 -15 6 -22 -1 -7 -7 -10 -1 -9 19 1 23 5 29 21 28 15 -1
20 -8 21 -29z m60 18 c8 11 14 13 14 6 0 -20 -30 -71 -41 -71 -8 0 -8 4 -1 13
7 8 7 18 2 27 -6 8 -10 22 -10 30 1 11 4 10 12 -4 11 -19 11 -19 24 -1z m2369
-26 c6 0 13 10 17 23 5 19 6 18 7 -10 1 -29 -2 -33 -21 -30 -18 2 -23 10 -25
33 -2 25 -1 26 5 7 4 -13 12 -23 17 -23z m92 11 c3 -25 3 -25 -7 -2 -5 12 -12
22 -15 22 -3 0 -10 -10 -15 -22 -8 -22 -9 -22 -9 5 -1 24 3 28 22 25 15 -2 23
-11 24 -28z m71 3 c2 -13 -1 -23 -7 -23 -6 0 -11 9 -11 20 0 11 -4 20 -10 20
-5 0 -10 -9 -10 -20 0 -11 -4 -20 -10 -20 -11 0 -14 33 -3 44 15 15 48 1 51
-21z m53 -6 c6 -21 4 -27 -9 -27 -12 0 -17 9 -17 30 0 36 16 34 26 -3z m78 6
c-2 -24 -2 -25 -6 -5 -4 22 -22 31 -24 12 -1 -5 -2 -14 -3 -19 -3 -26 -16 -20
-16 7 0 27 4 32 25 32 21 0 25 -4 24 -27z m71 14 c0 -8 -9 -22 -20 -32 -11
-10 -17 -22 -14 -26 3 -5 0 -9 -5 -9 -12 0 -15 62 -4 73 12 12 43 7 43 -6z
m-3073 -13 c-3 -3 -12 -4 -19 -1 -8 3 -5 6 6 6 11 1 17 -2 13 -5z m3073 -39
c0 -8 -4 -15 -8 -15 -5 0 -9 7 -9 15 0 8 4 15 9 15 4 0 8 -7 8 -15z m-4320
-75 c0 -14 5 -18 18 -13 14 6 15 4 4 -9 -9 -11 -10 -18 -2 -23 5 -3 10 -11 10
-18 0 -8 -3 -8 -11 0 -6 6 -18 9 -25 6 -11 -4 -14 5 -14 36 0 23 5 41 10 41 6
0 10 -9 10 -20z m151 -10 c16 0 20 -6 17 -27 -2 -20 -9 -28 -23 -28 -17 0 -20
7 -22 45 -1 25 1 37 4 28 2 -10 13 -18 24 -18z m814 -6 c9 3 12 0 8 -10 -3 -8
0 -21 7 -29 9 -10 9 -15 1 -15 -6 0 -11 5 -11 11 0 6 -7 9 -15 5 -12 -4 -15 3
-14 37 1 24 4 32 6 19 3 -15 10 -22 18 -18z m143 6 c17 0 21 -27 8 -46 -22
-30 -46 -10 -46 38 1 38 2 41 14 26 7 -10 18 -18 24 -18z m592 16 c0 -7 9 -16
20 -19 20 -5 29 -47 10 -47 -5 0 -10 9 -10 20 0 11 -4 20 -10 20 -5 0 -10 -9
-10 -20 0 -11 -4 -20 -10 -20 -5 0 -10 18 -10 40 0 22 5 40 10 40 6 0 10 -6
10 -14z m1586 -21 c-8 -19 -20 -43 -26 -52 -9 -15 -10 -14 -4 7 8 30 33 80 39
80 3 0 -1 -16 -9 -35z m2105 2 c12 -3 19 -13 18 -29 l0 -23 -9 23 c-5 12 -12
22 -15 22 -3 0 -10 -10 -15 -22 -7 -19 -9 -14 -8 22 0 25 2 38 5 29 2 -10 13
-19 24 -22z m-4833 -8 c-11 -7 -11 -12 0 -30 11 -17 11 -20 1 -17 -14 5 -31
57 -23 70 3 5 12 4 20 -3 12 -10 12 -14 2 -20z m2663 -12 c5 -30 3 -37 -10
-37 -12 0 -16 10 -16 40 0 50 18 47 26 -3z m129 19 c0 -13 3 -31 6 -40 5 -12
0 -16 -17 -16 -18 0 -20 3 -11 12 15 15 16 48 1 48 -5 0 -7 5 -4 10 11 18 25
10 25 -14z m556 -14 c1 -24 -1 -30 -10 -23 -9 7 -16 7 -24 -1 -9 -9 -12 -3
-12 26 0 33 3 37 22 34 18 -2 23 -10 24 -36z m684 23 c10 -12 10 -21 1 -41
-14 -31 -45 -29 -49 4 -7 48 21 69 48 37z m730 -13 c0 -15 5 -33 12 -40 9 -9
7 -12 -10 -12 -19 0 -21 4 -15 30 3 20 1 30 -6 30 -7 0 -9 5 -6 10 12 19 25
10 25 -18z m-5254 -13 c1 -5 2 -14 3 -21 1 -17 18 2 24 27 3 13 5 8 6 -13 1
-29 -2 -33 -21 -30 -17 2 -24 11 -26 33 -3 26 11 30 14 4z m169 10 c4 -6 4
-13 0 -17 -4 -4 -10 -1 -12 6 -6 17 -23 15 -23 -3 0 -7 8 -19 18 -25 15 -10
15 -10 -3 -8 -29 4 -35 58 -6 58 11 0 23 -5 26 -11z m127 4 c-10 -4 -10 -8 -2
-19 14 -16 5 -34 -18 -34 -15 0 -15 2 -2 11 11 8 12 12 3 16 -22 8 -14 33 10
32 12 0 16 -3 9 -6z m67 -6 c16 28 13 -4 -4 -37 -9 -17 -20 -30 -26 -30 -8 0
-8 5 0 14 9 11 9 20 2 35 -15 28 -13 39 3 18 14 -18 15 -18 25 0z m63 6 c-10
-4 -9 -8 4 -17 20 -15 11 -36 -14 -36 -15 0 -15 2 -2 10 13 9 13 12 -3 21 -20
12 -14 29 11 28 11 0 13 -2 4 -6z m153 -4 c4 -6 4 -13 0 -17 -4 -4 -10 -1 -12
6 -6 17 -23 15 -23 -3 0 -7 8 -19 18 -24 15 -9 15 -10 1 -11 -22 0 -43 26 -35
45 6 17 42 20 51 4z m74 -21 l-1 -33 -8 30 c-6 24 -8 26 -9 8 -1 -27 -21 -31
-22 -5 0 14 -2 14 -9 -3 -8 -18 -9 -17 -9 8 -1 24 3 27 29 27 27 0 30 -3 29
-32z m301 6 c0 -14 4 -23 10 -19 6 3 10 16 10 28 0 16 3 18 11 10 7 -7 9 -19
6 -28 -9 -22 -37 -31 -48 -14 -12 19 -11 49 1 49 6 0 10 -12 10 -26z m170 11
c0 -18 -16 -20 -23 -2 -3 6 -6 2 -6 -10 -1 -12 5 -24 12 -26 7 -3 5 -6 -6 -6
-20 -1 -32 22 -23 44 3 8 15 15 26 15 11 0 20 -7 20 -15z m137 -1 c4 -10 -4
-25 -21 -40 -14 -14 -26 -24 -27 -22 -3 9 -5 64 -1 71 6 13 43 7 49 -9z m73 6
c0 -5 -7 -7 -15 -4 -9 4 -18 -2 -24 -17 -10 -24 -10 -24 -10 4 -1 22 3 27 24
27 14 0 25 -4 25 -10z m66 -5 c7 -18 -13 -45 -33 -45 -17 0 -27 24 -19 45 7
20 45 19 52 0z m60 -18 c1 -20 -2 -24 -11 -17 -7 6 -15 6 -22 -1 -7 -7 -10 -1
-9 19 1 23 5 29 21 28 15 -1 20 -8 21 -29z m60 18 c18 24 18 13 0 -30 -20 -47
-31 -44 -33 7 -1 35 1 39 9 24 11 -19 11 -19 24 -1z m218 -1 c9 -23 7 -34 -4
-34 -5 0 -10 9 -10 20 0 11 -4 20 -10 20 -5 0 -10 -9 -10 -20 0 -11 -4 -20
-10 -20 -5 0 -10 11 -10 25 0 20 5 25 24 25 13 0 27 -7 30 -16z m56 1 c-7 -8
-10 -22 -6 -30 3 -9 0 -15 -9 -15 -18 0 -28 17 -14 25 5 4 8 13 5 21 -4 9 2
14 16 14 17 0 18 -3 8 -15z m61 6 c-11 -7 -10 -11 5 -20 16 -9 17 -12 4 -21
-8 -5 -19 -10 -25 -10 -5 0 -3 5 5 10 13 9 13 12 -2 21 -25 14 -22 29 5 29 16
0 18 -3 8 -9z m64 -6 c6 0 13 4 17 10 4 5 8 -2 8 -17 0 -15 -4 -30 -10 -33 -5
-3 -10 -1 -10 6 0 8 -4 8 -15 -1 -8 -7 -15 -9 -15 -4 0 5 -3 20 -7 33 -5 19
-3 22 8 15 8 -5 19 -9 24 -9z m1970 -26 c6 0 13 10 17 23 6 19 7 18 5 -7 -2
-23 -7 -30 -22 -30 -15 0 -20 7 -22 30 -2 25 -1 26 5 7 4 -13 12 -23 17 -23z
m92 11 c3 -25 3 -25 -7 -2 -5 12 -12 22 -15 22 -3 0 -10 -10 -15 -22 -8 -22
-9 -22 -9 5 -1 24 3 28 22 25 15 -2 23 -11 24 -28z m71 3 c2 -13 -1 -23 -7
-23 -6 0 -11 9 -11 20 0 11 -4 20 -10 20 -5 0 -10 -9 -10 -20 0 -11 -4 -20
-10 -20 -11 0 -14 33 -3 44 15 15 48 1 51 -21z m54 -3 c3 -23 1 -30 -11 -30
-11 0 -16 9 -16 30 0 17 5 30 11 30 7 0 14 -13 16 -30z m77 3 c-2 -24 -2 -25
-6 -5 -2 12 -9 22 -14 22 -5 0 -14 -10 -19 -22 -8 -22 -9 -22 -9 5 -1 22 3 27
24 27 21 0 25 -4 24 -27z m71 12 c0 -18 -17 -20 -23 -2 -2 6 -8 8 -13 4 -5 -4
-3 -12 4 -16 7 -4 10 -16 6 -27 -5 -15 -4 -16 5 -4 5 8 13 11 16 8 11 -11 -5
-28 -26 -28 -16 0 -19 7 -19 40 0 36 3 40 25 40 16 0 25 -6 25 -15z m-3073
-11 c-3 -3 -12 -4 -19 -1 -8 3 -5 6 6 6 11 1 17 -2 13 -5z m-1247 -114 c0 -14
5 -18 17 -13 14 6 14 3 -3 -20 -26 -36 -34 -34 -34 13 0 22 5 40 10 40 6 0 10
-9 10 -20z m148 -8 c24 4 29 -47 7 -56 -27 -10 -35 2 -34 47 1 23 3 34 6 24 2
-10 12 -16 21 -15z m815 -9 c7 3 12 -5 12 -17 0 -14 -6 -22 -17 -22 -15 0 -18
8 -17 41 1 24 3 31 6 17 3 -13 10 -22 16 -19z m127 21 c0 -8 4 -13 9 -9 6 3
15 -3 20 -13 13 -25 -9 -58 -33 -49 -18 7 -24 87 -6 87 6 0 10 -7 10 -16z
m340 1 c0 -8 6 -14 13 -12 7 1 13 -10 14 -28 1 -20 0 -23 -4 -7 -6 27 -23 29
-23 2 0 -11 -4 -20 -10 -20 -5 0 -10 18 -10 40 0 22 5 40 10 40 6 0 10 -7 10
-15z m168 -60 c-2 -2 -12 -5 -23 -7 -29 -5 -35 48 -6 57 12 3 22 12 23 18 1 7
3 -5 5 -27 3 -21 3 -39 1 -41z m122 46 c0 -16 3 -36 6 -45 4 -11 0 -16 -13
-16 -15 0 -18 6 -15 45 4 50 22 62 22 16z m1566 -6 c-17 -40 -40 -78 -33 -55
14 48 32 90 39 90 5 0 2 -16 -6 -35z m2115 5 c5 0 9 -12 8 -27 0 -27 -1 -27
-9 -5 -5 12 -14 22 -19 22 -5 0 -12 -10 -14 -22 -2 -13 -5 -4 -6 20 -1 39 0
42 15 28 8 -9 20 -16 25 -16z m-4843 -7 c-9 -11 -9 -19 1 -35 10 -16 10 -19 0
-16 -14 5 -31 56 -23 69 2 5 11 6 20 2 11 -4 12 -8 2 -20z m1642 8 c0 -4 -5
-12 -11 -18 -8 -8 -8 -13 0 -17 16 -10 13 -26 -3 -20 -14 5 -28 53 -20 66 5 8
34 -1 34 -11z m1020 -5 c0 -13 3 -31 6 -40 4 -11 0 -16 -13 -16 -15 0 -18 8
-18 40 0 26 4 40 12 40 7 0 13 -11 13 -24z m130 0 c0 -13 3 -31 6 -40 4 -12 0
-16 -15 -16 -12 0 -21 5 -21 10 0 6 5 10 10 10 6 0 10 9 10 20 0 11 -5 20 -11
20 -5 0 -7 5 -4 10 11 18 25 10 25 -14z m557 -11 c-1 -28 -3 -32 -15 -23 -10
9 -16 8 -23 -3 -6 -10 -9 -3 -9 24 0 32 3 37 24 37 21 0 24 -4 23 -35z m688
15 c3 -10 1 -28 -5 -40 -12 -22 -12 -22 -34 -14 -16 6 -22 54 -9 67 13 14 42
6 48 -13z m725 -4 c0 -14 5 -28 10 -31 16 -10 11 -25 -8 -25 -14 0 -17 8 -17
40 0 22 3 40 7 40 5 0 8 -11 8 -24z m-5080 -17 c0 -5 -4 -9 -10 -9 -5 0 -10 8
-10 17 0 13 -3 14 -11 6 -14 -14 -4 -47 11 -38 5 3 10 1 10 -5 0 -6 -8 -10
-17 -8 -22 4 -30 48 -12 59 14 8 39 -6 39 -22z m115 21 c-4 -6 -1 -17 5 -25 6
-8 9 -19 5 -25 -8 -13 -35 -13 -35 1 0 5 5 7 10 4 14 -8 13 8 -1 22 -12 12 -4
33 12 33 6 0 7 -5 4 -10z m135 0 c-13 -8 -12 -11 5 -24 17 -14 18 -17 5 -26
-19 -13 -30 -13 -30 1 0 5 5 7 10 4 17 -11 11 7 -7 21 -16 12 -16 15 -3 24 8
5 20 10 25 10 6 0 3 -5 -5 -10z m153 -23 c-4 -6 -9 -3 -13 8 -5 13 -9 15 -14
6 -11 -17 1 -44 16 -35 10 5 10 4 1 -6 -10 -11 -15 -11 -28 0 -20 17 -19 37 2
49 21 11 47 -5 36 -22z m547 7 c0 -20 -18 -17 -23 4 -3 10 -5 6 -6 -10 0 -16
4 -28 11 -28 6 0 9 -2 6 -5 -3 -3 -13 -3 -22 1 -18 7 -21 35 -5 51 14 14 39 6
39 -13z m114 14 c-4 -6 0 -17 10 -23 15 -11 15 -14 1 -25 -13 -10 -18 -11 -28
-1 -9 10 -8 11 6 6 9 -4 17 -4 17 0 0 4 -8 14 -17 21 -16 12 -16 15 -3 24 20
13 23 13 14 -2z m73 -6 c-11 -2 -17 -10 -14 -20 2 -10 10 -16 18 -14 11 3 11
1 2 -9 -10 -10 -15 -9 -28 1 -8 7 -15 16 -15 21 0 15 32 39 43 32 8 -5 6 -9
-6 -11z m153 -8 c0 -20 -18 -17 -23 4 -4 14 -5 13 -6 -3 0 -12 4 -26 11 -33
13 -13 8 -15 -16 -6 -19 7 -21 35 -5 51 14 14 39 6 39 -13z m340 6 c0 -5 -6
-7 -13 -4 -8 3 -18 -5 -25 -18 -11 -23 -11 -23 -11 4 -1 17 5 28 17 31 20 4
32 -1 32 -13z m210 -19 c0 -19 -25 -31 -47 -24 -20 7 -15 23 10 33 18 7 18 9
4 9 -10 1 -15 6 -12 11 10 15 45 -8 45 -29z m42 27 c-9 -9 -7 -14 5 -23 9 -7
13 -17 9 -23 -9 -15 -36 -16 -36 -1 0 5 5 7 10 4 14 -8 13 8 -1 22 -13 13 -4
33 14 33 8 0 8 -3 -1 -12z m158 -14 c0 -21 -20 -17 -21 4 0 14 -2 14 -9 -3 -5
-14 -3 -24 8 -32 14 -12 14 -13 -1 -13 -26 0 -40 35 -22 54 18 17 45 11 45
-10z m70 6 c0 -5 -7 -7 -15 -4 -9 4 -18 -2 -24 -17 l-10 -24 0 27 c-1 17 5 28
17 31 20 4 32 -1 32 -13z m1699 -24 c0 -21 0 -21 -9 2 -5 12 -14 22 -19 22 -5
0 -12 -10 -14 -22 -4 -20 -4 -20 -6 4 0 14 5 28 12 31 18 6 37 -12 36 -37z
m71 3 c0 -11 -4 -19 -10 -19 -5 0 -10 9 -10 20 0 11 -4 20 -10 20 -5 0 -10 -9
-10 -20 0 -11 -4 -20 -10 -20 -17 0 -11 38 7 49 22 12 43 -3 43 -30z m43 34
c2 -5 7 -20 11 -35 5 -23 3 -28 -12 -28 -14 0 -18 8 -18 35 0 32 9 45 19 28z
m86 -31 c-2 -24 -2 -24 -6 -4 -2 12 -9 22 -14 22 -5 0 -14 -10 -19 -22 -8 -22
-9 -22 -9 4 -1 17 5 28 17 31 25 5 32 -1 31 -31z m68 23 c3 -9 2 -19 -2 -23
-4 -4 -10 -1 -12 6 -3 6 -9 12 -15 12 -7 0 -6 -5 1 -14 6 -7 9 -22 5 -32 -5
-15 -4 -16 5 -4 5 8 13 11 16 8 11 -11 -5 -28 -26 -28 -15 0 -19 7 -19 39 0
35 8 48 33 50 4 1 10 -6 14 -14z m-4252 -17 c0 -22 24 -18 28 4 4 21 4 21 6
-3 0 -16 -5 -29 -15 -33 -23 -9 -34 1 -34 31 0 15 3 23 8 19 4 -4 7 -13 7 -18z
m364 9 c16 28 13 -4 -4 -37 -9 -17 -20 -30 -26 -30 -8 0 -8 5 0 14 9 11 9 20
2 35 -15 28 -13 39 3 18 14 -18 15 -18 25 0z m290 -14 l-1 -28 -8 25 c-8 24
-8 24 -9 3 -1 -13 -5 -23 -11 -23 -5 0 -10 10 -11 23 -1 21 -1 21 -9 -3 l-8
-25 -1 28 c-1 24 3 27 29 27 26 0 30 -3 29 -27z m301 7 c0 -11 5 -20 10 -20 6
0 10 9 10 20 0 11 5 20 10 20 6 0 10 -9 10 -20 0 -25 -32 -44 -48 -28 -15 15
-16 48 -2 48 6 0 10 -9 10 -20z m621 -20 c5 0 9 9 9 20 0 11 5 20 10 20 19 0
11 -47 -9 -53 -25 -6 -31 0 -30 32 2 24 2 24 6 4 2 -13 9 -23 14 -23z m141 -7
c7 -9 7 -13 0 -13 -18 0 -34 29 -27 47 7 17 8 16 13 -2 2 -11 9 -26 14 -32z
m18 32 c0 -8 -4 -15 -8 -15 -5 0 -9 7 -9 15 0 8 4 15 9 15 4 0 8 -7 8 -15z
m209 -12 l-1 -28 -8 25 -8 25 -2 -25 c-2 -18 -4 -20 -7 -7 -2 9 -8 17 -13 17
-5 0 -7 -7 -4 -15 4 -8 1 -15 -5 -15 -6 0 -11 11 -11 25 0 21 5 25 30 25 26 0
30 -3 29 -27z m1942 -13 c5 0 14 10 19 23 9 21 9 21 9 -4 1 -16 -6 -29 -15
-33 -23 -9 -34 2 -33 32 2 24 2 24 6 5 2 -13 9 -23 14 -23z m-2704 14 c-3 -3
-12 -4 -19 -1 -8 3 -5 6 6 6 11 1 17 -2 13 -5z m680 0 c-3 -3 -12 -4 -19 -1
-8 3 -5 6 6 6 11 1 17 -2 13 -5z m-1897 -25 c0 -6 -4 -7 -10 -4 -5 3 -10 11
-10 16 0 6 5 7 10 4 6 -3 10 -11 10 -16z m-30 -90 c0 -17 3 -19 14 -10 10 9
13 5 12 -18 -1 -22 -4 -27 -13 -19 -9 7 -13 7 -13 -1 0 -6 -4 -11 -10 -11 -5
0 -10 18 -10 40 0 22 5 40 10 40 6 0 10 -10 10 -21z m133 -26 c-4 -17 -1 -23
12 -23 13 0 16 6 11 26 -5 17 -3 23 4 19 5 -3 10 -17 10 -31 0 -19 -5 -24 -25
-24 -23 0 -25 4 -25 43 0 30 3 38 10 27 5 -8 7 -25 3 -37z m1597 17 c0 -11 -5
-22 -11 -26 -8 -4 -7 -9 2 -15 10 -6 8 -9 -8 -9 -26 0 -30 12 -8 30 19 16 19
30 -1 30 -8 0 -13 4 -9 10 9 15 35 0 35 -20z m121 -4 c8 4 9 3 5 -5 -4 -6 -3
-18 4 -25 8 -11 6 -14 -15 -12 -22 1 -25 5 -24 41 0 35 1 37 10 17 5 -14 13
-20 20 -16z m86 -11 c1 -30 -2 -35 -22 -35 -20 0 -24 5 -23 33 2 58 43 60 45
2z m1293 21 c0 -7 -6 -18 -12 -24 -10 -10 -10 -15 2 -22 11 -7 8 -10 -14 -10
-28 0 -28 1 -13 18 19 21 22 42 6 42 -5 0 -8 4 -4 10 7 12 35 1 35 -14z m54
-13 c-17 -40 -43 -74 -29 -38 4 11 12 32 17 48 5 15 14 27 18 27 5 0 2 -17 -6
-37z m71 -9 c-9 -13 -11 -24 -5 -24 5 0 10 -4 10 -9 0 -5 -9 -7 -20 -4 -24 6
-26 19 -5 27 21 8 19 36 -2 36 -15 0 -16 2 -3 10 9 5 19 5 27 -2 11 -9 11 -15
-2 -34z m552 1 c-1 -28 -3 -32 -15 -23 -10 9 -16 8 -23 -3 -6 -10 -9 -3 -9 23
0 35 13 50 36 41 7 -2 12 -20 11 -38z m1486 22 c11 -4 17 -16 16 -34 -1 -26
-1 -26 -7 -5 -4 13 -11 23 -17 23 -5 0 -13 -10 -17 -23 -4 -16 -6 -10 -7 22 0
25 3 40 7 34 4 -6 15 -13 25 -17z m-4836 -19 c-9 -16 -9 -22 1 -25 6 -3 12 -9
12 -14 0 -20 -28 5 -33 29 -6 33 -1 43 18 36 11 -5 12 -10 2 -26z m952 5 c-9
-10 -9 -17 -1 -25 15 -15 16 -31 1 -23 -14 9 -31 54 -24 65 3 5 12 7 21 3 11
-4 12 -8 3 -20z m158 11 c7 -20 -9 -49 -28 -50 -9 -1 -10 0 -1 3 14 5 17 53 2
53 -5 0 -10 -8 -10 -17 0 -12 -3 -14 -11 -6 -6 6 -8 16 -5 22 11 17 46 13 53
-5z m133 -19 c0 -19 -3 -35 -7 -35 -18 1 -44 30 -38 40 6 9 10 9 17 -1 6 -10
7 -7 3 9 -5 16 -2 22 9 22 12 0 16 -10 16 -35z m2779 13 c-2 -13 0 -29 4 -35
6 -9 2 -13 -10 -13 -14 0 -18 8 -18 35 0 22 5 35 13 35 8 0 12 -9 11 -22z
m741 -1 c0 -13 5 -28 12 -35 9 -9 8 -12 -7 -12 -16 0 -20 7 -20 35 0 19 3 35
8 35 4 0 7 -10 7 -23z m-5090 3 c8 -5 11 -13 6 -17 -5 -4 -11 -2 -13 5 -6 15
-23 6 -23 -14 0 -8 7 -14 16 -14 8 0 13 -4 9 -10 -10 -16 -35 1 -35 24 0 35
13 43 40 26z m124 -5 c-4 -8 -1 -15 5 -15 6 0 11 -7 11 -15 0 -9 -9 -15 -22
-14 -13 0 -17 3 -10 6 10 4 10 8 2 19 -12 14 -6 34 10 34 5 0 7 -7 4 -15z m74
-9 c6 10 12 14 12 7 0 -21 -22 -62 -38 -68 -12 -4 -13 -3 -3 9 9 11 10 20 2
35 -6 11 -11 26 -11 33 1 7 7 2 14 -11 13 -23 14 -23 24 -5z m62 14 c-13 -9
-13 -12 3 -21 23 -13 22 -25 -3 -32 -11 -3 -20 -1 -20 4 0 5 5 9 12 9 6 0 3 7
-8 15 -16 13 -17 16 -4 25 8 5 20 10 25 10 6 0 3 -5 -5 -10z m150 -5 c9 -10 9
-15 1 -15 -6 0 -11 5 -11 11 0 5 -4 7 -10 4 -16 -10 -12 -33 8 -38 12 -4 11
-5 -6 -6 -27 -1 -39 23 -22 44 16 19 24 19 40 0z m77 -21 c2 -28 2 -28 -7 -4
-8 24 -8 24 -9 3 -1 -13 -5 -23 -11 -23 -5 0 -10 10 -11 23 -1 21 -1 21 -9 -3
l-8 -25 -1 26 c-1 32 6 39 33 35 15 -2 22 -11 23 -32z m333 21 c9 -10 9 -15 1
-15 -6 0 -11 5 -11 10 0 6 -4 10 -10 10 -17 0 -11 -38 8 -43 12 -4 11 -5 -6
-6 -27 -1 -39 23 -22 44 16 19 24 19 40 0z m68 -18 c3 -23 0 -27 -22 -27 -26
0 -35 14 -16 25 6 3 10 1 10 -4 0 -6 4 -11 10 -11 11 0 1 32 -14 43 -7 5 -3 7
9 5 13 -2 21 -12 23 -31z m132 23 c8 -5 11 -12 7 -17 -5 -4 -12 -2 -16 6 -6
10 -10 9 -15 -4 -8 -23 -8 -23 12 -28 13 -4 12 -5 -5 -6 -25 -1 -34 17 -21 42
10 19 17 21 38 7z m150 -31 c0 -11 -4 -19 -10 -19 -5 0 -10 9 -10 20 0 11 -4
20 -10 20 -5 0 -10 -9 -10 -20 0 -11 -4 -20 -10 -20 -18 0 -11 48 8 52 23 6
42 -10 42 -33z m55 30 c4 -6 4 -13 0 -17 -3 -3 -10 0 -15 8 -8 12 -10 11 -10
-7 0 -12 6 -24 13 -26 7 -3 5 -6 -6 -6 -23 -1 -33 25 -17 44 15 18 26 19 35 4z
m2592 -25 c2 -25 1 -26 -5 -6 -9 30 -25 30 -34 0 -6 -22 -6 -22 -7 4 -2 47 43
49 46 2z m61 24 c15 -15 16 -48 2 -48 -5 0 -10 9 -10 20 0 11 -4 20 -10 20 -5
0 -10 -9 -10 -21 0 -11 -4 -17 -10 -14 -14 9 -12 42 3 48 19 8 22 8 35 -5z
m63 -21 c6 -21 4 -27 -9 -27 -12 0 -17 9 -17 30 0 36 16 34 26 -3z m76 -3 c1
-20 0 -22 -4 -6 -2 12 -9 22 -14 22 -5 0 -14 -10 -19 -22 -8 -22 -9 -22 -9 4
-1 47 43 49 46 2z m73 22 c0 -8 -4 -18 -10 -21 -5 -3 -10 1 -10 10 0 9 -5 13
-11 10 -7 -5 -2 -16 12 -31 12 -13 19 -27 15 -31 -4 -4 -11 -1 -16 7 -9 14
-14 7 -11 -13 1 -5 -3 -6 -9 -2 -14 9 -12 72 3 78 23 10 37 7 37 -7z m-4253
-11 c-4 -8 -2 -17 4 -20 5 -4 13 4 18 17 9 22 10 22 10 -5 1 -24 -3 -28 -21
-25 -24 3 -40 48 -18 48 7 0 10 -7 7 -15z m894 -3 c8 2 17 8 21 13 4 6 8 -2 8
-17 0 -23 -4 -27 -22 -25 -26 2 -38 14 -38 37 0 12 2 12 9 2 4 -7 14 -12 22
-10z m216 6 c13 15 13 14 7 -8 -3 -14 -9 -27 -11 -30 -6 -7 -33 31 -32 44 0 6
5 3 12 -6 10 -15 12 -15 24 0z m2774 -28 c5 0 14 10 19 23 8 21 9 21 9 -5 1
-23 -3 -28 -24 -28 -21 0 -25 4 -24 28 2 23 2 24 6 5 2 -13 9 -23 14 -23z
m-2158 -82 c-8 -13 -8 -16 -12 -58 -3 -25 -3 -24 -11 4 -9 30 2 66 21 66 6 0
7 -6 2 -12z m-1793 -19 c0 -16 3 -19 13 -11 9 8 12 3 13 -19 1 -23 -2 -27 -12
-18 -10 8 -14 9 -14 0 0 -6 -4 -11 -10 -11 -5 0 -10 18 -10 40 0 22 5 40 10
40 6 0 10 -10 10 -21z m153 -2 c26 -10 18 -51 -10 -55 -21 -3 -23 1 -23 40 0
24 4 38 8 32 4 -6 15 -13 25 -17z m1500 0 c18 -7 25 -57 7 -57 -5 0 -10 12
-10 27 0 29 -15 22 -23 -12 -3 -11 -5 0 -6 25 0 25 3 40 7 34 4 -6 15 -13 25
-17z m1573 8 c4 -8 0 -22 -7 -31 -10 -13 -10 -17 2 -25 10 -6 6 -9 -15 -9 -28
0 -28 1 -13 18 19 21 22 42 7 42 -5 0 -10 5 -10 10 0 16 30 12 36 -5z m58 -22
c-17 -40 -43 -74 -29 -38 4 11 12 32 17 48 5 15 14 27 18 27 5 0 2 -17 -6 -37z
m74 24 c9 -10 8 -19 -3 -34 -12 -17 -12 -22 -2 -26 6 -3 2 -6 -10 -6 -26 -1
-30 11 -8 29 19 16 19 30 -1 30 -8 0 -12 5 -9 10 8 14 20 13 33 -3z m548 -31
c1 -34 0 -37 -12 -22 -12 16 -13 16 -23 -1 -9 -15 -10 -12 -11 18 0 40 7 51
30 47 10 -2 15 -16 16 -42z m671 0 c-3 -8 0 -19 6 -25 8 -8 6 -11 -8 -11 -17
0 -20 6 -18 37 2 51 2 51 14 30 6 -10 8 -24 6 -31z m755 -23 c8 -10 5 -13 -9
-13 -16 0 -19 5 -15 30 3 21 0 30 -9 30 -11 0 -11 2 1 10 12 7 16 4 18 -18 2
-15 8 -33 14 -39z m61 44 c11 -4 17 -16 16 -34 -1 -26 -1 -26 -7 -5 -4 13 -11
23 -17 23 -5 0 -13 -10 -17 -23 -4 -16 -6 -10 -7 22 0 25 3 40 7 34 4 -6 15
-13 25 -17z m-4834 -13 c-9 -11 -8 -18 1 -29 10 -12 10 -15 -3 -15 -8 0 -17
12 -20 27 -6 34 -1 44 19 36 11 -4 12 -9 3 -19z m955 20 c15 -6 15 -8 -1 -19
-15 -11 -16 -15 -3 -31 13 -15 13 -17 1 -12 -22 7 -35 68 -15 68 1 0 10 -3 18
-6z m-1446 -29 c-5 -24 17 -17 24 7 5 19 6 18 7 -10 1 -29 -2 -33 -21 -30 -17
2 -24 11 -26 32 -2 18 0 26 7 21 7 -3 10 -13 9 -20z m167 14 c4 -6 4 -13 0
-17 -3 -3 -10 -1 -14 7 -6 10 -10 9 -15 -4 -8 -23 -8 -23 12 -28 13 -4 11 -5
-5 -6 -18 -1 -23 4 -23 22 0 13 3 27 7 30 10 10 31 8 38 -4z m125 0 c-11 -8
-12 -12 -2 -16 21 -8 13 -33 -10 -32 -13 0 -17 3 -10 6 10 4 10 8 2 19 -14 16
-5 34 18 34 15 0 15 -2 2 -11z m68 -13 c9 16 11 16 12 3 0 -20 -40 -73 -48
-64 -4 3 0 10 7 14 10 7 10 13 2 29 -6 11 -11 27 -11 34 1 7 7 2 14 -11 13
-23 14 -23 24 -5z m64 15 c-10 -6 -10 -10 2 -21 18 -14 12 -30 -12 -30 -14 0
-14 2 -3 9 11 7 10 11 -4 19 -21 11 -12 32 13 32 13 0 14 -2 4 -9z m148 -6 c9
-10 9 -15 1 -15 -6 0 -11 5 -11 10 0 6 -4 10 -10 10 -17 0 -11 -38 8 -43 12
-4 11 -5 -6 -6 -27 -1 -39 23 -22 44 16 19 24 19 40 0z m77 -21 c2 -28 2 -28
-6 -4 l-7 25 -8 -25 -8 -25 -7 25 -8 25 -5 -25 c-5 -22 -5 -21 -7 8 -1 30 1
32 27 29 22 -3 27 -9 29 -33z m241 8 c9 2 20 8 24 13 4 6 8 -2 8 -17 0 -23 -4
-27 -22 -25 -27 2 -38 15 -37 42 1 17 2 17 6 2 2 -10 12 -16 21 -15z m92 13
c10 -12 9 -15 -4 -15 -10 0 -14 5 -11 10 3 6 1 10 -4 10 -18 0 -12 -38 7 -43
12 -4 11 -5 -6 -6 -27 -1 -39 23 -22 44 16 19 24 19 40 0z m68 -18 c3 -23 0
-27 -22 -27 -16 0 -26 6 -26 15 0 18 16 20 23 3 3 -7 6 -3 6 9 1 12 -5 24 -11
27 -7 3 -4 5 7 3 14 -1 21 -11 23 -30z m56 8 c3 10 9 15 12 12 3 -3 0 -15 -7
-28 -11 -22 -12 -22 -25 -4 -8 10 -14 26 -14 34 1 11 5 8 14 -8 12 -21 14 -21
20 -6z m81 14 c4 -6 4 -13 0 -17 -3 -3 -10 -1 -14 7 -6 10 -10 9 -15 -4 -8
-23 -8 -23 12 -28 13 -4 12 -5 -5 -6 -25 -1 -34 17 -21 42 10 19 33 23 43 6z
m139 -5 c9 -24 7 -44 -4 -44 -5 0 -10 12 -10 26 0 14 -4 23 -10 19 -5 -3 -10
-15 -10 -26 0 -10 -4 -19 -10 -19 -11 0 -14 43 -3 53 12 13 41 7 47 -9z m66 1
c10 -12 10 -15 -3 -15 -8 0 -18 6 -20 13 -3 6 -6 2 -6 -10 -1 -12 5 -24 12
-26 7 -3 5 -6 -6 -6 -20 -1 -32 22 -23 44 3 8 12 15 19 15 8 0 20 -7 27 -15z
m270 7 c0 -4 -6 -14 -12 -20 -10 -10 -10 -15 2 -22 12 -8 10 -10 -7 -10 -26 0
-29 10 -11 28 10 10 10 15 -2 22 -12 8 -10 10 8 10 12 0 22 -4 22 -8z m115 -9
c-16 -16 -16 -17 1 -30 16 -12 16 -13 1 -13 -10 0 -20 7 -23 15 -7 16 12 45
28 45 5 0 2 -8 -7 -17z m85 3 c0 -8 -5 -18 -11 -22 -8 -4 -7 -9 2 -15 10 -6 8
-9 -8 -9 -24 0 -31 14 -12 25 6 4 8 13 5 21 -3 8 1 14 9 14 8 0 15 -6 15 -14z
m2117 -21 c2 -25 1 -26 -5 -7 -9 30 -25 30 -34 0 -5 -19 -6 -18 -7 10 -1 29 2
33 22 30 17 -2 22 -10 24 -33z m67 19 c9 -24 7 -44 -4 -44 -5 0 -10 12 -10 27
0 30 -15 22 -22 -12 -5 -18 -6 -18 -13 -2 -4 9 -5 24 -1 32 7 20 42 19 50 -1z
m57 -17 c6 -21 4 -27 -9 -27 -12 0 -17 9 -17 30 0 36 16 34 26 -3z m76 -2 c1
-18 -1 -22 -4 -10 -6 26 -23 43 -24 27 -3 -26 -4 -31 -11 -38 -5 -4 -8 4 -8
18 0 49 44 52 47 3z m73 21 c0 -8 -5 -18 -10 -21 -8 -5 -7 -11 1 -21 6 -8 9
-18 5 -21 -4 -4 -11 -1 -16 7 -7 10 -10 11 -10 3 0 -7 -4 -13 -10 -13 -11 0
-14 63 -3 73 12 13 43 7 43 -7z m-369 -36 c5 0 14 10 19 23 8 21 9 21 9 -5 1
-23 -3 -28 -24 -28 -21 0 -25 4 -24 28 2 23 2 24 6 5 2 -13 9 -23 14 -23z
m-3661 26 c0 -3 -4 -8 -10 -11 -5 -3 -10 -1 -10 4 0 6 5 11 10 11 6 0 10 -2
10 -4z m1020 0 c0 -3 -4 -8 -10 -11 -5 -3 -10 -1 -10 4 0 6 5 11 10 11 6 0 10
-2 10 -4z"/>
<path d="M535 2070 c-8 -13 4 -32 16 -25 12 8 12 35 0 35 -6 0 -13 -4 -16 -10z"/>
<path d="M1370 2065 c0 -8 5 -15 10 -15 6 0 10 7 10 15 0 8 -4 15 -10 15 -5 0
-10 -7 -10 -15z"/>
<path d="M1930 2059 c0 -11 5 -17 10 -14 6 3 10 13 10 21 0 8 -4 14 -10 14 -5
0 -10 -9 -10 -21z"/>
<path d="M1302 2066 c1 -10 8 -17 13 -17 15 1 12 24 -3 29 -9 3 -13 -2 -10
-12z"/>
<path d="M955 2070 c3 -5 8 -10 11 -10 2 0 4 5 4 10 0 6 -5 10 -11 10 -5 0 -7
-4 -4 -10z"/>
<path d="M1235 2070 c-4 -6 -3 -16 3 -22 6 -6 12 -6 17 2 4 6 3 16 -3 22 -6 6
-12 6 -17 -2z"/>
<path d="M261 1844 c0 -11 3 -14 6 -6 3 7 2 16 -1 19 -3 4 -6 -2 -5 -13z"/>
<path d="M530 1855 c0 -8 5 -15 10 -15 6 0 10 7 10 15 0 8 -4 15 -10 15 -5 0
-10 -7 -10 -15z"/>
<path d="M1210 1840 c0 -5 5 -10 10 -10 6 0 10 5 10 10 0 6 -4 10 -10 10 -5 0
-10 -4 -10 -10z"/>
<path d="M3386 1861 c-4 -5 -2 -12 3 -15 5 -4 12 -2 15 3 4 5 2 12 -3 15 -5 4
-12 2 -15 -3z"/>
<path d="M3589 1865 c-5 -23 -1 -49 8 -52 13 -5 24 22 17 42 -6 14 -23 21 -25
10z"/>
<path d="M3525 1840 c3 -5 8 -10 11 -10 2 0 4 5 4 10 0 6 -5 10 -11 10 -5 0
-7 -4 -4 -10z"/>
<path d="M4205 1840 c3 -5 8 -10 11 -10 2 0 4 5 4 10 0 6 -5 10 -11 10 -5 0
-7 -4 -4 -10z"/>
<path d="M4745 1860 c-3 -5 1 -10 10 -10 9 0 13 5 10 10 -3 6 -8 10 -10 10 -2
0 -7 -4 -10 -10z"/>
<path d="M5020 1840 c0 -5 5 -10 10 -10 6 0 10 5 10 10 0 6 -4 10 -10 10 -5 0
-10 -4 -10 -10z"/>
<path d="M5085 1860 c-3 -5 1 -10 10 -10 9 0 13 5 10 10 -3 6 -8 10 -10 10 -2
0 -7 -4 -10 -10z"/>
<path d="M325 1690 c-8 -13 4 -32 16 -25 12 8 12 35 0 35 -6 0 -13 -4 -16 -10z"/>
<path d="M1410 1685 c0 -9 5 -15 11 -13 6 2 11 8 11 13 0 5 -5 11 -11 13 -6 2
-11 -4 -11 -13z"/>
<path d="M1955 1690 c-8 -13 4 -32 16 -25 12 8 12 35 0 35 -6 0 -13 -4 -16
-10z"/>
<path d="M1755 1710 c3 -5 8 -10 11 -10 2 0 4 5 4 10 0 6 -5 10 -11 10 -5 0
-7 -4 -4 -10z"/>
<path d="M1756 1681 c-4 -5 -2 -12 3 -15 5 -4 12 -2 15 3 4 5 2 12 -3 15 -5 4
-12 2 -15 -3z"/>
<path d="M2092 1681 c4 -13 18 -16 19 -4 0 4 -5 9 -11 12 -7 2 -11 -2 -8 -8z"/>
<path d="M2165 1710 c3 -5 8 -10 11 -10 2 0 4 5 4 10 0 6 -5 10 -11 10 -5 0
-7 -4 -4 -10z"/>
<path d="M2165 1681 c-3 -5 -1 -12 5 -16 5 -3 10 1 10 9 0 18 -6 21 -15 7z"/>
<path d="M2227 1714 c-8 -8 1 -24 14 -24 5 0 9 7 9 15 0 15 -12 20 -23 9z"/>
<path d="M4065 1710 c-3 -5 1 -10 10 -10 9 0 13 5 10 10 -3 6 -8 10 -10 10 -2
0 -7 -4 -10 -10z"/>
<path d="M4745 1710 c-3 -5 -1 -10 4 -10 6 0 11 5 11 10 0 6 -2 10 -4 10 -3 0
-8 -4 -11 -10z"/>
<path d="M4757 1683 c-4 -3 -7 -11 -7 -17 0 -6 5 -5 12 2 6 6 9 14 7 17 -3 3
-9 2 -12 -2z"/>
<path d="M1204 1689 c-3 -6 -1 -16 5 -22 9 -9 14 -8 21 3 9 15 4 30 -10 30 -5
0 -12 -5 -16 -11z"/>
<path d="M2435 1690 c-8 -13 4 -32 16 -25 12 8 12 35 0 35 -6 0 -13 -4 -16
-10z"/>
<path d="M4475 1690 c3 -5 8 -10 11 -10 2 0 4 5 4 10 0 6 -5 10 -11 10 -5 0
-7 -4 -4 -10z"/>
<path d="M325 1540 c-8 -13 4 -32 16 -25 12 8 12 35 0 35 -6 0 -13 -4 -16 -10z"/>
<path d="M1410 1534 c0 -9 5 -14 12 -12 18 6 21 28 4 28 -9 0 -16 -7 -16 -16z"/>
<path d="M1957 1544 c-8 -8 1 -24 14 -24 5 0 9 7 9 15 0 15 -12 20 -23 9z"/>
<path d="M2570 1535 c0 -8 5 -15 10 -15 6 0 10 7 10 15 0 8 -4 15 -10 15 -5 0
-10 -7 -10 -15z"/>
<path d="M1755 1560 c4 -6 11 -8 16 -5 14 9 11 15 -7 15 -8 0 -12 -5 -9 -10z"/>
<path d="M1755 1530 c-3 -5 1 -10 10 -10 9 0 13 5 10 10 -3 6 -8 10 -10 10 -2
0 -7 -4 -10 -10z"/>
<path d="M2092 1529 c2 -6 8 -10 13 -10 5 0 11 4 13 10 2 6 -4 11 -13 11 -9 0
-15 -5 -13 -11z"/>
<path d="M2165 1560 c3 -5 8 -10 11 -10 2 0 4 5 4 10 0 6 -5 10 -11 10 -5 0
-7 -4 -4 -10z"/>
<path d="M2160 1530 c0 -5 5 -10 10 -10 6 0 10 5 10 10 0 6 -4 10 -10 10 -5 0
-10 -4 -10 -10z"/>
<path d="M2227 1564 c-8 -8 1 -24 14 -24 5 0 9 7 9 15 0 15 -12 20 -23 9z"/>
<path d="M2632 1558 c6 -18 28 -21 28 -4 0 9 -7 16 -16 16 -9 0 -14 -5 -12
-12z"/>
<path d="M4060 1560 c0 -5 5 -10 10 -10 6 0 10 5 10 10 0 6 -4 10 -10 10 -5 0
-10 -4 -10 -10z"/>
<path d="M4745 1560 c-3 -5 -2 -10 4 -10 5 0 13 5 16 10 3 6 2 10 -4 10 -5 0
-13 -4 -16 -10z"/>
<path d="M4750 1530 c0 -5 5 -10 10 -10 6 0 10 5 10 10 0 6 -4 10 -10 10 -5 0
-10 -4 -10 -10z"/>
<path d="M1205 1541 c-7 -12 12 -24 25 -16 11 7 4 25 -10 25 -5 0 -11 -4 -15
-9z"/>
<path d="M2500 1535 c0 -8 5 -15 10 -15 6 0 10 7 10 15 0 8 -4 15 -10 15 -5 0
-10 -7 -10 -15z"/>
<path d="M325 1389 c-4 -6 -5 -13 -2 -16 7 -7 27 6 27 18 0 12 -17 12 -25 -2z"/>
<path d="M1345 1391 c-3 -5 -1 -12 4 -15 5 -3 11 1 15 9 6 16 -9 21 -19 6z"/>
<path d="M4750 1380 c0 -5 5 -10 10 -10 6 0 10 5 10 10 0 6 -4 10 -10 10 -5 0
-10 -4 -10 -10z"/>
<path d="M1280 1241 c0 -12 5 -21 10 -21 6 0 10 6 10 14 0 8 -4 18 -10 21 -5
3 -10 -3 -10 -14z"/>
<path d="M4066 1271 c-4 -5 -2 -12 3 -15 5 -4 12 -2 15 3 4 5 2 12 -3 15 -5 4
-12 2 -15 -3z"/>
<path d="M4740 1260 c0 -5 4 -10 10 -10 5 0 7 -7 4 -15 -4 -8 -1 -15 5 -15 6
0 10 11 9 25 -2 23 -28 37 -28 15z"/>
<path d="M1554 1247 c-8 -21 2 -35 16 -21 5 5 6 15 0 24 -8 12 -10 12 -16 -3z"/>
<path d="M327 1103 c-13 -12 -7 -33 8 -33 8 0 15 9 15 20 0 20 -11 26 -23 13z"/>
<path d="M1280 1090 c0 -11 5 -20 10 -20 6 0 10 9 10 20 0 11 -4 20 -10 20 -5
0 -10 -9 -10 -20z"/>
<path d="M4066 1121 c-4 -5 -2 -12 3 -15 5 -4 12 -2 15 3 4 5 2 12 -3 15 -5 4
-12 2 -15 -3z"/>
<path d="M4744 1119 c-4 -7 -3 -14 4 -17 6 -2 8 -10 5 -18 -3 -8 0 -14 6 -14
7 0 10 11 8 25 -4 31 -13 40 -23 24z"/>
<path d="M1544 1099 c-10 -17 13 -36 27 -22 12 12 4 33 -11 33 -5 0 -12 -5
-16 -11z"/>
<path d="M1820 1090 c0 -13 5 -20 13 -17 6 2 12 10 12 17 0 7 -6 15 -12 18 -8
2 -13 -5 -13 -18z"/>
<path d="M2500 1100 c0 -5 5 -10 10 -10 6 0 10 5 10 10 0 6 -4 10 -10 10 -5 0
-10 -4 -10 -10z"/>
<path d="M4470 1100 c0 -5 5 -10 10 -10 6 0 10 5 10 10 0 6 -4 10 -10 10 -5 0
-10 -4 -10 -10z"/>
<path d="M323 945 c-3 -9 -3 -18 0 -21 9 -9 27 6 27 22 0 19 -19 18 -27 -1z"/>
<path d="M1280 940 c0 -11 5 -20 10 -20 6 0 10 9 10 20 0 11 -4 20 -10 20 -5
0 -10 -9 -10 -20z"/>
<path d="M1960 935 c0 -8 5 -15 10 -15 6 0 10 7 10 15 0 8 -4 15 -10 15 -5 0
-10 -7 -10 -15z"/>
<path d="M2160 935 c0 -9 5 -15 11 -13 6 2 11 8 11 13 0 5 -5 11 -11 13 -6 2
-11 -4 -11 -13z"/>
<path d="M4066 971 c-4 -5 -2 -12 3 -15 5 -4 12 -2 15 3 4 5 2 12 -3 15 -5 4
-12 2 -15 -3z"/>
<path d="M4745 969 c-9 -14 -2 -20 14 -10 8 6 9 11 3 15 -6 3 -14 1 -17 -5z"/>
<path d="M4757 943 c-4 -3 -7 -11 -7 -17 0 -6 5 -5 12 2 6 6 9 14 7 17 -3 3
-9 2 -12 -2z"/>
<path d="M1484 946 c-8 -22 3 -33 18 -18 9 9 9 15 0 24 -9 9 -13 7 -18 -6z"/>
<path d="M1615 950 c-7 -12 2 -30 16 -30 5 0 9 9 9 20 0 21 -15 27 -25 10z"/>
<path d="M4470 950 c0 -5 5 -10 10 -10 6 0 10 5 10 10 0 6 -4 10 -10 10 -5 0
-10 -4 -10 -10z"/>
<path d="M325 800 c-8 -13 4 -32 16 -25 12 8 12 35 0 35 -6 0 -13 -4 -16 -10z"/>
<path d="M1280 789 c0 -11 5 -17 10 -14 6 3 10 13 10 21 0 8 -4 14 -10 14 -5
0 -10 -9 -10 -21z"/>
<path d="M4065 820 c-3 -5 1 -10 10 -10 9 0 13 5 10 10 -3 6 -8 10 -10 10 -2
0 -7 -4 -10 -10z"/>
<path d="M4745 820 c-3 -5 -1 -10 4 -10 6 0 11 5 11 10 0 6 -2 10 -4 10 -3 0
-8 -4 -11 -10z"/>
<path d="M4757 793 c-4 -3 -7 -11 -7 -17 0 -6 5 -5 12 2 6 6 9 14 7 17 -3 3
-9 2 -12 -2z"/>
<path d="M1480 790 c0 -11 4 -20 9 -20 11 0 22 26 14 34 -12 12 -23 5 -23 -14z"/>
<path d="M1615 800 c-8 -13 4 -32 16 -25 12 8 12 35 0 35 -6 0 -13 -4 -16 -10z"/>
<path d="M325 650 c-8 -13 4 -32 16 -25 12 8 12 35 0 35 -6 0 -13 -4 -16 -10z"/>
<path d="M1280 639 c0 -11 5 -17 10 -14 6 3 10 13 10 21 0 8 -4 14 -10 14 -5
0 -10 -9 -10 -21z"/>
<path d="M1750 644 c0 -9 5 -14 12 -12 18 6 21 28 4 28 -9 0 -16 -7 -16 -16z"/>
<path d="M4745 670 c-3 -5 -2 -10 4 -10 5 0 13 5 16 10 3 6 2 10 -4 10 -5 0
-13 -4 -16 -10z"/>
<path d="M4750 640 c0 -5 5 -10 10 -10 6 0 10 5 10 10 0 6 -4 10 -10 10 -5 0
-10 -4 -10 -10z"/>
<path d="M2095 530 c-3 -5 1 -10 10 -10 9 0 13 5 10 10 -3 6 -8 10 -10 10 -2
0 -7 -4 -10 -10z"/>
<path d="M2090 490 c0 -5 7 -10 16 -10 8 0 12 5 9 10 -3 6 -10 10 -16 10 -5 0
-9 -4 -9 -10z"/>
<path d="M4065 520 c3 -5 8 -10 11 -10 2 0 4 5 4 10 0 6 -5 10 -11 10 -5 0 -7
-4 -4 -10z"/>
<path d="M326 363 c-12 -12 -6 -33 9 -33 8 0 15 6 15 14 0 17 -14 28 -24 19z"/>
<path d="M4066 381 c-4 -5 -2 -12 3 -15 5 -4 12 -2 15 3 4 5 2 12 -3 15 -5 4
-12 2 -15 -3z"/>
<path d="M4475 360 c-3 -5 -1 -10 4 -10 6 0 11 5 11 10 0 6 -2 10 -4 10 -3 0
-8 -4 -11 -10z"/>
</g>
</svg>
